<?xml version="1.0" encoding="utf-8" standalone="no"?>
<!DOCTYPE svg PUBLIC "-//W3C//DTD SVG 1.1//EN"
  "http://www.w3.org/Graphics/SVG/1.1/DTD/svg11.dtd">
<svg xmlns:xlink="http://www.w3.org/1999/xlink" width="720pt" height="360pt" viewBox="0 0 720 360" xmlns="http://www.w3.org/2000/svg" version="1.1">
 <metadata>
  <rdf:RDF xmlns:dc="http://purl.org/dc/elements/1.1/" xmlns:cc="http://creativecommons.org/ns#" xmlns:rdf="http://www.w3.org/1999/02/22-rdf-syntax-ns#">
   <cc:Work>
    <dc:type rdf:resource="http://purl.org/dc/dcmitype/StillImage"/>
    <dc:date>2022-06-13T21:28:58.389635</dc:date>
    <dc:format>image/svg+xml</dc:format>
    <dc:creator>
     <cc:Agent>
      <dc:title>Matplotlib v3.5.2, https://matplotlib.org/</dc:title>
     </cc:Agent>
    </dc:creator>
   </cc:Work>
  </rdf:RDF>
 </metadata>
 <defs>
  <style type="text/css">*{stroke-linejoin: round; stroke-linecap: butt}</style>
 </defs>
 <g id="figure_1">
  <g id="patch_1">
   <path d="M 0 360 
L 720 360 
L 720 0 
L 0 0 
L 0 360 
z
" style="fill: none"/>
  </g>
  <g id="axes_1">
   <g id="patch_2">
    <path d="M 90 320.4 
L 648 320.4 
L 648 43.2 
L 90 43.2 
L 90 320.4 
z
" style="fill: none"/>
   </g>
   <g id="PolyCollection_1">
    <path d="M 115.363636 999.110911 
L 115.363636 1565.072644 
L 116.210502 1303.201113 
L 117.057368 1278.929311 
L 117.904234 1323.761762 
L 118.7511 1264.214194 
L 119.597966 1397.267299 
L 120.444832 1607.667386 
L 121.291698 1555.335902 
L 122.138564 1540.131423 
L 122.98543 1514.735536 
L 123.832296 1507.449171 
L 124.679162 1505.075927 
L 125.526028 1479.62122 
L 126.372894 1457.599695 
L 127.21976 1455.1177 
L 128.066626 1434.578955 
L 128.913492 1441.85386 
L 129.760358 1453.871546 
L 130.607224 1445.877715 
L 131.45409 1400.604952 
L 132.300956 1344.379574 
L 133.147822 1293.494791 
L 133.994688 1247.08251 
L 134.841554 1203.144341 
L 135.68842 1162.961581 
L 136.535286 1125.167549 
L 137.382152 1089.86675 
L 138.229018 1056.981771 
L 139.075884 1026.640268 
L 139.92275 999.074106 
L 140.769616 972.546579 
L 141.616482 948.607116 
L 142.463348 924.520852 
L 143.310214 901.996629 
L 144.15708 882.317512 
L 145.003946 864.780496 
L 145.850812 847.732627 
L 146.697678 829.526984 
L 147.544544 812.847731 
L 148.39141 797.357238 
L 149.238276 782.894813 
L 150.085142 768.179535 
L 150.932008 754.964823 
L 151.778874 742.618521 
L 152.62574 729.544614 
L 153.472606 718.813162 
L 154.319472 707.820643 
L 155.166338 695.917206 
L 156.013204 686.153868 
L 156.86007 677.095525 
L 157.706936 667.714256 
L 158.553802 658.396614 
L 159.400668 648.295428 
L 160.247534 638.869249 
L 161.0944 631.24328 
L 161.941266 622.390182 
L 162.788132 613.940452 
L 163.634998 605.927536 
L 164.481864 599.762047 
L 165.32873 593.477822 
L 166.175596 587.390805 
L 167.022462 581.044211 
L 167.869328 574.036341 
L 168.716194 568.498102 
L 169.56306 562.794166 
L 170.409926 557.208968 
L 171.256792 551.251206 
L 172.103658 546.205047 
L 172.950524 540.439175 
L 173.79739 535.094851 
L 174.644256 530.08754 
L 175.491122 524.440267 
L 176.337988 519.362203 
L 177.184854 513.920603 
L 178.03172 508.937255 
L 178.878586 503.933159 
L 179.725452 499.251903 
L 180.572317 494.801751 
L 181.419183 490.453567 
L 182.266049 486.561198 
L 183.112915 482.945648 
L 183.959781 478.723554 
L 184.806647 474.518819 
L 185.653513 470.935701 
L 186.500379 466.903619 
L 187.347245 463.359005 
L 188.194111 459.352002 
L 189.040977 455.648335 
L 189.887843 452.688057 
L 190.734709 449.381714 
L 191.581575 446.538208 
L 192.428441 443.001244 
L 193.275307 439.598501 
L 194.122173 436.461656 
L 194.969039 433.399706 
L 195.815905 430.335307 
L 196.662771 427.140845 
L 197.509637 424.087132 
L 198.356503 421.276556 
L 199.203369 418.386567 
L 200.050235 415.824547 
L 200.897101 401.562993 
L 201.743967 392.479562 
L 202.590833 381.389555 
L 203.437699 368.063075 
L 204.284565 359.145334 
L 205.131431 339.978798 
L 205.978297 312.847797 
L 206.825163 302.152189 
L 207.672029 289.320471 
L 208.518895 277.883654 
L 209.365761 264.75416 
L 210.212627 251.322278 
L 211.059493 241.112492 
L 211.906359 231.331263 
L 212.753225 218.968781 
L 213.600091 209.389536 
L 214.446957 195.100006 
L 215.293823 179.658554 
L 216.140689 167.862504 
L 216.987555 163.625648 
L 217.834421 162.492928 
L 218.681287 161.492948 
L 219.528153 161.067234 
L 220.375019 160.16506 
L 221.221885 159.36557 
L 222.068751 159.041331 
L 222.915617 158.757446 
L 223.762483 158.101579 
L 224.609349 157.516356 
L 225.456215 156.853631 
L 226.303081 157.240249 
L 227.149947 156.362161 
L 227.996813 155.832335 
L 228.843679 155.194775 
L 229.690545 154.055281 
L 230.537411 152.704885 
L 231.384277 151.854101 
L 232.231143 151.738764 
L 233.078009 151.121155 
L 233.924875 151.256313 
L 234.771741 151.305465 
L 235.618607 151.311634 
L 236.465473 151.306828 
L 237.312339 151.164782 
L 238.159205 150.865741 
L 239.006071 150.964075 
L 239.852937 150.345908 
L 240.699803 150.333831 
L 241.546669 151.190197 
L 242.393535 151.804727 
L 243.240401 152.705662 
L 244.087267 153.023159 
L 244.934133 153.962657 
L 245.780999 154.768768 
L 246.627865 155.727737 
L 247.474731 156.129004 
L 248.321597 161.828625 
L 249.168463 193.495283 
L 250.015329 242.420207 
L 250.862195 293.181612 
L 251.709061 340.994655 
L 252.555927 390.043613 
L 253.402793 431.088119 
L 254.249659 471.86406 
L 255.096525 511.839603 
L 255.94339 554.380197 
L 256.790256 589.323221 
L 257.637122 624.519564 
L 258.483988 653.683477 
L 259.330854 674.868278 
L 260.17772 676.358088 
L 261.024586 686.32666 
L 261.871452 693.132523 
L 262.718318 694.40677 
L 263.565184 696.238227 
L 264.41205 697.745487 
L 265.258916 699.38971 
L 266.105782 701.847143 
L 266.952648 701.807776 
L 267.799514 702.211468 
L 268.64638 703.222324 
L 269.493246 703.230068 
L 270.340112 704.226244 
L 271.186978 704.132097 
L 272.033844 703.671649 
L 272.88071 703.489232 
L 273.727576 703.00374 
L 274.574442 703.210455 
L 275.421308 705.10089 
L 276.268174 704.71143 
L 277.11504 704.443833 
L 277.961906 704.448562 
L 278.808772 703.992791 
L 279.655638 703.519098 
L 280.502504 703.252988 
L 281.34937 703.203459 
L 282.196236 702.605998 
L 283.043102 702.29704 
L 283.889968 701.996255 
L 284.736834 703.612709 
L 285.5837 705.882684 
L 286.430566 707.864804 
L 287.277432 710.464433 
L 288.124298 712.082784 
L 288.971164 712.21404 
L 289.81803 711.897191 
L 290.664896 714.219339 
L 291.511762 714.711699 
L 292.358628 713.924928 
L 293.205494 712.901225 
L 294.05236 711.960719 
L 294.899226 711.782016 
L 295.746092 710.558016 
L 296.592958 710.798083 
L 297.439824 710.469297 
L 298.28669 709.646515 
L 299.133556 708.38162 
L 299.980422 706.950709 
L 300.827288 706.687869 
L 301.674154 706.437687 
L 302.52102 706.083064 
L 303.367886 706.310841 
L 304.214752 706.997202 
L 305.061618 707.739264 
L 305.908484 708.074728 
L 306.75535 708.284617 
L 307.602216 708.698098 
L 308.449082 709.43659 
L 309.295948 710.408735 
L 310.142814 710.78605 
L 310.98968 711.369016 
L 311.836546 712.0772 
L 312.683412 712.796037 
L 313.530278 713.484152 
L 314.377144 714.528031 
L 315.22401 715.494438 
L 316.070876 716.466476 
L 316.917742 717.26846 
L 317.764608 718.444757 
L 318.611474 719.149674 
L 319.45834 719.893165 
L 320.305206 720.668645 
L 321.152072 721.584736 
L 321.998938 722.503691 
L 322.845804 723.686543 
L 323.69267 724.988859 
L 324.539536 726.144181 
L 325.386402 726.982004 
L 326.233268 727.994892 
L 327.080134 728.951896 
L 327.927 729.498487 
L 328.773866 730.474224 
L 329.620732 730.775409 
L 330.467598 731.388242 
L 331.314463 732.61117 
L 332.161329 733.378759 
L 333.008195 734.585233 
L 333.855061 722.773393 
L 334.701927 692.116012 
L 335.548793 644.165129 
L 336.395659 594.645016 
L 337.242525 547.809488 
L 338.089391 499.981711 
L 338.936257 460.038137 
L 339.783123 420.333052 
L 340.629989 381.424804 
L 341.476855 367.731437 
L 342.323721 368.676395 
L 343.170587 370.087505 
L 344.017453 371.189764 
L 344.864319 371.594041 
L 345.711185 372.705381 
L 346.558051 372.725832 
L 347.404917 373.775385 
L 348.251783 375.066876 
L 349.098649 375.663064 
L 349.945515 376.079188 
L 350.792381 376.598734 
L 351.639247 377.514771 
L 352.486113 377.763094 
L 353.332979 377.705598 
L 354.179845 377.989742 
L 355.026711 377.779027 
L 355.873577 378.071363 
L 356.720443 377.826885 
L 357.567309 378.196351 
L 358.414175 378.377832 
L 359.261041 377.938932 
L 360.107907 377.779892 
L 360.954773 377.630634 
L 361.801639 377.38519 
L 362.648505 377.863127 
L 363.495371 377.200036 
L 364.342237 377.390133 
L 365.189103 376.884188 
L 366.035969 376.751944 
L 366.882835 376.414521 
L 367.729701 376.153458 
L 368.576567 376.61508 
L 369.423433 376.937857 
L 370.270299 376.88138 
L 371.117165 376.949231 
L 371.964031 377.413176 
L 372.810897 377.894111 
L 373.657763 375.63936 
L 374.504629 375.13389 
L 375.351495 375.744139 
L 376.198361 376.75507 
L 377.045227 377.958263 
L 377.892093 378.685359 
L 378.738959 379.504027 
L 379.585825 379.858301 
L 380.432691 380.626003 
L 381.279557 381.495903 
L 382.126423 381.915067 
L 382.973289 382.347489 
L 383.820155 383.040319 
L 384.667021 370.911417 
L 385.513887 353.876782 
L 386.360753 352.874103 
L 387.207619 336.011585 
L 388.054485 301.508006 
L 388.901351 296.868498 
L 389.748217 283.512559 
L 390.595083 276.742365 
L 391.441949 256.181193 
L 392.288815 255.323593 
L 393.135681 235.393278 
L 393.982547 233.905611 
L 394.829413 233.657307 
L 395.676279 231.701523 
L 396.523145 230.704806 
L 397.370011 229.408092 
L 398.216877 229.342283 
L 399.063743 229.473135 
L 399.910609 230.119687 
L 400.757475 231.095195 
L 401.604341 231.029978 
L 402.451207 230.719592 
L 403.298073 235.049538 
L 404.144939 237.431721 
L 404.991805 237.427916 
L 405.838671 232.674101 
L 406.685537 222.193314 
L 407.532402 222.291447 
L 408.379268 223.287924 
L 409.226134 224.094414 
L 410.073 224.181392 
L 410.919866 224.386688 
L 411.766732 224.657921 
L 412.613598 224.461053 
L 413.460464 224.164791 
L 414.30733 224.171443 
L 415.154196 224.524157 
L 416.001062 224.551584 
L 416.847928 225.410473 
L 417.694794 226.091282 
L 418.54166 226.567884 
L 419.388526 227.031423 
L 420.235392 227.680177 
L 421.082258 228.27572 
L 421.929124 228.83106 
L 422.77599 228.956176 
L 423.622856 229.356209 
L 424.469722 229.723087 
L 425.316588 230.166934 
L 426.163454 230.650003 
L 427.01032 231.217875 
L 427.857186 231.809676 
L 428.704052 231.503147 
L 429.550918 231.982283 
L 430.397784 232.257493 
L 431.24465 230.261015 
L 432.091516 220.996281 
L 432.938382 205.846433 
L 433.785248 205.743091 
L 434.632114 205.728626 
L 435.47898 205.591499 
L 436.325846 205.572685 
L 437.172712 205.363783 
L 438.019578 205.181969 
L 438.866444 205.232408 
L 439.71331 205.177474 
L 440.560176 205.209592 
L 441.407042 204.805601 
L 442.253908 204.682108 
L 443.100774 205.264611 
L 443.94764 205.399501 
L 444.794506 205.15973 
L 445.641372 205.10855 
L 446.488238 204.583222 
L 447.335104 205.61175 
L 448.18197 205.83136 
L 449.028836 207.198823 
L 449.875702 207.784273 
L 450.722568 208.969346 
L 451.569434 209.773042 
L 452.4163 210.817315 
L 453.263166 211.91211 
L 454.110032 212.288066 
L 454.956898 212.470829 
L 455.803764 213.356942 
L 456.65063 214.338567 
L 457.497496 214.975356 
L 458.344362 215.620642 
L 459.191228 216.186359 
L 460.038094 216.588671 
L 460.88496 217.190158 
L 461.731826 217.480217 
L 462.578692 217.555622 
L 463.425558 217.572448 
L 464.272424 217.196945 
L 465.11929 217.766265 
L 465.966156 217.676134 
L 466.813022 217.920111 
L 467.659888 218.280542 
L 468.506754 218.370145 
L 469.35362 218.220008 
L 470.200486 218.549957 
L 471.047352 218.791409 
L 471.894218 218.740142 
L 472.741084 219.335642 
L 473.58795 219.343738 
L 474.434816 219.666043 
L 475.281682 219.869676 
L 476.128548 219.463911 
L 476.975414 219.461012 
L 477.82228 219.775276 
L 478.669146 226.536272 
L 479.516012 226.193116 
L 480.362878 226.115176 
L 481.209744 227.404699 
L 482.05661 227.670478 
L 482.903475 227.307729 
L 483.750341 226.59727 
L 484.597207 226.450871 
L 485.444073 226.105803 
L 486.290939 230.791801 
L 487.137805 255.886485 
L 487.984671 298.718887 
L 488.831537 348.041117 
L 489.678403 377.96143 
L 490.525269 401.341328 
L 491.372135 430.672867 
L 492.219001 462.346079 
L 493.065867 500.587789 
L 493.912733 545.798788 
L 494.759599 579.615419 
L 495.606465 604.409835 
L 496.453331 619.862161 
L 497.300197 636.471256 
L 498.147063 641.748371 
L 498.993929 644.434056 
L 499.840795 650.280703 
L 500.687661 659.841839 
L 501.534527 660.004917 
L 502.381393 661.070471 
L 503.228259 662.397037 
L 504.075125 663.414533 
L 504.921991 667.072492 
L 505.768857 668.83953 
L 506.615723 670.254086 
L 507.462589 673.760533 
L 508.309455 682.497442 
L 509.156321 685.20362 
L 510.003187 687.842883 
L 510.850053 690.688726 
L 511.696919 692.176642 
L 512.543785 693.488339 
L 513.390651 694.39101 
L 514.237517 695.573449 
L 515.084383 696.472647 
L 515.931249 696.811912 
L 516.778115 697.003411 
L 517.624981 698.509684 
L 518.471847 701.798052 
L 519.318713 703.082465 
L 520.165579 702.864584 
L 521.012445 702.929858 
L 521.859311 702.991853 
L 522.706177 705.469473 
L 523.553043 709.870328 
L 524.399909 710.017882 
L 525.246775 710.316184 
L 526.093641 712.405284 
L 526.940507 714.950176 
L 527.787373 717.309011 
L 528.634239 716.886515 
L 529.481105 716.047976 
L 530.327971 715.877608 
L 531.174837 716.257943 
L 532.021703 716.685549 
L 532.868569 717.074813 
L 533.715435 717.381704 
L 534.562301 718.558997 
L 535.409167 719.281717 
L 536.256033 716.673955 
L 537.102899 711.350956 
L 537.949765 712.739024 
L 538.796631 713.372572 
L 539.643497 714.729508 
L 540.490363 715.625905 
L 541.337229 716.62335 
L 542.184095 717.175915 
L 543.030961 718.134288 
L 543.877827 718.980732 
L 544.724693 719.448265 
L 545.571559 719.986297 
L 546.418425 720.768094 
L 547.265291 721.392875 
L 548.112157 721.951107 
L 548.959023 723.022229 
L 549.805889 723.466251 
L 550.652755 724.22018 
L 551.499621 724.575012 
L 552.346487 715.769813 
L 553.193353 710.801964 
L 554.040219 711.658953 
L 554.887085 712.977911 
L 555.733951 714.294876 
L 556.580817 715.328806 
L 557.427683 716.700804 
L 558.274548 717.913876 
L 559.121414 718.861861 
L 559.96828 719.445499 
L 560.815146 718.329836 
L 561.662012 709.695658 
L 562.508878 695.306171 
L 563.355744 675.635002 
L 564.20261 663.662882 
L 565.049476 664.507525 
L 565.896342 665.726722 
L 566.743208 665.670751 
L 567.590074 666.690579 
L 568.43694 667.666189 
L 569.283806 668.711663 
L 570.130672 669.846427 
L 570.977538 671.010809 
L 571.824404 667.337234 
L 572.67127 643.091336 
L 573.518136 601.35856 
L 574.365002 552.584909 
L 575.211868 523.016422 
L 576.058734 499.005502 
L 576.9056 470.435221 
L 577.752466 439.477374 
L 578.599332 437.22283 
L 579.446198 435.776476 
L 580.293064 434.356909 
L 581.13993 433.005969 
L 581.986796 432.0902 
L 582.833662 431.362325 
L 583.680528 430.513421 
L 584.527394 430.223162 
L 585.37426 429.907737 
L 586.221126 430.795695 
L 587.067992 431.263579 
L 587.914858 431.281306 
L 588.761724 430.155166 
L 589.60859 429.287213 
L 590.455456 428.219852 
L 591.302322 427.097334 
L 592.149188 426.608479 
L 592.996054 427.234867 
L 593.84292 432.701291 
L 594.689786 447.850788 
L 595.536652 491.667179 
L 596.383518 537.128222 
L 597.230384 585.65093 
L 598.07725 632.986426 
L 598.924116 683.158438 
L 599.770982 733.467659 
L 600.617848 783.203982 
L 601.464714 831.742299 
L 602.31158 881.798957 
L 603.158446 930.599315 
L 604.005312 979.55692 
L 604.852178 1029.410967 
L 605.699044 1047.989527 
L 606.54591 1048.354157 
L 607.392776 1048.636507 
L 608.239642 1049.200574 
L 609.086508 1049.883188 
L 609.933374 1050.738239 
L 610.78024 1052.580492 
L 611.627106 1054.255 
L 612.473972 1055.490118 
L 613.320838 1056.629645 
L 614.167704 1057.822428 
L 615.01457 1058.72865 
L 615.861436 1058.752384 
L 616.708302 1058.257474 
L 617.555168 1058.436872 
L 618.402034 1061.850552 
L 619.2489 1062.635739 
L 620.095766 1062.26754 
L 620.942632 1063.241364 
L 621.789498 1064.344308 
L 622.636364 1065.526338 
L 622.636364 206.023481 
L 622.636364 206.023481 
L 621.789498 205.974116 
L 620.942632 205.821748 
L 620.095766 205.435418 
L 619.2489 204.818847 
L 618.402034 204.262674 
L 617.555168 204.527955 
L 616.708302 204.618393 
L 615.861436 204.285823 
L 615.01457 204.557525 
L 614.167704 204.325998 
L 613.320838 204.26555 
L 612.473972 204.742578 
L 611.627106 205.31972 
L 610.78024 205.203197 
L 609.933374 205.338933 
L 609.086508 205.157969 
L 608.239642 204.558519 
L 607.392776 204.364512 
L 606.54591 204.599109 
L 605.699044 204.790439 
L 604.852178 204.258057 
L 604.005312 203.49846 
L 603.158446 203.527161 
L 602.31158 203.642887 
L 601.464714 203.706482 
L 600.617848 204.371195 
L 599.770982 204.31975 
L 598.924116 204.310701 
L 598.07725 204.590144 
L 597.230384 204.851848 
L 596.383518 204.804853 
L 595.536652 204.443805 
L 594.689786 204.436487 
L 593.84292 204.089553 
L 592.996054 203.500994 
L 592.149188 203.364728 
L 591.302322 203.434497 
L 590.455456 204.384186 
L 589.60859 204.174878 
L 588.761724 203.649623 
L 587.914858 203.653604 
L 587.067992 203.897612 
L 586.221126 203.874641 
L 585.37426 204.127139 
L 584.527394 203.797889 
L 583.680528 203.598275 
L 582.833662 204.190935 
L 581.986796 203.851809 
L 581.13993 203.839136 
L 580.293064 204.334191 
L 579.446198 204.443727 
L 578.599332 204.839358 
L 577.752466 204.763213 
L 576.9056 204.929137 
L 576.058734 205.031614 
L 575.211868 204.314613 
L 574.365002 203.87846 
L 573.518136 203.482386 
L 572.67127 203.139407 
L 571.824404 203.065922 
L 570.977538 203.24609 
L 570.130672 203.715792 
L 569.283806 203.979616 
L 568.43694 203.727513 
L 567.590074 203.748923 
L 566.743208 204.609369 
L 565.896342 205.473753 
L 565.049476 206.602775 
L 564.20261 207.381848 
L 563.355744 207.687485 
L 562.508878 207.79337 
L 561.662012 208.104013 
L 560.815146 207.773161 
L 559.96828 207.398049 
L 559.121414 207.718695 
L 558.274548 207.578127 
L 557.427683 207.270242 
L 556.580817 207.365417 
L 555.733951 207.713069 
L 554.887085 187.524059 
L 554.040219 167.435781 
L 553.193353 163.969739 
L 552.346487 164.54602 
L 551.499621 165.937788 
L 550.652755 167.296915 
L 549.805889 168.090049 
L 548.959023 169.020856 
L 548.112157 168.678729 
L 547.265291 168.368725 
L 546.418425 169.820354 
L 545.571559 170.168857 
L 544.724693 171.183372 
L 543.877827 172.416669 
L 543.030961 173.542084 
L 542.184095 174.321585 
L 541.337229 174.73095 
L 540.490363 174.99783 
L 539.643497 175.537731 
L 538.796631 176.064083 
L 537.949765 176.885876 
L 537.102899 177.676631 
L 536.256033 177.979593 
L 535.409167 178.160682 
L 534.562301 180.901183 
L 533.715435 182.408758 
L 532.868569 184.012492 
L 532.021703 184.55954 
L 531.174837 185.134063 
L 530.327971 186.525534 
L 529.481105 187.606847 
L 528.634239 188.457156 
L 527.787373 189.382536 
L 526.940507 190.065497 
L 526.093641 190.788337 
L 525.246775 191.495972 
L 524.399909 192.074851 
L 523.553043 192.848748 
L 522.706177 193.699558 
L 521.859311 194.261001 
L 521.012445 194.391704 
L 520.165579 194.327293 
L 519.318713 194.107181 
L 518.471847 193.969996 
L 517.624981 193.93107 
L 516.778115 194.294069 
L 515.931249 194.857777 
L 515.084383 194.319729 
L 514.237517 193.95477 
L 513.390651 194.272982 
L 512.543785 194.693774 
L 511.696919 195.034278 
L 510.850053 195.356007 
L 510.003187 195.5118 
L 509.156321 195.738608 
L 508.309455 195.740447 
L 507.462589 195.816692 
L 506.615723 196.211902 
L 505.768857 196.029909 
L 504.921991 195.531871 
L 504.075125 194.785218 
L 503.228259 194.347815 
L 502.381393 193.729037 
L 501.534527 193.995639 
L 500.687661 193.969322 
L 499.840795 194.790823 
L 498.993929 195.021318 
L 498.147063 195.183845 
L 497.300197 194.845316 
L 496.453331 194.245276 
L 495.606465 193.456564 
L 494.759599 192.310126 
L 493.912733 191.92305 
L 493.065867 191.705664 
L 492.219001 190.513993 
L 491.372135 189.192966 
L 490.525269 188.117216 
L 489.678403 186.463044 
L 488.831537 184.895818 
L 487.984671 183.984153 
L 487.137805 183.054328 
L 486.290939 181.83271 
L 485.444073 180.86574 
L 484.597207 180.738969 
L 483.750341 184.097167 
L 482.903475 183.232164 
L 482.05661 182.16442 
L 481.209744 181.940912 
L 480.362878 180.847231 
L 479.516012 179.790298 
L 478.669146 178.701628 
L 477.82228 177.851748 
L 476.975414 176.48163 
L 476.128548 175.612275 
L 475.281682 167.881922 
L 474.434816 165.510047 
L 473.58795 165.716101 
L 472.741084 165.797829 
L 471.894218 165.82308 
L 471.047352 166.474529 
L 470.200486 167.375377 
L 469.35362 168.528646 
L 468.506754 167.535632 
L 467.659888 166.542197 
L 466.813022 162.726022 
L 465.966156 153.042799 
L 465.11929 152.173269 
L 464.272424 152.442485 
L 463.425558 152.527429 
L 462.578692 152.46008 
L 461.731826 154.131211 
L 460.88496 156.769511 
L 460.038094 158.252889 
L 459.191228 157.754235 
L 458.344362 156.721444 
L 457.497496 155.50994 
L 456.65063 154.772643 
L 455.803764 154.196946 
L 454.956898 153.69998 
L 454.110032 152.967778 
L 453.263166 152.175568 
L 452.4163 151.130856 
L 451.569434 151.408347 
L 450.722568 151.004622 
L 449.875702 150.797886 
L 449.028836 147.928042 
L 448.18197 145.97592 
L 447.335104 144.049401 
L 446.488238 143.04592 
L 445.641372 142.15888 
L 444.794506 140.435681 
L 443.94764 139.430083 
L 443.100774 138.350578 
L 442.253908 137.14217 
L 441.407042 136.347932 
L 440.560176 135.74884 
L 439.71331 135.196266 
L 438.866444 135.257867 
L 438.019578 135.348213 
L 437.172712 135.232583 
L 436.325846 136.014661 
L 435.47898 147.076984 
L 434.632114 162.481687 
L 433.785248 163.107857 
L 432.938382 163.7836 
L 432.091516 164.426001 
L 431.24465 164.542378 
L 430.397784 164.817001 
L 429.550918 165.275353 
L 428.704052 166.166721 
L 427.857186 167.3749 
L 427.01032 167.941766 
L 426.163454 168.34158 
L 425.316588 168.224492 
L 424.469722 168.74866 
L 423.622856 169.13407 
L 422.77599 169.661876 
L 421.929124 169.672911 
L 421.082258 170.727738 
L 420.235392 171.323016 
L 419.388526 172.347955 
L 418.54166 173.3385 
L 417.694794 174.248691 
L 416.847928 175.073735 
L 416.001062 175.430342 
L 415.154196 175.312459 
L 414.30733 175.22704 
L 413.460464 175.483214 
L 412.613598 176.226193 
L 411.766732 177.469263 
L 410.919866 178.786465 
L 410.073 179.021186 
L 409.226134 177.725705 
L 408.379268 176.481706 
L 407.532402 175.411971 
L 406.685537 181.852753 
L 405.838671 182.557512 
L 404.991805 183.473714 
L 404.144939 183.607474 
L 403.298073 183.976477 
L 402.451207 184.535765 
L 401.604341 185.56524 
L 400.757475 186.525354 
L 399.910609 187.124834 
L 399.063743 187.751254 
L 398.216877 188.729432 
L 397.370011 189.292335 
L 396.523145 189.744362 
L 395.676279 190.541628 
L 394.829413 191.751345 
L 393.982547 192.639337 
L 393.135681 192.9335 
L 392.288815 193.449507 
L 391.441949 193.887634 
L 390.595083 194.498605 
L 389.748217 195.521505 
L 388.901351 196.63128 
L 388.054485 196.864534 
L 387.207619 197.874352 
L 386.360753 199.17173 
L 385.513887 199.647726 
L 384.667021 199.652697 
L 383.820155 199.588723 
L 382.973289 200.315208 
L 382.126423 201.419638 
L 381.279557 201.762643 
L 380.432691 202.41543 
L 379.585825 203.071975 
L 378.738959 203.525096 
L 377.892093 203.587846 
L 377.045227 202.850174 
L 376.198361 203.367435 
L 375.351495 202.593443 
L 374.504629 201.991102 
L 373.657763 203.017393 
L 372.810897 203.701626 
L 371.964031 202.509925 
L 371.117165 200.999063 
L 370.270299 201.705966 
L 369.423433 202.581156 
L 368.576567 202.635119 
L 367.729701 202.992488 
L 366.882835 204.002377 
L 366.035969 204.248731 
L 365.189103 204.246654 
L 364.342237 204.429136 
L 363.495371 205.643861 
L 362.648505 206.262627 
L 361.801639 205.420185 
L 360.954773 204.602435 
L 360.107907 205.57839 
L 359.261041 205.313341 
L 358.414175 204.239379 
L 357.567309 203.408676 
L 356.720443 202.79858 
L 355.873577 201.936082 
L 355.026711 201.878229 
L 354.179845 200.88038 
L 353.332979 200.888684 
L 352.486113 200.531312 
L 351.639247 200.021276 
L 350.792381 202.552296 
L 349.945515 199.890618 
L 349.098649 184.125312 
L 348.251783 167.65307 
L 347.404917 147.531256 
L 346.558051 124.525651 
L 345.711185 114.696573 
L 344.864319 112.343535 
L 344.017453 112.463752 
L 343.170587 112.6653 
L 342.323721 112.249171 
L 341.476855 112.82632 
L 340.629989 113.38405 
L 339.783123 114.058893 
L 338.936257 114.391568 
L 338.089391 114.598256 
L 337.242525 114.575477 
L 336.395659 114.383987 
L 335.548793 114.441741 
L 334.701927 114.533301 
L 333.855061 115.01297 
L 333.008195 115.519431 
L 332.161329 116.417786 
L 331.314463 117.407386 
L 330.467598 118.122109 
L 329.620732 117.629995 
L 328.773866 116.91938 
L 327.927 116.51677 
L 327.080134 116.528016 
L 326.233268 117.088137 
L 325.386402 118.023299 
L 324.539536 118.648537 
L 323.69267 118.998972 
L 322.845804 119.561351 
L 321.998938 119.930742 
L 321.152072 120.330188 
L 320.305206 120.38991 
L 319.45834 120.551154 
L 318.611474 120.701959 
L 317.764608 120.854046 
L 316.917742 121.414643 
L 316.070876 121.286601 
L 315.22401 120.368449 
L 314.377144 120.122734 
L 313.530278 120.126545 
L 312.683412 120.213729 
L 311.836546 120.456113 
L 310.98968 121.580328 
L 310.142814 121.908231 
L 309.295948 121.687965 
L 308.449082 121.742224 
L 307.602216 121.908979 
L 306.75535 122.435196 
L 305.908484 122.502595 
L 305.061618 122.49637 
L 304.214752 123.270394 
L 303.367886 123.398158 
L 302.52102 123.289045 
L 301.674154 123.291674 
L 300.827288 123.175272 
L 299.980422 123.083706 
L 299.133556 123.169674 
L 298.28669 123.699777 
L 297.439824 124.299171 
L 296.592958 125.084623 
L 295.746092 125.495523 
L 294.899226 125.665479 
L 294.05236 125.609233 
L 293.205494 125.902109 
L 292.358628 125.446307 
L 291.511762 125.689191 
L 290.664896 126.131141 
L 289.81803 126.186357 
L 288.971164 126.154727 
L 288.124298 126.19201 
L 287.277432 126.073684 
L 286.430566 126.006416 
L 285.5837 125.806612 
L 284.736834 126.054852 
L 283.889968 126.128674 
L 283.043102 126.5956 
L 282.196236 126.332367 
L 281.34937 126.22119 
L 280.502504 126.33597 
L 279.655638 126.769548 
L 278.808772 127.052364 
L 277.961906 127.250188 
L 277.11504 127.368565 
L 276.268174 128.256208 
L 275.421308 128.885276 
L 274.574442 129.349795 
L 273.727576 128.857865 
L 272.88071 128.067201 
L 272.033844 128.233325 
L 271.186978 128.222732 
L 270.340112 128.313791 
L 269.493246 128.125613 
L 268.64638 127.803063 
L 267.799514 127.525141 
L 266.952648 127.196533 
L 266.105782 126.698536 
L 265.258916 126.730168 
L 264.41205 126.399445 
L 263.565184 126.919893 
L 262.718318 126.55196 
L 261.871452 126.180411 
L 261.024586 125.897738 
L 260.17772 125.499973 
L 259.330854 125.350481 
L 258.483988 125.72723 
L 257.637122 126.617597 
L 256.790256 126.626555 
L 255.94339 126.129571 
L 255.096525 126.060917 
L 254.249659 126.118727 
L 253.402793 126.370682 
L 252.555927 126.925296 
L 251.709061 127.218067 
L 250.862195 127.316524 
L 250.015329 127.747223 
L 249.168463 127.753852 
L 248.321597 127.902458 
L 247.474731 128.478972 
L 246.627865 128.779736 
L 245.780999 128.903112 
L 244.934133 129.244513 
L 244.087267 129.487037 
L 243.240401 130.066806 
L 242.393535 130.658029 
L 241.546669 130.902071 
L 240.699803 131.140068 
L 239.852937 131.360955 
L 239.006071 131.864486 
L 238.159205 132.445745 
L 237.312339 133.423649 
L 236.465473 133.681108 
L 235.618607 134.859155 
L 234.771741 135.726207 
L 233.924875 136.026764 
L 233.078009 136.53609 
L 232.231143 136.702526 
L 231.384277 137.225448 
L 230.537411 137.688149 
L 229.690545 138.083567 
L 228.843679 138.312347 
L 227.996813 138.816601 
L 227.149947 139.255089 
L 226.303081 138.224472 
L 225.456215 137.626113 
L 224.609349 137.253016 
L 223.762483 136.583017 
L 222.915617 135.738867 
L 222.068751 135.272381 
L 221.221885 134.155157 
L 220.375019 134.480787 
L 219.528153 135.270252 
L 218.681287 135.920659 
L 217.834421 136.052795 
L 216.987555 136.327518 
L 216.140689 136.99003 
L 215.293823 137.622987 
L 214.446957 138.377961 
L 213.600091 138.793179 
L 212.753225 138.930029 
L 211.906359 138.746554 
L 211.059493 139.371109 
L 210.212627 140.325737 
L 209.365761 141.25687 
L 208.518895 142.541613 
L 207.672029 143.935499 
L 206.825163 143.600995 
L 205.978297 143.175329 
L 205.131431 143.199876 
L 204.284565 144.183777 
L 203.437699 148.551327 
L 202.590833 150.880763 
L 201.743967 154.589601 
L 200.897101 163.52852 
L 200.050235 172.94697 
L 199.203369 173.277916 
L 198.356503 173.60961 
L 197.509637 173.774143 
L 196.662771 173.897787 
L 195.815905 174.139892 
L 194.969039 174.298119 
L 194.122173 174.532382 
L 193.275307 174.384132 
L 192.428441 173.989841 
L 191.581575 174.012297 
L 190.734709 174.190318 
L 189.887843 174.585379 
L 189.040977 175.123533 
L 188.194111 175.87172 
L 187.347245 176.55637 
L 186.500379 177.2049 
L 185.653513 178.00472 
L 184.806647 178.77315 
L 183.959781 179.683661 
L 183.112915 180.604317 
L 182.266049 181.245017 
L 181.419183 182.01381 
L 180.572317 182.981339 
L 179.725452 183.941084 
L 178.878586 184.761729 
L 178.03172 185.328457 
L 177.184854 185.713876 
L 176.337988 186.590079 
L 175.491122 187.673354 
L 174.644256 188.711782 
L 173.79739 189.938205 
L 172.950524 191.253884 
L 172.103658 191.981506 
L 171.256792 192.920791 
L 170.409926 193.891046 
L 169.56306 195.036394 
L 168.716194 196.230899 
L 167.869328 197.792336 
L 167.022462 199.165966 
L 166.175596 200.64449 
L 165.32873 201.987681 
L 164.481864 202.854202 
L 163.634998 204.441362 
L 162.788132 205.881442 
L 161.941266 206.610677 
L 161.0944 207.401868 
L 160.247534 208.888425 
L 159.400668 210.02858 
L 158.553802 211.459122 
L 157.706936 212.447677 
L 156.86007 214.061549 
L 156.013204 215.414868 
L 155.166338 217.196879 
L 154.319472 219.11674 
L 153.472606 220.923771 
L 152.62574 222.415906 
L 151.778874 224.32514 
L 150.932008 225.431815 
L 150.085142 226.135557 
L 149.238276 228.908427 
L 148.39141 231.382065 
L 147.544544 234.01058 
L 146.697678 236.365328 
L 145.850812 238.582307 
L 145.003946 240.803358 
L 144.15708 244.111542 
L 143.310214 246.091114 
L 142.463348 249.251023 
L 141.616482 252.387321 
L 140.769616 256.545738 
L 139.92275 259.416201 
L 139.075884 262.450169 
L 138.229018 265.771752 
L 137.382152 269.965732 
L 136.535286 273.270027 
L 135.68842 278.912903 
L 134.841554 282.692832 
L 133.994688 286.468967 
L 133.147822 289.271586 
L 132.300956 295.13907 
L 131.45409 301.849997 
L 130.607224 307.54755 
L 129.760358 315.110231 
L 128.913492 319.362727 
L 128.066626 329.757121 
L 127.21976 339.935793 
L 126.372894 352.743418 
L 125.526028 364.020092 
L 124.679162 377.047629 
L 123.832296 394.473919 
L 122.98543 414.279543 
L 122.138564 433.173659 
L 121.291698 459.052232 
L 120.444832 496.768663 
L 119.597966 547.032733 
L 118.7511 594.487905 
L 117.904234 696.653781 
L 117.057368 853.297003 
L 116.210502 953.25912 
L 115.363636 999.110911 
z
" clip-path="url(#pdffce835aa)" style="fill: #1f77b4; fill-opacity: 0.5"/>
   </g>
   <g id="PolyCollection_2">
    <path d="M 115.363636 1096.865558 
L 115.363636 1405.085703 
L 116.210502 1344.266158 
L 117.057368 1061.500453 
L 117.904234 899.526153 
L 118.7511 809.265542 
L 119.597966 759.179574 
L 120.444832 715.477915 
L 121.291698 701.463192 
L 122.138564 679.347719 
L 122.98543 644.657801 
L 123.832296 616.40007 
L 124.679162 604.231021 
L 125.526028 596.795153 
L 126.372894 579.451729 
L 127.21976 563.697598 
L 128.066626 550.267706 
L 128.913492 538.393353 
L 129.760358 528.237411 
L 130.607224 518.927802 
L 131.45409 510.330954 
L 132.300956 502.582611 
L 133.147822 495.407016 
L 133.994688 488.997625 
L 134.841554 482.990256 
L 135.68842 477.497294 
L 136.535286 472.029632 
L 137.382152 466.674458 
L 138.229018 461.591955 
L 139.075884 457.15305 
L 139.92275 452.881905 
L 140.769616 448.026915 
L 141.616482 443.747544 
L 142.463348 440.012407 
L 143.310214 436.77123 
L 144.15708 433.424828 
L 145.003946 430.112844 
L 145.850812 427.296926 
L 146.697678 424.575402 
L 147.544544 422.097412 
L 148.39141 420.038437 
L 149.238276 417.972007 
L 150.085142 416.12793 
L 150.932008 414.255348 
L 151.778874 412.595456 
L 152.62574 411.066408 
L 153.472606 409.470792 
L 154.319472 408.006796 
L 155.166338 406.554896 
L 156.013204 405.128574 
L 156.86007 403.740952 
L 157.706936 402.436594 
L 158.553802 400.997901 
L 159.400668 399.678357 
L 160.247534 398.44412 
L 161.0944 397.267623 
L 161.941266 396.289578 
L 162.788132 394.951194 
L 163.634998 394.010085 
L 164.481864 392.725708 
L 165.32873 392.006238 
L 166.175596 390.646516 
L 167.022462 389.996622 
L 167.869328 388.584248 
L 168.716194 387.273262 
L 169.56306 385.81183 
L 170.409926 384.357728 
L 171.256792 383.85392 
L 172.103658 383.323273 
L 172.950524 381.839262 
L 173.79739 380.287564 
L 174.644256 379.573215 
L 175.491122 378.285334 
L 176.337988 376.83314 
L 177.184854 375.569014 
L 178.03172 374.495069 
L 178.878586 373.132935 
L 179.725452 372.165069 
L 180.572317 371.887612 
L 181.419183 370.436125 
L 182.266049 369.006428 
L 183.112915 367.642851 
L 183.959781 366.144329 
L 184.806647 364.576067 
L 185.653513 363.190383 
L 186.500379 361.601799 
L 187.347245 360.159711 
L 188.194111 358.703063 
L 189.040977 357.114316 
L 189.887843 355.735357 
L 190.734709 354.326564 
L 191.581575 352.980461 
L 192.428441 351.693339 
L 193.275307 350.254106 
L 194.122173 348.99593 
L 194.969039 347.780838 
L 195.815905 346.659158 
L 196.662771 345.472197 
L 197.509637 344.278731 
L 198.356503 343.10365 
L 199.203369 341.909555 
L 200.050235 340.70018 
L 200.897101 329.351614 
L 201.743967 318.430474 
L 202.590833 315.724761 
L 203.437699 313.794337 
L 204.284565 311.628726 
L 205.131431 308.718938 
L 205.978297 306.293203 
L 206.825163 304.576989 
L 207.672029 302.648954 
L 208.518895 300.50001 
L 209.365761 297.734834 
L 210.212627 294.378508 
L 211.059493 291.377522 
L 211.906359 289.940043 
L 212.753225 288.623868 
L 213.600091 287.258238 
L 214.446957 285.843801 
L 215.293823 284.341023 
L 216.140689 282.914318 
L 216.987555 281.522837 
L 217.834421 280.0865 
L 218.681287 278.700801 
L 219.528153 277.416797 
L 220.375019 275.941946 
L 221.221885 274.579133 
L 222.068751 273.252004 
L 222.915617 272.007063 
L 223.762483 270.788889 
L 224.609349 269.43359 
L 225.456215 268.071106 
L 226.303081 266.988716 
L 227.149947 265.779219 
L 227.996813 264.621859 
L 228.843679 263.315768 
L 229.690545 262.045058 
L 230.537411 260.920378 
L 231.384277 259.648783 
L 232.231143 258.300265 
L 233.078009 256.719045 
L 233.924875 255.209319 
L 234.771741 253.528795 
L 235.618607 251.861791 
L 236.465473 250.198756 
L 237.312339 248.519952 
L 238.159205 246.770472 
L 239.006071 245.002981 
L 239.852937 243.241354 
L 240.699803 241.513364 
L 241.546669 239.755351 
L 242.393535 237.956306 
L 243.240401 236.256848 
L 244.087267 234.541846 
L 244.934133 232.82602 
L 245.780999 231.123043 
L 246.627865 229.404165 
L 247.474731 227.530041 
L 248.321597 225.855079 
L 249.168463 223.892586 
L 250.015329 222.189567 
L 250.862195 220.320104 
L 251.709061 218.691411 
L 252.555927 216.637185 
L 253.402793 215.152237 
L 254.249659 213.524131 
L 255.096525 212.086798 
L 255.94339 210.760109 
L 256.790256 208.81849 
L 257.637122 206.918544 
L 258.483988 205.645088 
L 259.330854 204.379392 
L 260.17772 202.490823 
L 261.024586 201.174816 
L 261.871452 199.948962 
L 262.718318 198.54269 
L 263.565184 197.09654 
L 264.41205 195.999516 
L 265.258916 194.478344 
L 266.105782 192.526043 
L 266.952648 191.38166 
L 267.799514 190.299396 
L 268.64638 189.189179 
L 269.493246 188.192664 
L 270.340112 187.247125 
L 271.186978 186.274308 
L 272.033844 185.434279 
L 272.88071 184.501074 
L 273.727576 183.560325 
L 274.574442 182.858527 
L 275.421308 181.945694 
L 276.268174 181.056385 
L 277.11504 180.159637 
L 277.961906 179.182513 
L 278.808772 178.410647 
L 279.655638 177.427069 
L 280.502504 176.539225 
L 281.34937 175.521292 
L 282.196236 174.53119 
L 283.043102 173.591988 
L 283.889968 172.710885 
L 284.736834 171.844127 
L 285.5837 170.974007 
L 286.430566 170.201907 
L 287.277432 169.388594 
L 288.124298 168.627037 
L 288.971164 167.761662 
L 289.81803 166.896095 
L 290.664896 166.175666 
L 291.511762 165.510009 
L 292.358628 164.819373 
L 293.205494 164.10999 
L 294.05236 163.418616 
L 294.899226 162.709941 
L 295.746092 162.171805 
L 296.592958 161.502228 
L 297.439824 160.669425 
L 298.28669 159.872857 
L 299.133556 159.085002 
L 299.980422 158.335319 
L 300.827288 157.531329 
L 301.674154 156.795916 
L 302.52102 156.033991 
L 303.367886 155.325025 
L 304.214752 154.47723 
L 305.061618 153.606538 
L 305.908484 152.928999 
L 306.75535 152.185159 
L 307.602216 151.485848 
L 308.449082 150.769244 
L 309.295948 150.075176 
L 310.142814 149.342057 
L 310.98968 148.645763 
L 311.836546 148.014824 
L 312.683412 147.408314 
L 313.530278 146.701179 
L 314.377144 145.954227 
L 315.22401 145.280795 
L 316.070876 144.474732 
L 316.917742 143.758295 
L 317.764608 143.050827 
L 318.611474 142.544197 
L 319.45834 141.77015 
L 320.305206 141.327943 
L 321.152072 140.802446 
L 321.998938 140.261257 
L 322.845804 139.628186 
L 323.69267 139.168187 
L 324.539536 138.718169 
L 325.386402 138.332894 
L 326.233268 137.817568 
L 327.080134 137.353769 
L 327.927 136.898722 
L 328.773866 136.426887 
L 329.620732 136.017581 
L 330.467598 135.520276 
L 331.314463 135.048361 
L 332.161329 134.600552 
L 333.008195 134.198513 
L 333.855061 133.861353 
L 334.701927 133.599686 
L 335.548793 133.324577 
L 336.395659 132.814157 
L 337.242525 132.464042 
L 338.089391 132.168929 
L 338.936257 131.762384 
L 339.783123 131.45757 
L 340.629989 131.216115 
L 341.476855 130.818975 
L 342.323721 130.674612 
L 343.170587 130.477231 
L 344.017453 130.382474 
L 344.864319 130.17237 
L 345.711185 130.156047 
L 346.558051 130.111088 
L 347.404917 129.966543 
L 348.251783 129.897902 
L 349.098649 129.738452 
L 349.945515 129.712598 
L 350.792381 129.527901 
L 351.639247 129.366874 
L 352.486113 129.224938 
L 353.332979 129.227004 
L 354.179845 129.066316 
L 355.026711 129.039923 
L 355.873577 128.937882 
L 356.720443 128.875848 
L 357.567309 128.863027 
L 358.414175 128.829411 
L 359.261041 128.701588 
L 360.107907 128.714677 
L 360.954773 128.523683 
L 361.801639 128.41918 
L 362.648505 128.302809 
L 363.495371 128.20875 
L 364.342237 128.212526 
L 365.189103 128.216752 
L 366.035969 128.133798 
L 366.882835 128.038424 
L 367.729701 128.012691 
L 368.576567 127.844851 
L 369.423433 127.663007 
L 370.270299 127.467903 
L 371.117165 127.318748 
L 371.964031 127.389662 
L 372.810897 127.32663 
L 373.657763 127.27679 
L 374.504629 127.220678 
L 375.351495 127.214366 
L 376.198361 127.133077 
L 377.045227 127.085359 
L 377.892093 127.047691 
L 378.738959 127.015833 
L 379.585825 126.845345 
L 380.432691 126.788691 
L 381.279557 126.696769 
L 382.126423 126.609129 
L 382.973289 126.520298 
L 383.820155 126.4181 
L 384.667021 126.300833 
L 385.513887 126.304427 
L 386.360753 126.244352 
L 387.207619 126.302491 
L 388.054485 126.265566 
L 388.901351 126.296218 
L 389.748217 126.25491 
L 390.595083 126.221199 
L 391.441949 126.131206 
L 392.288815 126.00714 
L 393.135681 125.990111 
L 393.982547 125.956148 
L 394.829413 125.997045 
L 395.676279 125.941794 
L 396.523145 125.908031 
L 397.370011 125.783567 
L 398.216877 125.843814 
L 399.063743 125.717172 
L 399.910609 125.583141 
L 400.757475 125.488093 
L 401.604341 125.330707 
L 402.451207 125.381899 
L 403.298073 125.308788 
L 404.144939 125.365646 
L 404.991805 125.32757 
L 405.838671 125.324036 
L 406.685537 125.333146 
L 407.532402 125.377979 
L 408.379268 125.357001 
L 409.226134 125.353054 
L 410.073 125.341885 
L 410.919866 125.261586 
L 411.766732 125.264551 
L 412.613598 125.423905 
L 413.460464 125.414817 
L 414.30733 125.427152 
L 415.154196 125.44658 
L 416.001062 125.370093 
L 416.847928 125.334454 
L 417.694794 125.293903 
L 418.54166 125.312733 
L 419.388526 125.248129 
L 420.235392 125.189072 
L 421.082258 125.136661 
L 421.929124 125.111163 
L 422.77599 125.068924 
L 423.622856 124.959376 
L 424.469722 124.835488 
L 425.316588 124.798658 
L 426.163454 124.833578 
L 427.01032 124.92964 
L 427.857186 124.860879 
L 428.704052 124.788751 
L 429.550918 124.682943 
L 430.397784 124.691199 
L 431.24465 124.646149 
L 432.091516 124.569945 
L 432.938382 124.576582 
L 433.785248 124.527589 
L 434.632114 124.486748 
L 435.47898 124.492699 
L 436.325846 124.410148 
L 437.172712 124.393125 
L 438.019578 124.255281 
L 438.866444 124.124408 
L 439.71331 124.16798 
L 440.560176 124.174615 
L 441.407042 124.135147 
L 442.253908 124.10152 
L 443.100774 123.968535 
L 443.94764 123.910829 
L 444.794506 123.815691 
L 445.641372 123.603234 
L 446.488238 123.621462 
L 447.335104 123.526398 
L 448.18197 123.553304 
L 449.028836 123.425047 
L 449.875702 123.257462 
L 450.722568 123.203975 
L 451.569434 123.032129 
L 452.4163 122.983153 
L 453.263166 122.838643 
L 454.110032 122.805039 
L 454.956898 122.692335 
L 455.803764 122.652144 
L 456.65063 122.646409 
L 457.497496 122.503045 
L 458.344362 122.324451 
L 459.191228 122.231601 
L 460.038094 122.129411 
L 460.88496 121.972145 
L 461.731826 121.870521 
L 462.578692 121.716011 
L 463.425558 121.676964 
L 464.272424 121.58983 
L 465.11929 121.737135 
L 465.966156 121.765088 
L 466.813022 121.722042 
L 467.659888 121.678788 
L 468.506754 121.698519 
L 469.35362 121.652104 
L 470.200486 121.573853 
L 471.047352 121.520835 
L 471.894218 121.481139 
L 472.741084 121.493164 
L 473.58795 121.46412 
L 474.434816 121.381871 
L 475.281682 121.177445 
L 476.128548 121.10043 
L 476.975414 121.094024 
L 477.82228 121.021754 
L 478.669146 120.772596 
L 479.516012 120.707944 
L 480.362878 120.577441 
L 481.209744 120.521096 
L 482.05661 120.513239 
L 482.903475 120.475765 
L 483.750341 120.332284 
L 484.597207 120.240647 
L 485.444073 120.255125 
L 486.290939 120.275006 
L 487.137805 120.334902 
L 487.984671 120.214476 
L 488.831537 120.241514 
L 489.678403 120.184489 
L 490.525269 120.088576 
L 491.372135 119.983458 
L 492.219001 119.88907 
L 493.065867 119.791095 
L 493.912733 119.728698 
L 494.759599 119.707238 
L 495.606465 119.516506 
L 496.453331 119.585397 
L 497.300197 119.462532 
L 498.147063 119.247602 
L 498.993929 119.112814 
L 499.840795 119.076174 
L 500.687661 119.002189 
L 501.534527 118.927441 
L 502.381393 118.866016 
L 503.228259 118.714424 
L 504.075125 118.606107 
L 504.921991 118.588368 
L 505.768857 118.582858 
L 506.615723 118.456376 
L 507.462589 118.383757 
L 508.309455 118.350404 
L 509.156321 118.324231 
L 510.003187 118.344558 
L 510.850053 118.311061 
L 511.696919 118.213949 
L 512.543785 118.099296 
L 513.390651 118.093313 
L 514.237517 118.232674 
L 515.084383 118.143696 
L 515.931249 118.079438 
L 516.778115 118.045678 
L 517.624981 117.928993 
L 518.471847 117.906702 
L 519.318713 117.805785 
L 520.165579 117.762688 
L 521.012445 117.651803 
L 521.859311 117.659365 
L 522.706177 117.590553 
L 523.553043 117.587188 
L 524.399909 117.598069 
L 525.246775 117.497101 
L 526.093641 117.297725 
L 526.940507 117.243425 
L 527.787373 117.178561 
L 528.634239 117.174572 
L 529.481105 117.154382 
L 530.327971 117.150902 
L 531.174837 117.111414 
L 532.021703 117.13762 
L 532.868569 117.141987 
L 533.715435 117.032391 
L 534.562301 117.046081 
L 535.409167 117.041479 
L 536.256033 116.991381 
L 537.102899 117.093455 
L 537.949765 116.980952 
L 538.796631 116.946238 
L 539.643497 116.850781 
L 540.490363 116.884492 
L 541.337229 116.956419 
L 542.184095 116.924052 
L 543.030961 116.836857 
L 543.877827 116.781226 
L 544.724693 116.829546 
L 545.571559 116.765315 
L 546.418425 116.806343 
L 547.265291 116.778821 
L 548.112157 116.795249 
L 548.959023 116.697055 
L 549.805889 116.699168 
L 550.652755 116.602808 
L 551.499621 116.56497 
L 552.346487 116.515099 
L 553.193353 116.447998 
L 554.040219 116.508253 
L 554.887085 116.444907 
L 555.733951 116.43276 
L 556.580817 116.3701 
L 557.427683 116.242276 
L 558.274548 116.074771 
L 559.121414 116.020386 
L 559.96828 115.97827 
L 560.815146 116.034505 
L 561.662012 115.969786 
L 562.508878 115.902947 
L 563.355744 115.920455 
L 564.20261 115.972577 
L 565.049476 115.959646 
L 565.896342 115.899832 
L 566.743208 115.877245 
L 567.590074 115.858721 
L 568.43694 115.744067 
L 569.283806 115.663016 
L 570.130672 115.642463 
L 570.977538 115.517473 
L 571.824404 115.427252 
L 572.67127 115.310809 
L 573.518136 115.260332 
L 574.365002 115.286354 
L 575.211868 115.200927 
L 576.058734 115.236593 
L 576.9056 115.182844 
L 577.752466 115.145644 
L 578.599332 115.06971 
L 579.446198 115.035299 
L 580.293064 114.970191 
L 581.13993 114.99946 
L 581.986796 114.829371 
L 582.833662 114.742769 
L 583.680528 114.6637 
L 584.527394 114.60157 
L 585.37426 114.602966 
L 586.221126 114.62134 
L 587.067992 114.558152 
L 587.914858 114.598555 
L 588.761724 114.587049 
L 589.60859 114.586338 
L 590.455456 114.539352 
L 591.302322 114.435337 
L 592.149188 114.406234 
L 592.996054 114.446824 
L 593.84292 114.444378 
L 594.689786 114.451641 
L 595.536652 114.444506 
L 596.383518 114.428121 
L 597.230384 114.450376 
L 598.07725 114.38455 
L 598.924116 114.355839 
L 599.770982 114.19005 
L 600.617848 114.230126 
L 601.464714 114.268907 
L 602.31158 114.179758 
L 603.158446 114.208434 
L 604.005312 114.209217 
L 604.852178 114.315147 
L 605.699044 114.410365 
L 606.54591 114.368294 
L 607.392776 114.300143 
L 608.239642 114.324839 
L 609.086508 114.328632 
L 609.933374 114.180829 
L 610.78024 114.088074 
L 611.627106 114.049178 
L 612.473972 114.020382 
L 613.320838 114.022224 
L 614.167704 113.919141 
L 615.01457 113.817199 
L 615.861436 113.889217 
L 616.708302 113.903309 
L 617.555168 113.82425 
L 618.402034 113.806616 
L 619.2489 113.799686 
L 620.095766 113.731277 
L 620.942632 113.663878 
L 621.789498 113.551488 
L 622.636364 113.526768 
L 622.636364 108.959361 
L 622.636364 108.959361 
L 621.789498 108.910016 
L 620.942632 108.866316 
L 620.095766 108.824915 
L 619.2489 108.768962 
L 618.402034 108.744357 
L 617.555168 108.776266 
L 616.708302 108.798071 
L 615.861436 108.81883 
L 615.01457 108.796248 
L 614.167704 108.926724 
L 613.320838 108.928433 
L 612.473972 108.939192 
L 611.627106 108.903758 
L 610.78024 108.908108 
L 609.933374 108.900652 
L 609.086508 108.974134 
L 608.239642 108.95677 
L 607.392776 108.953799 
L 606.54591 108.875086 
L 605.699044 108.826694 
L 604.852178 108.853628 
L 604.005312 108.819739 
L 603.158446 108.912926 
L 602.31158 108.817992 
L 601.464714 108.709711 
L 600.617848 108.817456 
L 599.770982 108.899677 
L 598.924116 108.86888 
L 598.07725 108.888832 
L 597.230384 108.836391 
L 596.383518 108.747154 
L 595.536652 108.903411 
L 594.689786 109.003375 
L 593.84292 109.066271 
L 592.996054 109.111967 
L 592.149188 109.251436 
L 591.302322 109.222286 
L 590.455456 109.336613 
L 589.60859 109.305604 
L 588.761724 109.331922 
L 587.914858 109.390459 
L 587.067992 109.440711 
L 586.221126 109.461176 
L 585.37426 109.576436 
L 584.527394 109.566208 
L 583.680528 109.590751 
L 582.833662 109.702238 
L 581.986796 109.6697 
L 581.13993 109.609124 
L 580.293064 109.530039 
L 579.446198 109.636193 
L 578.599332 109.708914 
L 577.752466 109.628421 
L 576.9056 109.673125 
L 576.058734 109.776674 
L 575.211868 109.785815 
L 574.365002 109.774092 
L 573.518136 109.828925 
L 572.67127 109.87641 
L 571.824404 109.879431 
L 570.977538 109.916874 
L 570.130672 109.820842 
L 569.283806 109.887768 
L 568.43694 109.936011 
L 567.590074 109.901138 
L 566.743208 109.869084 
L 565.896342 109.784629 
L 565.049476 109.844952 
L 564.20261 109.903987 
L 563.355744 109.912382 
L 562.508878 109.922936 
L 561.662012 109.9285 
L 560.815146 109.820105 
L 559.96828 109.955293 
L 559.121414 110.065377 
L 558.274548 110.226624 
L 557.427683 110.206421 
L 556.580817 110.159629 
L 555.733951 110.04094 
L 554.887085 110.064895 
L 554.040219 110.092136 
L 553.193353 110.068497 
L 552.346487 110.057386 
L 551.499621 110.045491 
L 550.652755 110.124838 
L 549.805889 110.109448 
L 548.959023 110.225848 
L 548.112157 110.343739 
L 547.265291 110.402597 
L 546.418425 110.459572 
L 545.571559 110.319167 
L 544.724693 110.458359 
L 543.877827 110.503993 
L 543.030961 110.498655 
L 542.184095 110.26302 
L 541.337229 110.314726 
L 540.490363 110.354792 
L 539.643497 110.452067 
L 538.796631 110.46174 
L 537.949765 110.457317 
L 537.102899 110.371525 
L 536.256033 110.425967 
L 535.409167 110.497089 
L 534.562301 110.54041 
L 533.715435 110.550051 
L 532.868569 110.489322 
L 532.021703 110.481506 
L 531.174837 110.435302 
L 530.327971 110.516338 
L 529.481105 110.624217 
L 528.634239 110.643872 
L 527.787373 110.721319 
L 526.940507 110.727979 
L 526.093641 110.738585 
L 525.246775 110.7419 
L 524.399909 110.76018 
L 523.553043 110.697596 
L 522.706177 110.684009 
L 521.859311 110.811446 
L 521.012445 110.883967 
L 520.165579 110.970701 
L 519.318713 110.955841 
L 518.471847 110.911021 
L 517.624981 110.877243 
L 516.778115 110.936877 
L 515.931249 110.964682 
L 515.084383 110.860723 
L 514.237517 110.798368 
L 513.390651 110.868231 
L 512.543785 110.917249 
L 511.696919 110.966462 
L 510.850053 110.92238 
L 510.003187 110.905299 
L 509.156321 110.884352 
L 508.309455 110.932474 
L 507.462589 110.947232 
L 506.615723 110.867945 
L 505.768857 110.886914 
L 504.921991 110.78926 
L 504.075125 110.747896 
L 503.228259 110.631238 
L 502.381393 110.664293 
L 501.534527 110.616734 
L 500.687661 110.578989 
L 499.840795 110.54521 
L 498.993929 110.459279 
L 498.147063 110.480409 
L 497.300197 110.508446 
L 496.453331 110.463981 
L 495.606465 110.513855 
L 494.759599 110.522695 
L 493.912733 110.439095 
L 493.065867 110.421431 
L 492.219001 110.47416 
L 491.372135 110.466266 
L 490.525269 110.565695 
L 489.678403 110.606126 
L 488.831537 110.753468 
L 487.984671 110.811454 
L 487.137805 110.726608 
L 486.290939 110.846713 
L 485.444073 110.850118 
L 484.597207 110.912327 
L 483.750341 110.856644 
L 482.903475 110.837991 
L 482.05661 110.896387 
L 481.209744 110.876711 
L 480.362878 110.803427 
L 479.516012 110.811593 
L 478.669146 110.74393 
L 477.82228 110.675328 
L 476.975414 110.738104 
L 476.128548 110.734504 
L 475.281682 110.735489 
L 474.434816 110.621694 
L 473.58795 110.541245 
L 472.741084 110.450019 
L 471.894218 110.515064 
L 471.047352 110.578393 
L 470.200486 110.643172 
L 469.35362 110.663675 
L 468.506754 110.67594 
L 467.659888 110.660357 
L 466.813022 110.585834 
L 465.966156 110.622323 
L 465.11929 110.633426 
L 464.272424 110.691592 
L 463.425558 110.591349 
L 462.578692 110.494006 
L 461.731826 110.372313 
L 460.88496 110.241158 
L 460.038094 110.244916 
L 459.191228 110.192193 
L 458.344362 110.174709 
L 457.497496 110.15715 
L 456.65063 110.187059 
L 455.803764 110.189901 
L 454.956898 110.225135 
L 454.110032 110.128985 
L 453.263166 110.146684 
L 452.4163 110.137152 
L 451.569434 110.230267 
L 450.722568 110.237167 
L 449.875702 110.133655 
L 449.028836 110.081629 
L 448.18197 110.157076 
L 447.335104 110.184321 
L 446.488238 110.150206 
L 445.641372 110.262455 
L 444.794506 110.224024 
L 443.94764 110.091939 
L 443.100774 109.968451 
L 442.253908 109.864721 
L 441.407042 109.799616 
L 440.560176 109.806538 
L 439.71331 109.851335 
L 438.866444 109.87445 
L 438.019578 109.910509 
L 437.172712 109.969607 
L 436.325846 109.973617 
L 435.47898 109.943258 
L 434.632114 109.80735 
L 433.785248 109.804517 
L 432.938382 109.819379 
L 432.091516 109.820615 
L 431.24465 109.696094 
L 430.397784 109.655454 
L 429.550918 109.694325 
L 428.704052 109.766238 
L 427.857186 109.709239 
L 427.01032 109.616363 
L 426.163454 109.562357 
L 425.316588 109.606628 
L 424.469722 109.56902 
L 423.622856 109.577255 
L 422.77599 109.543506 
L 421.929124 109.525911 
L 421.082258 109.504134 
L 420.235392 109.491621 
L 419.388526 109.47191 
L 418.54166 109.546585 
L 417.694794 109.518547 
L 416.847928 109.489349 
L 416.001062 109.540345 
L 415.154196 109.635222 
L 414.30733 109.632506 
L 413.460464 109.705033 
L 412.613598 109.710644 
L 411.766732 109.682953 
L 410.919866 109.738116 
L 410.073 109.75927 
L 409.226134 109.817205 
L 408.379268 109.811278 
L 407.532402 109.790382 
L 406.685537 109.862691 
L 405.838671 109.900578 
L 404.991805 109.778003 
L 404.144939 109.68841 
L 403.298073 109.621389 
L 402.451207 109.545549 
L 401.604341 109.663952 
L 400.757475 109.648444 
L 399.910609 109.627539 
L 399.063743 109.594612 
L 398.216877 109.523842 
L 397.370011 109.487089 
L 396.523145 109.343734 
L 395.676279 109.517804 
L 394.829413 109.552324 
L 393.982547 109.520608 
L 393.135681 109.44222 
L 392.288815 109.455494 
L 391.441949 109.465065 
L 390.595083 109.53705 
L 389.748217 109.617804 
L 388.901351 109.661327 
L 388.054485 109.773429 
L 387.207619 109.760789 
L 386.360753 109.671296 
L 385.513887 109.714553 
L 384.667021 109.674964 
L 383.820155 109.845454 
L 382.973289 109.958291 
L 382.126423 109.979386 
L 381.279557 110.068428 
L 380.432691 110.055923 
L 379.585825 110.083733 
L 378.738959 110.040378 
L 377.892093 110.142965 
L 377.045227 110.291818 
L 376.198361 110.414863 
L 375.351495 110.637404 
L 374.504629 110.724526 
L 373.657763 110.753841 
L 372.810897 110.820286 
L 371.964031 110.845659 
L 371.117165 110.951066 
L 370.270299 111.02176 
L 369.423433 111.125891 
L 368.576567 111.212349 
L 367.729701 111.259967 
L 366.882835 111.297469 
L 366.035969 111.313186 
L 365.189103 111.447858 
L 364.342237 111.568257 
L 363.495371 111.766038 
L 362.648505 111.794731 
L 361.801639 111.902206 
L 360.954773 112.033747 
L 360.107907 112.102096 
L 359.261041 112.200472 
L 358.414175 112.309729 
L 357.567309 112.520678 
L 356.720443 112.608263 
L 355.873577 112.775588 
L 355.026711 112.871464 
L 354.179845 112.875463 
L 353.332979 112.949054 
L 352.486113 113.02229 
L 351.639247 113.14298 
L 350.792381 113.209239 
L 349.945515 113.265283 
L 349.098649 113.38693 
L 348.251783 113.496969 
L 347.404917 113.607001 
L 346.558051 113.707412 
L 345.711185 113.828677 
L 344.864319 113.908603 
L 344.017453 114.024342 
L 343.170587 113.991953 
L 342.323721 114.109894 
L 341.476855 114.322846 
L 340.629989 114.440799 
L 339.783123 114.554245 
L 338.936257 114.676745 
L 338.089391 114.725166 
L 337.242525 114.756169 
L 336.395659 114.875354 
L 335.548793 114.97466 
L 334.701927 115.126712 
L 333.855061 115.286412 
L 333.008195 115.360982 
L 332.161329 115.624216 
L 331.314463 115.709593 
L 330.467598 115.797894 
L 329.620732 115.798737 
L 328.773866 115.841075 
L 327.927 115.975436 
L 327.080134 116.196686 
L 326.233268 116.332548 
L 325.386402 116.37087 
L 324.539536 116.518466 
L 323.69267 116.58288 
L 322.845804 116.700683 
L 321.998938 116.91412 
L 321.152072 117.020118 
L 320.305206 117.188381 
L 319.45834 117.317331 
L 318.611474 117.522753 
L 317.764608 117.663337 
L 316.917742 117.769278 
L 316.070876 117.838971 
L 315.22401 117.972554 
L 314.377144 118.054901 
L 313.530278 118.27369 
L 312.683412 118.457657 
L 311.836546 118.585466 
L 310.98968 118.695531 
L 310.142814 118.658458 
L 309.295948 118.837157 
L 308.449082 119.001637 
L 307.602216 119.060097 
L 306.75535 118.989049 
L 305.908484 118.994884 
L 305.061618 119.042052 
L 304.214752 118.987254 
L 303.367886 118.889548 
L 302.52102 118.77012 
L 301.674154 118.752264 
L 300.827288 118.679556 
L 299.980422 118.640876 
L 299.133556 118.688624 
L 298.28669 118.684871 
L 297.439824 118.762098 
L 296.592958 118.76546 
L 295.746092 118.700824 
L 294.899226 118.630261 
L 294.05236 118.577447 
L 293.205494 118.522233 
L 292.358628 118.560366 
L 291.511762 118.485042 
L 290.664896 118.482889 
L 289.81803 118.376254 
L 288.971164 118.354757 
L 288.124298 118.37545 
L 287.277432 118.359819 
L 286.430566 118.298697 
L 285.5837 118.303529 
L 284.736834 118.456051 
L 283.889968 118.517088 
L 283.043102 118.533308 
L 282.196236 118.495237 
L 281.34937 118.47057 
L 280.502504 118.364313 
L 279.655638 118.455161 
L 278.808772 118.537302 
L 277.961906 118.537806 
L 277.11504 118.531781 
L 276.268174 118.539004 
L 275.421308 118.640495 
L 274.574442 118.6561 
L 273.727576 118.671012 
L 272.88071 118.612137 
L 272.033844 118.775199 
L 271.186978 118.819008 
L 270.340112 118.73376 
L 269.493246 118.890625 
L 268.64638 118.963508 
L 267.799514 119.014076 
L 266.952648 119.164338 
L 266.105782 119.229177 
L 265.258916 119.239999 
L 264.41205 119.179968 
L 263.565184 119.257579 
L 262.718318 119.452085 
L 261.871452 119.503603 
L 261.024586 119.51224 
L 260.17772 119.591053 
L 259.330854 119.713878 
L 258.483988 119.796105 
L 257.637122 119.871238 
L 256.790256 119.861534 
L 255.94339 119.835564 
L 255.096525 119.825942 
L 254.249659 119.976195 
L 253.402793 119.874026 
L 252.555927 119.830635 
L 251.709061 119.838395 
L 250.862195 119.797817 
L 250.015329 119.79278 
L 249.168463 119.867857 
L 248.321597 119.929736 
L 247.474731 120.115729 
L 246.627865 120.342466 
L 245.780999 120.435722 
L 244.934133 120.761847 
L 244.087267 121.207967 
L 243.240401 121.554246 
L 242.393535 122.10397 
L 241.546669 122.650949 
L 240.699803 123.319659 
L 239.852937 123.965473 
L 239.006071 124.729706 
L 238.159205 125.591717 
L 237.312339 126.390577 
L 236.465473 127.311598 
L 235.618607 128.155713 
L 234.771741 129.101482 
L 233.924875 129.973639 
L 233.078009 131.090497 
L 232.231143 131.89278 
L 231.384277 132.968289 
L 230.537411 134.104999 
L 229.690545 135.158453 
L 228.843679 136.298068 
L 227.996813 137.591892 
L 227.149947 138.910819 
L 226.303081 140.204289 
L 225.456215 141.497936 
L 224.609349 142.907025 
L 223.762483 144.308188 
L 222.915617 145.598827 
L 222.068751 147.013954 
L 221.221885 148.500846 
L 220.375019 150.03597 
L 219.528153 151.464657 
L 218.681287 153.007769 
L 217.834421 154.583951 
L 216.987555 156.220029 
L 216.140689 157.752254 
L 215.293823 159.382717 
L 214.446957 161.056244 
L 213.600091 162.58567 
L 212.753225 164.223909 
L 211.906359 165.825404 
L 211.059493 167.602563 
L 210.212627 169.403573 
L 209.365761 171.094991 
L 208.518895 172.772154 
L 207.672029 174.516285 
L 206.825163 176.228234 
L 205.978297 178.089333 
L 205.131431 179.919175 
L 204.284565 181.884356 
L 203.437699 183.807937 
L 202.590833 185.828267 
L 201.743967 188.113397 
L 200.897101 195.514544 
L 200.050235 205.199605 
L 199.203369 205.953728 
L 198.356503 206.767284 
L 197.509637 207.640815 
L 196.662771 208.558874 
L 195.815905 209.52849 
L 194.969039 210.523689 
L 194.122173 211.397867 
L 193.275307 212.343082 
L 192.428441 213.344933 
L 191.581575 214.402552 
L 190.734709 215.483426 
L 189.887843 216.512242 
L 189.040977 217.561744 
L 188.194111 218.706799 
L 187.347245 219.873864 
L 186.500379 220.936608 
L 185.653513 222.075242 
L 184.806647 223.36014 
L 183.959781 224.446947 
L 183.112915 225.733582 
L 182.266049 227.032231 
L 181.419183 228.269553 
L 180.572317 229.662106 
L 179.725452 231.118635 
L 178.878586 232.630545 
L 178.03172 234.108666 
L 177.184854 235.455009 
L 176.337988 236.9029 
L 175.491122 238.559744 
L 174.644256 240.240728 
L 173.79739 241.851614 
L 172.950524 243.53407 
L 172.103658 245.269751 
L 171.256792 247.238985 
L 170.409926 249.178699 
L 169.56306 251.28502 
L 168.716194 253.242625 
L 167.869328 255.387253 
L 167.022462 257.544778 
L 166.175596 259.76922 
L 165.32873 262.142771 
L 164.481864 264.559778 
L 163.634998 266.998925 
L 162.788132 269.519406 
L 161.941266 271.876095 
L 161.0944 274.3248 
L 160.247534 276.902116 
L 159.400668 279.328956 
L 158.553802 281.589789 
L 157.706936 284.002973 
L 156.86007 286.182155 
L 156.013204 288.375199 
L 155.166338 290.599157 
L 154.319472 292.94176 
L 153.472606 295.169875 
L 152.62574 297.16906 
L 151.778874 299.392376 
L 150.932008 301.597863 
L 150.085142 304.08499 
L 149.238276 306.323934 
L 148.39141 308.857865 
L 147.544544 311.154042 
L 146.697678 313.207896 
L 145.850812 315.515083 
L 145.003946 317.854903 
L 144.15708 320.209727 
L 143.310214 322.992258 
L 142.463348 325.364452 
L 141.616482 327.66595 
L 140.769616 330.136053 
L 139.92275 332.824136 
L 139.075884 335.470401 
L 138.229018 338.258189 
L 137.382152 341.473836 
L 136.535286 344.530713 
L 135.68842 347.671101 
L 134.841554 350.572425 
L 133.994688 354.035054 
L 133.147822 357.627035 
L 132.300956 361.592339 
L 131.45409 365.816351 
L 130.607224 370.428514 
L 129.760358 375.378135 
L 128.913492 380.840137 
L 128.066626 386.983243 
L 127.21976 394.061889 
L 126.372894 401.792691 
L 125.526028 409.951952 
L 124.679162 419.31487 
L 123.832296 431.157283 
L 122.98543 445.827035 
L 122.138564 462.968753 
L 121.291698 484.297374 
L 120.444832 509.82659 
L 119.597966 544.142447 
L 118.7511 590.812627 
L 117.904234 659.868606 
L 117.057368 768.147149 
L 116.210502 955.297484 
L 115.363636 1096.865558 
z
" clip-path="url(#pdffce835aa)" style="fill: #ff7f0e; fill-opacity: 0.5"/>
   </g>
   <g id="matplotlib.axis_1">
    <g id="xtick_1">
     <g id="line2d_1">
      <path d="M 115.363636 320.4 
L 115.363636 43.2 
" clip-path="url(#pdffce835aa)" style="fill: none; stroke-dasharray: 2.96,1.28; stroke-dashoffset: 0; stroke: #b0b0b0; stroke-width: 0.8"/>
     </g>
     <g id="line2d_2">
      <defs>
       <path id="m837530280d" d="M 0 0 
L 0 3.5 
" style="stroke: #000000; stroke-width: 0.8"/>
      </defs>
      <g>
       <use xlink:href="#m837530280d" x="115.363636" y="320.4" style="stroke: #000000; stroke-width: 0.8"/>
      </g>
     </g>
     <g id="text_1">
      <!-- 0 -->
      <g transform="translate(112.182386 334.998438)scale(0.1 -0.1)">
       <defs>
        <path id="DejaVuSans-30" d="M 2034 4250 
Q 1547 4250 1301 3770 
Q 1056 3291 1056 2328 
Q 1056 1369 1301 889 
Q 1547 409 2034 409 
Q 2525 409 2770 889 
Q 3016 1369 3016 2328 
Q 3016 3291 2770 3770 
Q 2525 4250 2034 4250 
z
M 2034 4750 
Q 2819 4750 3233 4129 
Q 3647 3509 3647 2328 
Q 3647 1150 3233 529 
Q 2819 -91 2034 -91 
Q 1250 -91 836 529 
Q 422 1150 422 2328 
Q 422 3509 836 4129 
Q 1250 4750 2034 4750 
z
" transform="scale(0.015625)"/>
       </defs>
       <use xlink:href="#DejaVuSans-30"/>
      </g>
     </g>
    </g>
    <g id="xtick_2">
     <g id="line2d_3">
      <path d="M 200.050235 320.4 
L 200.050235 43.2 
" clip-path="url(#pdffce835aa)" style="fill: none; stroke-dasharray: 2.96,1.28; stroke-dashoffset: 0; stroke: #b0b0b0; stroke-width: 0.8"/>
     </g>
     <g id="line2d_4">
      <g>
       <use xlink:href="#m837530280d" x="200.050235" y="320.4" style="stroke: #000000; stroke-width: 0.8"/>
      </g>
     </g>
     <g id="text_2">
      <!-- 100 -->
      <g transform="translate(190.506485 334.998438)scale(0.1 -0.1)">
       <defs>
        <path id="DejaVuSans-31" d="M 794 531 
L 1825 531 
L 1825 4091 
L 703 3866 
L 703 4441 
L 1819 4666 
L 2450 4666 
L 2450 531 
L 3481 531 
L 3481 0 
L 794 0 
L 794 531 
z
" transform="scale(0.015625)"/>
       </defs>
       <use xlink:href="#DejaVuSans-31"/>
       <use xlink:href="#DejaVuSans-30" x="63.623047"/>
       <use xlink:href="#DejaVuSans-30" x="127.246094"/>
      </g>
     </g>
    </g>
    <g id="xtick_3">
     <g id="line2d_5">
      <path d="M 284.736834 320.4 
L 284.736834 43.2 
" clip-path="url(#pdffce835aa)" style="fill: none; stroke-dasharray: 2.96,1.28; stroke-dashoffset: 0; stroke: #b0b0b0; stroke-width: 0.8"/>
     </g>
     <g id="line2d_6">
      <g>
       <use xlink:href="#m837530280d" x="284.736834" y="320.4" style="stroke: #000000; stroke-width: 0.8"/>
      </g>
     </g>
     <g id="text_3">
      <!-- 200 -->
      <g transform="translate(275.193084 334.998438)scale(0.1 -0.1)">
       <defs>
        <path id="DejaVuSans-32" d="M 1228 531 
L 3431 531 
L 3431 0 
L 469 0 
L 469 531 
Q 828 903 1448 1529 
Q 2069 2156 2228 2338 
Q 2531 2678 2651 2914 
Q 2772 3150 2772 3378 
Q 2772 3750 2511 3984 
Q 2250 4219 1831 4219 
Q 1534 4219 1204 4116 
Q 875 4013 500 3803 
L 500 4441 
Q 881 4594 1212 4672 
Q 1544 4750 1819 4750 
Q 2544 4750 2975 4387 
Q 3406 4025 3406 3419 
Q 3406 3131 3298 2873 
Q 3191 2616 2906 2266 
Q 2828 2175 2409 1742 
Q 1991 1309 1228 531 
z
" transform="scale(0.015625)"/>
       </defs>
       <use xlink:href="#DejaVuSans-32"/>
       <use xlink:href="#DejaVuSans-30" x="63.623047"/>
       <use xlink:href="#DejaVuSans-30" x="127.246094"/>
      </g>
     </g>
    </g>
    <g id="xtick_4">
     <g id="line2d_7">
      <path d="M 369.423433 320.4 
L 369.423433 43.2 
" clip-path="url(#pdffce835aa)" style="fill: none; stroke-dasharray: 2.96,1.28; stroke-dashoffset: 0; stroke: #b0b0b0; stroke-width: 0.8"/>
     </g>
     <g id="line2d_8">
      <g>
       <use xlink:href="#m837530280d" x="369.423433" y="320.4" style="stroke: #000000; stroke-width: 0.8"/>
      </g>
     </g>
     <g id="text_4">
      <!-- 300 -->
      <g transform="translate(359.879683 334.998438)scale(0.1 -0.1)">
       <defs>
        <path id="DejaVuSans-33" d="M 2597 2516 
Q 3050 2419 3304 2112 
Q 3559 1806 3559 1356 
Q 3559 666 3084 287 
Q 2609 -91 1734 -91 
Q 1441 -91 1130 -33 
Q 819 25 488 141 
L 488 750 
Q 750 597 1062 519 
Q 1375 441 1716 441 
Q 2309 441 2620 675 
Q 2931 909 2931 1356 
Q 2931 1769 2642 2001 
Q 2353 2234 1838 2234 
L 1294 2234 
L 1294 2753 
L 1863 2753 
Q 2328 2753 2575 2939 
Q 2822 3125 2822 3475 
Q 2822 3834 2567 4026 
Q 2313 4219 1838 4219 
Q 1578 4219 1281 4162 
Q 984 4106 628 3988 
L 628 4550 
Q 988 4650 1302 4700 
Q 1616 4750 1894 4750 
Q 2613 4750 3031 4423 
Q 3450 4097 3450 3541 
Q 3450 3153 3228 2886 
Q 3006 2619 2597 2516 
z
" transform="scale(0.015625)"/>
       </defs>
       <use xlink:href="#DejaVuSans-33"/>
       <use xlink:href="#DejaVuSans-30" x="63.623047"/>
       <use xlink:href="#DejaVuSans-30" x="127.246094"/>
      </g>
     </g>
    </g>
    <g id="xtick_5">
     <g id="line2d_9">
      <path d="M 454.110032 320.4 
L 454.110032 43.2 
" clip-path="url(#pdffce835aa)" style="fill: none; stroke-dasharray: 2.96,1.28; stroke-dashoffset: 0; stroke: #b0b0b0; stroke-width: 0.8"/>
     </g>
     <g id="line2d_10">
      <g>
       <use xlink:href="#m837530280d" x="454.110032" y="320.4" style="stroke: #000000; stroke-width: 0.8"/>
      </g>
     </g>
     <g id="text_5">
      <!-- 400 -->
      <g transform="translate(444.566282 334.998438)scale(0.1 -0.1)">
       <defs>
        <path id="DejaVuSans-34" d="M 2419 4116 
L 825 1625 
L 2419 1625 
L 2419 4116 
z
M 2253 4666 
L 3047 4666 
L 3047 1625 
L 3713 1625 
L 3713 1100 
L 3047 1100 
L 3047 0 
L 2419 0 
L 2419 1100 
L 313 1100 
L 313 1709 
L 2253 4666 
z
" transform="scale(0.015625)"/>
       </defs>
       <use xlink:href="#DejaVuSans-34"/>
       <use xlink:href="#DejaVuSans-30" x="63.623047"/>
       <use xlink:href="#DejaVuSans-30" x="127.246094"/>
      </g>
     </g>
    </g>
    <g id="xtick_6">
     <g id="line2d_11">
      <path d="M 538.796631 320.4 
L 538.796631 43.2 
" clip-path="url(#pdffce835aa)" style="fill: none; stroke-dasharray: 2.96,1.28; stroke-dashoffset: 0; stroke: #b0b0b0; stroke-width: 0.8"/>
     </g>
     <g id="line2d_12">
      <g>
       <use xlink:href="#m837530280d" x="538.796631" y="320.4" style="stroke: #000000; stroke-width: 0.8"/>
      </g>
     </g>
     <g id="text_6">
      <!-- 500 -->
      <g transform="translate(529.252881 334.998438)scale(0.1 -0.1)">
       <defs>
        <path id="DejaVuSans-35" d="M 691 4666 
L 3169 4666 
L 3169 4134 
L 1269 4134 
L 1269 2991 
Q 1406 3038 1543 3061 
Q 1681 3084 1819 3084 
Q 2600 3084 3056 2656 
Q 3513 2228 3513 1497 
Q 3513 744 3044 326 
Q 2575 -91 1722 -91 
Q 1428 -91 1123 -41 
Q 819 9 494 109 
L 494 744 
Q 775 591 1075 516 
Q 1375 441 1709 441 
Q 2250 441 2565 725 
Q 2881 1009 2881 1497 
Q 2881 1984 2565 2268 
Q 2250 2553 1709 2553 
Q 1456 2553 1204 2497 
Q 953 2441 691 2322 
L 691 4666 
z
" transform="scale(0.015625)"/>
       </defs>
       <use xlink:href="#DejaVuSans-35"/>
       <use xlink:href="#DejaVuSans-30" x="63.623047"/>
       <use xlink:href="#DejaVuSans-30" x="127.246094"/>
      </g>
     </g>
    </g>
    <g id="xtick_7">
     <g id="line2d_13">
      <path d="M 623.48323 320.4 
L 623.48323 43.2 
" clip-path="url(#pdffce835aa)" style="fill: none; stroke-dasharray: 2.96,1.28; stroke-dashoffset: 0; stroke: #b0b0b0; stroke-width: 0.8"/>
     </g>
     <g id="line2d_14">
      <g>
       <use xlink:href="#m837530280d" x="623.48323" y="320.4" style="stroke: #000000; stroke-width: 0.8"/>
      </g>
     </g>
     <g id="text_7">
      <!-- 600 -->
      <g transform="translate(613.93948 334.998438)scale(0.1 -0.1)">
       <defs>
        <path id="DejaVuSans-36" d="M 2113 2584 
Q 1688 2584 1439 2293 
Q 1191 2003 1191 1497 
Q 1191 994 1439 701 
Q 1688 409 2113 409 
Q 2538 409 2786 701 
Q 3034 994 3034 1497 
Q 3034 2003 2786 2293 
Q 2538 2584 2113 2584 
z
M 3366 4563 
L 3366 3988 
Q 3128 4100 2886 4159 
Q 2644 4219 2406 4219 
Q 1781 4219 1451 3797 
Q 1122 3375 1075 2522 
Q 1259 2794 1537 2939 
Q 1816 3084 2150 3084 
Q 2853 3084 3261 2657 
Q 3669 2231 3669 1497 
Q 3669 778 3244 343 
Q 2819 -91 2113 -91 
Q 1303 -91 875 529 
Q 447 1150 447 2328 
Q 447 3434 972 4092 
Q 1497 4750 2381 4750 
Q 2619 4750 2861 4703 
Q 3103 4656 3366 4563 
z
" transform="scale(0.015625)"/>
       </defs>
       <use xlink:href="#DejaVuSans-36"/>
       <use xlink:href="#DejaVuSans-30" x="63.623047"/>
       <use xlink:href="#DejaVuSans-30" x="127.246094"/>
      </g>
     </g>
    </g>
    <g id="text_8">
     <!-- Episodes -->
     <g transform="translate(346.757812 348.676562)scale(0.1 -0.1)">
      <defs>
       <path id="DejaVuSans-45" d="M 628 4666 
L 3578 4666 
L 3578 4134 
L 1259 4134 
L 1259 2753 
L 3481 2753 
L 3481 2222 
L 1259 2222 
L 1259 531 
L 3634 531 
L 3634 0 
L 628 0 
L 628 4666 
z
" transform="scale(0.015625)"/>
       <path id="DejaVuSans-70" d="M 1159 525 
L 1159 -1331 
L 581 -1331 
L 581 3500 
L 1159 3500 
L 1159 2969 
Q 1341 3281 1617 3432 
Q 1894 3584 2278 3584 
Q 2916 3584 3314 3078 
Q 3713 2572 3713 1747 
Q 3713 922 3314 415 
Q 2916 -91 2278 -91 
Q 1894 -91 1617 61 
Q 1341 213 1159 525 
z
M 3116 1747 
Q 3116 2381 2855 2742 
Q 2594 3103 2138 3103 
Q 1681 3103 1420 2742 
Q 1159 2381 1159 1747 
Q 1159 1113 1420 752 
Q 1681 391 2138 391 
Q 2594 391 2855 752 
Q 3116 1113 3116 1747 
z
" transform="scale(0.015625)"/>
       <path id="DejaVuSans-69" d="M 603 3500 
L 1178 3500 
L 1178 0 
L 603 0 
L 603 3500 
z
M 603 4863 
L 1178 4863 
L 1178 4134 
L 603 4134 
L 603 4863 
z
" transform="scale(0.015625)"/>
       <path id="DejaVuSans-73" d="M 2834 3397 
L 2834 2853 
Q 2591 2978 2328 3040 
Q 2066 3103 1784 3103 
Q 1356 3103 1142 2972 
Q 928 2841 928 2578 
Q 928 2378 1081 2264 
Q 1234 2150 1697 2047 
L 1894 2003 
Q 2506 1872 2764 1633 
Q 3022 1394 3022 966 
Q 3022 478 2636 193 
Q 2250 -91 1575 -91 
Q 1294 -91 989 -36 
Q 684 19 347 128 
L 347 722 
Q 666 556 975 473 
Q 1284 391 1588 391 
Q 1994 391 2212 530 
Q 2431 669 2431 922 
Q 2431 1156 2273 1281 
Q 2116 1406 1581 1522 
L 1381 1569 
Q 847 1681 609 1914 
Q 372 2147 372 2553 
Q 372 3047 722 3315 
Q 1072 3584 1716 3584 
Q 2034 3584 2315 3537 
Q 2597 3491 2834 3397 
z
" transform="scale(0.015625)"/>
       <path id="DejaVuSans-6f" d="M 1959 3097 
Q 1497 3097 1228 2736 
Q 959 2375 959 1747 
Q 959 1119 1226 758 
Q 1494 397 1959 397 
Q 2419 397 2687 759 
Q 2956 1122 2956 1747 
Q 2956 2369 2687 2733 
Q 2419 3097 1959 3097 
z
M 1959 3584 
Q 2709 3584 3137 3096 
Q 3566 2609 3566 1747 
Q 3566 888 3137 398 
Q 2709 -91 1959 -91 
Q 1206 -91 779 398 
Q 353 888 353 1747 
Q 353 2609 779 3096 
Q 1206 3584 1959 3584 
z
" transform="scale(0.015625)"/>
       <path id="DejaVuSans-64" d="M 2906 2969 
L 2906 4863 
L 3481 4863 
L 3481 0 
L 2906 0 
L 2906 525 
Q 2725 213 2448 61 
Q 2172 -91 1784 -91 
Q 1150 -91 751 415 
Q 353 922 353 1747 
Q 353 2572 751 3078 
Q 1150 3584 1784 3584 
Q 2172 3584 2448 3432 
Q 2725 3281 2906 2969 
z
M 947 1747 
Q 947 1113 1208 752 
Q 1469 391 1925 391 
Q 2381 391 2643 752 
Q 2906 1113 2906 1747 
Q 2906 2381 2643 2742 
Q 2381 3103 1925 3103 
Q 1469 3103 1208 2742 
Q 947 2381 947 1747 
z
" transform="scale(0.015625)"/>
       <path id="DejaVuSans-65" d="M 3597 1894 
L 3597 1613 
L 953 1613 
Q 991 1019 1311 708 
Q 1631 397 2203 397 
Q 2534 397 2845 478 
Q 3156 559 3463 722 
L 3463 178 
Q 3153 47 2828 -22 
Q 2503 -91 2169 -91 
Q 1331 -91 842 396 
Q 353 884 353 1716 
Q 353 2575 817 3079 
Q 1281 3584 2069 3584 
Q 2775 3584 3186 3129 
Q 3597 2675 3597 1894 
z
M 3022 2063 
Q 3016 2534 2758 2815 
Q 2500 3097 2075 3097 
Q 1594 3097 1305 2825 
Q 1016 2553 972 2059 
L 3022 2063 
z
" transform="scale(0.015625)"/>
      </defs>
      <use xlink:href="#DejaVuSans-45"/>
      <use xlink:href="#DejaVuSans-70" x="63.183594"/>
      <use xlink:href="#DejaVuSans-69" x="126.660156"/>
      <use xlink:href="#DejaVuSans-73" x="154.443359"/>
      <use xlink:href="#DejaVuSans-6f" x="206.542969"/>
      <use xlink:href="#DejaVuSans-64" x="267.724609"/>
      <use xlink:href="#DejaVuSans-65" x="331.201172"/>
      <use xlink:href="#DejaVuSans-73" x="392.724609"/>
     </g>
    </g>
   </g>
   <g id="matplotlib.axis_2">
    <g id="ytick_1">
     <g id="line2d_15">
      <path d="M 90 320.4 
L 648 320.4 
" clip-path="url(#pdffce835aa)" style="fill: none; stroke-dasharray: 2.96,1.28; stroke-dashoffset: 0; stroke: #b0b0b0; stroke-width: 0.8"/>
     </g>
     <g id="line2d_16">
      <defs>
       <path id="me0986b9378" d="M 0 0 
L -3.5 0 
" style="stroke: #000000; stroke-width: 0.8"/>
      </defs>
      <g>
       <use xlink:href="#me0986b9378" x="90" y="320.4" style="stroke: #000000; stroke-width: 0.8"/>
      </g>
     </g>
     <g id="text_9">
      <!-- 0 -->
      <g transform="translate(76.6375 324.199219)scale(0.1 -0.1)">
       <use xlink:href="#DejaVuSans-30"/>
      </g>
     </g>
    </g>
    <g id="ytick_2">
     <g id="line2d_17">
      <path d="M 90 264.96 
L 648 264.96 
" clip-path="url(#pdffce835aa)" style="fill: none; stroke-dasharray: 2.96,1.28; stroke-dashoffset: 0; stroke: #b0b0b0; stroke-width: 0.8"/>
     </g>
     <g id="line2d_18">
      <g>
       <use xlink:href="#me0986b9378" x="90" y="264.96" style="stroke: #000000; stroke-width: 0.8"/>
      </g>
     </g>
     <g id="text_10">
      <!-- 2000 -->
      <g transform="translate(57.55 268.759219)scale(0.1 -0.1)">
       <use xlink:href="#DejaVuSans-32"/>
       <use xlink:href="#DejaVuSans-30" x="63.623047"/>
       <use xlink:href="#DejaVuSans-30" x="127.246094"/>
       <use xlink:href="#DejaVuSans-30" x="190.869141"/>
      </g>
     </g>
    </g>
    <g id="ytick_3">
     <g id="line2d_19">
      <path d="M 90 209.52 
L 648 209.52 
" clip-path="url(#pdffce835aa)" style="fill: none; stroke-dasharray: 2.96,1.28; stroke-dashoffset: 0; stroke: #b0b0b0; stroke-width: 0.8"/>
     </g>
     <g id="line2d_20">
      <g>
       <use xlink:href="#me0986b9378" x="90" y="209.52" style="stroke: #000000; stroke-width: 0.8"/>
      </g>
     </g>
     <g id="text_11">
      <!-- 4000 -->
      <g transform="translate(57.55 213.319219)scale(0.1 -0.1)">
       <use xlink:href="#DejaVuSans-34"/>
       <use xlink:href="#DejaVuSans-30" x="63.623047"/>
       <use xlink:href="#DejaVuSans-30" x="127.246094"/>
       <use xlink:href="#DejaVuSans-30" x="190.869141"/>
      </g>
     </g>
    </g>
    <g id="ytick_4">
     <g id="line2d_21">
      <path d="M 90 154.08 
L 648 154.08 
" clip-path="url(#pdffce835aa)" style="fill: none; stroke-dasharray: 2.96,1.28; stroke-dashoffset: 0; stroke: #b0b0b0; stroke-width: 0.8"/>
     </g>
     <g id="line2d_22">
      <g>
       <use xlink:href="#me0986b9378" x="90" y="154.08" style="stroke: #000000; stroke-width: 0.8"/>
      </g>
     </g>
     <g id="text_12">
      <!-- 6000 -->
      <g transform="translate(57.55 157.879219)scale(0.1 -0.1)">
       <use xlink:href="#DejaVuSans-36"/>
       <use xlink:href="#DejaVuSans-30" x="63.623047"/>
       <use xlink:href="#DejaVuSans-30" x="127.246094"/>
       <use xlink:href="#DejaVuSans-30" x="190.869141"/>
      </g>
     </g>
    </g>
    <g id="ytick_5">
     <g id="line2d_23">
      <path d="M 90 98.64 
L 648 98.64 
" clip-path="url(#pdffce835aa)" style="fill: none; stroke-dasharray: 2.96,1.28; stroke-dashoffset: 0; stroke: #b0b0b0; stroke-width: 0.8"/>
     </g>
     <g id="line2d_24">
      <g>
       <use xlink:href="#me0986b9378" x="90" y="98.64" style="stroke: #000000; stroke-width: 0.8"/>
      </g>
     </g>
     <g id="text_13">
      <!-- 8000 -->
      <g transform="translate(57.55 102.439219)scale(0.1 -0.1)">
       <defs>
        <path id="DejaVuSans-38" d="M 2034 2216 
Q 1584 2216 1326 1975 
Q 1069 1734 1069 1313 
Q 1069 891 1326 650 
Q 1584 409 2034 409 
Q 2484 409 2743 651 
Q 3003 894 3003 1313 
Q 3003 1734 2745 1975 
Q 2488 2216 2034 2216 
z
M 1403 2484 
Q 997 2584 770 2862 
Q 544 3141 544 3541 
Q 544 4100 942 4425 
Q 1341 4750 2034 4750 
Q 2731 4750 3128 4425 
Q 3525 4100 3525 3541 
Q 3525 3141 3298 2862 
Q 3072 2584 2669 2484 
Q 3125 2378 3379 2068 
Q 3634 1759 3634 1313 
Q 3634 634 3220 271 
Q 2806 -91 2034 -91 
Q 1263 -91 848 271 
Q 434 634 434 1313 
Q 434 1759 690 2068 
Q 947 2378 1403 2484 
z
M 1172 3481 
Q 1172 3119 1398 2916 
Q 1625 2713 2034 2713 
Q 2441 2713 2670 2916 
Q 2900 3119 2900 3481 
Q 2900 3844 2670 4047 
Q 2441 4250 2034 4250 
Q 1625 4250 1398 4047 
Q 1172 3844 1172 3481 
z
" transform="scale(0.015625)"/>
       </defs>
       <use xlink:href="#DejaVuSans-38"/>
       <use xlink:href="#DejaVuSans-30" x="63.623047"/>
       <use xlink:href="#DejaVuSans-30" x="127.246094"/>
       <use xlink:href="#DejaVuSans-30" x="190.869141"/>
      </g>
     </g>
    </g>
    <g id="ytick_6">
     <g id="line2d_25">
      <path d="M 90 43.2 
L 648 43.2 
" clip-path="url(#pdffce835aa)" style="fill: none; stroke-dasharray: 2.96,1.28; stroke-dashoffset: 0; stroke: #b0b0b0; stroke-width: 0.8"/>
     </g>
     <g id="line2d_26">
      <g>
       <use xlink:href="#me0986b9378" x="90" y="43.2" style="stroke: #000000; stroke-width: 0.8"/>
      </g>
     </g>
     <g id="text_14">
      <!-- 10000 -->
      <g transform="translate(51.1875 46.999219)scale(0.1 -0.1)">
       <use xlink:href="#DejaVuSans-31"/>
       <use xlink:href="#DejaVuSans-30" x="63.623047"/>
       <use xlink:href="#DejaVuSans-30" x="127.246094"/>
       <use xlink:href="#DejaVuSans-30" x="190.869141"/>
       <use xlink:href="#DejaVuSans-30" x="254.492188"/>
      </g>
     </g>
    </g>
    <g id="text_15">
     <!-- Profit -->
     <g transform="translate(45.107813 194.839062)rotate(-90)scale(0.1 -0.1)">
      <defs>
       <path id="DejaVuSans-50" d="M 1259 4147 
L 1259 2394 
L 2053 2394 
Q 2494 2394 2734 2622 
Q 2975 2850 2975 3272 
Q 2975 3691 2734 3919 
Q 2494 4147 2053 4147 
L 1259 4147 
z
M 628 4666 
L 2053 4666 
Q 2838 4666 3239 4311 
Q 3641 3956 3641 3272 
Q 3641 2581 3239 2228 
Q 2838 1875 2053 1875 
L 1259 1875 
L 1259 0 
L 628 0 
L 628 4666 
z
" transform="scale(0.015625)"/>
       <path id="DejaVuSans-72" d="M 2631 2963 
Q 2534 3019 2420 3045 
Q 2306 3072 2169 3072 
Q 1681 3072 1420 2755 
Q 1159 2438 1159 1844 
L 1159 0 
L 581 0 
L 581 3500 
L 1159 3500 
L 1159 2956 
Q 1341 3275 1631 3429 
Q 1922 3584 2338 3584 
Q 2397 3584 2469 3576 
Q 2541 3569 2628 3553 
L 2631 2963 
z
" transform="scale(0.015625)"/>
       <path id="DejaVuSans-66" d="M 2375 4863 
L 2375 4384 
L 1825 4384 
Q 1516 4384 1395 4259 
Q 1275 4134 1275 3809 
L 1275 3500 
L 2222 3500 
L 2222 3053 
L 1275 3053 
L 1275 0 
L 697 0 
L 697 3053 
L 147 3053 
L 147 3500 
L 697 3500 
L 697 3744 
Q 697 4328 969 4595 
Q 1241 4863 1831 4863 
L 2375 4863 
z
" transform="scale(0.015625)"/>
       <path id="DejaVuSans-74" d="M 1172 4494 
L 1172 3500 
L 2356 3500 
L 2356 3053 
L 1172 3053 
L 1172 1153 
Q 1172 725 1289 603 
Q 1406 481 1766 481 
L 2356 481 
L 2356 0 
L 1766 0 
Q 1100 0 847 248 
Q 594 497 594 1153 
L 594 3053 
L 172 3053 
L 172 3500 
L 594 3500 
L 594 4494 
L 1172 4494 
z
" transform="scale(0.015625)"/>
      </defs>
      <use xlink:href="#DejaVuSans-50"/>
      <use xlink:href="#DejaVuSans-72" x="58.552734"/>
      <use xlink:href="#DejaVuSans-6f" x="97.416016"/>
      <use xlink:href="#DejaVuSans-66" x="158.597656"/>
      <use xlink:href="#DejaVuSans-69" x="193.802734"/>
      <use xlink:href="#DejaVuSans-74" x="221.585938"/>
     </g>
    </g>
   </g>
   <g id="line2d_27">
    <path d="M 152.34913 361 
L 153.472606 355.319041 
L 154.319472 351.381207 
L 156.013204 342.663365 
L 160.247534 324.890268 
L 164.481864 309.677415 
L 167.022462 302.01963 
L 168.716194 296.90776 
L 171.256792 289.716031 
L 178.03172 272.632794 
L 182.266049 264.590721 
L 183.959781 261.27698 
L 184.806647 259.464996 
L 189.040977 252.421436 
L 192.428441 247.732364 
L 196.662771 242.955085 
L 197.509637 242.168992 
L 200.050235 239.054833 
L 201.743967 219.267238 
L 202.590833 211.24315 
L 203.437699 205.77308 
L 204.284565 202.044666 
L 205.131431 196.342296 
L 205.978297 189.188199 
L 206.825163 186.15248 
L 207.672029 182.407689 
L 209.365761 175.934163 
L 210.212627 172.49713 
L 213.600091 161.338964 
L 214.446957 157.586704 
L 215.293823 153.227528 
L 216.140689 149.975804 
L 216.987555 148.785558 
L 217.834421 148.226393 
L 219.528153 147.376699 
L 220.375019 146.870059 
L 221.221885 146.522246 
L 222.068751 146.614591 
L 223.762483 146.464917 
L 227.149947 146.524001 
L 228.843679 146.423619 
L 231.384277 145.700435 
L 233.924875 145.589654 
L 235.618607 145.449173 
L 236.465473 145.064959 
L 237.312339 144.804525 
L 239.006071 144.61296 
L 239.852937 144.435254 
L 240.699803 144.747778 
L 241.546669 144.899984 
L 242.393535 144.849917 
L 243.240401 144.674622 
L 244.087267 144.365095 
L 245.780999 144.648952 
L 247.474731 144.800659 
L 248.321597 147.947316 
L 249.168463 156.059197 
L 253.402793 215.018068 
L 257.637122 263.79463 
L 258.483988 270.921563 
L 259.330854 276.396317 
L 260.17772 276.959238 
L 261.024586 279.796715 
L 261.871452 281.711772 
L 263.565184 282.837988 
L 264.41205 283.072785 
L 265.258916 283.752791 
L 266.105782 284.654244 
L 270.340112 286.180128 
L 272.88071 286.364285 
L 273.727576 286.508878 
L 275.421308 287.123824 
L 277.11504 286.815099 
L 277.961906 286.98683 
L 279.655638 286.727108 
L 281.34937 286.731758 
L 282.196236 286.602877 
L 283.043102 286.319767 
L 283.889968 286.229879 
L 286.430566 288.11447 
L 287.277432 289.001604 
L 288.124298 290.499781 
L 288.971164 291.130976 
L 289.81803 291.210654 
L 290.664896 291.888941 
L 292.358628 292.339873 
L 293.205494 292.550746 
L 294.05236 292.376692 
L 294.899226 292.472499 
L 295.746092 292.298852 
L 297.439824 292.714013 
L 298.28669 292.484813 
L 299.133556 295.400945 
L 299.980422 299.795294 
L 300.827288 300.545484 
L 301.674154 305.233096 
L 302.52102 314.188063 
L 303.367886 315.714044 
L 304.214752 319.604338 
L 305.061618 321.771754 
L 305.908484 327.563782 
L 306.75535 328.092756 
L 307.602216 333.208556 
L 309.295948 334.275162 
L 310.142814 335.077972 
L 310.98968 335.588327 
L 311.836546 335.666602 
L 313.530278 336.168173 
L 314.377144 336.561583 
L 315.22401 336.72466 
L 316.917742 337.478169 
L 319.45834 338.158446 
L 320.305206 339.640795 
L 321.152072 351.634808 
L 321.998938 354.915841 
L 322.845804 355.22907 
L 323.69267 355.282877 
L 324.539536 355.482022 
L 325.386402 355.514089 
L 327.080134 355.947454 
L 328.773866 356.438495 
L 330.467598 357.022117 
L 331.314463 357.150298 
L 332.161329 357.067624 
L 333.008195 357.259852 
L 333.855061 354.203875 
L 334.701927 346.338235 
L 338.089391 298.236724 
L 341.476855 257.749484 
L 343.170587 241.147097 
L 344.017453 234.485741 
L 344.864319 229.315521 
L 345.711185 229.730984 
L 346.558051 229.586777 
L 347.404917 233.978343 
L 348.251783 239.277869 
L 349.945515 247.108952 
L 350.792381 249.709842 
L 351.639247 249.63942 
L 352.486113 249.84971 
L 354.179845 250.076334 
L 355.026711 250.186818 
L 355.873577 250.607415 
L 356.720443 250.886225 
L 358.414175 250.947826 
L 359.261041 251.067798 
L 360.107907 251.021801 
L 360.954773 250.722817 
L 362.648505 251.08905 
L 364.342237 250.876863 
L 365.189103 250.91492 
L 366.882835 251.347167 
L 367.729701 251.179256 
L 368.576567 251.296372 
L 369.423433 251.68351 
L 371.117165 250.638345 
L 371.964031 250.785327 
L 372.810897 250.740689 
L 373.657763 249.84494 
L 374.504629 249.437341 
L 375.351495 249.803736 
L 376.198361 249.925815 
L 377.045227 250.522362 
L 379.585825 250.88546 
L 380.432691 250.869412 
L 381.279557 251.076076 
L 382.126423 251.050836 
L 382.973289 250.851045 
L 383.820155 251.012523 
L 384.667021 248.156018 
L 385.513887 244.136831 
L 386.360753 243.81892 
L 387.207619 239.092919 
L 388.054485 230.265947 
L 388.901351 229.027977 
L 389.748217 225.51111 
L 390.595083 223.480693 
L 391.441949 218.068396 
L 392.288815 217.708238 
L 393.135681 212.569307 
L 393.982547 212.031954 
L 394.829413 211.704615 
L 395.676279 210.881712 
L 396.523145 210.554437 
L 397.370011 210.020992 
L 398.216877 209.925186 
L 399.063743 210.773083 
L 399.910609 211.071651 
L 400.757475 211.216982 
L 401.604341 210.701141 
L 402.451207 210.330145 
L 403.298073 211.296517 
L 404.144939 211.928633 
L 404.991805 211.918656 
L 405.838671 210.538608 
L 406.685537 198.712247 
L 407.532402 195.620536 
L 408.379268 196.01165 
L 409.226134 196.649229 
L 411.766732 196.529591 
L 412.613598 196.315676 
L 413.460464 196.292526 
L 414.30733 196.530563 
L 416.847928 197.700511 
L 418.54166 198.139226 
L 420.235392 198.355856 
L 421.082258 198.693757 
L 421.929124 198.784056 
L 422.77599 198.681531 
L 425.316588 199.380175 
L 426.163454 199.78819 
L 427.01032 199.983018 
L 428.704052 199.408431 
L 429.550918 199.323592 
L 430.397784 199.56302 
L 431.24465 199.109092 
L 432.091516 197.03758 
L 433.785248 186.095814 
L 435.47898 178.077977 
L 436.325846 175.014247 
L 437.172712 174.370389 
L 438.019578 174.259372 
L 442.253908 174.78293 
L 443.100774 175.543315 
L 443.94764 176.105516 
L 447.335104 177.565031 
L 448.18197 178.102411 
L 449.028836 178.866824 
L 450.722568 181.03824 
L 451.569434 182.752546 
L 452.4163 182.84973 
L 453.263166 183.581992 
L 454.110032 183.91097 
L 454.956898 184.029085 
L 455.803764 184.461454 
L 456.65063 185.020937 
L 457.497496 184.786991 
L 458.344362 184.704601 
L 460.038094 185.382318 
L 462.578692 184.758789 
L 464.272424 184.968729 
L 465.11929 185.366032 
L 465.966156 185.893731 
L 466.813022 188.683615 
L 467.659888 190.40483 
L 468.506754 190.753171 
L 470.200486 190.945053 
L 471.894218 191.207627 
L 472.741084 191.725118 
L 474.434816 192.276392 
L 475.281682 192.843542 
L 476.128548 195.364876 
L 476.975414 199.55576 
L 477.82228 205.230316 
L 478.669146 208.825429 
L 479.516012 209.188286 
L 480.362878 209.715702 
L 481.209744 210.617731 
L 482.05661 210.869746 
L 482.903475 211.330864 
L 483.750341 211.505382 
L 484.597207 210.899032 
L 485.444073 210.895496 
L 486.290939 212.133622 
L 487.137805 218.924382 
L 488.831537 241.624744 
L 492.219001 271.561115 
L 493.065867 281.591073 
L 493.912733 292.966012 
L 494.759599 301.408111 
L 495.606465 307.760163 
L 497.300197 315.872401 
L 498.147063 317.298292 
L 498.993929 317.849366 
L 499.840795 319.195075 
L 500.687661 321.481801 
L 501.534527 321.557144 
L 502.381393 321.800647 
L 503.228259 322.336446 
L 504.075125 322.582632 
L 504.921991 323.593348 
L 505.768857 324.347142 
L 506.615723 324.714111 
L 507.462589 325.439091 
L 508.309455 327.570003 
L 510.850053 329.326881 
L 515.931249 331.082671 
L 516.778115 330.956151 
L 517.624981 331.299111 
L 518.471847 331.782802 
L 519.318713 331.788318 
L 520.165579 331.541873 
L 521.859311 331.536173 
L 522.706177 331.789914 
L 523.553043 332.536429 
L 525.246775 332.10821 
L 526.093641 332.376756 
L 527.787373 333.388801 
L 529.481105 332.604132 
L 531.174837 332.074028 
L 532.021703 332.214905 
L 532.868569 332.168221 
L 533.715435 331.74767 
L 534.562301 331.525572 
L 535.409167 330.940949 
L 536.256033 330.200928 
L 537.102899 328.820853 
L 538.796631 328.702834 
L 540.490363 328.965985 
L 543.030961 328.723805 
L 545.571559 328.252604 
L 546.418425 328.411965 
L 547.265291 328.267263 
L 548.112157 328.464239 
L 548.959023 328.795835 
L 550.652755 328.553279 
L 551.499621 328.081648 
L 552.346487 325.506539 
L 553.193353 323.923435 
L 554.040219 325.082921 
L 554.887085 330.425455 
L 555.733951 341.462658 
L 557.030563 361 
M 573.736027 361 
L 574.365002 351.843158 
L 575.211868 344.42566 
L 576.058734 338.283715 
L 576.9056 331.16204 
L 577.752466 323.09151 
L 578.599332 313.021663 
L 579.446198 301.334473 
L 580.293064 292.460186 
L 581.13993 286.295094 
L 582.833662 278.974464 
L 583.680528 277.614996 
L 584.527394 277.256645 
L 585.37426 275.803717 
L 586.221126 273.539858 
L 587.067992 273.426733 
L 589.60859 272.735819 
L 591.302322 270.916857 
L 592.149188 270.71787 
L 593.84292 269.609569 
L 594.689786 273.01031 
L 596.383518 294.267325 
L 599.770982 342.394566 
L 601.026411 361 
L 601.026411 361 
" clip-path="url(#pdffce835aa)" style="fill: none; stroke: #1f77b4; stroke-width: 1.5; stroke-linecap: square"/>
   </g>
   <g id="line2d_28">
    <path d="M 152.771333 361 
L 156.013204 353.306209 
L 161.0944 342.043389 
L 168.716194 326.64739 
L 170.409926 323.123998 
L 178.03172 309.107393 
L 179.725452 306.255389 
L 180.572317 305.051682 
L 190.734709 287.13689 
L 193.275307 282.803924 
L 196.662771 277.584445 
L 200.050235 272.80794 
L 200.897101 261.56488 
L 201.743967 253.860542 
L 202.590833 250.818102 
L 204.284565 245.998092 
L 207.672029 235.298227 
L 210.212627 228.903334 
L 211.059493 226.682768 
L 213.600091 221.425815 
L 222.068751 204.718281 
L 224.609349 200.277279 
L 225.456215 198.411568 
L 232.231143 186.67953 
L 240.699803 173.587813 
L 244.087267 168.808538 
L 246.627865 165.570587 
L 250.015329 161.243063 
L 252.555927 158.316974 
L 255.94339 155.058786 
L 261.024586 150.318923 
L 263.565184 148.284226 
L 265.258916 146.932749 
L 266.105782 146.142654 
L 270.340112 143.500992 
L 271.186978 143.208813 
L 272.88071 142.317637 
L 276.268174 141.170136 
L 279.655638 140.134514 
L 284.736834 138.440554 
L 286.430566 137.902102 
L 288.971164 137.095955 
L 290.664896 136.640499 
L 307.602216 131.831326 
L 310.142814 131.005817 
L 313.530278 130.138399 
L 318.611474 128.587012 
L 319.45834 128.297446 
L 321.998938 127.750907 
L 323.69267 127.312208 
L 328.773866 126.241735 
L 339.783123 124.121831 
L 341.476855 123.817137 
L 343.170587 123.45572 
L 349.945515 122.428428 
L 352.486113 121.986876 
L 355.873577 121.603616 
L 357.567309 121.343961 
L 360.107907 121.017114 
L 361.801639 120.751509 
L 384.667021 117.860942 
L 390.595083 117.446406 
L 394.829413 117.022076 
L 400.757475 116.574881 
L 404.144939 116.422077 
L 406.685537 116.33862 
L 415.154196 116.141008 
L 426.163454 115.744748 
L 427.857186 115.813146 
L 430.397784 115.668965 
L 433.785248 115.658674 
L 438.866444 115.449779 
L 450.722568 115.222459 
L 454.110032 115.070829 
L 455.803764 115.032154 
L 464.272424 114.839789 
L 467.659888 114.857377 
L 471.894218 114.748142 
L 528.634239 113.737356 
L 533.715435 113.531391 
L 537.102899 113.498195 
L 542.184095 113.319362 
L 544.724693 113.305853 
L 547.265291 113.279223 
L 550.652755 113.150705 
L 553.193353 113.024684 
L 556.580817 113.047422 
L 563.355744 112.954395 
L 567.590074 112.92743 
L 570.977538 112.860003 
L 573.518136 112.710247 
L 576.9056 112.582024 
L 580.293064 112.337244 
L 581.986796 112.373499 
L 584.527394 112.289006 
L 587.914858 112.2033 
L 589.60859 112.14602 
L 595.536652 112.054305 
L 602.31158 111.800433 
L 607.392776 111.947829 
L 618.402034 111.675852 
L 622.636364 111.685844 
L 622.636364 111.685844 
" clip-path="url(#pdffce835aa)" style="fill: none; stroke: #ff7f0e; stroke-width: 1.5; stroke-linecap: square"/>
   </g>
   <g id="patch_3">
    <path d="M 90 320.4 
L 90 43.2 
" style="fill: none; stroke: #000000; stroke-width: 0.8; stroke-linejoin: miter; stroke-linecap: square"/>
   </g>
   <g id="patch_4">
    <path d="M 648 320.4 
L 648 43.2 
" style="fill: none; stroke: #000000; stroke-width: 0.8; stroke-linejoin: miter; stroke-linecap: square"/>
   </g>
   <g id="patch_5">
    <path d="M 90 320.4 
L 648 320.4 
" style="fill: none; stroke: #000000; stroke-width: 0.8; stroke-linejoin: miter; stroke-linecap: square"/>
   </g>
   <g id="patch_6">
    <path d="M 90 43.2 
L 648 43.2 
" style="fill: none; stroke: #000000; stroke-width: 0.8; stroke-linejoin: miter; stroke-linecap: square"/>
   </g>
   <g id="legend_1">
    <g id="patch_7">
     <path d="M 498.4125 81.1125 
L 641 81.1125 
Q 643 81.1125 643 79.1125 
L 643 50.2 
Q 643 48.2 641 48.2 
L 498.4125 48.2 
Q 496.4125 48.2 496.4125 50.2 
L 496.4125 79.1125 
Q 496.4125 81.1125 498.4125 81.1125 
z
" style="fill: #ffffff; opacity: 0.8; stroke: #cccccc; stroke-linejoin: miter"/>
    </g>
    <g id="line2d_29">
     <path d="M 500.4125 56.298437 
L 510.4125 56.298437 
L 520.4125 56.298437 
" style="fill: none; stroke: #1f77b4; stroke-width: 1.5; stroke-linecap: square"/>
    </g>
    <g id="text_16">
     <!-- Mean of a2c_standard -->
     <g transform="translate(528.4125 59.798437)scale(0.1 -0.1)">
      <defs>
       <path id="DejaVuSans-4d" d="M 628 4666 
L 1569 4666 
L 2759 1491 
L 3956 4666 
L 4897 4666 
L 4897 0 
L 4281 0 
L 4281 4097 
L 3078 897 
L 2444 897 
L 1241 4097 
L 1241 0 
L 628 0 
L 628 4666 
z
" transform="scale(0.015625)"/>
       <path id="DejaVuSans-61" d="M 2194 1759 
Q 1497 1759 1228 1600 
Q 959 1441 959 1056 
Q 959 750 1161 570 
Q 1363 391 1709 391 
Q 2188 391 2477 730 
Q 2766 1069 2766 1631 
L 2766 1759 
L 2194 1759 
z
M 3341 1997 
L 3341 0 
L 2766 0 
L 2766 531 
Q 2569 213 2275 61 
Q 1981 -91 1556 -91 
Q 1019 -91 701 211 
Q 384 513 384 1019 
Q 384 1609 779 1909 
Q 1175 2209 1959 2209 
L 2766 2209 
L 2766 2266 
Q 2766 2663 2505 2880 
Q 2244 3097 1772 3097 
Q 1472 3097 1187 3025 
Q 903 2953 641 2809 
L 641 3341 
Q 956 3463 1253 3523 
Q 1550 3584 1831 3584 
Q 2591 3584 2966 3190 
Q 3341 2797 3341 1997 
z
" transform="scale(0.015625)"/>
       <path id="DejaVuSans-6e" d="M 3513 2113 
L 3513 0 
L 2938 0 
L 2938 2094 
Q 2938 2591 2744 2837 
Q 2550 3084 2163 3084 
Q 1697 3084 1428 2787 
Q 1159 2491 1159 1978 
L 1159 0 
L 581 0 
L 581 3500 
L 1159 3500 
L 1159 2956 
Q 1366 3272 1645 3428 
Q 1925 3584 2291 3584 
Q 2894 3584 3203 3211 
Q 3513 2838 3513 2113 
z
" transform="scale(0.015625)"/>
       <path id="DejaVuSans-20" transform="scale(0.015625)"/>
       <path id="DejaVuSans-63" d="M 3122 3366 
L 3122 2828 
Q 2878 2963 2633 3030 
Q 2388 3097 2138 3097 
Q 1578 3097 1268 2742 
Q 959 2388 959 1747 
Q 959 1106 1268 751 
Q 1578 397 2138 397 
Q 2388 397 2633 464 
Q 2878 531 3122 666 
L 3122 134 
Q 2881 22 2623 -34 
Q 2366 -91 2075 -91 
Q 1284 -91 818 406 
Q 353 903 353 1747 
Q 353 2603 823 3093 
Q 1294 3584 2113 3584 
Q 2378 3584 2631 3529 
Q 2884 3475 3122 3366 
z
" transform="scale(0.015625)"/>
       <path id="DejaVuSans-5f" d="M 3263 -1063 
L 3263 -1509 
L -63 -1509 
L -63 -1063 
L 3263 -1063 
z
" transform="scale(0.015625)"/>
      </defs>
      <use xlink:href="#DejaVuSans-4d"/>
      <use xlink:href="#DejaVuSans-65" x="86.279297"/>
      <use xlink:href="#DejaVuSans-61" x="147.802734"/>
      <use xlink:href="#DejaVuSans-6e" x="209.082031"/>
      <use xlink:href="#DejaVuSans-20" x="272.460938"/>
      <use xlink:href="#DejaVuSans-6f" x="304.248047"/>
      <use xlink:href="#DejaVuSans-66" x="365.429688"/>
      <use xlink:href="#DejaVuSans-20" x="400.634766"/>
      <use xlink:href="#DejaVuSans-61" x="432.421875"/>
      <use xlink:href="#DejaVuSans-32" x="493.701172"/>
      <use xlink:href="#DejaVuSans-63" x="557.324219"/>
      <use xlink:href="#DejaVuSans-5f" x="612.304688"/>
      <use xlink:href="#DejaVuSans-73" x="662.304688"/>
      <use xlink:href="#DejaVuSans-74" x="714.404297"/>
      <use xlink:href="#DejaVuSans-61" x="753.613281"/>
      <use xlink:href="#DejaVuSans-6e" x="814.892578"/>
      <use xlink:href="#DejaVuSans-64" x="878.271484"/>
      <use xlink:href="#DejaVuSans-61" x="941.748047"/>
      <use xlink:href="#DejaVuSans-72" x="1003.027344"/>
      <use xlink:href="#DejaVuSans-64" x="1042.390625"/>
     </g>
    </g>
    <g id="line2d_30">
     <path d="M 500.4125 71.254687 
L 510.4125 71.254687 
L 520.4125 71.254687 
" style="fill: none; stroke: #ff7f0e; stroke-width: 1.5; stroke-linecap: square"/>
    </g>
    <g id="text_17">
     <!-- Mean of sac_standard -->
     <g transform="translate(528.4125 74.754687)scale(0.1 -0.1)">
      <use xlink:href="#DejaVuSans-4d"/>
      <use xlink:href="#DejaVuSans-65" x="86.279297"/>
      <use xlink:href="#DejaVuSans-61" x="147.802734"/>
      <use xlink:href="#DejaVuSans-6e" x="209.082031"/>
      <use xlink:href="#DejaVuSans-20" x="272.460938"/>
      <use xlink:href="#DejaVuSans-6f" x="304.248047"/>
      <use xlink:href="#DejaVuSans-66" x="365.429688"/>
      <use xlink:href="#DejaVuSans-20" x="400.634766"/>
      <use xlink:href="#DejaVuSans-73" x="432.421875"/>
      <use xlink:href="#DejaVuSans-61" x="484.521484"/>
      <use xlink:href="#DejaVuSans-63" x="545.800781"/>
      <use xlink:href="#DejaVuSans-5f" x="600.78125"/>
      <use xlink:href="#DejaVuSans-73" x="650.78125"/>
      <use xlink:href="#DejaVuSans-74" x="702.880859"/>
      <use xlink:href="#DejaVuSans-61" x="742.089844"/>
      <use xlink:href="#DejaVuSans-6e" x="803.369141"/>
      <use xlink:href="#DejaVuSans-64" x="866.748047"/>
      <use xlink:href="#DejaVuSans-61" x="930.224609"/>
      <use xlink:href="#DejaVuSans-72" x="991.503906"/>
      <use xlink:href="#DejaVuSans-64" x="1030.867188"/>
     </g>
    </g>
   </g>
  </g>
 </g>
 <defs>
  <clipPath id="pdffce835aa">
   <rect x="90" y="43.2" width="558" height="277.2"/>
  </clipPath>
 </defs>
</svg>
