<?xml version="1.0" encoding="utf-8" standalone="no"?>
<!DOCTYPE svg PUBLIC "-//W3C//DTD SVG 1.1//EN"
  "http://www.w3.org/Graphics/SVG/1.1/DTD/svg11.dtd">
<svg xmlns:xlink="http://www.w3.org/1999/xlink" width="720pt" height="360pt" viewBox="0 0 720 360" xmlns="http://www.w3.org/2000/svg" version="1.1">
 <metadata>
  <rdf:RDF xmlns:dc="http://purl.org/dc/elements/1.1/" xmlns:cc="http://creativecommons.org/ns#" xmlns:rdf="http://www.w3.org/1999/02/22-rdf-syntax-ns#">
   <cc:Work>
    <dc:type rdf:resource="http://purl.org/dc/dcmitype/StillImage"/>
    <dc:date>2022-06-13T23:40:05.085733</dc:date>
    <dc:format>image/svg+xml</dc:format>
    <dc:creator>
     <cc:Agent>
      <dc:title>Matplotlib v3.5.2, https://matplotlib.org/</dc:title>
     </cc:Agent>
    </dc:creator>
   </cc:Work>
  </rdf:RDF>
 </metadata>
 <defs>
  <style type="text/css">*{stroke-linejoin: round; stroke-linecap: butt}</style>
 </defs>
 <g id="figure_1">
  <g id="patch_1">
   <path d="M 0 360 
L 720 360 
L 720 0 
L 0 0 
L 0 360 
z
" style="fill: none"/>
  </g>
  <g id="axes_1">
   <g id="patch_2">
    <path d="M 90 320.4 
L 648 320.4 
L 648 43.2 
L 90 43.2 
L 90 320.4 
z
" style="fill: none"/>
   </g>
   <g id="PolyCollection_1">
    <path d="M 115.363636 1088.044462 
L 115.363636 1419.388019 
L 116.210502 1282.789128 
L 117.057368 1244.629851 
L 117.904234 1221.501106 
L 118.7511 1245.092222 
L 119.597966 1279.574083 
L 120.444832 1313.160712 
L 121.291698 1255.875827 
L 122.138564 1147.322252 
L 122.98543 1057.044089 
L 123.832296 976.629846 
L 124.679162 912.132834 
L 125.526028 856.084707 
L 126.372894 808.691942 
L 127.21976 769.068449 
L 128.066626 732.817523 
L 128.913492 699.390194 
L 129.760358 670.646242 
L 130.607224 646.209993 
L 131.45409 623.596606 
L 132.300956 601.586399 
L 133.147822 584.116491 
L 133.994688 565.922193 
L 134.841554 549.388214 
L 135.68842 533.772859 
L 136.535286 521.210721 
L 137.382152 507.51474 
L 138.229018 495.767597 
L 139.075884 483.942253 
L 139.92275 472.137383 
L 140.769616 462.495961 
L 141.616482 453.199817 
L 142.463348 444.527744 
L 143.310214 437.537637 
L 144.15708 431.176311 
L 145.003946 423.349467 
L 145.850812 416.732945 
L 146.697678 411.000154 
L 147.544544 404.770101 
L 148.39141 398.387769 
L 149.238276 392.136869 
L 150.085142 387.476511 
L 150.932008 383.012961 
L 151.778874 378.386315 
L 152.62574 374.395996 
L 153.472606 370.05839 
L 154.319472 365.247949 
L 155.166338 360.737719 
L 156.013204 356.358859 
L 156.86007 352.168307 
L 157.706936 348.456501 
L 158.553802 344.626033 
L 159.400668 341.310185 
L 160.247534 337.799184 
L 161.0944 334.824877 
L 161.941266 332.154513 
L 162.788132 329.088522 
L 163.634998 326.396615 
L 164.481864 323.615554 
L 165.32873 320.841235 
L 166.175596 318.143092 
L 167.022462 315.676545 
L 167.869328 313.13826 
L 168.716194 310.06366 
L 169.56306 307.762047 
L 170.409926 305.108418 
L 171.256792 302.886976 
L 172.103658 300.966793 
L 172.950524 299.165064 
L 173.79739 297.252031 
L 174.644256 295.618387 
L 175.491122 293.802404 
L 176.337988 291.858868 
L 177.184854 290.395799 
L 178.03172 288.749095 
L 178.878586 287.405362 
L 179.725452 285.644304 
L 180.572317 284.244686 
L 181.419183 282.755807 
L 182.266049 281.116633 
L 183.112915 279.555133 
L 183.959781 278.112106 
L 184.806647 276.792476 
L 185.653513 275.690714 
L 186.500379 274.05555 
L 187.347245 272.53408 
L 188.194111 271.014448 
L 189.040977 270.093282 
L 189.887843 269.04006 
L 190.734709 267.313738 
L 191.581575 265.713432 
L 192.428441 264.360581 
L 193.275307 262.683987 
L 194.122173 261.285869 
L 194.969039 259.925322 
L 195.815905 258.411852 
L 196.662771 257.153267 
L 197.509637 256.252663 
L 198.356503 254.907395 
L 199.203369 253.482287 
L 200.050235 252.106503 
L 200.897101 242.558314 
L 201.743967 234.00791 
L 202.590833 223.487043 
L 203.437699 211.392349 
L 204.284565 196.406286 
L 205.131431 189.741288 
L 205.978297 189.851323 
L 206.825163 189.941894 
L 207.672029 190.305878 
L 208.518895 190.623994 
L 209.365761 190.919754 
L 210.212627 191.136949 
L 211.059493 191.733026 
L 211.906359 191.156381 
L 212.753225 191.481334 
L 213.600091 191.494381 
L 214.446957 190.901255 
L 215.293823 191.160961 
L 216.140689 191.596617 
L 216.987555 191.913376 
L 217.834421 192.713559 
L 218.681287 193.613629 
L 219.528153 194.354692 
L 220.375019 194.974719 
L 221.221885 195.250205 
L 222.068751 196.179632 
L 222.915617 196.653226 
L 223.762483 197.323206 
L 224.609349 197.796394 
L 225.456215 198.350547 
L 226.303081 198.893072 
L 227.149947 199.251675 
L 227.996813 200.201545 
L 228.843679 200.980086 
L 229.690545 201.971888 
L 230.537411 202.79032 
L 231.384277 203.399625 
L 232.231143 204.166476 
L 233.078009 204.957506 
L 233.924875 205.174171 
L 234.771741 205.931061 
L 235.618607 206.735866 
L 236.465473 207.418731 
L 237.312339 208.178941 
L 238.159205 208.582231 
L 239.006071 208.788231 
L 239.852937 209.325771 
L 240.699803 209.455794 
L 241.546669 209.422242 
L 242.393535 209.713603 
L 243.240401 209.966638 
L 244.087267 210.605936 
L 244.934133 211.101022 
L 245.780999 211.802083 
L 246.627865 211.104133 
L 247.474731 211.583328 
L 248.321597 211.578801 
L 249.168463 212.636013 
L 250.015329 213.334164 
L 250.862195 213.526013 
L 251.709061 214.34868 
L 252.555927 214.695174 
L 253.402793 215.286017 
L 254.249659 216.211659 
L 255.096525 216.491984 
L 255.94339 217.091078 
L 256.790256 218.034943 
L 257.637122 218.999524 
L 258.483988 219.178143 
L 259.330854 219.247436 
L 260.17772 218.951225 
L 261.024586 218.624078 
L 261.871452 218.190962 
L 262.718318 217.658251 
L 263.565184 217.856777 
L 264.41205 217.693372 
L 265.258916 217.720393 
L 266.105782 217.537223 
L 266.952648 217.743723 
L 267.799514 217.721287 
L 268.64638 217.7591 
L 269.493246 217.670172 
L 270.340112 217.003509 
L 271.186978 216.834911 
L 272.033844 216.890394 
L 272.88071 216.591003 
L 273.727576 216.504432 
L 274.574442 216.031986 
L 275.421308 216.184633 
L 276.268174 216.21462 
L 277.11504 216.127257 
L 277.961906 216.038399 
L 278.808772 215.498549 
L 279.655638 214.597021 
L 280.502504 214.904593 
L 281.34937 214.719846 
L 282.196236 214.666019 
L 283.043102 214.579277 
L 283.889968 214.504577 
L 284.736834 214.596211 
L 285.5837 214.420689 
L 286.430566 214.542962 
L 287.277432 214.46599 
L 288.124298 214.518538 
L 288.971164 214.200905 
L 289.81803 214.200541 
L 290.664896 213.866349 
L 291.511762 213.897936 
L 292.358628 213.84413 
L 293.205494 213.627256 
L 294.05236 213.480729 
L 294.899226 213.073556 
L 295.746092 213.00433 
L 296.592958 212.720725 
L 297.439824 213.14647 
L 298.28669 213.17268 
L 299.133556 212.710638 
L 299.980422 213.283405 
L 300.827288 213.114015 
L 301.674154 212.952026 
L 302.52102 213.037001 
L 303.367886 212.764003 
L 304.214752 212.852572 
L 305.061618 212.695669 
L 305.908484 212.626303 
L 306.75535 212.515913 
L 307.602216 211.794214 
L 308.449082 211.882632 
L 309.295948 211.884795 
L 310.142814 211.883736 
L 310.98968 211.538938 
L 311.836546 211.357736 
L 312.683412 211.483424 
L 313.530278 211.534833 
L 314.377144 211.488213 
L 315.22401 211.12296 
L 316.070876 210.835588 
L 316.917742 210.998176 
L 317.764608 210.923948 
L 318.611474 210.797194 
L 319.45834 210.794842 
L 320.305206 210.416392 
L 321.152072 210.298234 
L 321.998938 210.13794 
L 322.845804 210.260867 
L 323.69267 210.220318 
L 324.539536 210.058024 
L 325.386402 209.797547 
L 326.233268 209.896523 
L 327.080134 210.021428 
L 327.927 209.490423 
L 328.773866 208.980253 
L 329.620732 208.525383 
L 330.467598 207.924633 
L 331.314463 207.839949 
L 332.161329 207.611253 
L 333.008195 207.681096 
L 333.855061 208.005995 
L 334.701927 207.495316 
L 335.548793 207.339437 
L 336.395659 208.153914 
L 337.242525 257.931782 
L 338.089391 308.195605 
L 338.936257 355.221072 
L 339.783123 406.367227 
L 340.629989 458.439666 
L 341.476855 510.646087 
L 342.323721 562.317745 
L 343.170587 613.335272 
L 344.017453 662.866285 
L 344.864319 712.056647 
L 345.711185 762.605725 
L 346.558051 813.092246 
L 347.404917 863.10323 
L 348.251783 913.556714 
L 349.098649 963.626921 
L 349.945515 1014.200937 
L 350.792381 1065.154934 
L 351.639247 1115.885524 
L 352.486113 1164.881679 
L 353.332979 1213.082101 
L 354.179845 1262.677144 
L 355.026711 1311.081666 
L 355.873577 1362.014497 
L 356.720443 1412.593332 
L 357.567309 1462.969491 
L 358.414175 1513.542969 
L 359.261041 1563.754739 
L 360.107907 1613.029235 
L 360.954773 1663.80606 
L 361.801639 1713.943485 
L 362.648505 1763.332233 
L 363.495371 1812.72397 
L 364.342237 1860.871899 
L 365.189103 1909.014923 
L 366.035969 1955.788594 
L 366.882835 2003.126972 
L 367.729701 2052.18526 
L 368.576567 2100.79311 
L 369.423433 2150.072819 
L 370.270299 2199.210307 
L 371.117165 2248.103262 
L 371.964031 2298.058521 
L 372.810897 2347.494574 
L 373.657763 2395.833294 
L 374.504629 2444.410287 
L 375.351495 2492.252958 
L 376.198361 2540.266942 
L 377.045227 2587.15207 
L 377.892093 2634.309781 
L 378.738959 2682.49917 
L 379.585825 2729.86545 
L 380.432691 2777.856912 
L 381.279557 2825.352476 
L 382.126423 2873.421157 
L 382.973289 2920.640499 
L 383.820155 2967.954985 
L 384.667021 3015.247381 
L 385.513887 3062.685471 
L 386.360753 3110.332727 
L 387.207619 3157.699663 
L 388.054485 3207.340768 
L 388.901351 3257.048555 
L 389.748217 3305.046848 
L 390.595083 3354.695443 
L 391.441949 3403.75816 
L 392.288815 3452.076669 
L 393.135681 3500.14388 
L 393.982547 3548.185295 
L 394.829413 3597.441612 
L 395.676279 3645.240838 
L 396.523145 3693.624927 
L 397.370011 3742.996121 
L 398.216877 3790.994494 
L 399.063743 3839.183209 
L 399.910609 3886.584687 
L 400.757475 3934.149174 
L 401.604341 3983.129444 
L 402.451207 4032.49781 
L 403.298073 4082.021921 
L 404.144939 4131.228665 
L 404.991805 4181.853528 
L 405.838671 4231.932264 
L 406.685537 4281.616325 
L 407.532402 4331.379919 
L 408.379268 4381.279542 
L 409.226134 4432.293429 
L 410.073 4483.918106 
L 410.919866 4536.052579 
L 411.766732 4588.030162 
L 412.613598 4638.492677 
L 413.460464 4688.607288 
L 414.30733 4739.098257 
L 415.154196 4790.489569 
L 416.001062 4840.448445 
L 416.847928 4891.027133 
L 417.694794 4942.014527 
L 418.54166 4993.053438 
L 419.388526 5043.239873 
L 420.235392 5086.413314 
L 421.082258 5124.536369 
L 421.929124 5132.724834 
L 422.77599 5131.712068 
L 423.622856 5129.780563 
L 424.469722 5129.890953 
L 425.316588 5126.200562 
L 426.163454 5121.89742 
L 427.01032 5117.667534 
L 427.857186 5115.561163 
L 428.704052 5115.168285 
L 429.550918 5117.739196 
L 430.397784 5120.51706 
L 431.24465 5121.584255 
L 432.091516 5120.821648 
L 432.938382 5120.953623 
L 433.785248 5120.789833 
L 434.632114 5120.726113 
L 435.47898 5121.151235 
L 436.325846 5121.812171 
L 437.172712 5122.177819 
L 438.019578 5124.474851 
L 438.866444 5127.85604 
L 439.71331 5128.899598 
L 440.560176 5132.31051 
L 441.407042 5133.836224 
L 442.253908 5135.37587 
L 443.100774 5137.712194 
L 443.94764 5139.584663 
L 444.794506 5142.731053 
L 445.641372 5146.371224 
L 446.488238 5148.811195 
L 447.335104 5153.353782 
L 448.18197 5156.441729 
L 449.028836 5160.725659 
L 449.875702 5164.65315 
L 450.722568 5167.35994 
L 451.569434 5171.592031 
L 452.4163 5175.89258 
L 453.263166 5176.667325 
L 454.110032 5178.724653 
L 454.956898 5178.516113 
L 455.803764 5179.976916 
L 456.65063 5181.733523 
L 457.497496 5184.1476 
L 458.344362 5186.69345 
L 459.191228 5188.185155 
L 460.038094 5191.439604 
L 460.88496 5194.867612 
L 461.731826 5197.041175 
L 462.578692 5201.474093 
L 463.425558 5204.9392 
L 464.272424 5208.801766 
L 465.11929 5212.46934 
L 465.966156 5215.455594 
L 466.813022 5218.563825 
L 467.659888 5220.815265 
L 468.506754 5225.221459 
L 469.35362 5228.938907 
L 470.200486 5233.277458 
L 471.047352 5237.189758 
L 471.894218 5241.237281 
L 472.741084 5245.518822 
L 473.58795 5247.074813 
L 474.434816 5248.472437 
L 475.281682 5252.618899 
L 476.128548 5255.447454 
L 476.975414 5257.416609 
L 477.82228 5260.537687 
L 478.669146 5263.67935 
L 479.516012 5267.788362 
L 480.362878 5270.420682 
L 481.209744 5273.523964 
L 482.05661 5277.233589 
L 482.903475 5278.844376 
L 483.750341 5282.756948 
L 484.597207 5286.118418 
L 485.444073 5289.651551 
L 486.290939 5293.680578 
L 487.137805 5296.161927 
L 487.984671 5298.366373 
L 488.831537 5300.226886 
L 489.678403 5302.889994 
L 490.525269 5304.577519 
L 491.372135 5306.978535 
L 492.219001 5308.137818 
L 493.065867 5309.735124 
L 493.912733 5310.756747 
L 494.759599 5311.307389 
L 495.606465 5311.089499 
L 496.453331 5311.684225 
L 497.300197 5311.761677 
L 498.147063 5313.491927 
L 498.993929 5315.509661 
L 499.840795 5316.348324 
L 500.687661 5318.190414 
L 501.534527 5320.102531 
L 502.381393 5322.691056 
L 503.228259 5324.024967 
L 504.075125 5325.143168 
L 504.921991 5326.690452 
L 505.768857 5329.415519 
L 506.615723 5332.403337 
L 507.462589 5335.309567 
L 508.309455 5339.10116 
L 509.156321 5342.772859 
L 510.003187 5347.928387 
L 510.850053 5352.534212 
L 511.696919 5356.928727 
L 512.543785 5360.785205 
L 513.390651 5362.619649 
L 514.237517 5363.400172 
L 515.084383 5362.632187 
L 515.931249 5361.570878 
L 516.778115 5361.894118 
L 517.624981 5363.351269 
L 518.471847 5363.941086 
L 519.318713 5363.885767 
L 520.165579 5365.032508 
L 521.012445 5365.948802 
L 521.859311 5366.484191 
L 522.706177 5366.836612 
L 523.553043 5366.5042 
L 524.399909 5366.217586 
L 525.246775 5366.342285 
L 526.093641 5365.401062 
L 526.940507 5364.928369 
L 527.787373 5363.635191 
L 528.634239 5361.653112 
L 529.481105 5359.855346 
L 530.327971 5358.396123 
L 531.174837 5356.648229 
L 532.021703 5354.0199 
L 532.868569 5350.382042 
L 533.715435 5348.082438 
L 534.562301 5344.839507 
L 535.409167 5342.972217 
L 536.256033 5342.037836 
L 537.102899 5341.695953 
L 537.949765 5340.576377 
L 538.796631 5342.315848 
L 539.643497 5342.145402 
L 540.490363 5342.944135 
L 541.337229 5343.893401 
L 542.184095 5343.573512 
L 543.030961 5340.979218 
L 543.877827 5338.525048 
L 544.724693 5338.97653 
L 545.571559 5336.315973 
L 546.418425 5335.139407 
L 547.265291 5334.958311 
L 548.112157 5333.331046 
L 548.959023 5332.817321 
L 549.805889 5330.267253 
L 550.652755 5328.985174 
L 551.499621 5327.897958 
L 552.346487 5326.311365 
L 553.193353 5324.154247 
L 554.040219 5321.49688 
L 554.887085 5319.656138 
L 555.733951 5317.142567 
L 556.580817 5314.534842 
L 557.427683 5310.989669 
L 558.274548 5307.753402 
L 559.121414 5305.269642 
L 559.96828 5303.081935 
L 560.815146 5300.054982 
L 561.662012 5296.394888 
L 562.508878 5293.796821 
L 563.355744 5291.213314 
L 564.20261 5289.284345 
L 565.049476 5285.971965 
L 565.896342 5283.689378 
L 566.743208 5281.722738 
L 567.590074 5278.803548 
L 568.43694 5277.132338 
L 569.283806 5274.371391 
L 570.130672 5273.175504 
L 570.977538 5271.907816 
L 571.824404 5269.864221 
L 572.67127 5267.276411 
L 573.518136 5264.530131 
L 574.365002 5263.65746 
L 575.211868 5261.723629 
L 576.058734 5260.393421 
L 576.9056 5257.190589 
L 577.752466 5255.869704 
L 578.599332 5253.705309 
L 579.446198 5251.752153 
L 580.293064 5249.001516 
L 581.13993 5247.164887 
L 581.986796 5243.87332 
L 582.833662 5240.648338 
L 583.680528 5237.201032 
L 584.527394 5234.265127 
L 585.37426 5231.575791 
L 586.221126 5228.66749 
L 587.067992 5226.733729 
L 587.914858 5222.703068 
L 588.761724 5219.718649 
L 589.60859 5218.171571 
L 590.455456 5216.377512 
L 591.302322 5214.133345 
L 592.149188 5213.727744 
L 592.996054 5211.293091 
L 593.84292 5209.029769 
L 594.689786 5207.919857 
L 595.536652 5206.714315 
L 596.383518 5205.957606 
L 597.230384 5203.856766 
L 598.07725 5203.008186 
L 598.924116 5202.150766 
L 599.770982 5202.510351 
L 600.617848 5203.01524 
L 601.464714 5203.182512 
L 602.31158 5201.960714 
L 603.158446 5202.216221 
L 604.005312 5202.54884 
L 604.852178 5203.343534 
L 605.699044 5204.254393 
L 606.54591 5204.927976 
L 607.392776 5204.800276 
L 608.239642 5206.401865 
L 609.086508 5206.441474 
L 609.933374 5207.051326 
L 610.78024 5207.48625 
L 611.627106 5207.826934 
L 612.473972 5208.157341 
L 613.320838 5209.86094 
L 614.167704 5211.215027 
L 615.01457 5212.38806 
L 615.861436 5212.751225 
L 616.708302 5213.366774 
L 617.555168 5214.769991 
L 618.402034 5216.369014 
L 619.2489 5219.263366 
L 620.095766 5220.600397 
L 620.942632 5222.101133 
L 621.789498 5223.760335 
L 622.636364 5224.909922 
L 622.636364 190.356142 
L 622.636364 190.356142 
L 621.789498 190.298882 
L 620.942632 191.149961 
L 620.095766 192.548911 
L 619.2489 193.222792 
L 618.402034 193.566797 
L 617.555168 194.777474 
L 616.708302 195.664325 
L 615.861436 196.957969 
L 615.01457 198.411316 
L 614.167704 199.581544 
L 613.320838 200.895911 
L 612.473972 201.808182 
L 611.627106 203.483761 
L 610.78024 204.946089 
L 609.933374 206.19217 
L 609.086508 206.93087 
L 608.239642 208.46601 
L 607.392776 209.422785 
L 606.54591 210.056006 
L 605.699044 211.012452 
L 604.852178 212.218058 
L 604.005312 212.733984 
L 603.158446 212.948643 
L 602.31158 212.95409 
L 601.464714 212.935122 
L 600.617848 212.899963 
L 599.770982 212.92858 
L 598.924116 212.243462 
L 598.07725 211.942402 
L 597.230384 212.050493 
L 596.383518 212.430113 
L 595.536652 213.018632 
L 594.689786 213.339651 
L 593.84292 213.229719 
L 592.996054 213.184129 
L 592.149188 212.476644 
L 591.302322 212.439942 
L 590.455456 212.065693 
L 589.60859 212.717787 
L 588.761724 212.766733 
L 587.914858 212.313205 
L 587.067992 212.430945 
L 586.221126 212.448944 
L 585.37426 212.653215 
L 584.527394 211.953067 
L 583.680528 212.12064 
L 582.833662 212.04421 
L 581.986796 211.811218 
L 581.13993 212.09898 
L 580.293064 212.635424 
L 579.446198 212.338844 
L 578.599332 212.153088 
L 577.752466 212.084179 
L 576.9056 211.90507 
L 576.058734 212.518342 
L 575.211868 212.357177 
L 574.365002 212.484919 
L 573.518136 212.662821 
L 572.67127 212.347164 
L 571.824404 212.091239 
L 570.977538 212.12985 
L 570.130672 211.965329 
L 569.283806 211.243239 
L 568.43694 211.337586 
L 567.590074 211.372163 
L 566.743208 210.991032 
L 565.896342 211.151434 
L 565.049476 210.68538 
L 564.20261 210.832053 
L 563.355744 211.339509 
L 562.508878 211.110079 
L 561.662012 211.422469 
L 560.815146 210.969443 
L 559.96828 211.663547 
L 559.121414 212.248917 
L 558.274548 212.87234 
L 557.427683 213.341598 
L 556.580817 213.299212 
L 555.733951 213.79968 
L 554.887085 213.6243 
L 554.040219 213.158252 
L 553.193353 213.442711 
L 552.346487 213.595397 
L 551.499621 213.222966 
L 550.652755 213.210836 
L 549.805889 212.32642 
L 548.959023 212.458059 
L 548.112157 212.649602 
L 547.265291 212.644989 
L 546.418425 211.996481 
L 545.571559 211.88163 
L 544.724693 211.842716 
L 543.877827 211.921205 
L 543.030961 211.659903 
L 542.184095 212.026946 
L 541.337229 212.143023 
L 540.490363 212.319089 
L 539.643497 212.269494 
L 538.796631 212.223145 
L 537.949765 212.215252 
L 537.102899 212.330743 
L 536.256033 211.847264 
L 535.409167 212.321481 
L 534.562301 212.288099 
L 533.715435 212.600354 
L 532.868569 213.116002 
L 532.021703 213.909828 
L 531.174837 214.181147 
L 530.327971 214.06863 
L 529.481105 214.134593 
L 528.634239 213.561384 
L 527.787373 213.472035 
L 526.940507 213.099528 
L 526.093641 212.830916 
L 525.246775 212.536624 
L 524.399909 212.29156 
L 523.553043 211.880488 
L 522.706177 211.122146 
L 521.859311 211.333405 
L 521.012445 211.151147 
L 520.165579 211.49932 
L 519.318713 211.867243 
L 518.471847 212.450725 
L 517.624981 212.418364 
L 516.778115 212.487497 
L 515.931249 212.546435 
L 515.084383 212.590415 
L 514.237517 212.522365 
L 513.390651 213.190333 
L 512.543785 212.83523 
L 511.696919 212.626849 
L 510.850053 212.882168 
L 510.003187 210.808407 
L 509.156321 206.61674 
L 508.309455 204.896127 
L 507.462589 203.612975 
L 506.615723 202.167854 
L 505.768857 200.477263 
L 504.921991 199.911106 
L 504.075125 198.913375 
L 503.228259 198.501134 
L 502.381393 198.355084 
L 501.534527 198.451551 
L 500.687661 198.602806 
L 499.840795 198.470303 
L 498.993929 198.381453 
L 498.147063 198.424219 
L 497.300197 198.270953 
L 496.453331 198.754087 
L 495.606465 198.949878 
L 494.759599 200.04411 
L 493.912733 199.087396 
L 493.065867 197.824603 
L 492.219001 198.139372 
L 491.372135 198.384245 
L 490.525269 197.836089 
L 489.678403 198.056916 
L 488.831537 198.124334 
L 487.984671 198.263823 
L 487.137805 198.233044 
L 486.290939 198.149664 
L 485.444073 197.837634 
L 484.597207 197.914238 
L 483.750341 198.177603 
L 482.903475 198.336423 
L 482.05661 198.563316 
L 481.209744 198.72261 
L 480.362878 199.797946 
L 479.516012 200.759059 
L 478.669146 200.76793 
L 477.82228 201.352605 
L 476.975414 201.705681 
L 476.128548 202.059262 
L 475.281682 202.126987 
L 474.434816 201.708901 
L 473.58795 201.629795 
L 472.741084 201.814367 
L 471.894218 201.073731 
L 471.047352 200.466498 
L 470.200486 199.830582 
L 469.35362 199.415926 
L 468.506754 199.296936 
L 467.659888 199.423463 
L 466.813022 199.661335 
L 465.966156 200.348873 
L 465.11929 200.879459 
L 464.272424 200.916843 
L 463.425558 200.498648 
L 462.578692 200.392613 
L 461.731826 200.532047 
L 460.88496 201.04406 
L 460.038094 200.731198 
L 459.191228 200.588452 
L 458.344362 200.318446 
L 457.497496 200.64953 
L 456.65063 201.039656 
L 455.803764 200.878855 
L 454.956898 201.480552 
L 454.110032 201.701401 
L 453.263166 202.307008 
L 452.4163 203.17687 
L 451.569434 204.092312 
L 450.722568 204.368125 
L 449.875702 204.303495 
L 449.028836 204.057653 
L 448.18197 203.554446 
L 447.335104 202.910897 
L 446.488238 202.845489 
L 445.641372 201.920484 
L 444.794506 202.007511 
L 443.94764 202.020321 
L 443.100774 202.873881 
L 442.253908 200.017983 
L 441.407042 199.351294 
L 440.560176 199.802227 
L 439.71331 200.601947 
L 438.866444 201.359742 
L 438.019578 201.385811 
L 437.172712 202.72333 
L 436.325846 200.318016 
L 435.47898 194.685442 
L 434.632114 193.000457 
L 433.785248 194.012043 
L 432.938382 194.122917 
L 432.091516 194.29558 
L 431.24465 195.52391 
L 430.397784 196.793539 
L 429.550918 198.136591 
L 428.704052 199.266614 
L 427.857186 200.488599 
L 427.01032 201.821567 
L 426.163454 203.090881 
L 425.316588 204.25433 
L 424.469722 205.447219 
L 423.622856 206.502001 
L 422.77599 207.512492 
L 421.929124 207.688866 
L 421.082258 207.125143 
L 420.235392 207.209748 
L 419.388526 207.305776 
L 418.54166 207.152074 
L 417.694794 206.879144 
L 416.847928 206.817711 
L 416.001062 206.774805 
L 415.154196 206.902718 
L 414.30733 207.322133 
L 413.460464 206.772643 
L 412.613598 205.649839 
L 411.766732 205.304021 
L 410.919866 205.344777 
L 410.073 204.82577 
L 409.226134 204.258478 
L 408.379268 203.626703 
L 407.532402 202.818433 
L 406.685537 202.120766 
L 405.838671 201.672978 
L 404.991805 201.631669 
L 404.144939 200.603272 
L 403.298073 199.5069 
L 402.451207 198.544147 
L 401.604341 197.795542 
L 400.757475 196.888318 
L 399.910609 196.653167 
L 399.063743 196.225808 
L 398.216877 196.144045 
L 397.370011 195.493421 
L 396.523145 194.689539 
L 395.676279 194.080254 
L 394.829413 193.638537 
L 393.982547 193.256029 
L 393.135681 192.433571 
L 392.288815 191.344767 
L 391.441949 189.887187 
L 390.595083 188.4164 
L 389.748217 187.644127 
L 388.901351 186.997182 
L 388.054485 186.139768 
L 387.207619 185.254456 
L 386.360753 185.336409 
L 385.513887 185.488595 
L 384.667021 185.574877 
L 383.820155 185.404575 
L 382.973289 185.033519 
L 382.126423 184.747329 
L 381.279557 184.148884 
L 380.432691 183.792492 
L 379.585825 183.613053 
L 378.738959 182.629096 
L 377.892093 181.340903 
L 377.045227 180.332945 
L 376.198361 179.778742 
L 375.351495 178.505723 
L 374.504629 177.63535 
L 373.657763 176.685205 
L 372.810897 175.261321 
L 371.964031 174.31718 
L 371.117165 173.117973 
L 370.270299 172.242471 
L 369.423433 171.522865 
L 368.576567 170.416486 
L 367.729701 169.755485 
L 366.882835 169.161013 
L 366.035969 168.250473 
L 365.189103 167.376904 
L 364.342237 166.0586 
L 363.495371 165.274119 
L 362.648505 164.425759 
L 361.801639 163.590827 
L 360.954773 162.644295 
L 360.107907 161.487895 
L 359.261041 160.588495 
L 358.414175 159.839038 
L 357.567309 158.647835 
L 356.720443 157.671438 
L 355.873577 156.407278 
L 355.026711 155.277738 
L 354.179845 154.902492 
L 353.332979 154.658425 
L 352.486113 154.276794 
L 351.639247 153.360607 
L 350.792381 153.444145 
L 349.945515 153.296029 
L 349.098649 152.805807 
L 348.251783 151.97473 
L 347.404917 151.308385 
L 346.558051 150.59223 
L 345.711185 150.124783 
L 344.864319 149.462562 
L 344.017453 149.034246 
L 343.170587 149.236084 
L 342.323721 149.036898 
L 341.476855 148.358718 
L 340.629989 147.483371 
L 339.783123 146.728699 
L 338.936257 145.886478 
L 338.089391 145.007722 
L 337.242525 144.237604 
L 336.395659 143.408244 
L 335.548793 142.257745 
L 334.701927 141.149114 
L 333.855061 140.09883 
L 333.008195 139.949114 
L 332.161329 140.470031 
L 331.314463 141.986216 
L 330.467598 142.793011 
L 329.620732 143.407111 
L 328.773866 143.979482 
L 327.927 144.285402 
L 327.080134 145.096687 
L 326.233268 145.258997 
L 325.386402 144.914368 
L 324.539536 144.491578 
L 323.69267 143.905826 
L 322.845804 143.598034 
L 321.998938 143.422076 
L 321.152072 142.998416 
L 320.305206 142.277305 
L 319.45834 141.639703 
L 318.611474 141.668926 
L 317.764608 141.622043 
L 316.917742 141.76325 
L 316.070876 141.515653 
L 315.22401 141.102214 
L 314.377144 140.822917 
L 313.530278 141.340736 
L 312.683412 140.606666 
L 311.836546 140.905158 
L 310.98968 140.413913 
L 310.142814 140.117502 
L 309.295948 139.451679 
L 308.449082 138.775333 
L 307.602216 138.651145 
L 306.75535 138.381142 
L 305.908484 138.691886 
L 305.061618 139.269367 
L 304.214752 139.1541 
L 303.367886 139.685025 
L 302.52102 140.34033 
L 301.674154 140.715542 
L 300.827288 140.319801 
L 299.980422 139.527696 
L 299.133556 139.30233 
L 298.28669 138.544665 
L 297.439824 138.004446 
L 296.592958 137.267131 
L 295.746092 136.731138 
L 294.899226 136.451114 
L 294.05236 136.126738 
L 293.205494 136.221133 
L 292.358628 136.86596 
L 291.511762 136.921557 
L 290.664896 136.724333 
L 289.81803 136.877883 
L 288.971164 137.062063 
L 288.124298 137.245768 
L 287.277432 137.518774 
L 286.430566 137.265408 
L 285.5837 137.469666 
L 284.736834 137.456535 
L 283.889968 137.646807 
L 283.043102 137.784266 
L 282.196236 138.440948 
L 281.34937 138.133639 
L 280.502504 137.996267 
L 279.655638 138.220105 
L 278.808772 138.513133 
L 277.961906 138.403905 
L 277.11504 138.638541 
L 276.268174 138.859547 
L 275.421308 138.985298 
L 274.574442 139.710291 
L 273.727576 140.396343 
L 272.88071 140.674532 
L 272.033844 141.082577 
L 271.186978 141.51506 
L 270.340112 142.346299 
L 269.493246 142.945315 
L 268.64638 142.600971 
L 267.799514 142.348679 
L 266.952648 142.454672 
L 266.105782 142.591508 
L 265.258916 142.830186 
L 264.41205 142.377623 
L 263.565184 142.707317 
L 262.718318 142.984875 
L 261.871452 143.436335 
L 261.024586 143.386464 
L 260.17772 143.433476 
L 259.330854 143.680516 
L 258.483988 143.432256 
L 257.637122 142.935322 
L 256.790256 142.72139 
L 255.94339 142.724068 
L 255.096525 142.599473 
L 254.249659 142.816349 
L 253.402793 142.59344 
L 252.555927 142.982237 
L 251.709061 143.228547 
L 250.862195 143.2943 
L 250.015329 143.632049 
L 249.168463 143.968069 
L 248.321597 144.396683 
L 247.474731 144.843648 
L 246.627865 145.104874 
L 245.780999 144.245375 
L 244.934133 143.412576 
L 244.087267 143.62054 
L 243.240401 143.408022 
L 242.393535 143.614584 
L 241.546669 143.043912 
L 240.699803 142.736933 
L 239.852937 142.44981 
L 239.006071 142.594742 
L 238.159205 143.141429 
L 237.312339 143.714537 
L 236.465473 144.425646 
L 235.618607 145.232862 
L 234.771741 146.200703 
L 233.924875 146.462899 
L 233.078009 146.454394 
L 232.231143 146.791311 
L 231.384277 147.141328 
L 230.537411 141.950685 
L 229.690545 131.971299 
L 228.843679 132.106314 
L 227.996813 132.360115 
L 227.149947 132.155711 
L 226.303081 132.384779 
L 225.456215 132.828552 
L 224.609349 133.053925 
L 223.762483 133.144539 
L 222.915617 133.372409 
L 222.068751 133.939116 
L 221.221885 134.343743 
L 220.375019 134.556942 
L 219.528153 134.861407 
L 218.681287 134.509879 
L 217.834421 134.119024 
L 216.987555 133.626516 
L 216.140689 133.392368 
L 215.293823 133.370228 
L 214.446957 133.470582 
L 213.600091 133.744776 
L 212.753225 134.077663 
L 211.906359 134.660964 
L 211.059493 134.811701 
L 210.212627 135.192018 
L 209.365761 135.840082 
L 208.518895 136.147697 
L 207.672029 136.412258 
L 206.825163 136.823359 
L 205.978297 139.680037 
L 205.131431 148.511307 
L 204.284565 159.400844 
L 203.437699 167.477319 
L 202.590833 174.209345 
L 201.743967 183.43942 
L 200.897101 195.888466 
L 200.050235 204.5776 
L 199.203369 204.299266 
L 198.356503 204.057443 
L 197.509637 203.891954 
L 196.662771 204.09241 
L 195.815905 204.105698 
L 194.969039 203.80689 
L 194.122173 204.0133 
L 193.275307 203.815294 
L 192.428441 203.493402 
L 191.581575 203.140168 
L 190.734709 202.773305 
L 189.887843 202.386553 
L 189.040977 202.119718 
L 188.194111 201.710182 
L 187.347245 202.119891 
L 186.500379 203.122408 
L 185.653513 204.459979 
L 184.806647 205.58445 
L 183.959781 206.415894 
L 183.112915 207.276072 
L 182.266049 208.478329 
L 181.419183 209.456048 
L 180.572317 210.659217 
L 179.725452 211.881947 
L 178.878586 213.23603 
L 178.03172 214.583201 
L 177.184854 215.507476 
L 176.337988 216.845595 
L 175.491122 218.30059 
L 174.644256 219.817791 
L 173.79739 221.556916 
L 172.950524 223.363975 
L 172.103658 223.855978 
L 171.256792 225.398462 
L 170.409926 226.911162 
L 169.56306 228.596517 
L 168.716194 230.591623 
L 167.869328 231.899878 
L 167.022462 233.926057 
L 166.175596 235.325359 
L 165.32873 237.370567 
L 164.481864 238.812135 
L 163.634998 240.521369 
L 162.788132 242.577303 
L 161.941266 244.736574 
L 161.0944 246.782117 
L 160.247534 248.36951 
L 159.400668 249.304378 
L 158.553802 251.229758 
L 157.706936 253.415217 
L 156.86007 255.529198 
L 156.013204 257.036554 
L 155.166338 259.030891 
L 154.319472 261.952026 
L 153.472606 264.76257 
L 152.62574 267.822571 
L 151.778874 268.754756 
L 150.932008 271.878587 
L 150.085142 275.54589 
L 149.238276 277.951388 
L 148.39141 280.117194 
L 147.544544 281.849438 
L 146.697678 285.676043 
L 145.850812 290.425006 
L 145.003946 295.54209 
L 144.15708 299.893497 
L 143.310214 301.857093 
L 142.463348 303.992728 
L 141.616482 309.278502 
L 140.769616 313.914714 
L 139.92275 320.039336 
L 139.075884 324.465294 
L 138.229018 330.604991 
L 137.382152 337.096414 
L 136.535286 345.235442 
L 135.68842 352.079114 
L 134.841554 360.262237 
L 133.994688 368.292118 
L 133.147822 377.405388 
L 132.300956 387.895096 
L 131.45409 400.591946 
L 130.607224 411.631328 
L 129.760358 425.794722 
L 128.913492 439.859564 
L 128.066626 457.381461 
L 127.21976 475.063307 
L 126.372894 497.933034 
L 125.526028 524.728453 
L 124.679162 551.052534 
L 123.832296 584.168521 
L 122.98543 627.079237 
L 122.138564 678.65806 
L 121.291698 737.488675 
L 120.444832 814.439494 
L 119.597966 917.288655 
L 118.7511 1049.655862 
L 117.904234 1147.711644 
L 117.057368 1079.967161 
L 116.210502 1029.830848 
L 115.363636 1088.044462 
z
" clip-path="url(#pa725d57d6b)" style="fill: #1f77b4; fill-opacity: 0.5"/>
   </g>
   <g id="PolyCollection_2">
    <path d="M 115.363636 1021.788981 
L 115.363636 1314.957675 
L 116.210502 1402.232862 
L 117.057368 1460.002634 
L 117.904234 1622.911295 
L 118.7511 1882.850149 
L 119.597966 1859.884008 
L 120.444832 1770.879821 
L 121.291698 1679.00786 
L 122.138564 1638.86347 
L 122.98543 1587.327286 
L 123.832296 1548.344161 
L 124.679162 1522.457925 
L 125.526028 1490.404028 
L 126.372894 1459.157407 
L 127.21976 1445.99289 
L 128.066626 1447.45182 
L 128.913492 1414.779047 
L 129.760358 1386.990308 
L 130.607224 1373.944395 
L 131.45409 1359.156477 
L 132.300956 1336.400836 
L 133.147822 1370.599692 
L 133.994688 1387.087835 
L 134.841554 1373.204206 
L 135.68842 1374.916548 
L 136.535286 1370.801995 
L 137.382152 1366.847346 
L 138.229018 1366.131023 
L 139.075884 1365.050514 
L 139.92275 1355.581079 
L 140.769616 1356.131911 
L 141.616482 1348.096495 
L 142.463348 1339.683285 
L 143.310214 1344.337709 
L 144.15708 1360.730712 
L 145.003946 1383.418601 
L 145.850812 1383.00571 
L 146.697678 1379.805977 
L 147.544544 1372.848613 
L 148.39141 1364.895204 
L 149.238276 1358.123326 
L 150.085142 1353.814258 
L 150.932008 1354.903231 
L 151.778874 1349.127044 
L 152.62574 1351.418578 
L 153.472606 1350.445527 
L 154.319472 1345.503715 
L 155.166338 1338.288633 
L 156.013204 1335.655489 
L 156.86007 1327.579916 
L 157.706936 1322.872938 
L 158.553802 1322.054728 
L 159.400668 1320.55929 
L 160.247534 1321.624152 
L 161.0944 1320.04606 
L 161.941266 1316.458097 
L 162.788132 1312.727052 
L 163.634998 1315.822672 
L 164.481864 1324.019338 
L 165.32873 1327.490466 
L 166.175596 1322.610333 
L 167.022462 1319.264185 
L 167.869328 1316.713811 
L 168.716194 1315.293576 
L 169.56306 1311.355598 
L 170.409926 1307.742656 
L 171.256792 1320.668283 
L 172.103658 1325.013397 
L 172.950524 1321.491154 
L 173.79739 1316.893053 
L 174.644256 1320.791234 
L 175.491122 1327.361298 
L 176.337988 1332.767661 
L 177.184854 1340.226943 
L 178.03172 1335.573217 
L 178.878586 1330.764285 
L 179.725452 1328.419464 
L 180.572317 1325.442948 
L 181.419183 1322.878624 
L 182.266049 1319.847379 
L 183.112915 1315.990683 
L 183.959781 1311.280758 
L 184.806647 1311.388417 
L 185.653513 1308.027787 
L 186.500379 1305.188362 
L 187.347245 1304.144287 
L 188.194111 1301.654952 
L 189.040977 1297.740714 
L 189.887843 1296.547682 
L 190.734709 1297.033823 
L 191.581575 1295.49605 
L 192.428441 1292.22216 
L 193.275307 1288.126797 
L 194.122173 1286.807373 
L 194.969039 1285.520615 
L 195.815905 1283.383615 
L 196.662771 1282.082114 
L 197.509637 1284.059008 
L 198.356503 1283.335324 
L 199.203369 1284.143119 
L 200.050235 1284.084499 
L 200.897101 1284.516838 
L 201.743967 1284.732672 
L 202.590833 1286.835569 
L 203.437699 1289.041939 
L 204.284565 1287.245538 
L 205.131431 1287.002922 
L 205.978297 1284.334895 
L 206.825163 1281.783884 
L 207.672029 1285.296945 
L 208.518895 1298.77937 
L 209.365761 1304.102168 
L 210.212627 1303.90136 
L 211.059493 1304.784349 
L 211.906359 1305.020034 
L 212.753225 1303.681719 
L 213.600091 1302.725029 
L 214.446957 1299.58141 
L 215.293823 1296.174655 
L 216.140689 1295.650965 
L 216.987555 1292.567503 
L 217.834421 1287.141781 
L 218.681287 1273.027013 
L 219.528153 1266.924247 
L 220.375019 1267.990499 
L 221.221885 1279.189254 
L 222.068751 1283.785366 
L 222.915617 1280.725898 
L 223.762483 1280.585589 
L 224.609349 1279.806388 
L 225.456215 1282.729364 
L 226.303081 1283.011688 
L 227.149947 1284.164482 
L 227.996813 1286.71199 
L 228.843679 1286.081694 
L 229.690545 1280.993961 
L 230.537411 1270.541786 
L 231.384277 1269.710638 
L 232.231143 1274.298901 
L 233.078009 1279.583047 
L 233.924875 1283.434438 
L 234.771741 1287.137575 
L 235.618607 1285.206376 
L 236.465473 1280.41192 
L 237.312339 1282.064477 
L 238.159205 1277.300172 
L 239.006071 1273.501044 
L 239.852937 1272.099889 
L 240.699803 1277.027029 
L 241.546669 1282.295823 
L 242.393535 1286.359517 
L 243.240401 1286.500607 
L 244.087267 1285.457428 
L 244.934133 1283.756865 
L 245.780999 1280.973547 
L 246.627865 1280.419411 
L 247.474731 1283.26684 
L 248.321597 1282.668402 
L 249.168463 1277.895406 
L 250.015329 1271.872161 
L 250.862195 1270.790767 
L 251.709061 1273.909978 
L 252.555927 1277.775655 
L 253.402793 1281.133804 
L 254.249659 1281.106405 
L 255.096525 1280.8968 
L 255.94339 1281.685861 
L 256.790256 1271.392112 
L 257.637122 1271.648475 
L 258.483988 1275.411183 
L 259.330854 1277.589337 
L 260.17772 1271.751028 
L 261.024586 1263.098734 
L 261.871452 1255.415935 
L 262.718318 1247.921736 
L 263.565184 1249.757255 
L 264.41205 1253.34118 
L 265.258916 1252.227633 
L 266.105782 1255.87261 
L 266.952648 1267.061418 
L 267.799514 1270.409734 
L 268.64638 1275.009071 
L 269.493246 1282.110497 
L 270.340112 1283.329186 
L 271.186978 1284.929889 
L 272.033844 1284.988583 
L 272.88071 1282.586295 
L 273.727576 1281.368098 
L 274.574442 1283.00656 
L 275.421308 1287.705589 
L 276.268174 1291.892891 
L 277.11504 1292.634111 
L 277.961906 1294.023189 
L 278.808772 1296.478348 
L 279.655638 1294.586293 
L 280.502504 1295.30246 
L 281.34937 1298.165842 
L 282.196236 1300.171698 
L 283.043102 1296.543946 
L 283.889968 1299.020496 
L 284.736834 1298.623054 
L 285.5837 1295.144038 
L 286.430566 1294.587953 
L 287.277432 1292.639086 
L 288.124298 1292.051695 
L 288.971164 1291.728341 
L 289.81803 1289.351098 
L 290.664896 1287.219903 
L 291.511762 1286.750233 
L 292.358628 1289.269604 
L 293.205494 1284.993553 
L 294.05236 1266.75574 
L 294.899226 1266.697417 
L 295.746092 1268.294445 
L 296.592958 1264.505198 
L 297.439824 1263.604525 
L 298.28669 1262.325936 
L 299.133556 1263.123037 
L 299.980422 1264.89433 
L 300.827288 1266.499798 
L 301.674154 1263.387288 
L 302.52102 1264.939218 
L 303.367886 1265.755369 
L 304.214752 1265.511625 
L 305.061618 1265.210103 
L 305.908484 1264.906719 
L 306.75535 1252.69058 
L 307.602216 1247.195492 
L 308.449082 1247.094932 
L 309.295948 1244.236599 
L 310.142814 1242.17283 
L 310.98968 1237.774349 
L 311.836546 1232.999372 
L 312.683412 1230.300429 
L 313.530278 1227.360734 
L 314.377144 1228.117914 
L 315.22401 1229.611766 
L 316.070876 1233.009446 
L 316.917742 1234.030246 
L 317.764608 1228.025777 
L 318.611474 1222.183976 
L 319.45834 1218.336214 
L 320.305206 1213.811538 
L 321.152072 1216.083874 
L 321.998938 1218.94147 
L 322.845804 1216.412278 
L 323.69267 1224.194761 
L 324.539536 1227.304977 
L 325.386402 1244.140388 
L 326.233268 1239.543034 
L 327.080134 1227.698109 
L 327.927 1217.753716 
L 328.773866 1210.722981 
L 329.620732 1201.822872 
L 330.467598 1194.103812 
L 331.314463 1186.28873 
L 332.161329 1177.341112 
L 333.008195 1166.254537 
L 333.855061 1158.609277 
L 334.701927 1151.484765 
L 335.548793 1142.468614 
L 336.395659 1131.09101 
L 337.242525 1121.29513 
L 338.089391 1108.99969 
L 338.936257 1097.042482 
L 339.783123 1088.038573 
L 340.629989 1080.298147 
L 341.476855 1071.711507 
L 342.323721 1063.098002 
L 343.170587 1049.510703 
L 344.017453 1037.53847 
L 344.864319 1027.857933 
L 345.711185 1020.826279 
L 346.558051 1014.225454 
L 347.404917 1007.188848 
L 348.251783 998.29778 
L 349.098649 989.371978 
L 349.945515 979.115009 
L 350.792381 971.133949 
L 351.639247 959.132459 
L 352.486113 939.114044 
L 353.332979 927.343996 
L 354.179845 915.719109 
L 355.026711 901.860537 
L 355.873577 890.10907 
L 356.720443 880.727416 
L 357.567309 872.485789 
L 358.414175 864.98501 
L 359.261041 858.036157 
L 360.107907 849.171215 
L 360.954773 834.69634 
L 361.801639 819.525936 
L 362.648505 809.627484 
L 363.495371 800.785086 
L 364.342237 792.109712 
L 365.189103 785.68509 
L 366.035969 775.317209 
L 366.882835 763.749046 
L 367.729701 752.179596 
L 368.576567 743.147655 
L 369.423433 730.458772 
L 370.270299 719.269821 
L 371.117165 712.290787 
L 371.964031 704.143111 
L 372.810897 696.691399 
L 373.657763 686.345256 
L 374.504629 674.337671 
L 375.351495 666.745345 
L 376.198361 658.171192 
L 377.045227 650.19065 
L 377.892093 638.306213 
L 378.738959 629.14513 
L 379.585825 620.189889 
L 380.432691 605.202759 
L 381.279557 593.670744 
L 382.126423 585.861463 
L 382.973289 577.654639 
L 383.820155 565.99249 
L 384.667021 554.581126 
L 385.513887 539.783264 
L 386.360753 527.510479 
L 387.207619 519.218507 
L 388.054485 509.93157 
L 388.901351 500.34154 
L 389.748217 491.37585 
L 390.595083 481.770185 
L 391.441949 471.948323 
L 392.288815 460.346344 
L 393.135681 450.921498 
L 393.982547 443.579809 
L 394.829413 434.629967 
L 395.676279 425.906749 
L 396.523145 418.257676 
L 397.370011 410.592216 
L 398.216877 402.828792 
L 399.063743 394.146412 
L 399.910609 380.551259 
L 400.757475 366.769026 
L 401.604341 353.699741 
L 402.451207 341.712337 
L 403.298073 331.982552 
L 404.144939 322.93416 
L 404.991805 313.789453 
L 405.838671 305.30698 
L 406.685537 294.825272 
L 407.532402 284.172358 
L 408.379268 275.419941 
L 409.226134 259.24667 
L 410.073 248.410891 
L 410.919866 226.341302 
L 411.766732 227.183597 
L 412.613598 226.90043 
L 413.460464 230.838844 
L 414.30733 233.549995 
L 415.154196 234.151396 
L 416.001062 235.328235 
L 416.847928 237.650872 
L 417.694794 240.097786 
L 418.54166 241.271431 
L 419.388526 242.563275 
L 420.235392 243.414211 
L 421.082258 244.604229 
L 421.929124 243.078386 
L 422.77599 243.317313 
L 423.622856 245.586798 
L 424.469722 245.303727 
L 425.316588 245.079608 
L 426.163454 245.258418 
L 427.01032 244.363622 
L 427.857186 244.419264 
L 428.704052 244.791433 
L 429.550918 244.789679 
L 430.397784 247.60113 
L 431.24465 252.086862 
L 432.091516 253.338999 
L 432.938382 254.301582 
L 433.785248 254.670697 
L 434.632114 255.307675 
L 435.47898 255.767015 
L 436.325846 256.378211 
L 437.172712 257.493067 
L 438.019578 257.387394 
L 438.866444 257.054118 
L 439.71331 256.414077 
L 440.560176 255.868033 
L 441.407042 256.157108 
L 442.253908 256.228406 
L 443.100774 256.450794 
L 443.94764 256.728906 
L 444.794506 271.418213 
L 445.641372 283.836597 
L 446.488238 297.778833 
L 447.335104 308.217466 
L 448.18197 314.289376 
L 449.028836 316.246535 
L 449.875702 317.36197 
L 450.722568 317.106792 
L 451.569434 318.127227 
L 452.4163 322.730866 
L 453.263166 323.329643 
L 454.110032 330.460656 
L 454.956898 351.706651 
L 455.803764 361.972571 
L 456.65063 363.203212 
L 457.497496 363.70116 
L 458.344362 364.394409 
L 459.191228 365.022001 
L 460.038094 367.062306 
L 460.88496 368.217262 
L 461.731826 368.348509 
L 462.578692 368.211108 
L 463.425558 367.58957 
L 464.272424 365.985973 
L 465.11929 364.515852 
L 465.966156 364.714037 
L 466.813022 363.221499 
L 467.659888 362.659048 
L 468.506754 359.78149 
L 469.35362 359.985933 
L 470.200486 360.012442 
L 471.047352 358.809936 
L 471.894218 356.593946 
L 472.741084 354.662134 
L 473.58795 351.023566 
L 474.434816 350.242227 
L 475.281682 349.414753 
L 476.128548 350.105612 
L 476.975414 350.384797 
L 477.82228 350.926507 
L 478.669146 350.821763 
L 479.516012 350.872449 
L 480.362878 351.489112 
L 481.209744 352.419683 
L 482.05661 355.454231 
L 482.903475 356.041926 
L 483.750341 357.805051 
L 484.597207 359.639821 
L 485.444073 365.975046 
L 486.290939 368.804299 
L 487.137805 368.97562 
L 487.984671 377.902909 
L 488.831537 388.750487 
L 489.678403 395.86802 
L 490.525269 405.492547 
L 491.372135 408.00469 
L 492.219001 408.665311 
L 493.065867 410.418937 
L 493.912733 410.165322 
L 494.759599 409.77767 
L 495.606465 409.451898 
L 496.453331 409.00019 
L 497.300197 410.200329 
L 498.147063 407.618059 
L 498.993929 406.895634 
L 499.840795 406.748294 
L 500.687661 406.359568 
L 501.534527 405.648194 
L 502.381393 402.801251 
L 503.228259 395.892223 
L 504.075125 395.592234 
L 504.921991 394.569791 
L 505.768857 393.001419 
L 506.615723 393.044254 
L 507.462589 392.482425 
L 508.309455 393.652991 
L 509.156321 394.707221 
L 510.003187 394.453086 
L 510.850053 394.656266 
L 511.696919 394.436376 
L 512.543785 392.27456 
L 513.390651 392.656355 
L 514.237517 392.390633 
L 515.084383 391.236531 
L 515.931249 390.888577 
L 516.778115 391.139176 
L 517.624981 390.492993 
L 518.471847 388.347985 
L 519.318713 384.644972 
L 520.165579 377.732296 
L 521.012445 376.48495 
L 521.859311 401.284686 
L 522.706177 448.531223 
L 523.553043 495.828032 
L 524.399909 543.641842 
L 525.246775 589.951082 
L 526.093641 633.693545 
L 526.940507 680.846077 
L 527.787373 730.534993 
L 528.634239 777.201844 
L 529.481105 814.987706 
L 530.327971 846.354581 
L 531.174837 883.939344 
L 532.021703 920.48928 
L 532.868569 960.668887 
L 533.715435 1003.244634 
L 534.562301 1049.712596 
L 535.409167 1097.640538 
L 536.256033 1146.14843 
L 537.102899 1194.103952 
L 537.949765 1239.64004 
L 538.796631 1287.133131 
L 539.643497 1326.066861 
L 540.490363 1353.198939 
L 541.337229 1388.533652 
L 542.184095 1434.756651 
L 543.030961 1483.714938 
L 543.877827 1531.99556 
L 544.724693 1579.588253 
L 545.571559 1624.753535 
L 546.418425 1671.615422 
L 547.265291 1717.830107 
L 548.112157 1764.012544 
L 548.959023 1810.444625 
L 549.805889 1858.29289 
L 550.652755 1905.40934 
L 551.499621 1952.121357 
L 552.346487 2000.51162 
L 553.193353 2048.494791 
L 554.040219 2097.227425 
L 554.887085 2146.330446 
L 555.733951 2194.792891 
L 556.580817 2241.543668 
L 557.427683 2285.037312 
L 558.274548 2327.989359 
L 559.121414 2372.153435 
L 559.96828 2417.336686 
L 560.815146 2461.522375 
L 561.662012 2506.20561 
L 562.508878 2550.392682 
L 563.355744 2595.374398 
L 564.20261 2641.936261 
L 565.049476 2689.928625 
L 565.896342 2737.510114 
L 566.743208 2784.852924 
L 567.590074 2829.667515 
L 568.43694 2878.16099 
L 569.283806 2925.494556 
L 570.130672 2972.188633 
L 570.977538 3014.526359 
L 571.824404 3060.69148 
L 572.67127 3107.980743 
L 573.518136 3147.13172 
L 574.365002 3183.450802 
L 575.211868 3223.466573 
L 576.058734 3261.442642 
L 576.9056 3306.933536 
L 577.752466 3355.392211 
L 578.599332 3400.523208 
L 579.446198 3446.073187 
L 580.293064 3487.266357 
L 581.13993 3529.969201 
L 581.986796 3560.563293 
L 582.833662 3585.321308 
L 583.680528 3600.081816 
L 584.527394 3610.449649 
L 585.37426 3622.937937 
L 586.221126 3633.537224 
L 587.067992 3643.369039 
L 587.914858 3659.326952 
L 588.761724 3670.73176 
L 589.60859 3680.810209 
L 590.455456 3690.993788 
L 591.302322 3699.431045 
L 592.149188 3710.728201 
L 592.996054 3721.442238 
L 593.84292 3729.753096 
L 594.689786 3743.587931 
L 595.536652 3755.393504 
L 596.383518 3766.616986 
L 597.230384 3777.596466 
L 598.07725 3790.191354 
L 598.924116 3818.558449 
L 599.770982 3853.664275 
L 600.617848 3884.699247 
L 601.464714 3901.151016 
L 602.31158 3909.532524 
L 603.158446 3917.981364 
L 604.005312 3926.988385 
L 604.852178 3935.702284 
L 605.699044 3946.557527 
L 606.54591 3956.525102 
L 607.392776 3939.654468 
L 608.239642 3903.057749 
L 609.086508 3865.234577 
L 609.933374 3840.531495 
L 610.78024 3800.958234 
L 611.627106 3763.749402 
L 612.473972 3728.644931 
L 613.320838 3690.068714 
L 614.167704 3650.480335 
L 615.01457 3610.898241 
L 615.861436 3575.813009 
L 616.708302 3548.405191 
L 617.555168 3508.103295 
L 618.402034 3474.404439 
L 619.2489 3438.490497 
L 620.095766 3408.259001 
L 620.942632 3370.855526 
L 621.789498 3334.810961 
L 622.636364 3295.857504 
L 622.636364 240.877274 
L 622.636364 240.877274 
L 621.789498 240.903749 
L 620.942632 241.029806 
L 620.095766 240.795053 
L 619.2489 240.406021 
L 618.402034 240.320738 
L 617.555168 240.316463 
L 616.708302 240.246851 
L 615.861436 239.98116 
L 615.01457 239.653128 
L 614.167704 239.374766 
L 613.320838 239.513582 
L 612.473972 239.750674 
L 611.627106 239.574789 
L 610.78024 240.04235 
L 609.933374 240.165118 
L 609.086508 240.337356 
L 608.239642 240.506204 
L 607.392776 240.846556 
L 606.54591 240.937695 
L 605.699044 240.729971 
L 604.852178 240.551511 
L 604.005312 240.559255 
L 603.158446 239.936652 
L 602.31158 239.608613 
L 601.464714 239.687504 
L 600.617848 239.767175 
L 599.770982 239.16695 
L 598.924116 238.283593 
L 598.07725 237.814658 
L 597.230384 237.465286 
L 596.383518 236.605821 
L 595.536652 236.2252 
L 594.689786 235.955872 
L 593.84292 235.629391 
L 592.996054 235.651554 
L 592.149188 236.055251 
L 591.302322 235.989603 
L 590.455456 236.22765 
L 589.60859 236.318791 
L 588.761724 236.563532 
L 587.914858 236.226386 
L 587.067992 236.018253 
L 586.221126 236.029173 
L 585.37426 235.758659 
L 584.527394 235.898122 
L 583.680528 235.855645 
L 582.833662 235.741908 
L 581.986796 236.157027 
L 581.13993 236.382695 
L 580.293064 236.937769 
L 579.446198 236.999164 
L 578.599332 236.858063 
L 577.752466 236.781058 
L 576.9056 236.515865 
L 576.058734 236.52325 
L 575.211868 236.142678 
L 574.365002 236.446736 
L 573.518136 236.060611 
L 572.67127 235.036777 
L 571.824404 234.676228 
L 570.977538 234.174717 
L 570.130672 234.221201 
L 569.283806 234.072318 
L 568.43694 234.350809 
L 567.590074 234.550715 
L 566.743208 234.543691 
L 565.896342 234.780444 
L 565.049476 235.086829 
L 564.20261 235.101403 
L 563.355744 234.942613 
L 562.508878 234.865146 
L 561.662012 234.739706 
L 560.815146 234.551679 
L 559.96828 234.500022 
L 559.121414 234.503529 
L 558.274548 234.605256 
L 557.427683 234.681917 
L 556.580817 234.965228 
L 555.733951 234.817571 
L 554.887085 234.553681 
L 554.040219 234.130054 
L 553.193353 233.746571 
L 552.346487 233.375569 
L 551.499621 233.213292 
L 550.652755 233.520659 
L 549.805889 233.8656 
L 548.959023 234.237585 
L 548.112157 234.390719 
L 547.265291 234.545822 
L 546.418425 235.087126 
L 545.571559 235.330277 
L 544.724693 234.802684 
L 543.877827 234.799248 
L 543.030961 234.80873 
L 542.184095 234.728826 
L 541.337229 234.397594 
L 540.490363 234.276132 
L 539.643497 234.29603 
L 538.796631 234.567148 
L 537.949765 234.565642 
L 537.102899 234.886673 
L 536.256033 235.125544 
L 535.409167 235.645938 
L 534.562301 235.925551 
L 533.715435 236.35651 
L 532.868569 236.602275 
L 532.021703 236.645106 
L 531.174837 236.7372 
L 530.327971 236.514919 
L 529.481105 236.674069 
L 528.634239 237.013108 
L 527.787373 236.958936 
L 526.940507 236.769344 
L 526.093641 237.316862 
L 525.246775 237.534748 
L 524.399909 237.83751 
L 523.553043 237.903295 
L 522.706177 237.604184 
L 521.859311 237.254483 
L 521.012445 237.147196 
L 520.165579 237.344846 
L 519.318713 237.038101 
L 518.471847 237.009007 
L 517.624981 237.418531 
L 516.778115 237.340621 
L 515.931249 237.596456 
L 515.084383 237.515543 
L 514.237517 237.948206 
L 513.390651 238.893044 
L 512.543785 239.436577 
L 511.696919 239.841584 
L 510.850053 240.897627 
L 510.003187 241.454035 
L 509.156321 224.522868 
L 508.309455 221.597366 
L 507.462589 221.002358 
L 506.615723 218.810391 
L 505.768857 220.124699 
L 504.921991 220.687878 
L 504.075125 220.013051 
L 503.228259 220.37695 
L 502.381393 221.335901 
L 501.534527 223.085149 
L 500.687661 223.136669 
L 499.840795 223.835499 
L 498.993929 226.48187 
L 498.147063 228.252088 
L 497.300197 227.139927 
L 496.453331 226.144119 
L 495.606465 225.203203 
L 494.759599 224.205407 
L 493.912733 223.063154 
L 493.065867 221.854851 
L 492.219001 220.489896 
L 491.372135 219.515151 
L 490.525269 218.455285 
L 489.678403 217.277198 
L 488.831537 216.205855 
L 487.984671 215.175805 
L 487.137805 214.555931 
L 486.290939 213.515803 
L 485.444073 212.766395 
L 484.597207 211.772626 
L 483.750341 210.990457 
L 482.903475 210.058356 
L 482.05661 209.110324 
L 481.209744 208.236671 
L 480.362878 207.3977 
L 479.516012 206.331454 
L 478.669146 206.01584 
L 477.82228 206.004403 
L 476.975414 205.22723 
L 476.128548 204.289229 
L 475.281682 202.86185 
L 474.434816 201.816852 
L 473.58795 200.731789 
L 472.741084 199.930969 
L 471.894218 198.986676 
L 471.047352 198.181749 
L 470.200486 197.269043 
L 469.35362 196.325623 
L 468.506754 195.62552 
L 467.659888 195.331557 
L 466.813022 194.090423 
L 465.966156 193.075453 
L 465.11929 192.102069 
L 464.272424 191.160167 
L 463.425558 190.357125 
L 462.578692 189.527541 
L 461.731826 189.038388 
L 460.88496 188.327288 
L 460.038094 187.424673 
L 459.191228 186.603524 
L 458.344362 186.033952 
L 457.497496 185.805039 
L 456.65063 185.369224 
L 455.803764 185.187883 
L 454.956898 184.847045 
L 454.110032 184.137529 
L 453.263166 183.853001 
L 452.4163 183.15094 
L 451.569434 182.749316 
L 450.722568 182.284877 
L 449.875702 183.232377 
L 449.028836 183.634138 
L 448.18197 183.680217 
L 447.335104 183.511108 
L 446.488238 183.350588 
L 445.641372 183.014775 
L 444.794506 183.099738 
L 443.94764 183.518265 
L 443.100774 183.423818 
L 442.253908 183.27798 
L 441.407042 183.40624 
L 440.560176 183.505608 
L 439.71331 183.62305 
L 438.866444 184.130733 
L 438.019578 184.009173 
L 437.172712 183.942587 
L 436.325846 184.085366 
L 435.47898 184.137777 
L 434.632114 184.590071 
L 433.785248 185.071083 
L 432.938382 184.966889 
L 432.091516 184.799292 
L 431.24465 184.622601 
L 430.397784 184.843889 
L 429.550918 184.77242 
L 428.704052 184.90673 
L 427.857186 185.199173 
L 427.01032 185.405091 
L 426.163454 185.953956 
L 425.316588 186.997419 
L 424.469722 188.621863 
L 423.622856 190.137175 
L 422.77599 191.392083 
L 421.929124 193.4495 
L 421.082258 194.633547 
L 420.235392 195.898072 
L 419.388526 197.314781 
L 418.54166 198.599257 
L 417.694794 200.099779 
L 416.847928 201.465953 
L 416.001062 203.168049 
L 415.154196 204.882066 
L 414.30733 206.224637 
L 413.460464 208.602143 
L 412.613598 208.230064 
L 411.766732 207.313185 
L 410.919866 206.110385 
L 410.073 204.902413 
L 409.226134 203.365498 
L 408.379268 201.928289 
L 407.532402 200.686281 
L 406.685537 199.825379 
L 405.838671 198.697221 
L 404.991805 197.321519 
L 404.144939 196.020566 
L 403.298073 194.743395 
L 402.451207 193.696081 
L 401.604341 192.602027 
L 400.757475 191.37992 
L 399.910609 190.421595 
L 399.063743 189.331887 
L 398.216877 187.996617 
L 397.370011 186.727957 
L 396.523145 185.390345 
L 395.676279 184.272835 
L 394.829413 182.899734 
L 393.982547 181.550847 
L 393.135681 180.300869 
L 392.288815 179.188093 
L 391.441949 177.779112 
L 390.595083 176.456392 
L 389.748217 174.853159 
L 388.901351 173.93282 
L 388.054485 173.498487 
L 387.207619 172.341743 
L 386.360753 171.421923 
L 385.513887 170.153359 
L 384.667021 168.597407 
L 383.820155 167.230265 
L 382.973289 166.545806 
L 382.126423 165.1092 
L 381.279557 164.251059 
L 380.432691 162.68444 
L 379.585825 161.414694 
L 378.738959 160.301127 
L 377.892093 159.124596 
L 377.045227 158.049281 
L 376.198361 157.117487 
L 375.351495 156.35106 
L 374.504629 155.484775 
L 373.657763 155.35371 
L 372.810897 154.795295 
L 371.964031 154.947262 
L 371.117165 155.162209 
L 370.270299 154.562658 
L 369.423433 153.840083 
L 368.576567 154.415349 
L 367.729701 153.825299 
L 366.882835 153.001087 
L 366.035969 152.066378 
L 365.189103 151.231465 
L 364.342237 151.162628 
L 363.495371 151.213527 
L 362.648505 151.463185 
L 361.801639 151.759369 
L 360.954773 157.817163 
L 360.107907 162.402538 
L 359.261041 165.871902 
L 358.414175 171.258043 
L 357.567309 178.219174 
L 356.720443 189.606896 
L 355.873577 201.422487 
L 355.026711 204.661454 
L 354.179845 204.855113 
L 353.332979 204.14967 
L 352.486113 203.939459 
L 351.639247 203.694728 
L 350.792381 203.991053 
L 349.945515 204.583195 
L 349.098649 204.864744 
L 348.251783 205.588533 
L 347.404917 205.737974 
L 346.558051 206.104818 
L 345.711185 206.465535 
L 344.864319 207.06193 
L 344.017453 207.246633 
L 343.170587 206.703254 
L 342.323721 207.11338 
L 341.476855 207.7987 
L 340.629989 207.84833 
L 339.783123 208.691574 
L 338.936257 208.033749 
L 338.089391 207.516984 
L 337.242525 206.810689 
L 336.395659 206.048706 
L 335.548793 204.378734 
L 334.701927 203.518146 
L 333.855061 204.039279 
L 333.008195 205.049883 
L 332.161329 206.460266 
L 331.314463 206.981437 
L 330.467598 207.742128 
L 329.620732 208.36851 
L 328.773866 208.289517 
L 327.927 208.200155 
L 327.080134 208.014969 
L 326.233268 206.973201 
L 325.386402 208.75313 
L 324.539536 210.590931 
L 323.69267 212.017444 
L 322.845804 213.219902 
L 321.998938 214.39048 
L 321.152072 215.319676 
L 320.305206 216.59374 
L 319.45834 217.662477 
L 318.611474 218.482898 
L 317.764608 219.260477 
L 316.917742 220.263587 
L 316.070876 220.998778 
L 315.22401 221.782433 
L 314.377144 222.469439 
L 313.530278 223.627494 
L 312.683412 224.540548 
L 311.836546 225.713639 
L 310.98968 226.386224 
L 310.142814 226.853312 
L 309.295948 224.149721 
L 308.449082 219.656127 
L 307.602216 218.970416 
L 306.75535 218.757921 
L 305.908484 218.285637 
L 305.061618 217.385986 
L 304.214752 214.85198 
L 303.367886 213.976266 
L 302.52102 211.856224 
L 301.674154 207.245607 
L 300.827288 205.446923 
L 299.980422 203.519727 
L 299.133556 200.647559 
L 298.28669 198.841109 
L 297.439824 195.467704 
L 296.592958 193.859191 
L 295.746092 192.178819 
L 294.899226 191.264327 
L 294.05236 179.907846 
L 293.205494 175.513162 
L 292.358628 174.944225 
L 291.511762 174.406451 
L 290.664896 173.897606 
L 289.81803 173.110393 
L 288.971164 172.734628 
L 288.124298 172.130169 
L 287.277432 172.188543 
L 286.430566 171.584608 
L 285.5837 170.800578 
L 284.736834 169.929533 
L 283.889968 169.249446 
L 283.043102 168.555941 
L 282.196236 168.096724 
L 281.34937 167.896442 
L 280.502504 167.777879 
L 279.655638 168.059329 
L 278.808772 169.697446 
L 277.961906 171.024482 
L 277.11504 172.555024 
L 276.268174 173.12274 
L 275.421308 173.071667 
L 274.574442 172.433165 
L 273.727576 171.506635 
L 272.88071 172.096776 
L 272.033844 171.6698 
L 271.186978 172.188279 
L 270.340112 171.7683 
L 269.493246 171.513504 
L 268.64638 171.410859 
L 267.799514 171.396517 
L 266.952648 170.658255 
L 266.105782 170.096128 
L 265.258916 170.389488 
L 264.41205 170.339956 
L 263.565184 170.131806 
L 262.718318 169.808066 
L 261.871452 167.074665 
L 261.024586 150.163734 
L 260.17772 150.10427 
L 259.330854 152.002939 
L 258.483988 151.795445 
L 257.637122 152.060658 
L 256.790256 152.032294 
L 255.94339 151.736728 
L 255.096525 151.839646 
L 254.249659 151.784918 
L 253.402793 151.720065 
L 252.555927 151.740028 
L 251.709061 151.808455 
L 250.862195 151.868331 
L 250.015329 151.749759 
L 249.168463 151.150386 
L 248.321597 150.634317 
L 247.474731 150.76884 
L 246.627865 150.563862 
L 245.780999 150.707412 
L 244.934133 151.057696 
L 244.087267 148.570845 
L 243.240401 141.500213 
L 242.393535 141.083284 
L 241.546669 140.593609 
L 240.699803 140.283805 
L 239.852937 138.046955 
L 239.006071 137.72702 
L 238.159205 137.823544 
L 237.312339 138.243461 
L 236.465473 138.489681 
L 235.618607 138.303937 
L 234.771741 138.781645 
L 233.924875 138.315535 
L 233.078009 138.220368 
L 232.231143 138.705105 
L 231.384277 139.215742 
L 230.537411 139.888077 
L 229.690545 140.649012 
L 228.843679 140.821658 
L 227.996813 140.599892 
L 227.149947 140.418322 
L 226.303081 140.066149 
L 225.456215 139.933495 
L 224.609349 140.187596 
L 223.762483 140.772041 
L 222.915617 141.389847 
L 222.068751 142.054361 
L 221.221885 143.13873 
L 220.375019 143.608018 
L 219.528153 144.257946 
L 218.681287 145.033822 
L 217.834421 145.459533 
L 216.987555 146.250999 
L 216.140689 146.884619 
L 215.293823 147.723743 
L 214.446957 148.799521 
L 213.600091 149.408112 
L 212.753225 149.918415 
L 211.906359 150.881843 
L 211.059493 151.131002 
L 210.212627 151.32803 
L 209.365761 151.430136 
L 208.518895 149.341422 
L 207.672029 150.130789 
L 206.825163 150.577231 
L 205.978297 151.162844 
L 205.131431 151.640343 
L 204.284565 152.461594 
L 203.437699 154.253992 
L 202.590833 161.322128 
L 201.743967 168.259052 
L 200.897101 177.500814 
L 200.050235 189.290544 
L 199.203369 189.920381 
L 198.356503 190.696362 
L 197.509637 191.585918 
L 196.662771 192.233842 
L 195.815905 192.97362 
L 194.969039 193.643498 
L 194.122173 193.131275 
L 193.275307 192.444902 
L 192.428441 191.869267 
L 191.581575 191.068634 
L 190.734709 190.8399 
L 189.887843 191.615071 
L 189.040977 192.347441 
L 188.194111 193.067422 
L 187.347245 193.726331 
L 186.500379 194.693111 
L 185.653513 194.537914 
L 184.806647 195.354601 
L 183.959781 196.079793 
L 183.112915 196.682479 
L 182.266049 197.051758 
L 181.419183 198.165711 
L 180.572317 199.498142 
L 179.725452 200.348692 
L 178.878586 201.602737 
L 178.03172 203.012435 
L 177.184854 204.202939 
L 176.337988 205.023201 
L 175.491122 205.97688 
L 174.644256 207.481579 
L 173.79739 208.710187 
L 172.950524 209.990997 
L 172.103658 211.184406 
L 171.256792 212.163366 
L 170.409926 213.639733 
L 169.56306 214.918607 
L 168.716194 216.167802 
L 167.869328 217.274874 
L 167.022462 218.572603 
L 166.175596 219.785825 
L 165.32873 221.504047 
L 164.481864 223.300319 
L 163.634998 225.142686 
L 162.788132 227.361313 
L 161.941266 229.242058 
L 161.0944 231.578765 
L 160.247534 233.548412 
L 159.400668 235.275573 
L 158.553802 237.180386 
L 157.706936 239.308849 
L 156.86007 240.893037 
L 156.013204 243.415279 
L 155.166338 245.726841 
L 154.319472 248.717228 
L 153.472606 250.855129 
L 152.62574 253.184896 
L 151.778874 254.30831 
L 150.932008 255.991153 
L 150.085142 258.160424 
L 149.238276 259.233035 
L 148.39141 261.746218 
L 147.544544 264.409227 
L 146.697678 267.102423 
L 145.850812 270.218381 
L 145.003946 273.101251 
L 144.15708 276.021663 
L 143.310214 279.767502 
L 142.463348 282.849236 
L 141.616482 285.987957 
L 140.769616 289.465049 
L 139.92275 293.254488 
L 139.075884 298.457891 
L 138.229018 303.169083 
L 137.382152 308.231745 
L 136.535286 312.726168 
L 135.68842 318.820409 
L 134.841554 324.895466 
L 133.994688 328.933779 
L 133.147822 336.40466 
L 132.300956 332.577195 
L 131.45409 334.11855 
L 130.607224 338.881649 
L 129.760358 340.90856 
L 128.913492 339.189594 
L 128.066626 341.350309 
L 127.21976 350.4746 
L 126.372894 359.574212 
L 125.526028 374.640583 
L 124.679162 389.440199 
L 123.832296 407.366073 
L 122.98543 431.073318 
L 122.138564 460.256081 
L 121.291698 494.432796 
L 120.444832 522.375477 
L 119.597966 577.829183 
L 118.7511 654.141276 
L 117.904234 767.698034 
L 117.057368 920.374172 
L 116.210502 1073.577045 
L 115.363636 1021.788981 
z
" clip-path="url(#pa725d57d6b)" style="fill: #ff7f0e; fill-opacity: 0.5"/>
   </g>
   <g id="matplotlib.axis_1">
    <g id="xtick_1">
     <g id="line2d_1">
      <path d="M 115.363636 320.4 
L 115.363636 43.2 
" clip-path="url(#pa725d57d6b)" style="fill: none; stroke-dasharray: 2.96,1.28; stroke-dashoffset: 0; stroke: #b0b0b0; stroke-width: 0.8"/>
     </g>
     <g id="line2d_2">
      <defs>
       <path id="m00eaa4b0a2" d="M 0 0 
L 0 3.5 
" style="stroke: #000000; stroke-width: 0.8"/>
      </defs>
      <g>
       <use xlink:href="#m00eaa4b0a2" x="115.363636" y="320.4" style="stroke: #000000; stroke-width: 0.8"/>
      </g>
     </g>
     <g id="text_1">
      <!-- 0 -->
      <g transform="translate(112.182386 334.998438)scale(0.1 -0.1)">
       <defs>
        <path id="DejaVuSans-30" d="M 2034 4250 
Q 1547 4250 1301 3770 
Q 1056 3291 1056 2328 
Q 1056 1369 1301 889 
Q 1547 409 2034 409 
Q 2525 409 2770 889 
Q 3016 1369 3016 2328 
Q 3016 3291 2770 3770 
Q 2525 4250 2034 4250 
z
M 2034 4750 
Q 2819 4750 3233 4129 
Q 3647 3509 3647 2328 
Q 3647 1150 3233 529 
Q 2819 -91 2034 -91 
Q 1250 -91 836 529 
Q 422 1150 422 2328 
Q 422 3509 836 4129 
Q 1250 4750 2034 4750 
z
" transform="scale(0.015625)"/>
       </defs>
       <use xlink:href="#DejaVuSans-30"/>
      </g>
     </g>
    </g>
    <g id="xtick_2">
     <g id="line2d_3">
      <path d="M 200.050235 320.4 
L 200.050235 43.2 
" clip-path="url(#pa725d57d6b)" style="fill: none; stroke-dasharray: 2.96,1.28; stroke-dashoffset: 0; stroke: #b0b0b0; stroke-width: 0.8"/>
     </g>
     <g id="line2d_4">
      <g>
       <use xlink:href="#m00eaa4b0a2" x="200.050235" y="320.4" style="stroke: #000000; stroke-width: 0.8"/>
      </g>
     </g>
     <g id="text_2">
      <!-- 100 -->
      <g transform="translate(190.506485 334.998438)scale(0.1 -0.1)">
       <defs>
        <path id="DejaVuSans-31" d="M 794 531 
L 1825 531 
L 1825 4091 
L 703 3866 
L 703 4441 
L 1819 4666 
L 2450 4666 
L 2450 531 
L 3481 531 
L 3481 0 
L 794 0 
L 794 531 
z
" transform="scale(0.015625)"/>
       </defs>
       <use xlink:href="#DejaVuSans-31"/>
       <use xlink:href="#DejaVuSans-30" x="63.623047"/>
       <use xlink:href="#DejaVuSans-30" x="127.246094"/>
      </g>
     </g>
    </g>
    <g id="xtick_3">
     <g id="line2d_5">
      <path d="M 284.736834 320.4 
L 284.736834 43.2 
" clip-path="url(#pa725d57d6b)" style="fill: none; stroke-dasharray: 2.96,1.28; stroke-dashoffset: 0; stroke: #b0b0b0; stroke-width: 0.8"/>
     </g>
     <g id="line2d_6">
      <g>
       <use xlink:href="#m00eaa4b0a2" x="284.736834" y="320.4" style="stroke: #000000; stroke-width: 0.8"/>
      </g>
     </g>
     <g id="text_3">
      <!-- 200 -->
      <g transform="translate(275.193084 334.998438)scale(0.1 -0.1)">
       <defs>
        <path id="DejaVuSans-32" d="M 1228 531 
L 3431 531 
L 3431 0 
L 469 0 
L 469 531 
Q 828 903 1448 1529 
Q 2069 2156 2228 2338 
Q 2531 2678 2651 2914 
Q 2772 3150 2772 3378 
Q 2772 3750 2511 3984 
Q 2250 4219 1831 4219 
Q 1534 4219 1204 4116 
Q 875 4013 500 3803 
L 500 4441 
Q 881 4594 1212 4672 
Q 1544 4750 1819 4750 
Q 2544 4750 2975 4387 
Q 3406 4025 3406 3419 
Q 3406 3131 3298 2873 
Q 3191 2616 2906 2266 
Q 2828 2175 2409 1742 
Q 1991 1309 1228 531 
z
" transform="scale(0.015625)"/>
       </defs>
       <use xlink:href="#DejaVuSans-32"/>
       <use xlink:href="#DejaVuSans-30" x="63.623047"/>
       <use xlink:href="#DejaVuSans-30" x="127.246094"/>
      </g>
     </g>
    </g>
    <g id="xtick_4">
     <g id="line2d_7">
      <path d="M 369.423433 320.4 
L 369.423433 43.2 
" clip-path="url(#pa725d57d6b)" style="fill: none; stroke-dasharray: 2.96,1.28; stroke-dashoffset: 0; stroke: #b0b0b0; stroke-width: 0.8"/>
     </g>
     <g id="line2d_8">
      <g>
       <use xlink:href="#m00eaa4b0a2" x="369.423433" y="320.4" style="stroke: #000000; stroke-width: 0.8"/>
      </g>
     </g>
     <g id="text_4">
      <!-- 300 -->
      <g transform="translate(359.879683 334.998438)scale(0.1 -0.1)">
       <defs>
        <path id="DejaVuSans-33" d="M 2597 2516 
Q 3050 2419 3304 2112 
Q 3559 1806 3559 1356 
Q 3559 666 3084 287 
Q 2609 -91 1734 -91 
Q 1441 -91 1130 -33 
Q 819 25 488 141 
L 488 750 
Q 750 597 1062 519 
Q 1375 441 1716 441 
Q 2309 441 2620 675 
Q 2931 909 2931 1356 
Q 2931 1769 2642 2001 
Q 2353 2234 1838 2234 
L 1294 2234 
L 1294 2753 
L 1863 2753 
Q 2328 2753 2575 2939 
Q 2822 3125 2822 3475 
Q 2822 3834 2567 4026 
Q 2313 4219 1838 4219 
Q 1578 4219 1281 4162 
Q 984 4106 628 3988 
L 628 4550 
Q 988 4650 1302 4700 
Q 1616 4750 1894 4750 
Q 2613 4750 3031 4423 
Q 3450 4097 3450 3541 
Q 3450 3153 3228 2886 
Q 3006 2619 2597 2516 
z
" transform="scale(0.015625)"/>
       </defs>
       <use xlink:href="#DejaVuSans-33"/>
       <use xlink:href="#DejaVuSans-30" x="63.623047"/>
       <use xlink:href="#DejaVuSans-30" x="127.246094"/>
      </g>
     </g>
    </g>
    <g id="xtick_5">
     <g id="line2d_9">
      <path d="M 454.110032 320.4 
L 454.110032 43.2 
" clip-path="url(#pa725d57d6b)" style="fill: none; stroke-dasharray: 2.96,1.28; stroke-dashoffset: 0; stroke: #b0b0b0; stroke-width: 0.8"/>
     </g>
     <g id="line2d_10">
      <g>
       <use xlink:href="#m00eaa4b0a2" x="454.110032" y="320.4" style="stroke: #000000; stroke-width: 0.8"/>
      </g>
     </g>
     <g id="text_5">
      <!-- 400 -->
      <g transform="translate(444.566282 334.998438)scale(0.1 -0.1)">
       <defs>
        <path id="DejaVuSans-34" d="M 2419 4116 
L 825 1625 
L 2419 1625 
L 2419 4116 
z
M 2253 4666 
L 3047 4666 
L 3047 1625 
L 3713 1625 
L 3713 1100 
L 3047 1100 
L 3047 0 
L 2419 0 
L 2419 1100 
L 313 1100 
L 313 1709 
L 2253 4666 
z
" transform="scale(0.015625)"/>
       </defs>
       <use xlink:href="#DejaVuSans-34"/>
       <use xlink:href="#DejaVuSans-30" x="63.623047"/>
       <use xlink:href="#DejaVuSans-30" x="127.246094"/>
      </g>
     </g>
    </g>
    <g id="xtick_6">
     <g id="line2d_11">
      <path d="M 538.796631 320.4 
L 538.796631 43.2 
" clip-path="url(#pa725d57d6b)" style="fill: none; stroke-dasharray: 2.96,1.28; stroke-dashoffset: 0; stroke: #b0b0b0; stroke-width: 0.8"/>
     </g>
     <g id="line2d_12">
      <g>
       <use xlink:href="#m00eaa4b0a2" x="538.796631" y="320.4" style="stroke: #000000; stroke-width: 0.8"/>
      </g>
     </g>
     <g id="text_6">
      <!-- 500 -->
      <g transform="translate(529.252881 334.998438)scale(0.1 -0.1)">
       <defs>
        <path id="DejaVuSans-35" d="M 691 4666 
L 3169 4666 
L 3169 4134 
L 1269 4134 
L 1269 2991 
Q 1406 3038 1543 3061 
Q 1681 3084 1819 3084 
Q 2600 3084 3056 2656 
Q 3513 2228 3513 1497 
Q 3513 744 3044 326 
Q 2575 -91 1722 -91 
Q 1428 -91 1123 -41 
Q 819 9 494 109 
L 494 744 
Q 775 591 1075 516 
Q 1375 441 1709 441 
Q 2250 441 2565 725 
Q 2881 1009 2881 1497 
Q 2881 1984 2565 2268 
Q 2250 2553 1709 2553 
Q 1456 2553 1204 2497 
Q 953 2441 691 2322 
L 691 4666 
z
" transform="scale(0.015625)"/>
       </defs>
       <use xlink:href="#DejaVuSans-35"/>
       <use xlink:href="#DejaVuSans-30" x="63.623047"/>
       <use xlink:href="#DejaVuSans-30" x="127.246094"/>
      </g>
     </g>
    </g>
    <g id="xtick_7">
     <g id="line2d_13">
      <path d="M 623.48323 320.4 
L 623.48323 43.2 
" clip-path="url(#pa725d57d6b)" style="fill: none; stroke-dasharray: 2.96,1.28; stroke-dashoffset: 0; stroke: #b0b0b0; stroke-width: 0.8"/>
     </g>
     <g id="line2d_14">
      <g>
       <use xlink:href="#m00eaa4b0a2" x="623.48323" y="320.4" style="stroke: #000000; stroke-width: 0.8"/>
      </g>
     </g>
     <g id="text_7">
      <!-- 600 -->
      <g transform="translate(613.93948 334.998438)scale(0.1 -0.1)">
       <defs>
        <path id="DejaVuSans-36" d="M 2113 2584 
Q 1688 2584 1439 2293 
Q 1191 2003 1191 1497 
Q 1191 994 1439 701 
Q 1688 409 2113 409 
Q 2538 409 2786 701 
Q 3034 994 3034 1497 
Q 3034 2003 2786 2293 
Q 2538 2584 2113 2584 
z
M 3366 4563 
L 3366 3988 
Q 3128 4100 2886 4159 
Q 2644 4219 2406 4219 
Q 1781 4219 1451 3797 
Q 1122 3375 1075 2522 
Q 1259 2794 1537 2939 
Q 1816 3084 2150 3084 
Q 2853 3084 3261 2657 
Q 3669 2231 3669 1497 
Q 3669 778 3244 343 
Q 2819 -91 2113 -91 
Q 1303 -91 875 529 
Q 447 1150 447 2328 
Q 447 3434 972 4092 
Q 1497 4750 2381 4750 
Q 2619 4750 2861 4703 
Q 3103 4656 3366 4563 
z
" transform="scale(0.015625)"/>
       </defs>
       <use xlink:href="#DejaVuSans-36"/>
       <use xlink:href="#DejaVuSans-30" x="63.623047"/>
       <use xlink:href="#DejaVuSans-30" x="127.246094"/>
      </g>
     </g>
    </g>
    <g id="text_8">
     <!-- Episodes -->
     <g transform="translate(346.757812 348.676562)scale(0.1 -0.1)">
      <defs>
       <path id="DejaVuSans-45" d="M 628 4666 
L 3578 4666 
L 3578 4134 
L 1259 4134 
L 1259 2753 
L 3481 2753 
L 3481 2222 
L 1259 2222 
L 1259 531 
L 3634 531 
L 3634 0 
L 628 0 
L 628 4666 
z
" transform="scale(0.015625)"/>
       <path id="DejaVuSans-70" d="M 1159 525 
L 1159 -1331 
L 581 -1331 
L 581 3500 
L 1159 3500 
L 1159 2969 
Q 1341 3281 1617 3432 
Q 1894 3584 2278 3584 
Q 2916 3584 3314 3078 
Q 3713 2572 3713 1747 
Q 3713 922 3314 415 
Q 2916 -91 2278 -91 
Q 1894 -91 1617 61 
Q 1341 213 1159 525 
z
M 3116 1747 
Q 3116 2381 2855 2742 
Q 2594 3103 2138 3103 
Q 1681 3103 1420 2742 
Q 1159 2381 1159 1747 
Q 1159 1113 1420 752 
Q 1681 391 2138 391 
Q 2594 391 2855 752 
Q 3116 1113 3116 1747 
z
" transform="scale(0.015625)"/>
       <path id="DejaVuSans-69" d="M 603 3500 
L 1178 3500 
L 1178 0 
L 603 0 
L 603 3500 
z
M 603 4863 
L 1178 4863 
L 1178 4134 
L 603 4134 
L 603 4863 
z
" transform="scale(0.015625)"/>
       <path id="DejaVuSans-73" d="M 2834 3397 
L 2834 2853 
Q 2591 2978 2328 3040 
Q 2066 3103 1784 3103 
Q 1356 3103 1142 2972 
Q 928 2841 928 2578 
Q 928 2378 1081 2264 
Q 1234 2150 1697 2047 
L 1894 2003 
Q 2506 1872 2764 1633 
Q 3022 1394 3022 966 
Q 3022 478 2636 193 
Q 2250 -91 1575 -91 
Q 1294 -91 989 -36 
Q 684 19 347 128 
L 347 722 
Q 666 556 975 473 
Q 1284 391 1588 391 
Q 1994 391 2212 530 
Q 2431 669 2431 922 
Q 2431 1156 2273 1281 
Q 2116 1406 1581 1522 
L 1381 1569 
Q 847 1681 609 1914 
Q 372 2147 372 2553 
Q 372 3047 722 3315 
Q 1072 3584 1716 3584 
Q 2034 3584 2315 3537 
Q 2597 3491 2834 3397 
z
" transform="scale(0.015625)"/>
       <path id="DejaVuSans-6f" d="M 1959 3097 
Q 1497 3097 1228 2736 
Q 959 2375 959 1747 
Q 959 1119 1226 758 
Q 1494 397 1959 397 
Q 2419 397 2687 759 
Q 2956 1122 2956 1747 
Q 2956 2369 2687 2733 
Q 2419 3097 1959 3097 
z
M 1959 3584 
Q 2709 3584 3137 3096 
Q 3566 2609 3566 1747 
Q 3566 888 3137 398 
Q 2709 -91 1959 -91 
Q 1206 -91 779 398 
Q 353 888 353 1747 
Q 353 2609 779 3096 
Q 1206 3584 1959 3584 
z
" transform="scale(0.015625)"/>
       <path id="DejaVuSans-64" d="M 2906 2969 
L 2906 4863 
L 3481 4863 
L 3481 0 
L 2906 0 
L 2906 525 
Q 2725 213 2448 61 
Q 2172 -91 1784 -91 
Q 1150 -91 751 415 
Q 353 922 353 1747 
Q 353 2572 751 3078 
Q 1150 3584 1784 3584 
Q 2172 3584 2448 3432 
Q 2725 3281 2906 2969 
z
M 947 1747 
Q 947 1113 1208 752 
Q 1469 391 1925 391 
Q 2381 391 2643 752 
Q 2906 1113 2906 1747 
Q 2906 2381 2643 2742 
Q 2381 3103 1925 3103 
Q 1469 3103 1208 2742 
Q 947 2381 947 1747 
z
" transform="scale(0.015625)"/>
       <path id="DejaVuSans-65" d="M 3597 1894 
L 3597 1613 
L 953 1613 
Q 991 1019 1311 708 
Q 1631 397 2203 397 
Q 2534 397 2845 478 
Q 3156 559 3463 722 
L 3463 178 
Q 3153 47 2828 -22 
Q 2503 -91 2169 -91 
Q 1331 -91 842 396 
Q 353 884 353 1716 
Q 353 2575 817 3079 
Q 1281 3584 2069 3584 
Q 2775 3584 3186 3129 
Q 3597 2675 3597 1894 
z
M 3022 2063 
Q 3016 2534 2758 2815 
Q 2500 3097 2075 3097 
Q 1594 3097 1305 2825 
Q 1016 2553 972 2059 
L 3022 2063 
z
" transform="scale(0.015625)"/>
      </defs>
      <use xlink:href="#DejaVuSans-45"/>
      <use xlink:href="#DejaVuSans-70" x="63.183594"/>
      <use xlink:href="#DejaVuSans-69" x="126.660156"/>
      <use xlink:href="#DejaVuSans-73" x="154.443359"/>
      <use xlink:href="#DejaVuSans-6f" x="206.542969"/>
      <use xlink:href="#DejaVuSans-64" x="267.724609"/>
      <use xlink:href="#DejaVuSans-65" x="331.201172"/>
      <use xlink:href="#DejaVuSans-73" x="392.724609"/>
     </g>
    </g>
   </g>
   <g id="matplotlib.axis_2">
    <g id="ytick_1">
     <g id="line2d_15">
      <path d="M 90 320.4 
L 648 320.4 
" clip-path="url(#pa725d57d6b)" style="fill: none; stroke-dasharray: 2.96,1.28; stroke-dashoffset: 0; stroke: #b0b0b0; stroke-width: 0.8"/>
     </g>
     <g id="line2d_16">
      <defs>
       <path id="m923cfaa545" d="M 0 0 
L -3.5 0 
" style="stroke: #000000; stroke-width: 0.8"/>
      </defs>
      <g>
       <use xlink:href="#m923cfaa545" x="90" y="320.4" style="stroke: #000000; stroke-width: 0.8"/>
      </g>
     </g>
     <g id="text_9">
      <!-- 0 -->
      <g transform="translate(76.6375 324.199219)scale(0.1 -0.1)">
       <use xlink:href="#DejaVuSans-30"/>
      </g>
     </g>
    </g>
    <g id="ytick_2">
     <g id="line2d_17">
      <path d="M 90 264.96 
L 648 264.96 
" clip-path="url(#pa725d57d6b)" style="fill: none; stroke-dasharray: 2.96,1.28; stroke-dashoffset: 0; stroke: #b0b0b0; stroke-width: 0.8"/>
     </g>
     <g id="line2d_18">
      <g>
       <use xlink:href="#m923cfaa545" x="90" y="264.96" style="stroke: #000000; stroke-width: 0.8"/>
      </g>
     </g>
     <g id="text_10">
      <!-- 2000 -->
      <g transform="translate(57.55 268.759219)scale(0.1 -0.1)">
       <use xlink:href="#DejaVuSans-32"/>
       <use xlink:href="#DejaVuSans-30" x="63.623047"/>
       <use xlink:href="#DejaVuSans-30" x="127.246094"/>
       <use xlink:href="#DejaVuSans-30" x="190.869141"/>
      </g>
     </g>
    </g>
    <g id="ytick_3">
     <g id="line2d_19">
      <path d="M 90 209.52 
L 648 209.52 
" clip-path="url(#pa725d57d6b)" style="fill: none; stroke-dasharray: 2.96,1.28; stroke-dashoffset: 0; stroke: #b0b0b0; stroke-width: 0.8"/>
     </g>
     <g id="line2d_20">
      <g>
       <use xlink:href="#m923cfaa545" x="90" y="209.52" style="stroke: #000000; stroke-width: 0.8"/>
      </g>
     </g>
     <g id="text_11">
      <!-- 4000 -->
      <g transform="translate(57.55 213.319219)scale(0.1 -0.1)">
       <use xlink:href="#DejaVuSans-34"/>
       <use xlink:href="#DejaVuSans-30" x="63.623047"/>
       <use xlink:href="#DejaVuSans-30" x="127.246094"/>
       <use xlink:href="#DejaVuSans-30" x="190.869141"/>
      </g>
     </g>
    </g>
    <g id="ytick_4">
     <g id="line2d_21">
      <path d="M 90 154.08 
L 648 154.08 
" clip-path="url(#pa725d57d6b)" style="fill: none; stroke-dasharray: 2.96,1.28; stroke-dashoffset: 0; stroke: #b0b0b0; stroke-width: 0.8"/>
     </g>
     <g id="line2d_22">
      <g>
       <use xlink:href="#m923cfaa545" x="90" y="154.08" style="stroke: #000000; stroke-width: 0.8"/>
      </g>
     </g>
     <g id="text_12">
      <!-- 6000 -->
      <g transform="translate(57.55 157.879219)scale(0.1 -0.1)">
       <use xlink:href="#DejaVuSans-36"/>
       <use xlink:href="#DejaVuSans-30" x="63.623047"/>
       <use xlink:href="#DejaVuSans-30" x="127.246094"/>
       <use xlink:href="#DejaVuSans-30" x="190.869141"/>
      </g>
     </g>
    </g>
    <g id="ytick_5">
     <g id="line2d_23">
      <path d="M 90 98.64 
L 648 98.64 
" clip-path="url(#pa725d57d6b)" style="fill: none; stroke-dasharray: 2.96,1.28; stroke-dashoffset: 0; stroke: #b0b0b0; stroke-width: 0.8"/>
     </g>
     <g id="line2d_24">
      <g>
       <use xlink:href="#m923cfaa545" x="90" y="98.64" style="stroke: #000000; stroke-width: 0.8"/>
      </g>
     </g>
     <g id="text_13">
      <!-- 8000 -->
      <g transform="translate(57.55 102.439219)scale(0.1 -0.1)">
       <defs>
        <path id="DejaVuSans-38" d="M 2034 2216 
Q 1584 2216 1326 1975 
Q 1069 1734 1069 1313 
Q 1069 891 1326 650 
Q 1584 409 2034 409 
Q 2484 409 2743 651 
Q 3003 894 3003 1313 
Q 3003 1734 2745 1975 
Q 2488 2216 2034 2216 
z
M 1403 2484 
Q 997 2584 770 2862 
Q 544 3141 544 3541 
Q 544 4100 942 4425 
Q 1341 4750 2034 4750 
Q 2731 4750 3128 4425 
Q 3525 4100 3525 3541 
Q 3525 3141 3298 2862 
Q 3072 2584 2669 2484 
Q 3125 2378 3379 2068 
Q 3634 1759 3634 1313 
Q 3634 634 3220 271 
Q 2806 -91 2034 -91 
Q 1263 -91 848 271 
Q 434 634 434 1313 
Q 434 1759 690 2068 
Q 947 2378 1403 2484 
z
M 1172 3481 
Q 1172 3119 1398 2916 
Q 1625 2713 2034 2713 
Q 2441 2713 2670 2916 
Q 2900 3119 2900 3481 
Q 2900 3844 2670 4047 
Q 2441 4250 2034 4250 
Q 1625 4250 1398 4047 
Q 1172 3844 1172 3481 
z
" transform="scale(0.015625)"/>
       </defs>
       <use xlink:href="#DejaVuSans-38"/>
       <use xlink:href="#DejaVuSans-30" x="63.623047"/>
       <use xlink:href="#DejaVuSans-30" x="127.246094"/>
       <use xlink:href="#DejaVuSans-30" x="190.869141"/>
      </g>
     </g>
    </g>
    <g id="ytick_6">
     <g id="line2d_25">
      <path d="M 90 43.2 
L 648 43.2 
" clip-path="url(#pa725d57d6b)" style="fill: none; stroke-dasharray: 2.96,1.28; stroke-dashoffset: 0; stroke: #b0b0b0; stroke-width: 0.8"/>
     </g>
     <g id="line2d_26">
      <g>
       <use xlink:href="#m923cfaa545" x="90" y="43.2" style="stroke: #000000; stroke-width: 0.8"/>
      </g>
     </g>
     <g id="text_14">
      <!-- 10000 -->
      <g transform="translate(51.1875 46.999219)scale(0.1 -0.1)">
       <use xlink:href="#DejaVuSans-31"/>
       <use xlink:href="#DejaVuSans-30" x="63.623047"/>
       <use xlink:href="#DejaVuSans-30" x="127.246094"/>
       <use xlink:href="#DejaVuSans-30" x="190.869141"/>
       <use xlink:href="#DejaVuSans-30" x="254.492188"/>
      </g>
     </g>
    </g>
    <g id="text_15">
     <!-- Profit -->
     <g transform="translate(45.107813 194.839062)rotate(-90)scale(0.1 -0.1)">
      <defs>
       <path id="DejaVuSans-50" d="M 1259 4147 
L 1259 2394 
L 2053 2394 
Q 2494 2394 2734 2622 
Q 2975 2850 2975 3272 
Q 2975 3691 2734 3919 
Q 2494 4147 2053 4147 
L 1259 4147 
z
M 628 4666 
L 2053 4666 
Q 2838 4666 3239 4311 
Q 3641 3956 3641 3272 
Q 3641 2581 3239 2228 
Q 2838 1875 2053 1875 
L 1259 1875 
L 1259 0 
L 628 0 
L 628 4666 
z
" transform="scale(0.015625)"/>
       <path id="DejaVuSans-72" d="M 2631 2963 
Q 2534 3019 2420 3045 
Q 2306 3072 2169 3072 
Q 1681 3072 1420 2755 
Q 1159 2438 1159 1844 
L 1159 0 
L 581 0 
L 581 3500 
L 1159 3500 
L 1159 2956 
Q 1341 3275 1631 3429 
Q 1922 3584 2338 3584 
Q 2397 3584 2469 3576 
Q 2541 3569 2628 3553 
L 2631 2963 
z
" transform="scale(0.015625)"/>
       <path id="DejaVuSans-66" d="M 2375 4863 
L 2375 4384 
L 1825 4384 
Q 1516 4384 1395 4259 
Q 1275 4134 1275 3809 
L 1275 3500 
L 2222 3500 
L 2222 3053 
L 1275 3053 
L 1275 0 
L 697 0 
L 697 3053 
L 147 3053 
L 147 3500 
L 697 3500 
L 697 3744 
Q 697 4328 969 4595 
Q 1241 4863 1831 4863 
L 2375 4863 
z
" transform="scale(0.015625)"/>
       <path id="DejaVuSans-74" d="M 1172 4494 
L 1172 3500 
L 2356 3500 
L 2356 3053 
L 1172 3053 
L 1172 1153 
Q 1172 725 1289 603 
Q 1406 481 1766 481 
L 2356 481 
L 2356 0 
L 1766 0 
Q 1100 0 847 248 
Q 594 497 594 1153 
L 594 3053 
L 172 3053 
L 172 3500 
L 594 3500 
L 594 4494 
L 1172 4494 
z
" transform="scale(0.015625)"/>
      </defs>
      <use xlink:href="#DejaVuSans-50"/>
      <use xlink:href="#DejaVuSans-72" x="58.552734"/>
      <use xlink:href="#DejaVuSans-6f" x="97.416016"/>
      <use xlink:href="#DejaVuSans-66" x="158.597656"/>
      <use xlink:href="#DejaVuSans-69" x="193.802734"/>
      <use xlink:href="#DejaVuSans-74" x="221.585938"/>
     </g>
    </g>
   </g>
   <g id="line2d_27">
    <path d="M 143.166578 361 
L 147.544544 332.991061 
L 150.932008 316.305528 
L 151.778874 312.498407 
L 152.62574 309.659279 
L 155.166338 299.985347 
L 159.400668 286.740198 
L 160.247534 284.217096 
L 161.941266 279.808364 
L 164.481864 272.772524 
L 165.32873 270.930853 
L 166.175596 268.604206 
L 167.869328 264.861403 
L 169.56306 260.61826 
L 171.256792 256.584746 
L 172.103658 254.822542 
L 176.337988 247.838665 
L 179.725452 243.367026 
L 183.959781 238.067668 
L 184.806647 237.212818 
L 185.653513 236.650527 
L 187.347245 234.729039 
L 188.194111 233.973285 
L 189.040977 233.661049 
L 190.734709 232.65081 
L 193.275307 230.885789 
L 194.122173 230.421485 
L 195.815905 229.136748 
L 198.356503 227.367593 
L 200.050235 226.185013 
L 202.590833 196.039789 
L 204.284565 177.704947 
L 205.131431 171.123499 
L 205.978297 165.516079 
L 206.825163 162.992728 
L 207.672029 162.637679 
L 208.518895 162.547466 
L 209.365761 162.647446 
L 211.906359 161.873613 
L 214.446957 161.512933 
L 215.293823 161.487857 
L 216.987555 161.764613 
L 218.681287 162.674807 
L 221.221885 162.964339 
L 222.068751 162.825567 
L 225.456215 163.421822 
L 227.149947 163.653472 
L 227.996813 163.888954 
L 229.690545 163.864569 
L 230.537411 166.620581 
L 231.384277 168.09592 
L 232.231143 168.311374 
L 234.771741 168.388054 
L 237.312339 169.028532 
L 238.159205 168.916966 
L 240.699803 169.718424 
L 241.546669 170.643694 
L 243.240401 171.148014 
L 244.087267 171.601281 
L 244.934133 171.841538 
L 245.780999 172.455053 
L 247.474731 173.08971 
L 248.321597 173.234801 
L 250.015329 174.152552 
L 250.862195 174.334227 
L 252.555927 174.98955 
L 253.402793 175.318503 
L 254.249659 175.876823 
L 256.790256 177.243316 
L 257.637122 177.767965 
L 258.483988 177.996302 
L 259.330854 178.363825 
L 261.024586 178.721281 
L 261.871452 179.041402 
L 264.41205 179.418388 
L 265.258916 179.754159 
L 266.105782 179.850779 
L 269.493246 181.305701 
L 271.186978 180.675617 
L 272.033844 180.784821 
L 273.727576 180.527472 
L 275.421308 179.581553 
L 276.268174 179.218712 
L 278.808772 178.597059 
L 279.655638 178.035727 
L 283.043102 178.070091 
L 284.736834 177.99526 
L 285.5837 178.068631 
L 288.971164 177.891712 
L 289.81803 178.231819 
L 290.664896 178.238595 
L 292.358628 178.553564 
L 294.05236 178.52566 
L 294.899226 178.561412 
L 295.746092 178.944609 
L 296.592958 179.072824 
L 298.28669 180.050832 
L 301.674154 180.927307 
L 304.214752 180.02772 
L 308.449082 180.33439 
L 309.295948 180.685623 
L 311.836546 181.28823 
L 312.683412 181.28933 
L 313.530278 181.627271 
L 315.22401 181.702584 
L 316.070876 179.258621 
L 316.917742 178.164994 
L 317.764608 178.27913 
L 318.611474 178.51733 
L 320.305206 178.620261 
L 321.998938 179.023213 
L 322.845804 179.130163 
L 323.69267 179.364711 
L 324.539536 179.329913 
L 325.386402 179.064241 
L 326.233268 179.145476 
L 327.080134 178.129236 
L 327.927 177.673246 
L 328.773866 177.419761 
L 331.314463 176.301012 
L 332.161329 175.776563 
L 333.008195 175.415447 
L 333.855061 175.611254 
L 334.701927 177.191014 
L 335.548793 180.040403 
L 336.395659 190.476496 
L 347.699496 361 
L 347.699496 361 
" clip-path="url(#pa725d57d6b)" style="fill: none; stroke: #1f77b4; stroke-width: 1.5; stroke-linecap: square"/>
   </g>
   <g id="line2d_28">
    <path d="M 360.581836 361 
L 361.801639 352.44034 
L 362.648505 349.910974 
L 364.342237 345.982019 
L 365.189103 344.721264 
L 368.576567 333.285104 
L 369.423433 329.956106 
L 370.270299 327.829775 
L 371.117165 326.376449 
L 371.964031 324.022388 
L 372.810897 322.01148 
L 373.657763 320.364863 
L 374.504629 317.80104 
L 376.198361 315.518332 
L 377.045227 314.730996 
L 377.892093 312.492385 
L 378.738959 310.761597 
L 379.585825 308.074566 
L 380.432691 301.501104 
L 382.126423 297.028888 
L 382.973289 295.894635 
L 383.820155 292.069018 
L 384.667021 289.998143 
L 385.513887 286.698332 
L 386.360753 285.250801 
L 387.207619 286.055632 
L 388.054485 284.710256 
L 388.901351 282.40568 
L 389.748217 280.465398 
L 390.595083 278.150754 
L 393.135681 272.861376 
L 393.982547 270.202959 
L 394.829413 266.966353 
L 395.676279 264.270187 
L 397.370011 260.692126 
L 398.216877 259.2418 
L 399.063743 257.444406 
L 399.910609 253.833921 
L 400.757475 251.002287 
L 402.451207 244.376424 
L 403.298073 241.856442 
L 404.144939 240.107499 
L 404.991805 237.438111 
L 405.838671 235.890582 
L 408.379268 228.386796 
L 409.226134 224.510356 
L 410.073 222.432897 
L 410.919866 217.13544 
L 411.766732 214.784296 
L 412.613598 214.269988 
L 413.460464 215.021752 
L 414.30733 215.12938 
L 415.154196 215.011598 
L 416.001062 215.018217 
L 416.847928 215.972064 
L 417.694794 218.031721 
L 420.235392 217.330096 
L 421.082258 217.093991 
L 421.929124 216.150959 
L 422.77599 215.489099 
L 423.622856 215.771188 
L 424.469722 215.811344 
L 425.316588 215.516073 
L 426.163454 215.606249 
L 427.01032 215.905927 
L 428.704052 216.216691 
L 429.550918 216.526252 
L 430.397784 217.446113 
L 431.24465 218.559298 
L 432.091516 218.937948 
L 432.938382 219.712786 
L 433.785248 220.978638 
L 434.632114 223.054471 
L 435.47898 223.944283 
L 437.172712 225.451274 
L 438.019578 225.847043 
L 438.866444 225.984519 
L 439.71331 226.701199 
L 440.560176 227.898233 
L 441.407042 228.477321 
L 442.253908 228.776694 
L 443.100774 229.714722 
L 443.94764 232.756885 
L 444.794506 237.489532 
L 446.488238 244.454253 
L 447.335104 246.96509 
L 448.18197 248.584163 
L 449.028836 248.815569 
L 449.875702 248.665329 
L 450.722568 248.232694 
L 451.569434 248.186882 
L 452.4163 249.129165 
L 453.263166 249.512876 
L 454.110032 251.504354 
L 454.956898 257.106357 
L 455.803764 260.029968 
L 458.344362 262.26571 
L 459.191228 262.690489 
L 460.88496 264.797787 
L 461.731826 265.149135 
L 462.578692 265.076222 
L 465.966156 266.209843 
L 466.813022 266.06685 
L 467.659888 266.224096 
L 468.506754 265.257374 
L 469.35362 265.403369 
L 470.200486 265.183711 
L 471.047352 264.591967 
L 471.894218 262.789731 
L 472.741084 259.870825 
L 473.58795 258.452057 
L 474.434816 258.786455 
L 476.975414 259.265945 
L 478.669146 259.043183 
L 479.516012 258.91446 
L 480.362878 260.408535 
L 482.05661 265.457307 
L 482.903475 265.861663 
L 483.750341 266.66969 
L 484.597207 266.929518 
L 485.444073 268.710347 
L 486.290939 269.166854 
L 487.137805 269.385921 
L 487.984671 271.435296 
L 488.831537 274.230238 
L 489.678403 276.052865 
L 490.525269 278.612938 
L 491.372135 279.044541 
L 492.219001 278.963373 
L 493.065867 279.469814 
L 493.912733 279.521287 
L 494.759599 279.9043 
L 495.606465 279.231364 
L 496.453331 278.26243 
L 497.300197 278.448199 
L 498.147063 277.65242 
L 498.993929 276.610349 
L 499.840795 275.997934 
L 500.687661 275.86713 
L 501.534527 275.923225 
L 502.381393 274.994824 
L 503.228259 273.205684 
L 504.921991 273.466678 
L 505.768857 273.05308 
L 506.615723 272.863231 
L 508.309455 274.249575 
L 509.156321 275.556022 
L 510.003187 281.253454 
L 511.696919 294.634901 
L 513.390651 301.602427 
L 514.237517 303.033958 
L 515.084383 303.39811 
L 515.931249 304.412897 
L 516.778115 306.757227 
L 517.624981 308.570899 
L 518.471847 308.635621 
L 519.318713 308.021953 
L 520.165579 306.765983 
L 521.012445 306.901757 
L 521.859311 313.770119 
L 525.151228 361 
L 525.151228 361 
" clip-path="url(#pa725d57d6b)" style="fill: none; stroke: #ff7f0e; stroke-width: 1.5; stroke-linecap: square"/>
   </g>
   <g id="patch_3">
    <path d="M 90 320.4 
L 90 43.2 
" style="fill: none; stroke: #000000; stroke-width: 0.8; stroke-linejoin: miter; stroke-linecap: square"/>
   </g>
   <g id="patch_4">
    <path d="M 648 320.4 
L 648 43.2 
" style="fill: none; stroke: #000000; stroke-width: 0.8; stroke-linejoin: miter; stroke-linecap: square"/>
   </g>
   <g id="patch_5">
    <path d="M 90 320.4 
L 648 320.4 
" style="fill: none; stroke: #000000; stroke-width: 0.8; stroke-linejoin: miter; stroke-linecap: square"/>
   </g>
   <g id="patch_6">
    <path d="M 90 43.2 
L 648 43.2 
" style="fill: none; stroke: #000000; stroke-width: 0.8; stroke-linejoin: miter; stroke-linecap: square"/>
   </g>
   <g id="legend_1">
    <g id="patch_7">
     <path d="M 498.4125 81.1125 
L 641 81.1125 
Q 643 81.1125 643 79.1125 
L 643 50.2 
Q 643 48.2 641 48.2 
L 498.4125 48.2 
Q 496.4125 48.2 496.4125 50.2 
L 496.4125 79.1125 
Q 496.4125 81.1125 498.4125 81.1125 
z
" style="fill: #ffffff; opacity: 0.8; stroke: #cccccc; stroke-linejoin: miter"/>
    </g>
    <g id="line2d_29">
     <path d="M 500.4125 56.298437 
L 510.4125 56.298437 
L 520.4125 56.298437 
" style="fill: none; stroke: #1f77b4; stroke-width: 1.5; stroke-linecap: square"/>
    </g>
    <g id="text_16">
     <!-- Mean of a2c_standard -->
     <g transform="translate(528.4125 59.798437)scale(0.1 -0.1)">
      <defs>
       <path id="DejaVuSans-4d" d="M 628 4666 
L 1569 4666 
L 2759 1491 
L 3956 4666 
L 4897 4666 
L 4897 0 
L 4281 0 
L 4281 4097 
L 3078 897 
L 2444 897 
L 1241 4097 
L 1241 0 
L 628 0 
L 628 4666 
z
" transform="scale(0.015625)"/>
       <path id="DejaVuSans-61" d="M 2194 1759 
Q 1497 1759 1228 1600 
Q 959 1441 959 1056 
Q 959 750 1161 570 
Q 1363 391 1709 391 
Q 2188 391 2477 730 
Q 2766 1069 2766 1631 
L 2766 1759 
L 2194 1759 
z
M 3341 1997 
L 3341 0 
L 2766 0 
L 2766 531 
Q 2569 213 2275 61 
Q 1981 -91 1556 -91 
Q 1019 -91 701 211 
Q 384 513 384 1019 
Q 384 1609 779 1909 
Q 1175 2209 1959 2209 
L 2766 2209 
L 2766 2266 
Q 2766 2663 2505 2880 
Q 2244 3097 1772 3097 
Q 1472 3097 1187 3025 
Q 903 2953 641 2809 
L 641 3341 
Q 956 3463 1253 3523 
Q 1550 3584 1831 3584 
Q 2591 3584 2966 3190 
Q 3341 2797 3341 1997 
z
" transform="scale(0.015625)"/>
       <path id="DejaVuSans-6e" d="M 3513 2113 
L 3513 0 
L 2938 0 
L 2938 2094 
Q 2938 2591 2744 2837 
Q 2550 3084 2163 3084 
Q 1697 3084 1428 2787 
Q 1159 2491 1159 1978 
L 1159 0 
L 581 0 
L 581 3500 
L 1159 3500 
L 1159 2956 
Q 1366 3272 1645 3428 
Q 1925 3584 2291 3584 
Q 2894 3584 3203 3211 
Q 3513 2838 3513 2113 
z
" transform="scale(0.015625)"/>
       <path id="DejaVuSans-20" transform="scale(0.015625)"/>
       <path id="DejaVuSans-63" d="M 3122 3366 
L 3122 2828 
Q 2878 2963 2633 3030 
Q 2388 3097 2138 3097 
Q 1578 3097 1268 2742 
Q 959 2388 959 1747 
Q 959 1106 1268 751 
Q 1578 397 2138 397 
Q 2388 397 2633 464 
Q 2878 531 3122 666 
L 3122 134 
Q 2881 22 2623 -34 
Q 2366 -91 2075 -91 
Q 1284 -91 818 406 
Q 353 903 353 1747 
Q 353 2603 823 3093 
Q 1294 3584 2113 3584 
Q 2378 3584 2631 3529 
Q 2884 3475 3122 3366 
z
" transform="scale(0.015625)"/>
       <path id="DejaVuSans-5f" d="M 3263 -1063 
L 3263 -1509 
L -63 -1509 
L -63 -1063 
L 3263 -1063 
z
" transform="scale(0.015625)"/>
      </defs>
      <use xlink:href="#DejaVuSans-4d"/>
      <use xlink:href="#DejaVuSans-65" x="86.279297"/>
      <use xlink:href="#DejaVuSans-61" x="147.802734"/>
      <use xlink:href="#DejaVuSans-6e" x="209.082031"/>
      <use xlink:href="#DejaVuSans-20" x="272.460938"/>
      <use xlink:href="#DejaVuSans-6f" x="304.248047"/>
      <use xlink:href="#DejaVuSans-66" x="365.429688"/>
      <use xlink:href="#DejaVuSans-20" x="400.634766"/>
      <use xlink:href="#DejaVuSans-61" x="432.421875"/>
      <use xlink:href="#DejaVuSans-32" x="493.701172"/>
      <use xlink:href="#DejaVuSans-63" x="557.324219"/>
      <use xlink:href="#DejaVuSans-5f" x="612.304688"/>
      <use xlink:href="#DejaVuSans-73" x="662.304688"/>
      <use xlink:href="#DejaVuSans-74" x="714.404297"/>
      <use xlink:href="#DejaVuSans-61" x="753.613281"/>
      <use xlink:href="#DejaVuSans-6e" x="814.892578"/>
      <use xlink:href="#DejaVuSans-64" x="878.271484"/>
      <use xlink:href="#DejaVuSans-61" x="941.748047"/>
      <use xlink:href="#DejaVuSans-72" x="1003.027344"/>
      <use xlink:href="#DejaVuSans-64" x="1042.390625"/>
     </g>
    </g>
    <g id="line2d_30">
     <path d="M 500.4125 71.254687 
L 510.4125 71.254687 
L 520.4125 71.254687 
" style="fill: none; stroke: #ff7f0e; stroke-width: 1.5; stroke-linecap: square"/>
    </g>
    <g id="text_17">
     <!-- Mean of a2c_standard -->
     <g transform="translate(528.4125 74.754687)scale(0.1 -0.1)">
      <use xlink:href="#DejaVuSans-4d"/>
      <use xlink:href="#DejaVuSans-65" x="86.279297"/>
      <use xlink:href="#DejaVuSans-61" x="147.802734"/>
      <use xlink:href="#DejaVuSans-6e" x="209.082031"/>
      <use xlink:href="#DejaVuSans-20" x="272.460938"/>
      <use xlink:href="#DejaVuSans-6f" x="304.248047"/>
      <use xlink:href="#DejaVuSans-66" x="365.429688"/>
      <use xlink:href="#DejaVuSans-20" x="400.634766"/>
      <use xlink:href="#DejaVuSans-61" x="432.421875"/>
      <use xlink:href="#DejaVuSans-32" x="493.701172"/>
      <use xlink:href="#DejaVuSans-63" x="557.324219"/>
      <use xlink:href="#DejaVuSans-5f" x="612.304688"/>
      <use xlink:href="#DejaVuSans-73" x="662.304688"/>
      <use xlink:href="#DejaVuSans-74" x="714.404297"/>
      <use xlink:href="#DejaVuSans-61" x="753.613281"/>
      <use xlink:href="#DejaVuSans-6e" x="814.892578"/>
      <use xlink:href="#DejaVuSans-64" x="878.271484"/>
      <use xlink:href="#DejaVuSans-61" x="941.748047"/>
      <use xlink:href="#DejaVuSans-72" x="1003.027344"/>
      <use xlink:href="#DejaVuSans-64" x="1042.390625"/>
     </g>
    </g>
   </g>
  </g>
 </g>
 <defs>
  <clipPath id="pa725d57d6b">
   <rect x="90" y="43.2" width="558" height="277.2"/>
  </clipPath>
 </defs>
</svg>
