<?xml version="1.0" encoding="utf-8" standalone="no"?>
<!DOCTYPE svg PUBLIC "-//W3C//DTD SVG 1.1//EN"
  "http://www.w3.org/Graphics/SVG/1.1/DTD/svg11.dtd">
<svg xmlns:xlink="http://www.w3.org/1999/xlink" width="720pt" height="360pt" viewBox="0 0 720 360" xmlns="http://www.w3.org/2000/svg" version="1.1">
 <metadata>
  <rdf:RDF xmlns:dc="http://purl.org/dc/elements/1.1/" xmlns:cc="http://creativecommons.org/ns#" xmlns:rdf="http://www.w3.org/1999/02/22-rdf-syntax-ns#">
   <cc:Work>
    <dc:type rdf:resource="http://purl.org/dc/dcmitype/StillImage"/>
    <dc:date>2022-06-30T14:03:49.448904</dc:date>
    <dc:format>image/svg+xml</dc:format>
    <dc:creator>
     <cc:Agent>
      <dc:title>Matplotlib v3.5.2, https://matplotlib.org/</dc:title>
     </cc:Agent>
    </dc:creator>
   </cc:Work>
  </rdf:RDF>
 </metadata>
 <defs>
  <style type="text/css">*{stroke-linejoin: round; stroke-linecap: butt}</style>
 </defs>
 <g id="figure_1">
  <g id="patch_1">
   <path d="M 0 360 
L 720 360 
L 720 0 
L 0 0 
L 0 360 
z
" style="fill: none"/>
  </g>
  <g id="axes_1">
   <g id="patch_2">
    <path d="M 90 320.4 
L 648 320.4 
L 648 43.2 
L 90 43.2 
L 90 320.4 
z
" style="fill: none"/>
   </g>
   <g id="matplotlib.axis_1">
    <g id="xtick_1">
     <g id="line2d_1">
      <path d="M 115.363636 320.4 
L 115.363636 43.2 
" clip-path="url(#pa28503350a)" style="fill: none; stroke-dasharray: 2.96,1.28; stroke-dashoffset: 0; stroke: #b0b0b0; stroke-width: 0.8"/>
     </g>
     <g id="line2d_2">
      <defs>
       <path id="m5ad620c18a" d="M 0 0 
L 0 3.5 
" style="stroke: #000000; stroke-width: 0.8"/>
      </defs>
      <g>
       <use xlink:href="#m5ad620c18a" x="115.363636" y="320.4" style="stroke: #000000; stroke-width: 0.8"/>
      </g>
     </g>
     <g id="text_1">
      <!-- 0 -->
      <g transform="translate(112.182386 334.998438)scale(0.1 -0.1)">
       <defs>
        <path id="DejaVuSans-30" d="M 2034 4250 
Q 1547 4250 1301 3770 
Q 1056 3291 1056 2328 
Q 1056 1369 1301 889 
Q 1547 409 2034 409 
Q 2525 409 2770 889 
Q 3016 1369 3016 2328 
Q 3016 3291 2770 3770 
Q 2525 4250 2034 4250 
z
M 2034 4750 
Q 2819 4750 3233 4129 
Q 3647 3509 3647 2328 
Q 3647 1150 3233 529 
Q 2819 -91 2034 -91 
Q 1250 -91 836 529 
Q 422 1150 422 2328 
Q 422 3509 836 4129 
Q 1250 4750 2034 4750 
z
" transform="scale(0.015625)"/>
       </defs>
       <use xlink:href="#DejaVuSans-30"/>
      </g>
     </g>
    </g>
    <g id="xtick_2">
     <g id="line2d_3">
      <path d="M 178.741039 320.4 
L 178.741039 43.2 
" clip-path="url(#pa28503350a)" style="fill: none; stroke-dasharray: 2.96,1.28; stroke-dashoffset: 0; stroke: #b0b0b0; stroke-width: 0.8"/>
     </g>
     <g id="line2d_4">
      <g>
       <use xlink:href="#m5ad620c18a" x="178.741039" y="320.4" style="stroke: #000000; stroke-width: 0.8"/>
      </g>
     </g>
     <g id="text_2">
      <!-- 250 -->
      <g transform="translate(169.197289 334.998438)scale(0.1 -0.1)">
       <defs>
        <path id="DejaVuSans-32" d="M 1228 531 
L 3431 531 
L 3431 0 
L 469 0 
L 469 531 
Q 828 903 1448 1529 
Q 2069 2156 2228 2338 
Q 2531 2678 2651 2914 
Q 2772 3150 2772 3378 
Q 2772 3750 2511 3984 
Q 2250 4219 1831 4219 
Q 1534 4219 1204 4116 
Q 875 4013 500 3803 
L 500 4441 
Q 881 4594 1212 4672 
Q 1544 4750 1819 4750 
Q 2544 4750 2975 4387 
Q 3406 4025 3406 3419 
Q 3406 3131 3298 2873 
Q 3191 2616 2906 2266 
Q 2828 2175 2409 1742 
Q 1991 1309 1228 531 
z
" transform="scale(0.015625)"/>
        <path id="DejaVuSans-35" d="M 691 4666 
L 3169 4666 
L 3169 4134 
L 1269 4134 
L 1269 2991 
Q 1406 3038 1543 3061 
Q 1681 3084 1819 3084 
Q 2600 3084 3056 2656 
Q 3513 2228 3513 1497 
Q 3513 744 3044 326 
Q 2575 -91 1722 -91 
Q 1428 -91 1123 -41 
Q 819 9 494 109 
L 494 744 
Q 775 591 1075 516 
Q 1375 441 1709 441 
Q 2250 441 2565 725 
Q 2881 1009 2881 1497 
Q 2881 1984 2565 2268 
Q 2250 2553 1709 2553 
Q 1456 2553 1204 2497 
Q 953 2441 691 2322 
L 691 4666 
z
" transform="scale(0.015625)"/>
       </defs>
       <use xlink:href="#DejaVuSans-32"/>
       <use xlink:href="#DejaVuSans-35" x="63.623047"/>
       <use xlink:href="#DejaVuSans-30" x="127.246094"/>
      </g>
     </g>
    </g>
    <g id="xtick_3">
     <g id="line2d_5">
      <path d="M 242.118441 320.4 
L 242.118441 43.2 
" clip-path="url(#pa28503350a)" style="fill: none; stroke-dasharray: 2.96,1.28; stroke-dashoffset: 0; stroke: #b0b0b0; stroke-width: 0.8"/>
     </g>
     <g id="line2d_6">
      <g>
       <use xlink:href="#m5ad620c18a" x="242.118441" y="320.4" style="stroke: #000000; stroke-width: 0.8"/>
      </g>
     </g>
     <g id="text_3">
      <!-- 500 -->
      <g transform="translate(232.574691 334.998438)scale(0.1 -0.1)">
       <use xlink:href="#DejaVuSans-35"/>
       <use xlink:href="#DejaVuSans-30" x="63.623047"/>
       <use xlink:href="#DejaVuSans-30" x="127.246094"/>
      </g>
     </g>
    </g>
    <g id="xtick_4">
     <g id="line2d_7">
      <path d="M 305.495843 320.4 
L 305.495843 43.2 
" clip-path="url(#pa28503350a)" style="fill: none; stroke-dasharray: 2.96,1.28; stroke-dashoffset: 0; stroke: #b0b0b0; stroke-width: 0.8"/>
     </g>
     <g id="line2d_8">
      <g>
       <use xlink:href="#m5ad620c18a" x="305.495843" y="320.4" style="stroke: #000000; stroke-width: 0.8"/>
      </g>
     </g>
     <g id="text_4">
      <!-- 750 -->
      <g transform="translate(295.952093 334.998438)scale(0.1 -0.1)">
       <defs>
        <path id="DejaVuSans-37" d="M 525 4666 
L 3525 4666 
L 3525 4397 
L 1831 0 
L 1172 0 
L 2766 4134 
L 525 4134 
L 525 4666 
z
" transform="scale(0.015625)"/>
       </defs>
       <use xlink:href="#DejaVuSans-37"/>
       <use xlink:href="#DejaVuSans-35" x="63.623047"/>
       <use xlink:href="#DejaVuSans-30" x="127.246094"/>
      </g>
     </g>
    </g>
    <g id="xtick_5">
     <g id="line2d_9">
      <path d="M 368.873245 320.4 
L 368.873245 43.2 
" clip-path="url(#pa28503350a)" style="fill: none; stroke-dasharray: 2.96,1.28; stroke-dashoffset: 0; stroke: #b0b0b0; stroke-width: 0.8"/>
     </g>
     <g id="line2d_10">
      <g>
       <use xlink:href="#m5ad620c18a" x="368.873245" y="320.4" style="stroke: #000000; stroke-width: 0.8"/>
      </g>
     </g>
     <g id="text_5">
      <!-- 1000 -->
      <g transform="translate(356.148245 334.998438)scale(0.1 -0.1)">
       <defs>
        <path id="DejaVuSans-31" d="M 794 531 
L 1825 531 
L 1825 4091 
L 703 3866 
L 703 4441 
L 1819 4666 
L 2450 4666 
L 2450 531 
L 3481 531 
L 3481 0 
L 794 0 
L 794 531 
z
" transform="scale(0.015625)"/>
       </defs>
       <use xlink:href="#DejaVuSans-31"/>
       <use xlink:href="#DejaVuSans-30" x="63.623047"/>
       <use xlink:href="#DejaVuSans-30" x="127.246094"/>
       <use xlink:href="#DejaVuSans-30" x="190.869141"/>
      </g>
     </g>
    </g>
    <g id="xtick_6">
     <g id="line2d_11">
      <path d="M 432.250647 320.4 
L 432.250647 43.2 
" clip-path="url(#pa28503350a)" style="fill: none; stroke-dasharray: 2.96,1.28; stroke-dashoffset: 0; stroke: #b0b0b0; stroke-width: 0.8"/>
     </g>
     <g id="line2d_12">
      <g>
       <use xlink:href="#m5ad620c18a" x="432.250647" y="320.4" style="stroke: #000000; stroke-width: 0.8"/>
      </g>
     </g>
     <g id="text_6">
      <!-- 1250 -->
      <g transform="translate(419.525647 334.998438)scale(0.1 -0.1)">
       <use xlink:href="#DejaVuSans-31"/>
       <use xlink:href="#DejaVuSans-32" x="63.623047"/>
       <use xlink:href="#DejaVuSans-35" x="127.246094"/>
       <use xlink:href="#DejaVuSans-30" x="190.869141"/>
      </g>
     </g>
    </g>
    <g id="xtick_7">
     <g id="line2d_13">
      <path d="M 495.62805 320.4 
L 495.62805 43.2 
" clip-path="url(#pa28503350a)" style="fill: none; stroke-dasharray: 2.96,1.28; stroke-dashoffset: 0; stroke: #b0b0b0; stroke-width: 0.8"/>
     </g>
     <g id="line2d_14">
      <g>
       <use xlink:href="#m5ad620c18a" x="495.62805" y="320.4" style="stroke: #000000; stroke-width: 0.8"/>
      </g>
     </g>
     <g id="text_7">
      <!-- 1500 -->
      <g transform="translate(482.90305 334.998438)scale(0.1 -0.1)">
       <use xlink:href="#DejaVuSans-31"/>
       <use xlink:href="#DejaVuSans-35" x="63.623047"/>
       <use xlink:href="#DejaVuSans-30" x="127.246094"/>
       <use xlink:href="#DejaVuSans-30" x="190.869141"/>
      </g>
     </g>
    </g>
    <g id="xtick_8">
     <g id="line2d_15">
      <path d="M 559.005452 320.4 
L 559.005452 43.2 
" clip-path="url(#pa28503350a)" style="fill: none; stroke-dasharray: 2.96,1.28; stroke-dashoffset: 0; stroke: #b0b0b0; stroke-width: 0.8"/>
     </g>
     <g id="line2d_16">
      <g>
       <use xlink:href="#m5ad620c18a" x="559.005452" y="320.4" style="stroke: #000000; stroke-width: 0.8"/>
      </g>
     </g>
     <g id="text_8">
      <!-- 1750 -->
      <g transform="translate(546.280452 334.998438)scale(0.1 -0.1)">
       <use xlink:href="#DejaVuSans-31"/>
       <use xlink:href="#DejaVuSans-37" x="63.623047"/>
       <use xlink:href="#DejaVuSans-35" x="127.246094"/>
       <use xlink:href="#DejaVuSans-30" x="190.869141"/>
      </g>
     </g>
    </g>
    <g id="xtick_9">
     <g id="line2d_17">
      <path d="M 622.382854 320.4 
L 622.382854 43.2 
" clip-path="url(#pa28503350a)" style="fill: none; stroke-dasharray: 2.96,1.28; stroke-dashoffset: 0; stroke: #b0b0b0; stroke-width: 0.8"/>
     </g>
     <g id="line2d_18">
      <g>
       <use xlink:href="#m5ad620c18a" x="622.382854" y="320.4" style="stroke: #000000; stroke-width: 0.8"/>
      </g>
     </g>
     <g id="text_9">
      <!-- 2000 -->
      <g transform="translate(609.657854 334.998438)scale(0.1 -0.1)">
       <use xlink:href="#DejaVuSans-32"/>
       <use xlink:href="#DejaVuSans-30" x="63.623047"/>
       <use xlink:href="#DejaVuSans-30" x="127.246094"/>
       <use xlink:href="#DejaVuSans-30" x="190.869141"/>
      </g>
     </g>
    </g>
    <g id="text_10">
     <!-- Episodes -->
     <g transform="translate(346.757812 348.676562)scale(0.1 -0.1)">
      <defs>
       <path id="DejaVuSans-45" d="M 628 4666 
L 3578 4666 
L 3578 4134 
L 1259 4134 
L 1259 2753 
L 3481 2753 
L 3481 2222 
L 1259 2222 
L 1259 531 
L 3634 531 
L 3634 0 
L 628 0 
L 628 4666 
z
" transform="scale(0.015625)"/>
       <path id="DejaVuSans-70" d="M 1159 525 
L 1159 -1331 
L 581 -1331 
L 581 3500 
L 1159 3500 
L 1159 2969 
Q 1341 3281 1617 3432 
Q 1894 3584 2278 3584 
Q 2916 3584 3314 3078 
Q 3713 2572 3713 1747 
Q 3713 922 3314 415 
Q 2916 -91 2278 -91 
Q 1894 -91 1617 61 
Q 1341 213 1159 525 
z
M 3116 1747 
Q 3116 2381 2855 2742 
Q 2594 3103 2138 3103 
Q 1681 3103 1420 2742 
Q 1159 2381 1159 1747 
Q 1159 1113 1420 752 
Q 1681 391 2138 391 
Q 2594 391 2855 752 
Q 3116 1113 3116 1747 
z
" transform="scale(0.015625)"/>
       <path id="DejaVuSans-69" d="M 603 3500 
L 1178 3500 
L 1178 0 
L 603 0 
L 603 3500 
z
M 603 4863 
L 1178 4863 
L 1178 4134 
L 603 4134 
L 603 4863 
z
" transform="scale(0.015625)"/>
       <path id="DejaVuSans-73" d="M 2834 3397 
L 2834 2853 
Q 2591 2978 2328 3040 
Q 2066 3103 1784 3103 
Q 1356 3103 1142 2972 
Q 928 2841 928 2578 
Q 928 2378 1081 2264 
Q 1234 2150 1697 2047 
L 1894 2003 
Q 2506 1872 2764 1633 
Q 3022 1394 3022 966 
Q 3022 478 2636 193 
Q 2250 -91 1575 -91 
Q 1294 -91 989 -36 
Q 684 19 347 128 
L 347 722 
Q 666 556 975 473 
Q 1284 391 1588 391 
Q 1994 391 2212 530 
Q 2431 669 2431 922 
Q 2431 1156 2273 1281 
Q 2116 1406 1581 1522 
L 1381 1569 
Q 847 1681 609 1914 
Q 372 2147 372 2553 
Q 372 3047 722 3315 
Q 1072 3584 1716 3584 
Q 2034 3584 2315 3537 
Q 2597 3491 2834 3397 
z
" transform="scale(0.015625)"/>
       <path id="DejaVuSans-6f" d="M 1959 3097 
Q 1497 3097 1228 2736 
Q 959 2375 959 1747 
Q 959 1119 1226 758 
Q 1494 397 1959 397 
Q 2419 397 2687 759 
Q 2956 1122 2956 1747 
Q 2956 2369 2687 2733 
Q 2419 3097 1959 3097 
z
M 1959 3584 
Q 2709 3584 3137 3096 
Q 3566 2609 3566 1747 
Q 3566 888 3137 398 
Q 2709 -91 1959 -91 
Q 1206 -91 779 398 
Q 353 888 353 1747 
Q 353 2609 779 3096 
Q 1206 3584 1959 3584 
z
" transform="scale(0.015625)"/>
       <path id="DejaVuSans-64" d="M 2906 2969 
L 2906 4863 
L 3481 4863 
L 3481 0 
L 2906 0 
L 2906 525 
Q 2725 213 2448 61 
Q 2172 -91 1784 -91 
Q 1150 -91 751 415 
Q 353 922 353 1747 
Q 353 2572 751 3078 
Q 1150 3584 1784 3584 
Q 2172 3584 2448 3432 
Q 2725 3281 2906 2969 
z
M 947 1747 
Q 947 1113 1208 752 
Q 1469 391 1925 391 
Q 2381 391 2643 752 
Q 2906 1113 2906 1747 
Q 2906 2381 2643 2742 
Q 2381 3103 1925 3103 
Q 1469 3103 1208 2742 
Q 947 2381 947 1747 
z
" transform="scale(0.015625)"/>
       <path id="DejaVuSans-65" d="M 3597 1894 
L 3597 1613 
L 953 1613 
Q 991 1019 1311 708 
Q 1631 397 2203 397 
Q 2534 397 2845 478 
Q 3156 559 3463 722 
L 3463 178 
Q 3153 47 2828 -22 
Q 2503 -91 2169 -91 
Q 1331 -91 842 396 
Q 353 884 353 1716 
Q 353 2575 817 3079 
Q 1281 3584 2069 3584 
Q 2775 3584 3186 3129 
Q 3597 2675 3597 1894 
z
M 3022 2063 
Q 3016 2534 2758 2815 
Q 2500 3097 2075 3097 
Q 1594 3097 1305 2825 
Q 1016 2553 972 2059 
L 3022 2063 
z
" transform="scale(0.015625)"/>
      </defs>
      <use xlink:href="#DejaVuSans-45"/>
      <use xlink:href="#DejaVuSans-70" x="63.183594"/>
      <use xlink:href="#DejaVuSans-69" x="126.660156"/>
      <use xlink:href="#DejaVuSans-73" x="154.443359"/>
      <use xlink:href="#DejaVuSans-6f" x="206.542969"/>
      <use xlink:href="#DejaVuSans-64" x="267.724609"/>
      <use xlink:href="#DejaVuSans-65" x="331.201172"/>
      <use xlink:href="#DejaVuSans-73" x="392.724609"/>
     </g>
    </g>
   </g>
   <g id="matplotlib.axis_2">
    <g id="ytick_1">
     <g id="line2d_19">
      <path d="M 90 320.4 
L 648 320.4 
" clip-path="url(#pa28503350a)" style="fill: none; stroke-dasharray: 2.96,1.28; stroke-dashoffset: 0; stroke: #b0b0b0; stroke-width: 0.8"/>
     </g>
     <g id="line2d_20">
      <defs>
       <path id="mb7ddbd4c94" d="M 0 0 
L -3.5 0 
" style="stroke: #000000; stroke-width: 0.8"/>
      </defs>
      <g>
       <use xlink:href="#mb7ddbd4c94" x="90" y="320.4" style="stroke: #000000; stroke-width: 0.8"/>
      </g>
     </g>
     <g id="text_11">
      <!-- 0 -->
      <g transform="translate(76.6375 324.199219)scale(0.1 -0.1)">
       <use xlink:href="#DejaVuSans-30"/>
      </g>
     </g>
    </g>
    <g id="ytick_2">
     <g id="line2d_21">
      <path d="M 90 264.96 
L 648 264.96 
" clip-path="url(#pa28503350a)" style="fill: none; stroke-dasharray: 2.96,1.28; stroke-dashoffset: 0; stroke: #b0b0b0; stroke-width: 0.8"/>
     </g>
     <g id="line2d_22">
      <g>
       <use xlink:href="#mb7ddbd4c94" x="90" y="264.96" style="stroke: #000000; stroke-width: 0.8"/>
      </g>
     </g>
     <g id="text_12">
      <!-- 2000 -->
      <g transform="translate(57.55 268.759219)scale(0.1 -0.1)">
       <use xlink:href="#DejaVuSans-32"/>
       <use xlink:href="#DejaVuSans-30" x="63.623047"/>
       <use xlink:href="#DejaVuSans-30" x="127.246094"/>
       <use xlink:href="#DejaVuSans-30" x="190.869141"/>
      </g>
     </g>
    </g>
    <g id="ytick_3">
     <g id="line2d_23">
      <path d="M 90 209.52 
L 648 209.52 
" clip-path="url(#pa28503350a)" style="fill: none; stroke-dasharray: 2.96,1.28; stroke-dashoffset: 0; stroke: #b0b0b0; stroke-width: 0.8"/>
     </g>
     <g id="line2d_24">
      <g>
       <use xlink:href="#mb7ddbd4c94" x="90" y="209.52" style="stroke: #000000; stroke-width: 0.8"/>
      </g>
     </g>
     <g id="text_13">
      <!-- 4000 -->
      <g transform="translate(57.55 213.319219)scale(0.1 -0.1)">
       <defs>
        <path id="DejaVuSans-34" d="M 2419 4116 
L 825 1625 
L 2419 1625 
L 2419 4116 
z
M 2253 4666 
L 3047 4666 
L 3047 1625 
L 3713 1625 
L 3713 1100 
L 3047 1100 
L 3047 0 
L 2419 0 
L 2419 1100 
L 313 1100 
L 313 1709 
L 2253 4666 
z
" transform="scale(0.015625)"/>
       </defs>
       <use xlink:href="#DejaVuSans-34"/>
       <use xlink:href="#DejaVuSans-30" x="63.623047"/>
       <use xlink:href="#DejaVuSans-30" x="127.246094"/>
       <use xlink:href="#DejaVuSans-30" x="190.869141"/>
      </g>
     </g>
    </g>
    <g id="ytick_4">
     <g id="line2d_25">
      <path d="M 90 154.08 
L 648 154.08 
" clip-path="url(#pa28503350a)" style="fill: none; stroke-dasharray: 2.96,1.28; stroke-dashoffset: 0; stroke: #b0b0b0; stroke-width: 0.8"/>
     </g>
     <g id="line2d_26">
      <g>
       <use xlink:href="#mb7ddbd4c94" x="90" y="154.08" style="stroke: #000000; stroke-width: 0.8"/>
      </g>
     </g>
     <g id="text_14">
      <!-- 6000 -->
      <g transform="translate(57.55 157.879219)scale(0.1 -0.1)">
       <defs>
        <path id="DejaVuSans-36" d="M 2113 2584 
Q 1688 2584 1439 2293 
Q 1191 2003 1191 1497 
Q 1191 994 1439 701 
Q 1688 409 2113 409 
Q 2538 409 2786 701 
Q 3034 994 3034 1497 
Q 3034 2003 2786 2293 
Q 2538 2584 2113 2584 
z
M 3366 4563 
L 3366 3988 
Q 3128 4100 2886 4159 
Q 2644 4219 2406 4219 
Q 1781 4219 1451 3797 
Q 1122 3375 1075 2522 
Q 1259 2794 1537 2939 
Q 1816 3084 2150 3084 
Q 2853 3084 3261 2657 
Q 3669 2231 3669 1497 
Q 3669 778 3244 343 
Q 2819 -91 2113 -91 
Q 1303 -91 875 529 
Q 447 1150 447 2328 
Q 447 3434 972 4092 
Q 1497 4750 2381 4750 
Q 2619 4750 2861 4703 
Q 3103 4656 3366 4563 
z
" transform="scale(0.015625)"/>
       </defs>
       <use xlink:href="#DejaVuSans-36"/>
       <use xlink:href="#DejaVuSans-30" x="63.623047"/>
       <use xlink:href="#DejaVuSans-30" x="127.246094"/>
       <use xlink:href="#DejaVuSans-30" x="190.869141"/>
      </g>
     </g>
    </g>
    <g id="ytick_5">
     <g id="line2d_27">
      <path d="M 90 98.64 
L 648 98.64 
" clip-path="url(#pa28503350a)" style="fill: none; stroke-dasharray: 2.96,1.28; stroke-dashoffset: 0; stroke: #b0b0b0; stroke-width: 0.8"/>
     </g>
     <g id="line2d_28">
      <g>
       <use xlink:href="#mb7ddbd4c94" x="90" y="98.64" style="stroke: #000000; stroke-width: 0.8"/>
      </g>
     </g>
     <g id="text_15">
      <!-- 8000 -->
      <g transform="translate(57.55 102.439219)scale(0.1 -0.1)">
       <defs>
        <path id="DejaVuSans-38" d="M 2034 2216 
Q 1584 2216 1326 1975 
Q 1069 1734 1069 1313 
Q 1069 891 1326 650 
Q 1584 409 2034 409 
Q 2484 409 2743 651 
Q 3003 894 3003 1313 
Q 3003 1734 2745 1975 
Q 2488 2216 2034 2216 
z
M 1403 2484 
Q 997 2584 770 2862 
Q 544 3141 544 3541 
Q 544 4100 942 4425 
Q 1341 4750 2034 4750 
Q 2731 4750 3128 4425 
Q 3525 4100 3525 3541 
Q 3525 3141 3298 2862 
Q 3072 2584 2669 2484 
Q 3125 2378 3379 2068 
Q 3634 1759 3634 1313 
Q 3634 634 3220 271 
Q 2806 -91 2034 -91 
Q 1263 -91 848 271 
Q 434 634 434 1313 
Q 434 1759 690 2068 
Q 947 2378 1403 2484 
z
M 1172 3481 
Q 1172 3119 1398 2916 
Q 1625 2713 2034 2713 
Q 2441 2713 2670 2916 
Q 2900 3119 2900 3481 
Q 2900 3844 2670 4047 
Q 2441 4250 2034 4250 
Q 1625 4250 1398 4047 
Q 1172 3844 1172 3481 
z
" transform="scale(0.015625)"/>
       </defs>
       <use xlink:href="#DejaVuSans-38"/>
       <use xlink:href="#DejaVuSans-30" x="63.623047"/>
       <use xlink:href="#DejaVuSans-30" x="127.246094"/>
       <use xlink:href="#DejaVuSans-30" x="190.869141"/>
      </g>
     </g>
    </g>
    <g id="ytick_6">
     <g id="line2d_29">
      <path d="M 90 43.2 
L 648 43.2 
" clip-path="url(#pa28503350a)" style="fill: none; stroke-dasharray: 2.96,1.28; stroke-dashoffset: 0; stroke: #b0b0b0; stroke-width: 0.8"/>
     </g>
     <g id="line2d_30">
      <g>
       <use xlink:href="#mb7ddbd4c94" x="90" y="43.2" style="stroke: #000000; stroke-width: 0.8"/>
      </g>
     </g>
     <g id="text_16">
      <!-- 10000 -->
      <g transform="translate(51.1875 46.999219)scale(0.1 -0.1)">
       <use xlink:href="#DejaVuSans-31"/>
       <use xlink:href="#DejaVuSans-30" x="63.623047"/>
       <use xlink:href="#DejaVuSans-30" x="127.246094"/>
       <use xlink:href="#DejaVuSans-30" x="190.869141"/>
       <use xlink:href="#DejaVuSans-30" x="254.492188"/>
      </g>
     </g>
    </g>
    <g id="text_17">
     <!-- Profit -->
     <g transform="translate(45.107813 194.839062)rotate(-90)scale(0.1 -0.1)">
      <defs>
       <path id="DejaVuSans-50" d="M 1259 4147 
L 1259 2394 
L 2053 2394 
Q 2494 2394 2734 2622 
Q 2975 2850 2975 3272 
Q 2975 3691 2734 3919 
Q 2494 4147 2053 4147 
L 1259 4147 
z
M 628 4666 
L 2053 4666 
Q 2838 4666 3239 4311 
Q 3641 3956 3641 3272 
Q 3641 2581 3239 2228 
Q 2838 1875 2053 1875 
L 1259 1875 
L 1259 0 
L 628 0 
L 628 4666 
z
" transform="scale(0.015625)"/>
       <path id="DejaVuSans-72" d="M 2631 2963 
Q 2534 3019 2420 3045 
Q 2306 3072 2169 3072 
Q 1681 3072 1420 2755 
Q 1159 2438 1159 1844 
L 1159 0 
L 581 0 
L 581 3500 
L 1159 3500 
L 1159 2956 
Q 1341 3275 1631 3429 
Q 1922 3584 2338 3584 
Q 2397 3584 2469 3576 
Q 2541 3569 2628 3553 
L 2631 2963 
z
" transform="scale(0.015625)"/>
       <path id="DejaVuSans-66" d="M 2375 4863 
L 2375 4384 
L 1825 4384 
Q 1516 4384 1395 4259 
Q 1275 4134 1275 3809 
L 1275 3500 
L 2222 3500 
L 2222 3053 
L 1275 3053 
L 1275 0 
L 697 0 
L 697 3053 
L 147 3053 
L 147 3500 
L 697 3500 
L 697 3744 
Q 697 4328 969 4595 
Q 1241 4863 1831 4863 
L 2375 4863 
z
" transform="scale(0.015625)"/>
       <path id="DejaVuSans-74" d="M 1172 4494 
L 1172 3500 
L 2356 3500 
L 2356 3053 
L 1172 3053 
L 1172 1153 
Q 1172 725 1289 603 
Q 1406 481 1766 481 
L 2356 481 
L 2356 0 
L 1766 0 
Q 1100 0 847 248 
Q 594 497 594 1153 
L 594 3053 
L 172 3053 
L 172 3500 
L 594 3500 
L 594 4494 
L 1172 4494 
z
" transform="scale(0.015625)"/>
      </defs>
      <use xlink:href="#DejaVuSans-50"/>
      <use xlink:href="#DejaVuSans-72" x="58.552734"/>
      <use xlink:href="#DejaVuSans-6f" x="97.416016"/>
      <use xlink:href="#DejaVuSans-66" x="158.597656"/>
      <use xlink:href="#DejaVuSans-69" x="193.802734"/>
      <use xlink:href="#DejaVuSans-74" x="221.585938"/>
     </g>
    </g>
   </g>
   <g id="line2d_31">
    <path d="M 169.059073 361 
L 169.614693 355.399026 
L 170.882241 343.765858 
L 174.177866 317.964688 
L 175.191904 311.575491 
L 175.698923 308.800294 
L 176.712962 302.934727 
L 179.248058 289.269371 
L 181.276135 278.715903 
L 184.825269 263.470434 
L 186.346327 257.736166 
L 187.867384 252.549148 
L 191.416519 240.923389 
L 192.430557 237.79692 
L 193.444596 234.800082 
L 195.219163 230.444132 
L 195.979692 228.61399 
L 197.24724 225.479174 
L 200.796375 217.154062 
L 201.303394 215.909987 
L 202.570942 213.507241 
L 203.331471 212.303839 
L 206.373586 207.743135 
L 207.387624 206.360402 
L 208.148153 205.218617 
L 209.415701 203.31953 
L 209.92272 202.717531 
L 211.190269 200.813251 
L 212.711326 198.640569 
L 213.471855 197.643951 
L 214.232384 196.978266 
L 214.992913 196.146594 
L 215.753441 195.293606 
L 216.260461 194.674607 
L 216.51397 194.451954 
L 217.02099 193.638245 
L 219.302576 190.87792 
L 220.316614 189.539555 
L 221.584162 187.924768 
L 222.344691 187.152339 
L 222.851711 186.604303 
L 224.372768 185.367108 
L 225.386807 184.463085 
L 227.668393 182.726442 
L 228.175412 182.054392 
L 230.456999 179.513888 
L 231.217528 178.816509 
L 231.724547 178.447564 
L 233.752624 176.36929 
L 234.006133 176.262317 
L 234.513153 175.803387 
L 235.020172 175.47776 
L 235.527191 175.080961 
L 237.555268 173.702524 
L 238.062287 173.428098 
L 238.822816 172.931459 
L 239.076325 172.619388 
L 239.329835 172.544892 
L 239.836854 172.045507 
L 240.597383 171.698657 
L 241.104402 171.318087 
L 244.653537 169.036149 
L 245.921085 168.249368 
L 247.949162 167.034959 
L 248.202671 166.992012 
L 251.244787 164.868129 
L 252.005316 164.266243 
L 254.540412 162.483554 
L 258.596565 160.13132 
L 259.103585 159.91249 
L 259.864113 159.369314 
L 261.131661 158.696324 
L 262.1457 158.03973 
L 262.652719 157.972749 
L 263.159738 157.784396 
L 263.666758 157.386761 
L 264.680796 157.085633 
L 264.934306 156.737399 
L 265.441325 156.44579 
L 265.948344 156.049435 
L 267.469402 154.943986 
L 268.22993 154.288549 
L 268.990459 153.589257 
L 273.046613 151.307908 
L 273.807142 150.613371 
L 275.07469 149.601958 
L 277.102767 148.582429 
L 277.356276 148.390286 
L 277.863296 148.249728 
L 280.651901 146.937278 
L 286.989642 142.659655 
L 287.243151 142.611778 
L 287.75017 142.229884 
L 288.25719 141.766282 
L 288.764209 141.422385 
L 289.017718 141.376325 
L 289.778247 140.951863 
L 290.031757 140.882559 
L 290.538776 140.511648 
L 291.045795 140.30484 
L 291.299305 140.266907 
L 291.806324 140.058239 
L 292.313343 140.002608 
L 293.073872 139.645691 
L 294.848439 138.926266 
L 295.608968 138.521914 
L 296.623007 138.252112 
L 297.890555 137.672585 
L 298.397574 137.651471 
L 299.158103 137.387449 
L 299.665122 137.259785 
L 299.918632 137.220181 
L 300.172141 137.060567 
L 301.439689 136.883398 
L 301.693199 136.828849 
L 302.453728 136.395008 
L 302.960747 136.34036 
L 303.214257 136.127577 
L 303.721276 135.997837 
L 304.735314 135.496911 
L 305.749353 135.23445 
L 306.509881 135.102714 
L 307.016901 134.917479 
L 307.27041 134.989932 
L 308.030939 134.858699 
L 310.566035 134.72006 
L 311.073054 134.527924 
L 312.087093 134.519593 
L 312.594112 134.561273 
L 312.847622 134.446998 
L 313.354641 134.439425 
L 315.129208 133.945592 
L 315.636227 133.593017 
L 316.143247 133.537487 
L 316.903775 133.316965 
L 317.410795 133.166771 
L 317.664304 132.905018 
L 321.213439 132.705938 
L 321.720458 132.402387 
L 322.480987 132.196114 
L 322.988006 131.911303 
L 323.495025 131.886945 
L 323.748535 131.628408 
L 324.509064 131.361397 
L 325.016083 130.991985 
L 326.030121 130.526472 
L 326.537141 130.243396 
L 327.551179 130.131559 
L 328.311708 129.859798 
L 328.565217 129.67285 
L 328.818727 129.708421 
L 329.579256 129.34839 
L 330.593294 129.280595 
L 332.114352 128.489233 
L 332.367862 128.496581 
L 333.12839 128.05581 
L 333.3819 127.860286 
L 333.63541 127.936931 
L 333.888919 127.724749 
L 334.902958 127.719427 
L 335.409977 127.41289 
L 335.663486 127.284362 
L 336.424015 127.176706 
L 336.677525 127.02967 
L 336.931034 127.017525 
L 337.691563 126.601864 
L 337.945073 126.588376 
L 338.452092 126.421904 
L 339.466131 126.507026 
L 340.733679 126.122472 
L 340.987188 126.203975 
L 341.240698 126.076693 
L 342.001227 126.05936 
L 342.254736 125.954615 
L 342.508246 125.987766 
L 343.015265 125.884794 
L 343.268775 126.015602 
L 343.522284 125.819252 
L 343.775794 125.791974 
L 344.029304 125.649186 
L 344.282813 125.718665 
L 344.536323 125.54735 
L 345.043342 125.477393 
L 345.550361 125.332208 
L 346.31089 125.374509 
L 346.817909 125.213824 
L 349.606515 125.437766 
L 349.860025 125.567723 
L 350.113534 125.550553 
L 351.634592 126.355262 
L 352.395121 126.172771 
L 353.916178 126.072468 
L 354.169688 126.28979 
L 354.423197 126.279971 
L 354.930217 126.66776 
L 355.690746 126.90511 
L 356.197765 127.09068 
L 357.465313 127.780952 
L 358.98637 128.599511 
L 359.23988 128.538532 
L 359.49339 128.85551 
L 361.014447 129.263892 
L 361.521467 129.459965 
L 362.789015 129.929396 
L 363.296034 130.113101 
L 363.549543 129.982123 
L 364.056563 129.972047 
L 365.324111 129.726426 
L 365.83113 129.797222 
L 366.338149 129.910282 
L 366.591659 129.757493 
L 366.845168 129.834851 
L 367.352188 129.639896 
L 367.605697 129.841037 
L 367.859207 129.867624 
L 368.112716 129.684426 
L 368.366226 129.760304 
L 369.126755 129.591073 
L 371.408341 129.817895 
L 371.915361 129.671839 
L 372.16887 129.85214 
L 372.42238 129.830275 
L 372.675889 129.920277 
L 375.210985 129.327623 
L 377.239062 128.289778 
L 378.50661 128.637662 
L 378.76012 128.78135 
L 379.01363 128.768691 
L 379.520649 128.948231 
L 380.788197 128.685181 
L 381.041706 128.662637 
L 381.295216 128.492983 
L 381.802235 128.545396 
L 382.055745 128.446563 
L 382.309254 128.557878 
L 382.816274 128.508327 
L 383.069783 128.755476 
L 383.830312 128.613919 
L 384.590841 128.800698 
L 384.844351 128.866739 
L 385.09786 128.646106 
L 385.604879 128.601199 
L 385.858389 128.626904 
L 386.111899 128.821076 
L 386.872427 128.766142 
L 387.886466 129.088356 
L 388.139975 128.93291 
L 388.646995 129.2641 
L 390.928581 130.244654 
L 391.182091 130.457562 
L 391.68911 130.569041 
L 392.956658 131.226493 
L 393.210168 131.211272 
L 393.717187 131.560875 
L 394.224206 131.686164 
L 394.477716 131.927004 
L 394.984735 131.770515 
L 395.491754 131.939341 
L 395.745264 132.025566 
L 396.759302 131.863084 
L 397.519831 132.114111 
L 397.773341 132.048785 
L 399.801417 132.814283 
L 400.561946 132.841 
L 400.815456 133.003028 
L 401.068966 133.001138 
L 401.322475 133.270255 
L 402.336514 133.528802 
L 402.843533 133.535959 
L 403.604062 133.486722 
L 404.6181 133.349045 
L 404.87161 133.431548 
L 405.378629 133.365803 
L 405.632138 133.496399 
L 405.885648 133.464067 
L 406.392667 133.177277 
L 406.899687 133.257256 
L 407.660215 132.684075 
L 408.167235 132.570895 
L 408.420744 132.551388 
L 408.674254 132.217489 
L 408.927763 132.195419 
L 409.434783 131.947054 
L 409.688292 131.918125 
L 410.195311 131.491969 
L 410.702331 131.332378 
L 410.95584 131.375075 
L 411.462859 131.064467 
L 411.716369 130.807732 
L 412.476898 130.546711 
L 413.490936 129.739182 
L 413.744446 129.703852 
L 415.265504 128.663607 
L 416.279542 128.268184 
L 417.040071 127.683391 
L 417.54709 127.509669 
L 418.054109 127.340611 
L 418.307619 127.291028 
L 419.321657 126.356008 
L 420.335696 125.71289 
L 420.842715 125.636687 
L 422.363773 124.88223 
L 422.870792 124.754553 
L 424.39185 123.888785 
L 424.898869 123.463077 
L 426.673436 122.959172 
L 427.180455 122.73069 
L 427.940984 122.645758 
L 428.194494 122.704799 
L 430.222571 121.57661 
L 430.47608 121.168144 
L 430.983099 120.98797 
L 431.490119 120.760092 
L 431.743628 120.821558 
L 433.011176 120.258184 
L 433.264686 120.2338 
L 434.025215 119.786698 
L 435.039253 119.647106 
L 435.292763 119.372934 
L 436.053292 119.250784 
L 436.306801 119.301183 
L 436.81382 119.138099 
L 438.334878 119.299192 
L 438.588388 119.379683 
L 439.095407 119.674385 
L 439.348916 119.794784 
L 439.855936 119.726221 
L 440.109445 119.82343 
L 440.362955 119.799685 
L 440.869974 120.184702 
L 441.630503 120.109033 
L 442.137522 119.873338 
L 442.644541 119.724122 
L 443.151561 119.550007 
L 444.165599 119.563155 
L 444.926128 119.817126 
L 445.179637 119.804471 
L 445.433147 119.934256 
L 445.940166 120.025663 
L 446.447185 120.170509 
L 447.207714 120.139659 
L 449.235791 120.616394 
L 450.756849 120.991565 
L 452.784926 120.992023 
L 453.038435 120.900383 
L 454.052474 121.077523 
L 454.305983 121.280489 
L 454.813003 121.302927 
L 455.320022 121.61669 
L 455.827041 121.757321 
L 456.080551 121.867143 
L 456.33406 121.844679 
L 456.58757 121.944631 
L 457.601608 121.862779 
L 459.629685 122.021393 
L 462.6718 122.041947 
L 463.432329 121.543615 
L 463.939349 121.372251 
L 464.699877 121.054746 
L 465.460406 120.635767 
L 466.474445 120.25543 
L 466.727954 120.318262 
L 467.234973 120.047532 
L 468.502521 120.121991 
L 469.51656 119.855081 
L 470.023579 119.743679 
L 471.037618 119.556269 
L 472.305166 119.197917 
L 472.558675 119.225762 
L 473.065694 119.098995 
L 473.319204 119.203205 
L 473.572714 119.051429 
L 474.586752 118.976705 
L 475.093771 118.735836 
L 475.600791 118.614171 
L 475.8543 118.528906 
L 477.375358 118.666768 
L 477.882377 118.574902 
L 478.642906 118.763796 
L 478.896415 118.664193 
L 479.149925 118.708583 
L 479.910454 118.392599 
L 480.417473 118.424008 
L 480.924492 118.217864 
L 481.431512 118.339657 
L 481.685021 118.24165 
L 481.938531 118.353126 
L 482.44555 118.279145 
L 482.69906 118.350577 
L 483.206079 118.306246 
L 483.713098 118.553775 
L 484.473627 118.717193 
L 485.487665 118.503292 
L 485.741175 118.516334 
L 485.994684 118.410995 
L 486.501704 118.542536 
L 486.755213 118.702151 
L 489.543819 118.776262 
L 490.050838 118.434942 
L 490.557857 118.434343 
L 491.318386 118.54138 
L 491.571896 118.684398 
L 491.825405 118.67741 
L 492.332425 118.450632 
L 493.853482 118.628088 
L 494.360502 118.722058 
L 496.135069 118.624333 
L 496.642088 118.714107 
L 497.656126 118.520989 
L 497.909636 118.612643 
L 498.163146 118.473906 
L 498.416655 118.557216 
L 498.670165 118.513696 
L 498.923675 118.325173 
L 499.177184 118.411045 
L 499.684203 118.236207 
L 499.937713 118.087711 
L 500.698242 117.996717 
L 501.205261 117.669412 
L 502.219299 117.40029 
L 502.472809 117.206909 
L 502.726319 117.157868 
L 502.979828 116.992512 
L 503.486847 117.032051 
L 503.993867 116.74932 
L 505.007905 116.713014 
L 505.261415 116.751293 
L 505.768434 116.377157 
L 507.035982 115.886271 
L 507.289492 116.030988 
L 507.796511 115.985607 
L 508.810549 115.650987 
L 509.064059 115.399663 
L 509.571078 115.159753 
L 510.078097 114.856486 
L 510.331607 114.828515 
L 510.585117 114.652187 
L 510.838626 114.638913 
L 511.092136 114.912863 
L 513.627232 113.61778 
L 515.655309 113.385499 
L 515.908818 113.417463 
L 516.415838 113.184762 
L 516.669347 113.177604 
L 517.683386 112.641952 
L 518.443914 112.531154 
L 519.964972 111.631332 
L 520.218482 111.60636 
L 520.471991 111.447285 
L 521.23252 111.344275 
L 521.739539 111.15515 
L 521.993049 111.112765 
L 522.246559 110.875588 
L 522.753578 110.897999 
L 525.542183 110.372816 
L 526.809731 110.542067 
L 527.063241 110.670696 
L 527.57026 110.621621 
L 528.330789 110.655593 
L 530.612376 109.98769 
L 532.893962 110.16439 
L 533.147472 109.993697 
L 533.654491 110.04105 
L 536.443097 110.3739 
L 536.696606 110.155083 
L 537.203625 110.414383 
L 537.457135 110.557111 
L 537.710645 110.569116 
L 537.964154 110.43165 
L 538.471174 110.74449 
L 538.978193 110.88949 
L 539.485212 111.109087 
L 540.49925 111.174474 
L 540.75276 111.068671 
L 541.259779 111.459849 
L 541.513289 111.49533 
L 542.780837 112.395144 
L 543.541366 112.640937 
L 544.048385 112.766877 
L 544.808914 113.220426 
L 545.062423 113.181589 
L 545.822952 113.522156 
L 547.34401 114.01048 
L 547.851029 114.057333 
L 548.611558 114.069914 
L 549.625596 114.385243 
L 550.639635 114.387171 
L 551.146654 114.695865 
L 551.907183 114.654547 
L 552.160692 114.708997 
L 553.174731 114.47005 
L 553.93526 114.398606 
L 554.188769 114.566933 
L 555.456317 114.614257 
L 556.216846 114.494934 
L 556.470356 114.345511 
L 556.977375 114.283157 
L 557.737904 114.145704 
L 560.01949 113.206087 
L 562.047567 112.579114 
L 562.301077 112.613942 
L 562.554586 112.523702 
L 563.061606 112.113468 
L 563.568625 112.111369 
L 565.850211 111.112727 
L 567.117759 110.278994 
L 567.878288 109.670298 
L 568.385307 109.31561 
L 569.652855 108.617667 
L 569.906365 108.430832 
L 570.159875 108.551519 
L 570.920403 108.369451 
L 571.173913 108.357624 
L 571.427423 108.169428 
L 571.934442 108.012753 
L 573.20199 107.656559 
L 573.709009 107.665796 
L 573.962519 107.468748 
L 574.216028 107.454752 
L 574.976557 107.142458 
L 575.737086 106.827426 
L 576.244105 106.599465 
L 577.004634 106.226863 
L 577.511653 105.973043 
L 578.779201 105.632274 
L 579.032711 105.499384 
L 580.046749 105.50766 
L 580.300259 105.436376 
L 580.807278 105.506225 
L 581.314297 105.560011 
L 581.567807 105.441924 
L 582.581845 105.475684 
L 584.102903 105.262551 
L 584.609922 105.399253 
L 584.863432 105.56313 
L 585.116942 105.535669 
L 585.623961 105.654934 
L 586.13098 105.706439 
L 586.637999 105.832007 
L 587.398528 105.912616 
L 588.159057 105.648522 
L 588.666076 105.908792 
L 589.933624 105.787248 
L 590.440643 105.555938 
L 590.947663 105.541656 
L 591.454682 105.44741 
L 592.46872 105.635472 
L 592.975739 105.740964 
L 593.482759 105.603008 
L 593.989778 105.579522 
L 594.496797 105.429107 
L 594.750307 105.700621 
L 595.510835 105.85359 
L 596.017855 105.546167 
L 596.524874 105.71379 
L 597.031893 105.70783 
L 597.792422 105.751482 
L 598.552951 105.63353 
L 599.05997 105.644663 
L 601.088047 105.823884 
L 601.595066 106.070947 
L 602.102085 105.998883 
L 602.355595 105.850188 
L 602.609105 105.835724 
L 603.369633 106.107542 
L 605.39771 106.405487 
L 605.65122 106.27222 
L 606.158239 106.282415 
L 606.411749 106.2698 
L 606.918768 106.041818 
L 608.439826 106.219533 
L 608.946845 106.191739 
L 609.200354 106.324698 
L 609.707374 106.210578 
L 610.214393 106.237875 
L 610.467902 106.14354 
L 610.974922 106.126049 
L 611.98896 105.986075 
L 612.24247 106.018696 
L 612.495979 106.179731 
L 613.256508 106.228842 
L 613.510018 106.362634 
L 614.017037 106.155539 
L 614.524056 105.981825 
L 615.031075 105.961847 
L 615.284585 105.886646 
L 618.073191 106.435454 
L 618.58021 106.429042 
L 619.340739 106.729238 
L 620.101268 106.947369 
L 620.861796 106.697749 
L 621.622325 106.709318 
L 621.875835 106.630234 
L 622.382854 106.684503 
L 622.636364 106.641388 
L 622.636364 106.641388 
" clip-path="url(#pa28503350a)" style="fill: none; stroke: #1f77b4; stroke-width: 1.5; stroke-linecap: square"/>
   </g>
   <g id="line2d_32">
    <path d="M 170.011682 361 
L 171.13575 351.455069 
L 172.910318 337.933696 
L 175.952433 317.548141 
L 179.248058 296.544808 
L 181.022625 286.639489 
L 182.036663 281.196993 
L 182.543683 278.827082 
L 183.304212 274.946318 
L 183.811231 272.408791 
L 184.31825 269.349293 
L 187.360365 255.83934 
L 188.374404 251.954866 
L 189.641952 247.047962 
L 193.191086 234.883991 
L 194.205125 231.710432 
L 196.99373 223.553383 
L 200.542865 214.066793 
L 203.58498 206.949013 
L 206.120076 201.606868 
L 206.627096 200.508514 
L 207.387624 199.060329 
L 207.641134 198.603464 
L 208.148153 197.407619 
L 210.17623 193.60327 
L 210.42974 193.293683 
L 211.950797 190.579682 
L 212.711326 189.306543 
L 213.218345 188.262689 
L 213.725365 187.652795 
L 214.485893 186.305596 
L 214.992913 185.463764 
L 216.260461 183.30216 
L 220.063105 178.704636 
L 221.077143 177.456389 
L 221.584162 176.97003 
L 222.851711 175.561816 
L 223.10522 175.380382 
L 223.865749 174.551646 
L 225.133297 173.459027 
L 225.893826 172.848258 
L 226.400845 172.184201 
L 227.921903 170.969171 
L 228.935941 170.293139 
L 229.44296 169.934712 
L 229.94998 169.725883 
L 230.456999 169.59098 
L 233.499114 167.926003 
L 233.752624 167.740114 
L 234.513153 167.541069 
L 235.020172 167.28922 
L 235.527191 167.343851 
L 236.03421 166.945211 
L 236.541229 166.94979 
L 237.301758 166.70539 
L 238.062287 166.529276 
L 239.836854 165.471901 
L 240.090364 165.268583 
L 240.343874 165.224587 
L 240.850893 164.846727 
L 241.611422 164.603647 
L 242.62546 163.71089 
L 243.639498 163.286968 
L 244.400027 162.696934 
L 244.907046 162.290532 
L 246.681614 161.621536 
L 247.442143 161.233613 
L 248.9632 160.760864 
L 249.470219 160.642415 
L 250.484258 160.435395 
L 250.737767 160.592836 
L 251.498296 160.192034 
L 253.526373 160.305594 
L 253.779883 160.189136 
L 254.033392 160.270245 
L 254.540412 160.04978 
L 254.793921 160.067123 
L 255.55445 159.653875 
L 256.568488 158.8377 
L 257.075508 158.565711 
L 257.329017 158.522605 
L 258.089546 158.127029 
L 258.596565 157.96481 
L 258.850075 158.000457 
L 259.610604 157.669623 
L 260.117623 157.463253 
L 260.371133 157.538972 
L 260.878152 157.305798 
L 261.131661 157.042544 
L 261.89219 156.804944 
L 262.399209 156.579718 
L 264.427286 155.550169 
L 264.680796 155.649645 
L 265.694834 155.468973 
L 265.948344 155.339216 
L 266.201854 155.38975 
L 266.962382 155.099333 
L 267.215892 154.888472 
L 268.22993 154.788238 
L 268.990459 154.492717 
L 269.750988 154.1455 
L 270.258007 154.130384 
L 272.286084 152.667163 
L 272.793103 152.238587 
L 273.300123 151.850978 
L 273.807142 151.612526 
L 275.07469 150.741856 
L 275.581709 150.658437 
L 275.835219 150.505919 
L 276.088728 150.498244 
L 276.342238 150.335974 
L 277.356276 150.45282 
L 277.609786 150.26534 
L 277.863296 150.307328 
L 279.130844 149.934313 
L 279.384353 149.936694 
L 279.637863 149.813261 
L 279.891372 149.960629 
L 281.41243 149.924893 
L 282.426469 150.254294 
L 282.679978 150.30038 
L 283.694017 150.033951 
L 283.947526 150.116559 
L 284.961565 149.996627 
L 285.468584 150.041062 
L 285.722093 150.018502 
L 285.975603 149.807592 
L 287.243151 149.804601 
L 287.75017 149.732314 
L 288.764209 149.735235 
L 289.271228 149.666149 
L 289.524738 149.804123 
L 290.792286 149.713312 
L 291.552815 149.490699 
L 292.820363 149.213362 
L 293.327382 149.20514 
L 293.834401 149.066786 
L 294.59493 149.043442 
L 295.101949 149.098156 
L 296.115987 148.961018 
L 297.383536 149.257408 
L 297.890555 149.353463 
L 298.651084 149.601639 
L 299.158103 149.62171 
L 299.918632 149.925243 
L 300.425651 149.863512 
L 300.67916 149.956687 
L 301.439689 149.773511 
L 301.946708 149.59581 
L 304.481805 148.731357 
L 305.242333 148.420482 
L 305.495843 148.185512 
L 305.749353 148.19412 
L 306.763391 147.859014 
L 307.27041 147.633354 
L 307.777429 147.427156 
L 308.537958 147.023984 
L 313.60815 146.164376 
L 314.11517 146.065178 
L 314.622189 146.047735 
L 315.636227 145.56432 
L 316.143247 145.450416 
L 316.650266 145.517922 
L 318.171323 145.503136 
L 318.424833 145.639941 
L 318.931852 145.587235 
L 320.1994 145.749245 
L 320.45291 145.562914 
L 320.959929 145.722067 
L 321.466948 145.620957 
L 321.973968 145.619448 
L 322.480987 145.509234 
L 322.988006 145.479724 
L 324.255554 145.595316 
L 324.762573 145.522653 
L 325.016083 145.403575 
L 325.776612 145.554093 
L 326.283631 145.442153 
L 326.79065 145.29267 
L 327.551179 145.393636 
L 329.832765 145.30311 
L 330.339785 145.018331 
L 331.100313 144.98096 
L 331.353823 144.871078 
L 332.114352 144.979662 
L 332.874881 144.765613 
L 333.63541 144.693102 
L 334.395938 144.409691 
L 335.156467 144.163116 
L 335.409977 143.875351 
L 335.916996 143.812011 
L 336.424015 143.76896 
L 336.677525 143.490432 
L 337.184544 143.304446 
L 337.691563 142.952858 
L 338.452092 142.838169 
L 340.226659 142.571216 
L 340.987188 142.507998 
L 341.240698 142.659352 
L 342.001227 142.413442 
L 343.268775 142.211621 
L 343.775794 142.105045 
L 344.029304 141.896673 
L 344.282813 141.905201 
L 345.803871 141.210578 
L 346.05738 141.488553 
L 346.817909 141.180304 
L 347.071419 141.288176 
L 347.324928 141.128817 
L 347.831948 141.251071 
L 348.338967 141.147152 
L 349.353005 140.90105 
L 349.860025 140.845242 
L 350.620553 140.642716 
L 351.127573 140.222975 
L 352.90214 139.641892 
L 353.916178 139.261057 
L 354.169688 139.176145 
L 354.423197 138.875588 
L 354.930217 138.884997 
L 355.183726 138.7253 
L 355.437236 138.760024 
L 356.197765 138.471735 
L 356.958294 138.520688 
L 357.718822 138.008189 
L 358.225842 137.850449 
L 358.98637 137.876443 
L 359.23988 137.656443 
L 359.746899 137.510869 
L 361.267957 136.943957 
L 361.521467 136.715319 
L 361.774976 136.840222 
L 362.028486 136.622275 
L 363.296034 136.245221 
L 365.070601 135.233355 
L 365.83113 134.56027 
L 366.845168 134.016701 
L 367.605697 133.61033 
L 369.126755 132.768958 
L 369.633774 132.666142 
L 369.887284 132.524148 
L 370.647812 132.437286 
L 371.408341 132.200931 
L 371.661851 131.822253 
L 371.915361 131.704523 
L 372.42238 131.88057 
L 372.675889 131.633758 
L 372.929399 131.66379 
L 373.182909 131.436461 
L 374.196947 131.386079 
L 375.971514 130.726498 
L 376.478533 130.729536 
L 376.985553 130.553235 
L 377.492572 130.299129 
L 378.253101 130.251468 
L 378.76012 130.013269 
L 380.534687 129.447564 
L 381.802235 129.217923 
L 382.562764 128.817494 
L 382.816274 128.831752 
L 383.069783 128.983145 
L 383.830312 128.883315 
L 384.337331 128.614358 
L 384.590841 128.484095 
L 384.844351 128.545556 
L 385.858389 128.313519 
L 386.872427 128.334288 
L 388.646995 128.311812 
L 389.407524 128.473328 
L 389.914543 128.533063 
L 390.928581 128.728699 
L 391.4356 128.804428 
L 392.196129 129.14506 
L 392.449639 128.993747 
L 393.463677 129.502659 
L 395.491754 129.654409 
L 395.745264 129.531939 
L 396.252283 129.651475 
L 396.759302 129.749914 
L 397.012812 129.706043 
L 397.519831 129.786899 
L 398.02685 129.564442 
L 399.294398 129.494377 
L 399.547908 129.372819 
L 400.308437 129.474058 
L 401.068966 129.220485 
L 403.350552 129.173927 
L 403.604062 129.007623 
L 405.378629 129.232972 
L 405.632138 129.316877 
L 405.885648 129.131743 
L 406.392667 129.073216 
L 406.899687 128.981219 
L 407.153196 128.805462 
L 408.420744 128.599416 
L 408.674254 128.335584 
L 408.927763 128.320546 
L 409.434783 128.086204 
L 412.730408 126.921205 
L 412.983917 126.53488 
L 416.026032 125.296892 
L 416.279542 125.060605 
L 416.786561 124.906012 
L 417.29358 124.343344 
L 417.8006 123.942833 
L 418.054109 123.828764 
L 418.814638 123.01978 
L 419.068148 123.076519 
L 419.828677 122.710141 
L 420.082186 122.6155 
L 420.589205 122.279853 
L 421.096225 122.025912 
L 421.349734 121.950497 
L 422.363773 120.965478 
L 423.124301 120.693241 
L 423.631321 120.721237 
L 423.88483 120.687329 
L 424.13834 120.497582 
L 424.39185 120.489534 
L 424.645359 120.637394 
L 425.405888 120.564942 
L 425.659398 120.64282 
L 425.912907 120.523786 
L 426.166417 120.73421 
L 427.433965 120.312929 
L 427.687474 120.407109 
L 428.194494 120.286405 
L 428.701513 120.164907 
L 430.222571 119.768542 
L 430.72959 119.431791 
L 431.236609 119.551206 
L 431.997138 119.905588 
L 432.504157 120.224612 
L 432.757667 120.687759 
L 433.011176 120.755613 
L 433.264686 120.964219 
L 433.518195 120.993167 
L 434.532234 121.699439 
L 437.32084 123.401453 
L 438.081368 124.249226 
L 438.334878 124.381137 
L 438.841897 124.817897 
L 439.095407 124.953284 
L 439.348916 125.25948 
L 439.855936 125.290653 
L 440.362955 125.671334 
L 440.616464 125.68389 
L 440.869974 125.879797 
L 441.123484 125.90984 
L 441.376993 125.821702 
L 442.898051 127.036976 
L 443.151561 127.112128 
L 443.912089 127.631242 
L 444.419109 127.892771 
L 444.672618 127.88856 
L 444.926128 128.016839 
L 445.179637 128.395803 
L 445.940166 128.832843 
L 447.968243 130.474627 
L 448.221753 130.473756 
L 448.475262 130.657415 
L 449.235791 130.626635 
L 449.74281 130.847138 
L 450.756849 130.306492 
L 451.263868 130.185397 
L 451.517378 130.459812 
L 452.531416 130.405059 
L 454.052474 130.663715 
L 454.305983 130.840099 
L 454.813003 130.941127 
L 455.320022 131.154648 
L 455.573531 131.216083 
L 456.080551 131.476709 
L 456.33406 131.525268 
L 456.58757 131.457161 
L 457.855118 130.591768 
L 458.108628 130.664343 
L 458.615647 130.094806 
L 458.869156 129.852768 
L 459.122666 130.008213 
L 459.883195 129.257966 
L 460.643724 128.709551 
L 461.150743 128.454919 
L 462.6718 127.770982 
L 463.939349 126.83869 
L 465.967425 126.279411 
L 466.727954 126.440707 
L 469.26305 125.793489 
L 470.277089 125.528965 
L 470.530598 125.692373 
L 471.037618 125.250183 
L 472.051656 125.022886 
L 472.558675 124.683675 
L 472.812185 124.621446 
L 473.319204 124.189213 
L 473.826223 124.161485 
L 474.079733 123.922255 
L 474.333242 123.882647 
L 475.093771 123.383327 
L 475.347281 123.237219 
L 475.8543 123.343108 
L 476.361319 123.413379 
L 476.868339 123.529714 
L 477.375358 123.15193 
L 477.628867 123.076728 
L 478.135887 123.0682 
L 478.642906 123.073945 
L 478.896415 122.780334 
L 479.403435 122.734215 
L 479.910454 122.447097 
L 480.417473 122.283181 
L 480.670983 121.993317 
L 481.178002 121.850559 
L 481.431512 121.583178 
L 481.938531 121.421214 
L 482.44555 121.267053 
L 483.206079 121.063758 
L 483.966608 120.676655 
L 484.473627 120.752504 
L 484.727136 120.385981 
L 485.234156 120.454803 
L 485.487665 120.387895 
L 485.994684 120.559398 
L 487.262233 120.522283 
L 487.515742 120.265438 
L 488.276271 120.584579 
L 489.290309 120.488614 
L 489.543819 120.582091 
L 489.797329 120.437097 
L 490.304348 120.33474 
L 491.318386 119.976604 
L 491.825405 119.604294 
L 492.078915 119.553299 
L 492.332425 119.229625 
L 493.599973 118.936513 
L 494.106992 118.567616 
L 495.12103 118.489183 
L 495.881559 118.374077 
L 496.135069 118.079929 
L 496.388578 118.14619 
L 497.149107 117.714338 
L 497.656126 117.520379 
L 497.909636 117.603444 
L 498.416655 117.574173 
L 498.923675 117.797204 
L 499.430694 117.734691 
L 499.937713 117.702458 
L 500.444732 117.832297 
L 500.698242 117.658364 
L 500.951751 117.740063 
L 502.472809 117.341175 
L 502.979828 117.15324 
L 503.233338 117.257969 
L 504.247376 116.90102 
L 504.754396 117.136389 
L 505.514924 117.231968 
L 505.768434 117.468104 
L 506.782472 117.463652 
L 507.035982 117.548944 
L 507.289492 117.413059 
L 507.796511 117.459982 
L 508.55704 117.170984 
L 508.810549 117.268304 
L 509.317568 117.164068 
L 509.824588 116.973608 
L 510.585117 116.711537 
L 510.838626 116.706222 
L 512.359684 116.080865 
L 512.866703 115.993145 
L 513.120213 116.048902 
L 513.880741 115.537688 
L 514.64127 115.580506 
L 515.148289 115.24798 
L 515.908818 115.261651 
L 516.922857 115.335541 
L 517.429876 115.354381 
L 520.471991 115.19609 
L 522.753578 114.534911 
L 523.260597 114.413406 
L 523.767616 114.082006 
L 524.274635 113.767584 
L 524.528145 113.572379 
L 525.542183 113.393699 
L 525.795693 113.209281 
L 526.556222 113.245752 
L 526.809731 113.085501 
L 527.316751 113.021848 
L 527.57026 112.866053 
L 527.82377 112.54851 
L 528.07728 112.477436 
L 528.584299 112.533884 
L 528.837808 112.309616 
L 529.598337 112.140892 
L 529.851847 112.274777 
L 530.358866 111.878685 
L 530.612376 111.956321 
L 531.626414 111.37476 
L 531.879924 111.359464 
L 532.133433 111.594875 
L 533.147472 111.284994 
L 533.400981 111.314415 
L 533.908001 111.562366 
L 534.41502 111.65087 
L 534.668529 111.6853 
L 534.922039 111.517872 
L 535.429058 111.797919 
L 536.189587 111.787505 
L 536.443097 111.64834 
L 537.457135 111.780171 
L 537.964154 111.626042 
L 538.471174 111.682067 
L 538.978193 111.682879 
L 539.231702 111.752381 
L 540.245741 111.580575 
L 540.49925 111.707754 
L 541.259779 111.657902 
L 543.287856 111.822677 
L 544.048385 111.795481 
L 545.569443 112.045113 
L 546.076462 112.047644 
L 546.329971 112.277783 
L 547.851029 112.457511 
L 548.611558 112.542174 
L 548.865067 112.508591 
L 549.625596 112.811556 
L 550.132616 113.178616 
L 550.386125 113.15681 
L 550.639635 113.355635 
L 550.893144 113.339929 
L 551.907183 113.9775 
L 552.160692 113.852685 
L 552.414202 114.075121 
L 553.174731 114.185847 
L 553.68175 114.423151 
L 554.188769 114.413563 
L 554.949298 114.596806 
L 555.202808 114.729963 
L 555.709827 114.633345 
L 555.963337 114.602422 
L 556.216846 114.409846 
L 556.723865 114.718096 
L 556.977375 114.633015 
L 557.230885 114.835443 
L 557.484394 114.801426 
L 557.737904 114.613596 
L 559.005452 114.734756 
L 559.512471 114.603218 
L 559.765981 114.687689 
L 560.01949 114.577662 
L 560.526509 114.602762 
L 561.287038 114.331882 
L 562.554586 114.402797 
L 563.061606 114.222734 
L 563.315115 114.310769 
L 564.075644 114.123249 
L 564.329154 114.183067 
L 566.86425 113.260862 
L 567.624779 112.847064 
L 569.906365 111.503655 
L 570.413384 111.249729 
L 570.666894 110.876572 
L 570.920403 110.728388 
L 571.173913 110.775482 
L 571.680932 110.461531 
L 571.934442 110.158973 
L 572.187951 110.122 
L 572.694971 109.930998 
L 574.469538 109.01147 
L 577.511653 107.121395 
L 577.765163 107.304206 
L 578.272182 107.024872 
L 578.779201 106.96067 
L 580.553769 106.186534 
L 580.807278 105.813157 
L 581.821317 105.494971 
L 582.074826 105.117974 
L 582.328336 104.979899 
L 582.581845 104.97042 
L 583.088865 104.409319 
L 583.342374 104.347613 
L 583.849393 103.975318 
L 584.102903 103.893434 
L 584.356413 103.683522 
L 584.609922 103.622896 
L 585.370451 103.13701 
L 586.13098 103.226469 
L 586.637999 102.782237 
L 587.145018 102.655965 
L 589.173095 101.779496 
L 590.694153 100.626653 
L 592.215211 99.926277 
L 592.46872 99.811259 
L 592.72223 99.86166 
L 592.975739 99.73945 
L 593.229249 99.755296 
L 594.243287 99.298836 
L 595.003816 99.090638 
L 595.510835 98.835733 
L 596.017855 98.52488 
L 596.524874 98.533715 
L 597.285403 98.061683 
L 598.045932 97.710904 
L 598.552951 97.52584 
L 599.05997 97.221102 
L 599.31348 97.216642 
L 599.566989 96.975549 
L 600.327518 96.978631 
L 600.834537 96.793927 
L 601.848576 96.508874 
L 602.355595 96.247229 
L 603.116124 95.907866 
L 603.623143 95.349951 
L 604.130162 94.992665 
L 605.144201 94.672435 
L 606.158239 94.374843 
L 606.665258 94.702237 
L 608.186316 95.820933 
L 608.439826 95.922655 
L 609.200354 96.513481 
L 609.453864 96.574598 
L 609.707374 96.476019 
L 610.214393 96.907172 
L 610.721412 97.408608 
L 611.73545 97.521098 
L 612.24247 98.062752 
L 614.270547 98.247077 
L 614.777566 98.511138 
L 615.031075 98.67943 
L 615.284585 98.670082 
L 618.073191 99.988394 
L 618.3267 99.976042 
L 619.087229 100.485075 
L 619.340739 100.395486 
L 619.847758 100.566544 
L 620.354777 100.624104 
L 620.861796 100.793521 
L 621.368816 101.274853 
L 621.875835 101.541735 
L 622.129344 101.507106 
L 622.382854 101.671455 
L 622.636364 101.971516 
L 622.636364 101.971516 
" clip-path="url(#pa28503350a)" style="fill: none; stroke: #ff7f0e; stroke-width: 1.5; stroke-linecap: square"/>
   </g>
   <g id="line2d_33">
    <path d="M 178.721004 361 
L 180.008587 352.242427 
L 181.022625 346.012021 
L 182.036663 338.940369 
L 183.557721 327.289212 
L 185.332288 315.163678 
L 186.599836 306.432862 
L 194.965654 262.791249 
L 195.979692 258.188812 
L 197.24724 252.76199 
L 201.303394 237.234192 
L 204.852528 226.829246 
L 205.359547 225.851992 
L 206.627096 222.633121 
L 207.894644 219.419746 
L 209.415701 216.40894 
L 209.92272 215.311483 
L 210.17623 214.32429 
L 210.683249 213.13772 
L 210.936759 212.353398 
L 211.697288 211.03121 
L 213.218345 207.926491 
L 213.471855 207.005651 
L 214.232384 205.825849 
L 214.739403 204.467379 
L 214.992913 203.852103 
L 215.246422 203.691248 
L 215.499932 203.088924 
L 216.006951 202.32049 
L 216.51397 201.489792 
L 217.781518 199.73778 
L 219.049066 198.575301 
L 219.302576 198.491567 
L 219.809595 197.932196 
L 220.063105 197.751213 
L 220.823634 196.808068 
L 221.330653 196.765311 
L 222.091182 196.648298 
L 223.35873 197.295403 
L 224.119259 197.945545 
L 224.372768 197.99428 
L 224.626278 198.421724 
L 224.879787 198.476488 
L 225.133297 198.709705 
L 225.386807 198.685912 
L 225.640316 198.835939 
L 226.147335 198.533414 
L 226.400845 198.484695 
L 226.654355 198.673074 
L 226.907864 198.719621 
L 227.414883 198.448378 
L 228.175412 198.619611 
L 228.428922 198.582786 
L 228.935941 198.253881 
L 229.189451 198.273707 
L 229.44296 198.114914 
L 229.69647 198.116672 
L 229.94998 198.007125 
L 230.203489 198.042013 
L 230.456999 197.951209 
L 231.217528 197.349279 
L 231.724547 197.160627 
L 231.978056 197.341514 
L 232.485076 197.984356 
L 233.499114 198.617975 
L 233.752624 198.581369 
L 234.006133 198.715429 
L 234.259643 199.048388 
L 235.020172 198.842484 
L 235.273681 199.109827 
L 235.527191 199.079171 
L 235.780701 199.172434 
L 236.28772 198.818886 
L 236.541229 198.931267 
L 238.822816 197.611292 
L 239.583345 197.616599 
L 240.090364 197.032016 
L 241.611422 196.011381 
L 241.864931 195.916448 
L 242.118441 195.469191 
L 242.87897 195.277098 
L 245.414066 194.462163 
L 245.667575 194.295588 
L 245.921085 194.359221 
L 246.428104 194.098863 
L 247.188633 193.331627 
L 247.442143 193.341108 
L 249.723729 190.283056 
L 249.977239 190.187501 
L 250.230748 189.622433 
L 250.991277 188.878902 
L 251.244787 188.490435 
L 251.498296 188.841858 
L 252.005316 188.861328 
L 252.512335 188.16694 
L 253.019354 188.172996 
L 253.272864 188.03345 
L 254.286902 187.953725 
L 254.540412 187.86757 
L 254.793921 187.575031 
L 255.047431 187.663041 
L 255.30094 187.605744 
L 255.80796 187.380104 
L 256.568488 187.383997 
L 257.075508 186.967049 
L 257.329017 186.694503 
L 258.343056 184.913531 
L 258.596565 184.523171 
L 259.103585 184.19264 
L 259.610604 183.675704 
L 259.864113 183.159349 
L 260.624642 182.827282 
L 261.131661 182.009364 
L 261.638681 181.666985 
L 262.1457 181.372935 
L 262.652719 180.915448 
L 263.159738 180.598181 
L 263.413248 180.596654 
L 264.680796 179.675471 
L 265.187815 179.33572 
L 265.441325 179.295937 
L 265.694834 179.412772 
L 265.948344 180.57459 
L 266.708873 182.725852 
L 266.962382 183.379827 
L 267.215892 183.602915 
L 267.469402 184.136441 
L 267.722911 184.991663 
L 267.976421 185.399088 
L 268.22993 186.202436 
L 268.48344 186.421746 
L 268.73695 187.050078 
L 268.990459 187.180433 
L 269.243969 187.606227 
L 269.497479 188.34614 
L 270.004498 188.361817 
L 270.511517 188.705399 
L 270.765027 189.045112 
L 271.272046 189.395971 
L 272.032575 190.100856 
L 272.539594 190.176187 
L 272.793103 190.388725 
L 273.300123 190.596066 
L 273.553632 190.763588 
L 274.060651 190.791133 
L 274.314161 190.651021 
L 274.82118 190.69209 
L 275.07469 190.455225 
L 275.3282 190.456256 
L 275.835219 190.071161 
L 276.849257 189.766901 
L 277.102767 189.277716 
L 277.356276 189.053664 
L 277.609786 188.986587 
L 277.863296 189.046594 
L 278.370315 188.71354 
L 278.877334 188.46935 
L 279.130844 188.421642 
L 279.384353 188.065396 
L 279.637863 188.165743 
L 280.651901 187.693895 
L 280.905411 187.41844 
L 281.158921 187.381868 
L 281.66594 186.768854 
L 282.172959 186.490466 
L 282.679978 186.011089 
L 282.933488 185.985324 
L 283.694017 185.410661 
L 283.947526 185.28241 
L 284.708055 184.47783 
L 285.468584 184.05126 
L 285.722093 183.857061 
L 286.482622 184.001479 
L 286.736132 183.786813 
L 286.989642 183.734355 
L 287.75017 183.062405 
L 288.00368 183.132096 
L 288.764209 182.868795 
L 289.017718 182.610715 
L 289.778247 182.682971 
L 290.538776 182.212068 
L 290.792286 182.320421 
L 291.045795 182.219986 
L 291.299305 182.317242 
L 291.806324 180.359816 
L 293.327382 175.43851 
L 294.087911 173.652944 
L 294.34142 172.918417 
L 294.59493 172.588893 
L 295.101949 171.0497 
L 295.608968 170.771793 
L 296.115987 170.265641 
L 297.637045 167.398902 
L 298.144064 167.047275 
L 300.425651 164.35105 
L 300.67916 164.391177 
L 300.93267 164.149544 
L 301.18618 164.158962 
L 302.200218 163.671357 
L 302.707237 163.245447 
L 302.960747 163.156394 
L 303.721276 162.483358 
L 304.228295 162.354449 
L 304.481805 162.228074 
L 304.735314 161.679235 
L 304.988824 161.66664 
L 305.242333 161.290533 
L 305.749353 161.220264 
L 306.002862 161.127433 
L 306.256372 160.884037 
L 306.509881 160.955569 
L 306.763391 160.72699 
L 307.016901 160.728988 
L 307.777429 160.254883 
L 308.030939 160.222961 
L 308.537958 159.991251 
L 309.805506 159.755925 
L 310.312526 159.702346 
L 310.566035 159.780206 
L 310.819545 159.594365 
L 311.326564 159.68612 
L 311.580074 159.288674 
L 311.833583 159.123524 
L 312.087093 158.808246 
L 312.340602 158.895939 
L 312.847622 158.528972 
L 313.354641 158.515086 
L 313.86166 157.983179 
L 314.875699 157.396457 
L 315.636227 156.789142 
L 316.143247 156.373121 
L 316.903775 155.253759 
L 317.157285 155.180214 
L 317.410795 154.939049 
L 317.664304 154.872252 
L 317.917814 154.648892 
L 318.171323 154.714262 
L 318.424833 154.626238 
L 318.678343 154.366821 
L 318.931852 154.518538 
L 319.185362 154.390061 
L 319.438871 154.090195 
L 319.692381 154.135878 
L 319.945891 153.783385 
L 320.45291 153.442949 
L 321.973968 152.085743 
L 322.227477 152.421569 
L 322.988006 152.022777 
L 323.241516 151.905056 
L 324.255554 150.827504 
L 325.016083 150.49647 
L 326.537141 148.773403 
L 326.79065 148.288499 
L 327.297669 148.103421 
L 327.804689 147.422358 
L 328.058198 147.341615 
L 329.579256 145.693149 
L 330.846804 145.036501 
L 331.353823 144.575694 
L 331.860842 144.181793 
L 333.12839 143.379852 
L 333.3819 143.107336 
L 333.888919 142.995573 
L 334.649448 142.117046 
L 334.902958 141.923575 
L 335.409977 141.183211 
L 335.916996 140.492046 
L 336.931034 139.305653 
L 337.184544 139.119265 
L 337.438054 138.610575 
L 337.945073 138.171605 
L 338.452092 137.631678 
L 338.705602 137.588258 
L 338.959111 137.309265 
L 339.466131 137.244262 
L 340.226659 136.801351 
L 340.480169 136.750157 
L 340.987188 136.521958 
L 342.254736 135.994876 
L 343.015265 135.336362 
L 343.522284 134.909603 
L 344.282813 134.253232 
L 344.536323 133.765317 
L 345.043342 133.723331 
L 345.803871 132.882408 
L 346.31089 132.473954 
L 346.817909 132.146498 
L 347.071419 131.835732 
L 347.324928 131.724052 
L 347.578438 131.431096 
L 347.831948 130.744584 
L 348.592476 129.971898 
L 349.606515 129.839384 
L 349.860025 129.799945 
L 350.367044 129.499535 
L 350.620553 129.359802 
L 351.127573 129.394042 
L 351.381082 129.547794 
L 351.634592 129.452532 
L 352.395121 129.805096 
L 352.64863 129.708482 
L 352.90214 129.421143 
L 353.155649 129.54534 
L 353.662669 129.312897 
L 354.423197 129.293147 
L 354.930217 129.13802 
L 355.183726 129.060796 
L 355.944255 128.238118 
L 356.451274 128.193449 
L 356.958294 128.026192 
L 357.211803 127.982008 
L 357.718822 127.606934 
L 357.972332 127.642053 
L 360.253918 126.21763 
L 360.507428 126.006115 
L 360.760938 126.202366 
L 361.014447 126.012394 
L 361.267957 126.101404 
L 361.521467 126.069293 
L 361.774976 125.907355 
L 362.281995 126.195792 
L 362.535505 125.860767 
L 362.789015 125.934009 
L 364.310072 125.370281 
L 364.563582 125.534961 
L 368.366226 123.072417 
L 368.873245 122.990396 
L 369.126755 122.7584 
L 369.380264 122.750777 
L 369.887284 122.478998 
L 370.140793 122.544115 
L 370.394303 122.250834 
L 371.154832 122.019817 
L 371.661851 121.949807 
L 371.915361 122.169269 
L 372.42238 122.183322 
L 372.675889 122.441101 
L 373.689928 122.262192 
L 373.943437 122.364361 
L 374.957476 121.811688 
L 375.464495 121.900108 
L 375.971514 121.660449 
L 376.478533 121.293813 
L 378.50661 119.731016 
L 379.01363 119.592437 
L 379.267139 119.562307 
L 379.520649 119.363597 
L 379.774158 119.3995 
L 380.281178 119.197056 
L 380.788197 119.083325 
L 381.295216 118.89948 
L 381.548726 119.156137 
L 382.055745 118.466018 
L 382.816274 117.790966 
L 383.323293 117.586671 
L 384.590841 116.577584 
L 385.09786 116.784509 
L 386.111899 116.625778 
L 386.365408 116.207617 
L 386.618918 116.295412 
L 387.125937 115.793782 
L 387.632956 115.420793 
L 387.886466 115.155894 
L 388.139975 115.186913 
L 388.393485 114.913295 
L 388.646995 114.903833 
L 389.154014 114.489811 
L 389.407524 114.50417 
L 389.914543 114.110954 
L 390.168052 113.693492 
L 390.675072 113.730778 
L 391.182091 113.361119 
L 392.703148 112.36244 
L 393.210168 112.545432 
L 393.463677 112.42499 
L 393.970696 112.39302 
L 394.477716 112.189264 
L 394.731225 112.165753 
L 395.238245 112.017394 
L 395.998773 111.90486 
L 396.252283 111.607302 
L 396.505793 111.58283 
L 396.759302 111.399886 
L 397.266321 111.558845 
L 397.519831 111.187683 
L 398.28036 110.650377 
L 398.787379 110.285816 
L 400.054927 110.443636 
L 400.561946 110.053227 
L 401.068966 109.414738 
L 401.575985 109.358412 
L 401.829494 109.405216 
L 402.843533 108.706947 
L 403.097042 108.817337 
L 403.857571 108.55774 
L 404.6181 108.355254 
L 404.87161 108.014799 
L 405.125119 107.986871 
L 405.885648 107.30466 
L 406.646177 107.796333 
L 406.899687 108.092214 
L 407.153196 107.826899 
L 407.913725 108.676867 
L 408.420744 108.905013 
L 408.927763 109.284097 
L 409.181273 109.223676 
L 409.434783 109.290423 
L 410.195311 110.020855 
L 410.702331 109.805128 
L 411.20935 109.90106 
L 411.462859 110.09915 
L 411.716369 110.139013 
L 411.969879 110.506589 
L 412.223388 110.559324 
L 412.476898 110.855809 
L 413.237427 110.886174 
L 413.490936 110.713187 
L 414.251465 110.583919 
L 414.504975 110.528687 
L 415.011994 110.61348 
L 416.026032 110.50522 
L 416.279542 110.403381 
L 416.786561 110.518263 
L 418.307619 110.606865 
L 419.575167 110.219914 
L 421.096225 109.72247 
L 421.603244 109.277424 
L 421.856753 109.272165 
L 422.110263 109.434271 
L 422.363773 109.437418 
L 422.870792 109.205904 
L 423.124301 109.299557 
L 423.377811 109.164731 
L 423.631321 109.249834 
L 423.88483 109.019462 
L 424.898869 108.836749 
L 425.405888 108.486214 
L 427.940984 108.59953 
L 428.448003 108.680627 
L 428.955022 108.618781 
L 429.208532 108.667828 
L 429.969061 108.429007 
L 430.222571 108.404638 
L 430.47608 108.506062 
L 430.72959 108.469105 
L 431.490119 108.829298 
L 431.743628 108.630614 
L 432.250647 108.484126 
L 432.757667 108.172638 
L 433.011176 108.167297 
L 433.264686 108.000689 
L 433.771705 107.536697 
L 434.025215 107.492728 
L 434.532234 106.950117 
L 434.785743 107.028625 
L 435.039253 106.942238 
L 435.292763 106.734807 
L 436.81382 106.707082 
L 437.06733 106.525001 
L 437.32084 106.624963 
L 437.827859 106.121319 
L 438.081368 105.897886 
L 438.841897 105.981648 
L 439.095407 106.076205 
L 439.348916 105.950407 
L 440.362955 106.153833 
L 440.869974 105.911548 
L 442.137522 105.94045 
L 442.391032 106.0235 
L 442.644541 105.979264 
L 442.898051 106.048767 
L 443.151561 105.980954 
L 443.40507 106.042652 
L 444.419109 105.841405 
L 445.686657 106.085346 
L 446.193676 106.115773 
L 447.461224 106.082014 
L 447.714734 105.836182 
L 448.475262 105.640401 
L 448.728772 105.242883 
L 448.982282 105.158037 
L 449.235791 104.84615 
L 450.503339 104.583282 
L 452.024397 105.19146 
L 453.038435 104.871274 
L 453.545455 104.971658 
L 454.052474 104.817703 
L 455.066512 104.855982 
L 455.320022 104.668713 
L 455.827041 104.740808 
L 456.33406 104.674994 
L 456.58757 104.492344 
L 456.841079 104.565837 
L 457.348099 104.412627 
L 457.855118 103.937451 
L 458.869156 103.553243 
L 460.136704 102.934029 
L 460.390214 102.966858 
L 461.150743 102.606614 
L 461.404252 102.264258 
L 461.657762 102.22938 
L 461.911272 102.02895 
L 462.418291 102.051276 
L 462.6718 101.958055 
L 462.92531 101.698904 
L 463.17882 101.678693 
L 463.432329 101.873032 
L 464.192858 101.563067 
L 464.699877 101.535681 
L 464.953387 101.543467 
L 465.206897 101.392703 
L 465.460406 101.519947 
L 465.967425 101.336345 
L 466.220935 101.453506 
L 470.277089 100.318136 
L 471.037618 99.786354 
L 471.544637 100.02647 
L 472.558675 100.207887 
L 472.812185 100.318692 
L 473.572714 100.315314 
L 474.586752 100.508022 
L 475.093771 100.82321 
L 475.8543 100.763813 
L 476.614829 100.332218 
L 476.868339 100.292763 
L 477.121848 100.045221 
L 479.403435 99.246578 
L 479.656944 99.247692 
L 480.163963 98.965571 
L 480.417473 98.897777 
L 481.178002 99.143542 
L 482.19204 98.943668 
L 482.44555 98.762623 
L 482.69906 98.812909 
L 482.952569 98.60662 
L 483.459588 98.881517 
L 485.487665 99.073702 
L 485.994684 99.226237 
L 486.755213 99.372444 
L 487.262233 99.295354 
L 487.515742 99.269353 
L 487.769252 99.045814 
L 488.78329 98.80349 
L 489.0368 98.532517 
L 489.797329 98.425853 
L 490.050838 98.236298 
L 490.811367 98.326018 
L 491.318386 98.139068 
L 491.825405 97.996931 
L 492.078915 97.938545 
L 492.585934 97.991695 
L 493.346463 97.664129 
L 494.360502 97.71806 
L 494.867521 97.668116 
L 495.37454 97.727008 
L 496.135069 97.50728 
L 496.388578 97.683469 
L 497.656126 97.028656 
L 497.909636 96.781977 
L 499.684203 96.51874 
L 499.937713 96.607661 
L 500.698242 96.495381 
L 501.205261 96.655434 
L 501.458771 96.537736 
L 501.71228 96.586537 
L 501.96579 96.765841 
L 503.486847 96.614867 
L 503.740357 96.659246 
L 503.993867 96.558165 
L 504.247376 96.719827 
L 504.754396 96.713647 
L 505.514924 97.025555 
L 506.021944 96.804093 
L 506.275453 96.587882 
L 507.289492 96.283392 
L 508.05002 96.460535 
L 509.571078 96.094419 
L 509.824588 95.894148 
L 510.331607 95.889451 
L 511.092136 95.769421 
L 512.106174 95.247383 
L 513.120213 95.025787 
L 513.373722 95.230815 
L 513.880741 95.047964 
L 514.64127 95.136108 
L 514.89478 95.044894 
L 515.655309 95.159441 
L 516.415838 94.784752 
L 516.669347 94.833939 
L 516.922857 94.719264 
L 517.936895 94.708867 
L 518.697424 94.527772 
L 518.950934 94.565789 
L 519.204443 94.473835 
L 519.457953 94.612692 
L 520.725501 94.486241 
L 521.993049 94.604296 
L 523.514107 94.767142 
L 524.021126 94.667025 
L 524.274635 94.702699 
L 524.528145 94.607988 
L 524.781655 94.63596 
L 525.288674 94.337906 
L 525.542183 94.251735 
L 525.795693 94.330316 
L 526.809731 93.968994 
L 527.316751 94.301975 
L 527.57026 94.138929 
L 528.837808 94.192539 
L 529.091318 94.270518 
L 531.626414 93.859226 
L 532.893962 94.026866 
L 533.147472 93.883171 
L 533.400981 93.938736 
L 534.922039 93.606695 
L 535.429058 93.709875 
L 535.682568 93.622634 
L 535.936077 93.727492 
L 536.443097 93.543318 
L 536.950116 93.64893 
L 537.964154 93.485273 
L 538.724683 93.525264 
L 539.231702 93.45425 
L 539.738722 93.543405 
L 540.245741 93.502363 
L 540.49925 93.578875 
L 541.259779 93.340908 
L 542.780837 93.495612 
L 543.541366 93.437898 
L 544.555404 93.720412 
L 547.0905 93.153723 
L 547.851029 93.166481 
L 548.104539 93.256252 
L 548.611558 92.922752 
L 549.372087 93.011951 
L 549.879106 92.911944 
L 550.386125 92.928144 
L 550.893144 93.005414 
L 551.400164 92.741348 
L 552.160692 92.772621 
L 552.667712 92.64644 
L 552.921221 92.481571 
L 553.174731 92.517306 
L 553.68175 92.247167 
L 553.93526 92.117753 
L 554.442279 92.17156 
L 554.695788 92.092329 
L 554.949298 92.174745 
L 555.202808 92.135279 
L 555.456317 92.237431 
L 555.709827 92.16592 
L 555.963337 92.25398 
L 556.470356 92.119211 
L 557.230885 92.108824 
L 557.737904 91.963555 
L 557.991413 91.785199 
L 558.498433 91.810569 
L 559.005452 91.934496 
L 560.780019 91.609514 
L 561.287038 91.738865 
L 562.047567 91.490625 
L 562.554586 91.235228 
L 563.061606 91.131544 
L 563.315115 91.171755 
L 563.568625 91.065444 
L 563.822134 91.135774 
L 564.075644 91.073656 
L 564.329154 91.141296 
L 564.582663 91.011016 
L 565.089682 90.970663 
L 566.103721 90.784402 
L 566.86425 91.145784 
L 567.878288 90.985552 
L 568.385307 91.092473 
L 569.145836 91.22555 
L 569.652855 91.191023 
L 570.159875 91.205193 
L 570.666894 91.162637 
L 570.920403 91.309612 
L 571.173913 91.281288 
L 571.680932 91.450199 
L 572.441461 91.441054 
L 573.709009 91.235982 
L 574.216028 91.319387 
L 575.737086 91.516628 
L 576.244105 91.40456 
L 577.004634 91.596972 
L 577.511653 91.41354 
L 578.272182 91.559093 
L 579.032711 91.703423 
L 579.53973 91.858226 
L 581.314297 91.711336 
L 581.567807 91.864757 
L 581.821317 91.807897 
L 582.328336 91.849175 
L 582.581845 91.757383 
L 583.088865 91.810097 
L 583.849393 91.942055 
L 584.356413 92.037499 
L 584.863432 92.081073 
L 585.370451 92.193037 
L 585.87747 92.196434 
L 586.13098 92.25364 
L 586.38449 92.425545 
L 586.891509 92.243825 
L 587.398528 92.285237 
L 587.905547 92.489923 
L 588.159057 92.479895 
L 588.412566 92.642363 
L 590.694153 92.613728 
L 591.708191 92.576485 
L 592.46872 92.201029 
L 592.72223 92.279206 
L 592.975739 92.214998 
L 593.482759 92.302705 
L 593.736268 92.15639 
L 594.243287 92.218358 
L 595.510835 91.625205 
L 596.271364 91.599939 
L 596.524874 91.483163 
L 596.778384 91.612323 
L 597.792422 91.420398 
L 598.045932 91.598431 
L 600.327518 91.459131 
L 600.581028 91.288441 
L 600.834537 91.352443 
L 601.341556 91.249165 
L 602.609105 91.454118 
L 604.383672 91.374476 
L 604.890691 91.212568 
L 605.65122 91.339613 
L 606.158239 91.092009 
L 606.411749 91.152206 
L 607.679297 90.864742 
L 609.200354 90.861412 
L 609.453864 90.876823 
L 609.707374 90.710157 
L 611.228431 90.747239 
L 611.73545 90.780047 
L 612.24247 90.588229 
L 613.763527 90.594866 
L 614.017037 90.485322 
L 614.524056 90.511972 
L 614.777566 90.42542 
L 615.284585 90.455583 
L 615.791604 90.397465 
L 617.059152 90.911768 
L 617.312662 90.800939 
L 618.073191 90.896408 
L 619.847758 90.959958 
L 620.101268 91.126527 
L 620.354777 91.101164 
L 620.861796 91.262026 
L 621.368816 91.350167 
L 621.622325 91.327844 
L 621.875835 91.557907 
L 622.636364 91.360629 
L 622.636364 91.360629 
" clip-path="url(#pa28503350a)" style="fill: none; stroke: #2ca02c; stroke-width: 1.5; stroke-linecap: square"/>
   </g>
   <g id="line2d_34">
    <path d="M 181.524991 361 
L 181.529644 360.941921 
L 182.290173 349.090178 
L 183.811231 328.416064 
L 184.57176 312.249213 
L 185.839308 295.793787 
L 187.613875 279.014507 
L 189.895461 261.879464 
L 190.9095 254.680448 
L 191.163009 253.407635 
L 191.923538 247.82848 
L 192.177048 246.833864 
L 193.951615 236.186342 
L 199.021807 210.786597 
L 200.542865 204.779504 
L 202.824451 197.104545 
L 205.106038 191.084196 
L 205.866567 189.536679 
L 206.880605 187.274188 
L 207.641134 185.430804 
L 207.894644 185.104007 
L 208.401663 183.853896 
L 209.162192 182.166706 
L 209.669211 180.795594 
L 211.443778 176.708817 
L 211.950797 175.523525 
L 212.711326 173.899803 
L 213.218345 172.494368 
L 214.485893 170.605317 
L 215.499932 168.374125 
L 216.51397 166.864367 
L 217.02099 165.572129 
L 217.528009 164.492471 
L 218.035028 162.788552 
L 218.288538 162.066601 
L 219.302576 160.457995 
L 219.809595 159.094159 
L 220.063105 158.792075 
L 221.077143 156.778529 
L 222.344691 154.748901 
L 223.10522 153.397755 
L 223.612239 153.741742 
L 224.119259 154.062539 
L 224.879787 153.854212 
L 225.133297 153.934287 
L 225.640316 153.794624 
L 225.893826 153.604362 
L 226.147335 153.825512 
L 226.400845 153.75462 
L 226.654355 153.861348 
L 226.907864 153.66566 
L 227.161374 153.756869 
L 227.414883 153.653692 
L 227.921903 153.188165 
L 228.175412 153.201484 
L 228.428922 153.077641 
L 228.682432 152.777002 
L 228.935941 152.919708 
L 229.69647 152.170347 
L 230.203489 151.523642 
L 230.710508 151.109907 
L 231.978056 149.612244 
L 232.485076 149.392357 
L 233.245604 148.973106 
L 233.499114 149.072804 
L 235.527191 188.216362 
L 237.555268 222.241901 
L 240.597383 267.522723 
L 242.118441 288.055815 
L 246.174595 337.694948 
L 248.341929 361 
M 269.038718 361 
L 270.004498 354.651916 
L 272.539594 339.237105 
L 276.088728 321.457765 
L 278.116805 312.55289 
L 282.933488 292.399527 
L 286.229113 279.979917 
L 296.369497 245.894756 
L 297.130026 243.481657 
L 299.665122 234.177553 
L 300.425651 231.62847 
L 301.439689 228.106766 
L 303.974785 219.636279 
L 305.495843 215.131413 
L 307.016901 210.464576 
L 307.777429 208.190025 
L 309.298487 204.401386 
L 310.566035 201.169886 
L 311.326564 199.184136 
L 311.580074 198.778551 
L 312.340602 196.688776 
L 314.368679 192.225073 
L 315.382718 189.765992 
L 316.143247 187.696842 
L 317.410795 184.536416 
L 317.664304 184.138379 
L 319.438871 179.712555 
L 320.45291 177.747721 
L 321.466948 175.634992 
L 322.227477 173.942113 
L 324.002044 170.798227 
L 324.509064 169.886497 
L 325.776612 167.304637 
L 326.283631 166.433824 
L 329.832765 159.437657 
L 330.846804 157.407228 
L 333.12839 153.337561 
L 333.3819 153.057509 
L 336.424015 147.45461 
L 336.931034 146.724741 
L 337.438054 145.716589 
L 338.452092 144.457842 
L 338.705602 144.168168 
L 339.212621 143.224075 
L 339.71964 142.695609 
L 339.97315 142.553295 
L 340.480169 142.08029 
L 341.240698 141.343757 
L 341.747717 140.963941 
L 342.001227 140.868941 
L 342.254736 140.5126 
L 342.508246 140.436984 
L 343.015265 139.846388 
L 345.296852 137.896414 
L 345.803871 137.135098 
L 346.817909 136.461611 
L 347.071419 136.066815 
L 348.085457 135.449636 
L 348.845986 134.944488 
L 349.353005 134.801986 
L 351.127573 133.559338 
L 351.634592 132.937385 
L 351.888101 132.882146 
L 352.395121 132.301458 
L 352.64863 132.095931 
L 352.90214 131.724689 
L 353.155649 131.735331 
L 353.916178 131.356419 
L 354.169688 131.347657 
L 354.930217 130.382875 
L 355.944255 130.167821 
L 356.451274 129.728783 
L 356.958294 129.620489 
L 357.718822 128.965671 
L 358.225842 128.664252 
L 358.479351 128.493279 
L 358.732861 128.468746 
L 361.521467 126.2874 
L 362.535505 125.496921 
L 363.296034 124.656689 
L 364.817091 122.931097 
L 365.070601 122.710463 
L 365.83113 121.65398 
L 366.591659 121.066842 
L 368.366226 118.954652 
L 369.126755 118.484573 
L 370.647812 117.344271 
L 371.154832 117.22982 
L 371.661851 116.858794 
L 372.675889 115.947908 
L 374.957476 114.001632 
L 375.210985 114.029305 
L 375.464495 113.696914 
L 375.971514 113.479007 
L 376.225024 113.457874 
L 376.732043 113.187276 
L 377.239062 113.094214 
L 377.492572 112.895733 
L 378.50661 112.984296 
L 378.76012 112.631981 
L 379.01363 112.538002 
L 379.267139 112.594631 
L 380.027668 112.375141 
L 380.534687 112.475336 
L 380.788197 112.205958 
L 381.041706 112.139934 
L 381.295216 111.821635 
L 381.802235 111.663606 
L 382.055745 111.610312 
L 382.562764 110.910799 
L 382.816274 110.760052 
L 383.323293 110.729551 
L 383.830312 110.571903 
L 384.083822 110.551702 
L 384.337331 110.136737 
L 385.35137 109.70305 
L 385.604879 109.739827 
L 386.111899 109.626311 
L 386.872427 109.53041 
L 388.139975 108.788545 
L 388.393485 108.842761 
L 388.900504 108.668068 
L 389.154014 108.681948 
L 389.661033 108.441111 
L 390.168052 108.425981 
L 390.675072 108.23578 
L 390.928581 108.3207 
L 392.196129 107.898749 
L 392.703148 107.854988 
L 393.210168 107.707231 
L 393.970696 107.830866 
L 394.984735 107.725393 
L 395.238245 107.85507 
L 395.491754 107.782458 
L 396.252283 108.043114 
L 396.759302 107.889829 
L 398.02685 108.017034 
L 398.28036 108.321621 
L 398.787379 108.355941 
L 400.561946 107.793669 
L 400.815456 107.452059 
L 401.322475 107.388756 
L 401.829494 107.315317 
L 402.590023 107.089167 
L 403.350552 107.062088 
L 404.6181 106.481611 
L 405.378629 106.209873 
L 405.632138 106.18948 
L 405.885648 106.056058 
L 406.392667 105.96784 
L 407.913725 105.54218 
L 408.420744 105.74639 
L 409.181273 105.429286 
L 409.688292 105.283137 
L 410.195311 105.540653 
L 410.448821 105.434556 
L 410.702331 105.500092 
L 411.20935 105.127028 
L 411.969879 104.937261 
L 412.476898 104.788145 
L 412.730408 104.816497 
L 413.490936 105.204427 
L 413.997956 105.17597 
L 414.504975 105.424042 
L 415.519013 105.350192 
L 416.279542 105.486085 
L 416.786561 105.540086 
L 417.29358 105.5032 
L 417.8006 105.355972 
L 419.068148 105.597909 
L 419.321657 105.417736 
L 419.828677 105.297156 
L 420.082186 105.143857 
L 420.335696 105.141291 
L 420.842715 104.877168 
L 421.096225 104.824332 
L 421.603244 104.330304 
L 421.856753 104.152981 
L 422.363773 104.181567 
L 422.617282 104.122943 
L 423.124301 103.869123 
L 423.377811 103.767407 
L 423.631321 103.791744 
L 423.88483 103.534221 
L 425.152378 103.612777 
L 425.405888 103.677354 
L 426.166417 103.331571 
L 426.673436 103.267775 
L 426.926946 103.217952 
L 427.433965 102.952218 
L 427.687474 103.04835 
L 429.208532 102.640632 
L 429.462042 102.712441 
L 429.715551 102.51492 
L 430.222571 102.619878 
L 432.504157 102.351634 
L 433.011176 102.445327 
L 435.039253 102.048997 
L 435.292763 101.868909 
L 436.81382 102.0131 
L 437.32084 101.913009 
L 438.334878 102.123456 
L 439.095407 101.737644 
L 440.362955 101.428534 
L 442.898051 100.735892 
L 443.151561 100.686226 
L 443.40507 100.777053 
L 444.926128 100.45821 
L 445.686657 100.526472 
L 446.447185 100.306579 
L 446.700695 100.247437 
L 446.954205 100.390167 
L 447.461224 100.386601 
L 449.489301 101.002834 
L 451.010358 101.115602 
L 451.517378 101.360382 
L 452.024397 101.544702 
L 452.277907 101.866713 
L 453.545455 102.034197 
L 453.798964 101.937825 
L 454.052474 102.052962 
L 454.305983 101.918978 
L 454.813003 102.041573 
L 455.573531 102.128832 
L 455.827041 101.948487 
L 456.080551 102.006035 
L 456.33406 101.868922 
L 456.58757 101.894055 
L 456.841079 101.762176 
L 457.094589 101.776676 
L 457.601608 101.598317 
L 458.615647 101.638565 
L 459.122666 101.760352 
L 459.376176 101.790564 
L 459.629685 101.955323 
L 459.883195 101.951393 
L 460.136704 101.793136 
L 460.643724 101.977177 
L 460.897233 102.117007 
L 461.911272 101.868296 
L 462.164781 101.944259 
L 462.418291 102.204028 
L 462.92531 102.302999 
L 463.17882 102.32404 
L 463.432329 102.204647 
L 464.192858 102.304918 
L 464.446368 102.371922 
L 465.206897 102.198842 
L 465.460406 102.291068 
L 465.713916 102.244258 
L 466.220935 102.662016 
L 467.995502 102.9756 
L 468.502521 102.908361 
L 469.26305 102.924379 
L 469.77007 102.881584 
L 470.277089 102.86433 
L 470.530598 102.984119 
L 471.037618 102.82434 
L 472.812185 102.961673 
L 473.065694 102.949393 
L 473.319204 102.735602 
L 473.572714 102.827602 
L 475.600791 102.511549 
L 477.121848 102.855818 
L 477.628867 102.874572 
L 477.882377 102.654638 
L 479.403435 103.116094 
L 480.163963 103.27058 
L 480.924492 103.388011 
L 482.19204 103.83409 
L 482.44555 104.000368 
L 482.69906 103.977458 
L 483.206079 104.283692 
L 483.459588 104.382858 
L 483.966608 104.334669 
L 484.220117 104.541898 
L 484.727136 104.489279 
L 484.980646 104.628386 
L 485.487665 104.630398 
L 485.994684 104.691986 
L 487.769252 104.677042 
L 488.022761 104.497 
L 488.529781 104.486529 
L 488.78329 104.413168 
L 489.0368 104.498904 
L 490.050838 104.220603 
L 491.318386 104.395552 
L 491.825405 104.190943 
L 492.332425 104.093493 
L 493.346463 104.17579 
L 493.853482 104.169726 
L 494.106992 104.299913 
L 494.614011 104.196484 
L 495.12103 104.17949 
L 495.62805 104.363298 
L 496.388578 104.407198 
L 496.642088 104.394069 
L 496.895598 104.499956 
L 497.402617 104.512862 
L 498.670165 104.659018 
L 498.923675 104.719122 
L 499.177184 104.624177 
L 499.684203 104.651661 
L 499.937713 104.586503 
L 500.951751 104.747433 
L 501.96579 104.652544 
L 502.472809 104.449595 
L 504.754396 104.154124 
L 505.514924 103.999781 
L 506.275453 103.828893 
L 507.796511 103.544661 
L 508.30353 103.583553 
L 509.064059 103.100663 
L 509.317568 103.121863 
L 511.092136 102.538004 
L 511.345645 102.633911 
L 511.852665 102.587065 
L 513.373722 102.477568 
L 513.880741 102.357167 
L 515.401799 102.478777 
L 515.908818 102.55259 
L 516.922857 102.296765 
L 517.683386 102.381462 
L 518.950934 102.505902 
L 519.711462 102.494742 
L 520.97901 102.381551 
L 521.48603 102.287979 
L 521.993049 102.293715 
L 523.260597 102.098587 
L 524.274635 102.24015 
L 524.781655 102.19147 
L 525.035164 102.207748 
L 525.288674 102.088079 
L 525.542183 102.152887 
L 526.809731 101.819003 
L 527.316751 101.860045 
L 527.57026 101.786667 
L 528.07728 101.467501 
L 529.091318 101.314586 
L 529.344828 101.39358 
L 530.358866 101.145136 
L 530.865885 101.134342 
L 531.626414 100.968589 
L 531.879924 101.071436 
L 532.640453 100.744841 
L 533.400981 100.803143 
L 533.908001 100.703969 
L 534.668529 101.008477 
L 534.922039 100.896388 
L 535.429058 101.02595 
L 536.696606 101.152137 
L 536.950116 101.090132 
L 537.457135 101.231084 
L 538.471174 101.150931 
L 538.724683 101.239559 
L 539.231702 101.177461 
L 539.992231 101.185488 
L 540.75276 101.030169 
L 541.513289 100.832707 
L 542.780837 100.793976 
L 543.541366 100.591869 
L 546.329971 99.718359 
L 547.0905 99.437394 
L 547.34401 99.280279 
L 548.358048 99.113219 
L 548.865067 98.890154 
L 549.372087 98.496232 
L 550.386125 98.30728 
L 550.639635 98.165488 
L 550.893144 98.183661 
L 551.400164 98.009415 
L 552.414202 97.926112 
L 552.921221 97.702565 
L 553.68175 97.707268 
L 554.188769 97.688674 
L 554.442279 97.634314 
L 554.949298 97.263185 
L 555.456317 97.274826 
L 556.977375 97.275631 
L 557.230885 97.360837 
L 557.484394 97.188621 
L 557.991413 97.346196 
L 558.498433 97.366191 
L 560.01949 97.100026 
L 560.273 96.885521 
L 561.794058 96.554125 
L 563.822134 96.145346 
L 565.596702 95.916326 
L 565.850211 96.023897 
L 566.35723 95.932658 
L 567.117759 96.096437 
L 567.878288 96.038503 
L 568.131798 95.910984 
L 572.187951 95.973217 
L 572.694971 95.825567 
L 574.216028 95.978607 
L 574.723048 96.25077 
L 574.976557 96.302383 
L 575.230067 96.472112 
L 575.737086 96.378115 
L 576.244105 96.529161 
L 577.511653 96.572219 
L 577.765163 96.628104 
L 578.272182 96.564505 
L 579.032711 96.385994 
L 579.286221 96.472409 
L 580.046749 96.346706 
L 580.553769 96.466155 
L 581.060788 96.341095 
L 582.074826 96.220024 
L 582.581845 96.216426 
L 584.102903 95.846214 
L 585.116942 95.613978 
L 585.370451 95.692579 
L 585.623961 95.650564 
L 586.13098 95.824336 
L 588.666076 95.444288 
L 589.173095 95.501559 
L 590.694153 95.011919 
L 590.947663 95.122054 
L 591.961701 94.983741 
L 592.46872 94.74595 
L 592.975739 94.801117 
L 593.482759 94.811557 
L 593.989778 94.948603 
L 594.496797 94.791878 
L 594.750307 94.710427 
L 595.257326 94.781864 
L 595.764345 94.693195 
L 596.017855 94.873055 
L 596.524874 94.830987 
L 597.285403 94.816817 
L 597.538912 94.694582 
L 598.552951 94.977631 
L 598.80646 94.797391 
L 599.566989 94.889569 
L 599.820499 94.74253 
L 600.581028 94.714862 
L 601.341556 94.538727 
L 604.383672 94.408194 
L 604.637181 94.540003 
L 605.39771 94.472216 
L 607.425787 94.645853 
L 608.693335 94.550917 
L 609.200354 94.587847 
L 609.707374 94.596473 
L 609.960883 94.739583 
L 610.467902 94.734466 
L 610.721412 94.850993 
L 612.24247 94.723328 
L 612.749489 95.06491 
L 613.510018 95.294853 
L 614.017037 95.511478 
L 614.777566 95.545888 
L 616.552133 95.753307 
L 617.312662 95.612402 
L 617.819681 95.713566 
L 619.087229 95.579323 
L 621.368816 95.130371 
L 621.875835 95.007299 
L 622.636364 94.943493 
L 622.636364 94.943493 
" clip-path="url(#pa28503350a)" style="fill: none; stroke: #d62728; stroke-width: 1.5; stroke-linecap: square"/>
   </g>
   <g id="patch_3">
    <path d="M 90 320.4 
L 90 43.2 
" style="fill: none; stroke: #000000; stroke-width: 0.8; stroke-linejoin: miter; stroke-linecap: square"/>
   </g>
   <g id="patch_4">
    <path d="M 648 320.4 
L 648 43.2 
" style="fill: none; stroke: #000000; stroke-width: 0.8; stroke-linejoin: miter; stroke-linecap: square"/>
   </g>
   <g id="patch_5">
    <path d="M 90 320.4 
L 648 320.4 
" style="fill: none; stroke: #000000; stroke-width: 0.8; stroke-linejoin: miter; stroke-linecap: square"/>
   </g>
   <g id="patch_6">
    <path d="M 90 43.2 
L 648 43.2 
" style="fill: none; stroke: #000000; stroke-width: 0.8; stroke-linejoin: miter; stroke-linecap: square"/>
   </g>
   <g id="legend_1">
    <g id="patch_7">
     <path d="M 97 111.025 
L 262.907812 111.025 
Q 264.907812 111.025 264.907812 109.025 
L 264.907812 50.2 
Q 264.907812 48.2 262.907812 48.2 
L 97 48.2 
Q 95 48.2 95 50.2 
L 95 109.025 
Q 95 111.025 97 111.025 
z
" style="fill: #ffffff; opacity: 0.8; stroke: #cccccc; stroke-linejoin: miter"/>
    </g>
    <g id="line2d_35">
     <path d="M 99 56.298437 
L 109 56.298437 
L 119 56.298437 
" style="fill: none; stroke: #1f77b4; stroke-width: 1.5; stroke-linecap: square"/>
    </g>
    <g id="text_18">
     <!-- ppo_32_per_hidden_layer -->
     <g transform="translate(127 59.798437)scale(0.1 -0.1)">
      <defs>
       <path id="DejaVuSans-5f" d="M 3263 -1063 
L 3263 -1509 
L -63 -1509 
L -63 -1063 
L 3263 -1063 
z
" transform="scale(0.015625)"/>
       <path id="DejaVuSans-33" d="M 2597 2516 
Q 3050 2419 3304 2112 
Q 3559 1806 3559 1356 
Q 3559 666 3084 287 
Q 2609 -91 1734 -91 
Q 1441 -91 1130 -33 
Q 819 25 488 141 
L 488 750 
Q 750 597 1062 519 
Q 1375 441 1716 441 
Q 2309 441 2620 675 
Q 2931 909 2931 1356 
Q 2931 1769 2642 2001 
Q 2353 2234 1838 2234 
L 1294 2234 
L 1294 2753 
L 1863 2753 
Q 2328 2753 2575 2939 
Q 2822 3125 2822 3475 
Q 2822 3834 2567 4026 
Q 2313 4219 1838 4219 
Q 1578 4219 1281 4162 
Q 984 4106 628 3988 
L 628 4550 
Q 988 4650 1302 4700 
Q 1616 4750 1894 4750 
Q 2613 4750 3031 4423 
Q 3450 4097 3450 3541 
Q 3450 3153 3228 2886 
Q 3006 2619 2597 2516 
z
" transform="scale(0.015625)"/>
       <path id="DejaVuSans-68" d="M 3513 2113 
L 3513 0 
L 2938 0 
L 2938 2094 
Q 2938 2591 2744 2837 
Q 2550 3084 2163 3084 
Q 1697 3084 1428 2787 
Q 1159 2491 1159 1978 
L 1159 0 
L 581 0 
L 581 4863 
L 1159 4863 
L 1159 2956 
Q 1366 3272 1645 3428 
Q 1925 3584 2291 3584 
Q 2894 3584 3203 3211 
Q 3513 2838 3513 2113 
z
" transform="scale(0.015625)"/>
       <path id="DejaVuSans-6e" d="M 3513 2113 
L 3513 0 
L 2938 0 
L 2938 2094 
Q 2938 2591 2744 2837 
Q 2550 3084 2163 3084 
Q 1697 3084 1428 2787 
Q 1159 2491 1159 1978 
L 1159 0 
L 581 0 
L 581 3500 
L 1159 3500 
L 1159 2956 
Q 1366 3272 1645 3428 
Q 1925 3584 2291 3584 
Q 2894 3584 3203 3211 
Q 3513 2838 3513 2113 
z
" transform="scale(0.015625)"/>
       <path id="DejaVuSans-6c" d="M 603 4863 
L 1178 4863 
L 1178 0 
L 603 0 
L 603 4863 
z
" transform="scale(0.015625)"/>
       <path id="DejaVuSans-61" d="M 2194 1759 
Q 1497 1759 1228 1600 
Q 959 1441 959 1056 
Q 959 750 1161 570 
Q 1363 391 1709 391 
Q 2188 391 2477 730 
Q 2766 1069 2766 1631 
L 2766 1759 
L 2194 1759 
z
M 3341 1997 
L 3341 0 
L 2766 0 
L 2766 531 
Q 2569 213 2275 61 
Q 1981 -91 1556 -91 
Q 1019 -91 701 211 
Q 384 513 384 1019 
Q 384 1609 779 1909 
Q 1175 2209 1959 2209 
L 2766 2209 
L 2766 2266 
Q 2766 2663 2505 2880 
Q 2244 3097 1772 3097 
Q 1472 3097 1187 3025 
Q 903 2953 641 2809 
L 641 3341 
Q 956 3463 1253 3523 
Q 1550 3584 1831 3584 
Q 2591 3584 2966 3190 
Q 3341 2797 3341 1997 
z
" transform="scale(0.015625)"/>
       <path id="DejaVuSans-79" d="M 2059 -325 
Q 1816 -950 1584 -1140 
Q 1353 -1331 966 -1331 
L 506 -1331 
L 506 -850 
L 844 -850 
Q 1081 -850 1212 -737 
Q 1344 -625 1503 -206 
L 1606 56 
L 191 3500 
L 800 3500 
L 1894 763 
L 2988 3500 
L 3597 3500 
L 2059 -325 
z
" transform="scale(0.015625)"/>
      </defs>
      <use xlink:href="#DejaVuSans-70"/>
      <use xlink:href="#DejaVuSans-70" x="63.476562"/>
      <use xlink:href="#DejaVuSans-6f" x="126.953125"/>
      <use xlink:href="#DejaVuSans-5f" x="188.134766"/>
      <use xlink:href="#DejaVuSans-33" x="238.134766"/>
      <use xlink:href="#DejaVuSans-32" x="301.757812"/>
      <use xlink:href="#DejaVuSans-5f" x="365.380859"/>
      <use xlink:href="#DejaVuSans-70" x="415.380859"/>
      <use xlink:href="#DejaVuSans-65" x="478.857422"/>
      <use xlink:href="#DejaVuSans-72" x="540.380859"/>
      <use xlink:href="#DejaVuSans-5f" x="581.494141"/>
      <use xlink:href="#DejaVuSans-68" x="631.494141"/>
      <use xlink:href="#DejaVuSans-69" x="694.873047"/>
      <use xlink:href="#DejaVuSans-64" x="722.65625"/>
      <use xlink:href="#DejaVuSans-64" x="786.132812"/>
      <use xlink:href="#DejaVuSans-65" x="849.609375"/>
      <use xlink:href="#DejaVuSans-6e" x="911.132812"/>
      <use xlink:href="#DejaVuSans-5f" x="974.511719"/>
      <use xlink:href="#DejaVuSans-6c" x="1024.511719"/>
      <use xlink:href="#DejaVuSans-61" x="1052.294922"/>
      <use xlink:href="#DejaVuSans-79" x="1113.574219"/>
      <use xlink:href="#DejaVuSans-65" x="1172.753906"/>
      <use xlink:href="#DejaVuSans-72" x="1234.277344"/>
     </g>
    </g>
    <g id="line2d_36">
     <path d="M 99 71.254687 
L 109 71.254687 
L 119 71.254687 
" style="fill: none; stroke: #ff7f0e; stroke-width: 1.5; stroke-linecap: square"/>
    </g>
    <g id="text_19">
     <!-- ppo_64_per_hidden_layer -->
     <g transform="translate(127 74.754687)scale(0.1 -0.1)">
      <use xlink:href="#DejaVuSans-70"/>
      <use xlink:href="#DejaVuSans-70" x="63.476562"/>
      <use xlink:href="#DejaVuSans-6f" x="126.953125"/>
      <use xlink:href="#DejaVuSans-5f" x="188.134766"/>
      <use xlink:href="#DejaVuSans-36" x="238.134766"/>
      <use xlink:href="#DejaVuSans-34" x="301.757812"/>
      <use xlink:href="#DejaVuSans-5f" x="365.380859"/>
      <use xlink:href="#DejaVuSans-70" x="415.380859"/>
      <use xlink:href="#DejaVuSans-65" x="478.857422"/>
      <use xlink:href="#DejaVuSans-72" x="540.380859"/>
      <use xlink:href="#DejaVuSans-5f" x="581.494141"/>
      <use xlink:href="#DejaVuSans-68" x="631.494141"/>
      <use xlink:href="#DejaVuSans-69" x="694.873047"/>
      <use xlink:href="#DejaVuSans-64" x="722.65625"/>
      <use xlink:href="#DejaVuSans-64" x="786.132812"/>
      <use xlink:href="#DejaVuSans-65" x="849.609375"/>
      <use xlink:href="#DejaVuSans-6e" x="911.132812"/>
      <use xlink:href="#DejaVuSans-5f" x="974.511719"/>
      <use xlink:href="#DejaVuSans-6c" x="1024.511719"/>
      <use xlink:href="#DejaVuSans-61" x="1052.294922"/>
      <use xlink:href="#DejaVuSans-79" x="1113.574219"/>
      <use xlink:href="#DejaVuSans-65" x="1172.753906"/>
      <use xlink:href="#DejaVuSans-72" x="1234.277344"/>
     </g>
    </g>
    <g id="line2d_37">
     <path d="M 99 86.210938 
L 109 86.210938 
L 119 86.210938 
" style="fill: none; stroke: #2ca02c; stroke-width: 1.5; stroke-linecap: square"/>
    </g>
    <g id="text_20">
     <!-- ppo_128_per_hidden_layer -->
     <g transform="translate(127 89.710938)scale(0.1 -0.1)">
      <use xlink:href="#DejaVuSans-70"/>
      <use xlink:href="#DejaVuSans-70" x="63.476562"/>
      <use xlink:href="#DejaVuSans-6f" x="126.953125"/>
      <use xlink:href="#DejaVuSans-5f" x="188.134766"/>
      <use xlink:href="#DejaVuSans-31" x="238.134766"/>
      <use xlink:href="#DejaVuSans-32" x="301.757812"/>
      <use xlink:href="#DejaVuSans-38" x="365.380859"/>
      <use xlink:href="#DejaVuSans-5f" x="429.003906"/>
      <use xlink:href="#DejaVuSans-70" x="479.003906"/>
      <use xlink:href="#DejaVuSans-65" x="542.480469"/>
      <use xlink:href="#DejaVuSans-72" x="604.003906"/>
      <use xlink:href="#DejaVuSans-5f" x="645.117188"/>
      <use xlink:href="#DejaVuSans-68" x="695.117188"/>
      <use xlink:href="#DejaVuSans-69" x="758.496094"/>
      <use xlink:href="#DejaVuSans-64" x="786.279297"/>
      <use xlink:href="#DejaVuSans-64" x="849.755859"/>
      <use xlink:href="#DejaVuSans-65" x="913.232422"/>
      <use xlink:href="#DejaVuSans-6e" x="974.755859"/>
      <use xlink:href="#DejaVuSans-5f" x="1038.134766"/>
      <use xlink:href="#DejaVuSans-6c" x="1088.134766"/>
      <use xlink:href="#DejaVuSans-61" x="1115.917969"/>
      <use xlink:href="#DejaVuSans-79" x="1177.197266"/>
      <use xlink:href="#DejaVuSans-65" x="1236.376953"/>
      <use xlink:href="#DejaVuSans-72" x="1297.900391"/>
     </g>
    </g>
    <g id="line2d_38">
     <path d="M 99 101.167187 
L 109 101.167187 
L 119 101.167187 
" style="fill: none; stroke: #d62728; stroke-width: 1.5; stroke-linecap: square"/>
    </g>
    <g id="text_21">
     <!-- ppo_256_per_hidden_layer -->
     <g transform="translate(127 104.667187)scale(0.1 -0.1)">
      <use xlink:href="#DejaVuSans-70"/>
      <use xlink:href="#DejaVuSans-70" x="63.476562"/>
      <use xlink:href="#DejaVuSans-6f" x="126.953125"/>
      <use xlink:href="#DejaVuSans-5f" x="188.134766"/>
      <use xlink:href="#DejaVuSans-32" x="238.134766"/>
      <use xlink:href="#DejaVuSans-35" x="301.757812"/>
      <use xlink:href="#DejaVuSans-36" x="365.380859"/>
      <use xlink:href="#DejaVuSans-5f" x="429.003906"/>
      <use xlink:href="#DejaVuSans-70" x="479.003906"/>
      <use xlink:href="#DejaVuSans-65" x="542.480469"/>
      <use xlink:href="#DejaVuSans-72" x="604.003906"/>
      <use xlink:href="#DejaVuSans-5f" x="645.117188"/>
      <use xlink:href="#DejaVuSans-68" x="695.117188"/>
      <use xlink:href="#DejaVuSans-69" x="758.496094"/>
      <use xlink:href="#DejaVuSans-64" x="786.279297"/>
      <use xlink:href="#DejaVuSans-64" x="849.755859"/>
      <use xlink:href="#DejaVuSans-65" x="913.232422"/>
      <use xlink:href="#DejaVuSans-6e" x="974.755859"/>
      <use xlink:href="#DejaVuSans-5f" x="1038.134766"/>
      <use xlink:href="#DejaVuSans-6c" x="1088.134766"/>
      <use xlink:href="#DejaVuSans-61" x="1115.917969"/>
      <use xlink:href="#DejaVuSans-79" x="1177.197266"/>
      <use xlink:href="#DejaVuSans-65" x="1236.376953"/>
      <use xlink:href="#DejaVuSans-72" x="1297.900391"/>
     </g>
    </g>
   </g>
  </g>
 </g>
 <defs>
  <clipPath id="pa28503350a">
   <rect x="90" y="43.2" width="558" height="277.2"/>
  </clipPath>
 </defs>
</svg>
