<?xml version="1.0" encoding="utf-8" standalone="no"?>
<!DOCTYPE svg PUBLIC "-//W3C//DTD SVG 1.1//EN"
  "http://www.w3.org/Graphics/SVG/1.1/DTD/svg11.dtd">
<svg xmlns:xlink="http://www.w3.org/1999/xlink" width="720pt" height="360pt" viewBox="0 0 720 360" xmlns="http://www.w3.org/2000/svg" version="1.1">
 <metadata>
  <rdf:RDF xmlns:dc="http://purl.org/dc/elements/1.1/" xmlns:cc="http://creativecommons.org/ns#" xmlns:rdf="http://www.w3.org/1999/02/22-rdf-syntax-ns#">
   <cc:Work>
    <dc:type rdf:resource="http://purl.org/dc/dcmitype/StillImage"/>
    <dc:date>2022-06-25T21:31:40.680660</dc:date>
    <dc:format>image/svg+xml</dc:format>
    <dc:creator>
     <cc:Agent>
      <dc:title>Matplotlib v3.5.2, https://matplotlib.org/</dc:title>
     </cc:Agent>
    </dc:creator>
   </cc:Work>
  </rdf:RDF>
 </metadata>
 <defs>
  <style type="text/css">*{stroke-linejoin: round; stroke-linecap: butt}</style>
 </defs>
 <g id="figure_1">
  <g id="patch_1">
   <path d="M 0 360 
L 720 360 
L 720 0 
L 0 0 
L 0 360 
z
" style="fill: none"/>
  </g>
  <g id="axes_1">
   <g id="patch_2">
    <path d="M 90 320.4 
L 648 320.4 
L 648 43.2 
L 90 43.2 
L 90 320.4 
z
" style="fill: none"/>
   </g>
   <g id="matplotlib.axis_1">
    <g id="xtick_1">
     <g id="line2d_1">
      <path d="M 115.363636 320.4 
L 115.363636 43.2 
" clip-path="url(#pd7b7fdd58a)" style="fill: none; stroke-dasharray: 2.96,1.28; stroke-dashoffset: 0; stroke: #b0b0b0; stroke-width: 0.8"/>
     </g>
     <g id="line2d_2">
      <defs>
       <path id="m2ce50d490b" d="M 0 0 
L 0 3.5 
" style="stroke: #000000; stroke-width: 0.8"/>
      </defs>
      <g>
       <use xlink:href="#m2ce50d490b" x="115.363636" y="320.4" style="stroke: #000000; stroke-width: 0.8"/>
      </g>
     </g>
     <g id="text_1">
      <!-- 0 -->
      <g transform="translate(112.182386 334.998438)scale(0.1 -0.1)">
       <defs>
        <path id="DejaVuSans-30" d="M 2034 4250 
Q 1547 4250 1301 3770 
Q 1056 3291 1056 2328 
Q 1056 1369 1301 889 
Q 1547 409 2034 409 
Q 2525 409 2770 889 
Q 3016 1369 3016 2328 
Q 3016 3291 2770 3770 
Q 2525 4250 2034 4250 
z
M 2034 4750 
Q 2819 4750 3233 4129 
Q 3647 3509 3647 2328 
Q 3647 1150 3233 529 
Q 2819 -91 2034 -91 
Q 1250 -91 836 529 
Q 422 1150 422 2328 
Q 422 3509 836 4129 
Q 1250 4750 2034 4750 
z
" transform="scale(0.015625)"/>
       </defs>
       <use xlink:href="#DejaVuSans-30"/>
      </g>
     </g>
    </g>
    <g id="xtick_2">
     <g id="line2d_3">
      <path d="M 200.050235 320.4 
L 200.050235 43.2 
" clip-path="url(#pd7b7fdd58a)" style="fill: none; stroke-dasharray: 2.96,1.28; stroke-dashoffset: 0; stroke: #b0b0b0; stroke-width: 0.8"/>
     </g>
     <g id="line2d_4">
      <g>
       <use xlink:href="#m2ce50d490b" x="200.050235" y="320.4" style="stroke: #000000; stroke-width: 0.8"/>
      </g>
     </g>
     <g id="text_2">
      <!-- 100 -->
      <g transform="translate(190.506485 334.998438)scale(0.1 -0.1)">
       <defs>
        <path id="DejaVuSans-31" d="M 794 531 
L 1825 531 
L 1825 4091 
L 703 3866 
L 703 4441 
L 1819 4666 
L 2450 4666 
L 2450 531 
L 3481 531 
L 3481 0 
L 794 0 
L 794 531 
z
" transform="scale(0.015625)"/>
       </defs>
       <use xlink:href="#DejaVuSans-31"/>
       <use xlink:href="#DejaVuSans-30" x="63.623047"/>
       <use xlink:href="#DejaVuSans-30" x="127.246094"/>
      </g>
     </g>
    </g>
    <g id="xtick_3">
     <g id="line2d_5">
      <path d="M 284.736834 320.4 
L 284.736834 43.2 
" clip-path="url(#pd7b7fdd58a)" style="fill: none; stroke-dasharray: 2.96,1.28; stroke-dashoffset: 0; stroke: #b0b0b0; stroke-width: 0.8"/>
     </g>
     <g id="line2d_6">
      <g>
       <use xlink:href="#m2ce50d490b" x="284.736834" y="320.4" style="stroke: #000000; stroke-width: 0.8"/>
      </g>
     </g>
     <g id="text_3">
      <!-- 200 -->
      <g transform="translate(275.193084 334.998438)scale(0.1 -0.1)">
       <defs>
        <path id="DejaVuSans-32" d="M 1228 531 
L 3431 531 
L 3431 0 
L 469 0 
L 469 531 
Q 828 903 1448 1529 
Q 2069 2156 2228 2338 
Q 2531 2678 2651 2914 
Q 2772 3150 2772 3378 
Q 2772 3750 2511 3984 
Q 2250 4219 1831 4219 
Q 1534 4219 1204 4116 
Q 875 4013 500 3803 
L 500 4441 
Q 881 4594 1212 4672 
Q 1544 4750 1819 4750 
Q 2544 4750 2975 4387 
Q 3406 4025 3406 3419 
Q 3406 3131 3298 2873 
Q 3191 2616 2906 2266 
Q 2828 2175 2409 1742 
Q 1991 1309 1228 531 
z
" transform="scale(0.015625)"/>
       </defs>
       <use xlink:href="#DejaVuSans-32"/>
       <use xlink:href="#DejaVuSans-30" x="63.623047"/>
       <use xlink:href="#DejaVuSans-30" x="127.246094"/>
      </g>
     </g>
    </g>
    <g id="xtick_4">
     <g id="line2d_7">
      <path d="M 369.423433 320.4 
L 369.423433 43.2 
" clip-path="url(#pd7b7fdd58a)" style="fill: none; stroke-dasharray: 2.96,1.28; stroke-dashoffset: 0; stroke: #b0b0b0; stroke-width: 0.8"/>
     </g>
     <g id="line2d_8">
      <g>
       <use xlink:href="#m2ce50d490b" x="369.423433" y="320.4" style="stroke: #000000; stroke-width: 0.8"/>
      </g>
     </g>
     <g id="text_4">
      <!-- 300 -->
      <g transform="translate(359.879683 334.998438)scale(0.1 -0.1)">
       <defs>
        <path id="DejaVuSans-33" d="M 2597 2516 
Q 3050 2419 3304 2112 
Q 3559 1806 3559 1356 
Q 3559 666 3084 287 
Q 2609 -91 1734 -91 
Q 1441 -91 1130 -33 
Q 819 25 488 141 
L 488 750 
Q 750 597 1062 519 
Q 1375 441 1716 441 
Q 2309 441 2620 675 
Q 2931 909 2931 1356 
Q 2931 1769 2642 2001 
Q 2353 2234 1838 2234 
L 1294 2234 
L 1294 2753 
L 1863 2753 
Q 2328 2753 2575 2939 
Q 2822 3125 2822 3475 
Q 2822 3834 2567 4026 
Q 2313 4219 1838 4219 
Q 1578 4219 1281 4162 
Q 984 4106 628 3988 
L 628 4550 
Q 988 4650 1302 4700 
Q 1616 4750 1894 4750 
Q 2613 4750 3031 4423 
Q 3450 4097 3450 3541 
Q 3450 3153 3228 2886 
Q 3006 2619 2597 2516 
z
" transform="scale(0.015625)"/>
       </defs>
       <use xlink:href="#DejaVuSans-33"/>
       <use xlink:href="#DejaVuSans-30" x="63.623047"/>
       <use xlink:href="#DejaVuSans-30" x="127.246094"/>
      </g>
     </g>
    </g>
    <g id="xtick_5">
     <g id="line2d_9">
      <path d="M 454.110032 320.4 
L 454.110032 43.2 
" clip-path="url(#pd7b7fdd58a)" style="fill: none; stroke-dasharray: 2.96,1.28; stroke-dashoffset: 0; stroke: #b0b0b0; stroke-width: 0.8"/>
     </g>
     <g id="line2d_10">
      <g>
       <use xlink:href="#m2ce50d490b" x="454.110032" y="320.4" style="stroke: #000000; stroke-width: 0.8"/>
      </g>
     </g>
     <g id="text_5">
      <!-- 400 -->
      <g transform="translate(444.566282 334.998438)scale(0.1 -0.1)">
       <defs>
        <path id="DejaVuSans-34" d="M 2419 4116 
L 825 1625 
L 2419 1625 
L 2419 4116 
z
M 2253 4666 
L 3047 4666 
L 3047 1625 
L 3713 1625 
L 3713 1100 
L 3047 1100 
L 3047 0 
L 2419 0 
L 2419 1100 
L 313 1100 
L 313 1709 
L 2253 4666 
z
" transform="scale(0.015625)"/>
       </defs>
       <use xlink:href="#DejaVuSans-34"/>
       <use xlink:href="#DejaVuSans-30" x="63.623047"/>
       <use xlink:href="#DejaVuSans-30" x="127.246094"/>
      </g>
     </g>
    </g>
    <g id="xtick_6">
     <g id="line2d_11">
      <path d="M 538.796631 320.4 
L 538.796631 43.2 
" clip-path="url(#pd7b7fdd58a)" style="fill: none; stroke-dasharray: 2.96,1.28; stroke-dashoffset: 0; stroke: #b0b0b0; stroke-width: 0.8"/>
     </g>
     <g id="line2d_12">
      <g>
       <use xlink:href="#m2ce50d490b" x="538.796631" y="320.4" style="stroke: #000000; stroke-width: 0.8"/>
      </g>
     </g>
     <g id="text_6">
      <!-- 500 -->
      <g transform="translate(529.252881 334.998438)scale(0.1 -0.1)">
       <defs>
        <path id="DejaVuSans-35" d="M 691 4666 
L 3169 4666 
L 3169 4134 
L 1269 4134 
L 1269 2991 
Q 1406 3038 1543 3061 
Q 1681 3084 1819 3084 
Q 2600 3084 3056 2656 
Q 3513 2228 3513 1497 
Q 3513 744 3044 326 
Q 2575 -91 1722 -91 
Q 1428 -91 1123 -41 
Q 819 9 494 109 
L 494 744 
Q 775 591 1075 516 
Q 1375 441 1709 441 
Q 2250 441 2565 725 
Q 2881 1009 2881 1497 
Q 2881 1984 2565 2268 
Q 2250 2553 1709 2553 
Q 1456 2553 1204 2497 
Q 953 2441 691 2322 
L 691 4666 
z
" transform="scale(0.015625)"/>
       </defs>
       <use xlink:href="#DejaVuSans-35"/>
       <use xlink:href="#DejaVuSans-30" x="63.623047"/>
       <use xlink:href="#DejaVuSans-30" x="127.246094"/>
      </g>
     </g>
    </g>
    <g id="xtick_7">
     <g id="line2d_13">
      <path d="M 623.48323 320.4 
L 623.48323 43.2 
" clip-path="url(#pd7b7fdd58a)" style="fill: none; stroke-dasharray: 2.96,1.28; stroke-dashoffset: 0; stroke: #b0b0b0; stroke-width: 0.8"/>
     </g>
     <g id="line2d_14">
      <g>
       <use xlink:href="#m2ce50d490b" x="623.48323" y="320.4" style="stroke: #000000; stroke-width: 0.8"/>
      </g>
     </g>
     <g id="text_7">
      <!-- 600 -->
      <g transform="translate(613.93948 334.998438)scale(0.1 -0.1)">
       <defs>
        <path id="DejaVuSans-36" d="M 2113 2584 
Q 1688 2584 1439 2293 
Q 1191 2003 1191 1497 
Q 1191 994 1439 701 
Q 1688 409 2113 409 
Q 2538 409 2786 701 
Q 3034 994 3034 1497 
Q 3034 2003 2786 2293 
Q 2538 2584 2113 2584 
z
M 3366 4563 
L 3366 3988 
Q 3128 4100 2886 4159 
Q 2644 4219 2406 4219 
Q 1781 4219 1451 3797 
Q 1122 3375 1075 2522 
Q 1259 2794 1537 2939 
Q 1816 3084 2150 3084 
Q 2853 3084 3261 2657 
Q 3669 2231 3669 1497 
Q 3669 778 3244 343 
Q 2819 -91 2113 -91 
Q 1303 -91 875 529 
Q 447 1150 447 2328 
Q 447 3434 972 4092 
Q 1497 4750 2381 4750 
Q 2619 4750 2861 4703 
Q 3103 4656 3366 4563 
z
" transform="scale(0.015625)"/>
       </defs>
       <use xlink:href="#DejaVuSans-36"/>
       <use xlink:href="#DejaVuSans-30" x="63.623047"/>
       <use xlink:href="#DejaVuSans-30" x="127.246094"/>
      </g>
     </g>
    </g>
    <g id="text_8">
     <!-- Episodes -->
     <g transform="translate(346.757812 348.676562)scale(0.1 -0.1)">
      <defs>
       <path id="DejaVuSans-45" d="M 628 4666 
L 3578 4666 
L 3578 4134 
L 1259 4134 
L 1259 2753 
L 3481 2753 
L 3481 2222 
L 1259 2222 
L 1259 531 
L 3634 531 
L 3634 0 
L 628 0 
L 628 4666 
z
" transform="scale(0.015625)"/>
       <path id="DejaVuSans-70" d="M 1159 525 
L 1159 -1331 
L 581 -1331 
L 581 3500 
L 1159 3500 
L 1159 2969 
Q 1341 3281 1617 3432 
Q 1894 3584 2278 3584 
Q 2916 3584 3314 3078 
Q 3713 2572 3713 1747 
Q 3713 922 3314 415 
Q 2916 -91 2278 -91 
Q 1894 -91 1617 61 
Q 1341 213 1159 525 
z
M 3116 1747 
Q 3116 2381 2855 2742 
Q 2594 3103 2138 3103 
Q 1681 3103 1420 2742 
Q 1159 2381 1159 1747 
Q 1159 1113 1420 752 
Q 1681 391 2138 391 
Q 2594 391 2855 752 
Q 3116 1113 3116 1747 
z
" transform="scale(0.015625)"/>
       <path id="DejaVuSans-69" d="M 603 3500 
L 1178 3500 
L 1178 0 
L 603 0 
L 603 3500 
z
M 603 4863 
L 1178 4863 
L 1178 4134 
L 603 4134 
L 603 4863 
z
" transform="scale(0.015625)"/>
       <path id="DejaVuSans-73" d="M 2834 3397 
L 2834 2853 
Q 2591 2978 2328 3040 
Q 2066 3103 1784 3103 
Q 1356 3103 1142 2972 
Q 928 2841 928 2578 
Q 928 2378 1081 2264 
Q 1234 2150 1697 2047 
L 1894 2003 
Q 2506 1872 2764 1633 
Q 3022 1394 3022 966 
Q 3022 478 2636 193 
Q 2250 -91 1575 -91 
Q 1294 -91 989 -36 
Q 684 19 347 128 
L 347 722 
Q 666 556 975 473 
Q 1284 391 1588 391 
Q 1994 391 2212 530 
Q 2431 669 2431 922 
Q 2431 1156 2273 1281 
Q 2116 1406 1581 1522 
L 1381 1569 
Q 847 1681 609 1914 
Q 372 2147 372 2553 
Q 372 3047 722 3315 
Q 1072 3584 1716 3584 
Q 2034 3584 2315 3537 
Q 2597 3491 2834 3397 
z
" transform="scale(0.015625)"/>
       <path id="DejaVuSans-6f" d="M 1959 3097 
Q 1497 3097 1228 2736 
Q 959 2375 959 1747 
Q 959 1119 1226 758 
Q 1494 397 1959 397 
Q 2419 397 2687 759 
Q 2956 1122 2956 1747 
Q 2956 2369 2687 2733 
Q 2419 3097 1959 3097 
z
M 1959 3584 
Q 2709 3584 3137 3096 
Q 3566 2609 3566 1747 
Q 3566 888 3137 398 
Q 2709 -91 1959 -91 
Q 1206 -91 779 398 
Q 353 888 353 1747 
Q 353 2609 779 3096 
Q 1206 3584 1959 3584 
z
" transform="scale(0.015625)"/>
       <path id="DejaVuSans-64" d="M 2906 2969 
L 2906 4863 
L 3481 4863 
L 3481 0 
L 2906 0 
L 2906 525 
Q 2725 213 2448 61 
Q 2172 -91 1784 -91 
Q 1150 -91 751 415 
Q 353 922 353 1747 
Q 353 2572 751 3078 
Q 1150 3584 1784 3584 
Q 2172 3584 2448 3432 
Q 2725 3281 2906 2969 
z
M 947 1747 
Q 947 1113 1208 752 
Q 1469 391 1925 391 
Q 2381 391 2643 752 
Q 2906 1113 2906 1747 
Q 2906 2381 2643 2742 
Q 2381 3103 1925 3103 
Q 1469 3103 1208 2742 
Q 947 2381 947 1747 
z
" transform="scale(0.015625)"/>
       <path id="DejaVuSans-65" d="M 3597 1894 
L 3597 1613 
L 953 1613 
Q 991 1019 1311 708 
Q 1631 397 2203 397 
Q 2534 397 2845 478 
Q 3156 559 3463 722 
L 3463 178 
Q 3153 47 2828 -22 
Q 2503 -91 2169 -91 
Q 1331 -91 842 396 
Q 353 884 353 1716 
Q 353 2575 817 3079 
Q 1281 3584 2069 3584 
Q 2775 3584 3186 3129 
Q 3597 2675 3597 1894 
z
M 3022 2063 
Q 3016 2534 2758 2815 
Q 2500 3097 2075 3097 
Q 1594 3097 1305 2825 
Q 1016 2553 972 2059 
L 3022 2063 
z
" transform="scale(0.015625)"/>
      </defs>
      <use xlink:href="#DejaVuSans-45"/>
      <use xlink:href="#DejaVuSans-70" x="63.183594"/>
      <use xlink:href="#DejaVuSans-69" x="126.660156"/>
      <use xlink:href="#DejaVuSans-73" x="154.443359"/>
      <use xlink:href="#DejaVuSans-6f" x="206.542969"/>
      <use xlink:href="#DejaVuSans-64" x="267.724609"/>
      <use xlink:href="#DejaVuSans-65" x="331.201172"/>
      <use xlink:href="#DejaVuSans-73" x="392.724609"/>
     </g>
    </g>
   </g>
   <g id="matplotlib.axis_2">
    <g id="ytick_1">
     <g id="line2d_15">
      <path d="M 90 320.4 
L 648 320.4 
" clip-path="url(#pd7b7fdd58a)" style="fill: none; stroke-dasharray: 2.96,1.28; stroke-dashoffset: 0; stroke: #b0b0b0; stroke-width: 0.8"/>
     </g>
     <g id="line2d_16">
      <defs>
       <path id="m2ffb793936" d="M 0 0 
L -3.5 0 
" style="stroke: #000000; stroke-width: 0.8"/>
      </defs>
      <g>
       <use xlink:href="#m2ffb793936" x="90" y="320.4" style="stroke: #000000; stroke-width: 0.8"/>
      </g>
     </g>
     <g id="text_9">
      <!-- 0 -->
      <g transform="translate(76.6375 324.199219)scale(0.1 -0.1)">
       <use xlink:href="#DejaVuSans-30"/>
      </g>
     </g>
    </g>
    <g id="ytick_2">
     <g id="line2d_17">
      <path d="M 90 264.96 
L 648 264.96 
" clip-path="url(#pd7b7fdd58a)" style="fill: none; stroke-dasharray: 2.96,1.28; stroke-dashoffset: 0; stroke: #b0b0b0; stroke-width: 0.8"/>
     </g>
     <g id="line2d_18">
      <g>
       <use xlink:href="#m2ffb793936" x="90" y="264.96" style="stroke: #000000; stroke-width: 0.8"/>
      </g>
     </g>
     <g id="text_10">
      <!-- 2000 -->
      <g transform="translate(57.55 268.759219)scale(0.1 -0.1)">
       <use xlink:href="#DejaVuSans-32"/>
       <use xlink:href="#DejaVuSans-30" x="63.623047"/>
       <use xlink:href="#DejaVuSans-30" x="127.246094"/>
       <use xlink:href="#DejaVuSans-30" x="190.869141"/>
      </g>
     </g>
    </g>
    <g id="ytick_3">
     <g id="line2d_19">
      <path d="M 90 209.52 
L 648 209.52 
" clip-path="url(#pd7b7fdd58a)" style="fill: none; stroke-dasharray: 2.96,1.28; stroke-dashoffset: 0; stroke: #b0b0b0; stroke-width: 0.8"/>
     </g>
     <g id="line2d_20">
      <g>
       <use xlink:href="#m2ffb793936" x="90" y="209.52" style="stroke: #000000; stroke-width: 0.8"/>
      </g>
     </g>
     <g id="text_11">
      <!-- 4000 -->
      <g transform="translate(57.55 213.319219)scale(0.1 -0.1)">
       <use xlink:href="#DejaVuSans-34"/>
       <use xlink:href="#DejaVuSans-30" x="63.623047"/>
       <use xlink:href="#DejaVuSans-30" x="127.246094"/>
       <use xlink:href="#DejaVuSans-30" x="190.869141"/>
      </g>
     </g>
    </g>
    <g id="ytick_4">
     <g id="line2d_21">
      <path d="M 90 154.08 
L 648 154.08 
" clip-path="url(#pd7b7fdd58a)" style="fill: none; stroke-dasharray: 2.96,1.28; stroke-dashoffset: 0; stroke: #b0b0b0; stroke-width: 0.8"/>
     </g>
     <g id="line2d_22">
      <g>
       <use xlink:href="#m2ffb793936" x="90" y="154.08" style="stroke: #000000; stroke-width: 0.8"/>
      </g>
     </g>
     <g id="text_12">
      <!-- 6000 -->
      <g transform="translate(57.55 157.879219)scale(0.1 -0.1)">
       <use xlink:href="#DejaVuSans-36"/>
       <use xlink:href="#DejaVuSans-30" x="63.623047"/>
       <use xlink:href="#DejaVuSans-30" x="127.246094"/>
       <use xlink:href="#DejaVuSans-30" x="190.869141"/>
      </g>
     </g>
    </g>
    <g id="ytick_5">
     <g id="line2d_23">
      <path d="M 90 98.64 
L 648 98.64 
" clip-path="url(#pd7b7fdd58a)" style="fill: none; stroke-dasharray: 2.96,1.28; stroke-dashoffset: 0; stroke: #b0b0b0; stroke-width: 0.8"/>
     </g>
     <g id="line2d_24">
      <g>
       <use xlink:href="#m2ffb793936" x="90" y="98.64" style="stroke: #000000; stroke-width: 0.8"/>
      </g>
     </g>
     <g id="text_13">
      <!-- 8000 -->
      <g transform="translate(57.55 102.439219)scale(0.1 -0.1)">
       <defs>
        <path id="DejaVuSans-38" d="M 2034 2216 
Q 1584 2216 1326 1975 
Q 1069 1734 1069 1313 
Q 1069 891 1326 650 
Q 1584 409 2034 409 
Q 2484 409 2743 651 
Q 3003 894 3003 1313 
Q 3003 1734 2745 1975 
Q 2488 2216 2034 2216 
z
M 1403 2484 
Q 997 2584 770 2862 
Q 544 3141 544 3541 
Q 544 4100 942 4425 
Q 1341 4750 2034 4750 
Q 2731 4750 3128 4425 
Q 3525 4100 3525 3541 
Q 3525 3141 3298 2862 
Q 3072 2584 2669 2484 
Q 3125 2378 3379 2068 
Q 3634 1759 3634 1313 
Q 3634 634 3220 271 
Q 2806 -91 2034 -91 
Q 1263 -91 848 271 
Q 434 634 434 1313 
Q 434 1759 690 2068 
Q 947 2378 1403 2484 
z
M 1172 3481 
Q 1172 3119 1398 2916 
Q 1625 2713 2034 2713 
Q 2441 2713 2670 2916 
Q 2900 3119 2900 3481 
Q 2900 3844 2670 4047 
Q 2441 4250 2034 4250 
Q 1625 4250 1398 4047 
Q 1172 3844 1172 3481 
z
" transform="scale(0.015625)"/>
       </defs>
       <use xlink:href="#DejaVuSans-38"/>
       <use xlink:href="#DejaVuSans-30" x="63.623047"/>
       <use xlink:href="#DejaVuSans-30" x="127.246094"/>
       <use xlink:href="#DejaVuSans-30" x="190.869141"/>
      </g>
     </g>
    </g>
    <g id="ytick_6">
     <g id="line2d_25">
      <path d="M 90 43.2 
L 648 43.2 
" clip-path="url(#pd7b7fdd58a)" style="fill: none; stroke-dasharray: 2.96,1.28; stroke-dashoffset: 0; stroke: #b0b0b0; stroke-width: 0.8"/>
     </g>
     <g id="line2d_26">
      <g>
       <use xlink:href="#m2ffb793936" x="90" y="43.2" style="stroke: #000000; stroke-width: 0.8"/>
      </g>
     </g>
     <g id="text_14">
      <!-- 10000 -->
      <g transform="translate(51.1875 46.999219)scale(0.1 -0.1)">
       <use xlink:href="#DejaVuSans-31"/>
       <use xlink:href="#DejaVuSans-30" x="63.623047"/>
       <use xlink:href="#DejaVuSans-30" x="127.246094"/>
       <use xlink:href="#DejaVuSans-30" x="190.869141"/>
       <use xlink:href="#DejaVuSans-30" x="254.492188"/>
      </g>
     </g>
    </g>
    <g id="text_15">
     <!-- Profit -->
     <g transform="translate(45.107813 194.839062)rotate(-90)scale(0.1 -0.1)">
      <defs>
       <path id="DejaVuSans-50" d="M 1259 4147 
L 1259 2394 
L 2053 2394 
Q 2494 2394 2734 2622 
Q 2975 2850 2975 3272 
Q 2975 3691 2734 3919 
Q 2494 4147 2053 4147 
L 1259 4147 
z
M 628 4666 
L 2053 4666 
Q 2838 4666 3239 4311 
Q 3641 3956 3641 3272 
Q 3641 2581 3239 2228 
Q 2838 1875 2053 1875 
L 1259 1875 
L 1259 0 
L 628 0 
L 628 4666 
z
" transform="scale(0.015625)"/>
       <path id="DejaVuSans-72" d="M 2631 2963 
Q 2534 3019 2420 3045 
Q 2306 3072 2169 3072 
Q 1681 3072 1420 2755 
Q 1159 2438 1159 1844 
L 1159 0 
L 581 0 
L 581 3500 
L 1159 3500 
L 1159 2956 
Q 1341 3275 1631 3429 
Q 1922 3584 2338 3584 
Q 2397 3584 2469 3576 
Q 2541 3569 2628 3553 
L 2631 2963 
z
" transform="scale(0.015625)"/>
       <path id="DejaVuSans-66" d="M 2375 4863 
L 2375 4384 
L 1825 4384 
Q 1516 4384 1395 4259 
Q 1275 4134 1275 3809 
L 1275 3500 
L 2222 3500 
L 2222 3053 
L 1275 3053 
L 1275 0 
L 697 0 
L 697 3053 
L 147 3053 
L 147 3500 
L 697 3500 
L 697 3744 
Q 697 4328 969 4595 
Q 1241 4863 1831 4863 
L 2375 4863 
z
" transform="scale(0.015625)"/>
       <path id="DejaVuSans-74" d="M 1172 4494 
L 1172 3500 
L 2356 3500 
L 2356 3053 
L 1172 3053 
L 1172 1153 
Q 1172 725 1289 603 
Q 1406 481 1766 481 
L 2356 481 
L 2356 0 
L 1766 0 
Q 1100 0 847 248 
Q 594 497 594 1153 
L 594 3053 
L 172 3053 
L 172 3500 
L 594 3500 
L 594 4494 
L 1172 4494 
z
" transform="scale(0.015625)"/>
      </defs>
      <use xlink:href="#DejaVuSans-50"/>
      <use xlink:href="#DejaVuSans-72" x="58.552734"/>
      <use xlink:href="#DejaVuSans-6f" x="97.416016"/>
      <use xlink:href="#DejaVuSans-66" x="158.597656"/>
      <use xlink:href="#DejaVuSans-69" x="193.802734"/>
      <use xlink:href="#DejaVuSans-74" x="221.585938"/>
     </g>
    </g>
   </g>
   <g id="line2d_27">
    <path d="M 160.389123 361 
L 161.941266 359.901199 
L 162.788132 360.08009 
L 163.634998 359.463103 
L 164.481864 359.67064 
L 169.56306 356.514349 
L 172.950524 354.560749 
L 174.644256 353.802587 
L 176.337988 353.093151 
L 178.03172 352.432469 
L 179.725452 351.885773 
L 180.572317 352.087761 
L 182.266049 351.530492 
L 183.112915 351.347246 
L 183.959781 351.283361 
L 186.500379 351.631347 
L 188.194111 351.259519 
L 189.040977 351.059175 
L 189.887843 350.697881 
L 194.969039 349.410074 
L 196.662771 349.029427 
L 198.356503 348.426336 
L 200.050235 348.063274 
L 200.897101 337.264566 
L 201.743967 336.304278 
L 203.437699 336.122286 
L 204.284565 335.186616 
L 205.131431 334.995995 
L 206.825163 334.968958 
L 210.212627 334.572717 
L 211.059493 334.016087 
L 211.906359 333.921698 
L 216.140689 334.216688 
L 216.987555 333.539935 
L 217.834421 333.022225 
L 220.375019 332.758147 
L 221.221885 332.886807 
L 222.068751 332.675423 
L 224.609349 332.41936 
L 225.456215 332.223728 
L 226.303081 332.261361 
L 227.996813 331.99568 
L 229.690545 331.89213 
L 230.537411 331.908317 
L 232.231143 331.610057 
L 233.078009 331.570012 
L 235.618607 330.729486 
L 236.465473 330.654308 
L 237.312339 330.289234 
L 239.006071 330.100308 
L 239.852937 329.84217 
L 240.699803 329.438728 
L 242.393535 329.113448 
L 244.087267 329.071237 
L 244.934133 328.83808 
L 247.474731 328.598913 
L 248.321597 328.125076 
L 249.168463 328.107011 
L 250.015329 327.616841 
L 251.709061 327.517334 
L 253.402793 327.512774 
L 257.637122 327.194569 
L 258.483988 327.475949 
L 261.024586 327.183658 
L 265.258916 326.635322 
L 266.105782 326.145976 
L 268.64638 325.840949 
L 269.493246 325.611783 
L 272.033844 324.424516 
L 272.88071 324.207379 
L 274.574442 323.977992 
L 275.421308 324.02439 
L 281.34937 323.375902 
L 283.043102 323.626282 
L 283.889968 323.622726 
L 285.5837 323.382382 
L 287.277432 323.299474 
L 288.124298 323.380931 
L 291.511762 323.159264 
L 298.28669 322.797182 
L 299.980422 322.644158 
L 301.674154 322.096346 
L 304.214752 321.946458 
L 305.908484 322.145868 
L 306.75535 321.845971 
L 308.449082 321.762483 
L 315.22401 321.416666 
L 316.917742 321.270023 
L 325.386402 321.041172 
L 328.773866 321.063151 
L 329.620732 320.965381 
L 330.467598 321.160664 
L 342.323721 320.825187 
L 343.170587 320.856317 
L 344.017453 320.618234 
L 347.404917 320.734042 
L 349.098649 320.704818 
L 350.792381 320.73283 
L 355.873577 320.497664 
L 366.882835 320.065777 
L 367.729701 319.752569 
L 379.585825 319.153358 
L 381.279557 319.111689 
L 384.667021 318.950288 
L 389.748217 318.799603 
L 391.441949 318.491604 
L 395.676279 318.553315 
L 400.757475 318.357553 
L 407.532402 318.52844 
L 409.226134 318.460374 
L 413.460464 318.47167 
L 418.54166 318.219546 
L 419.388526 318.189184 
L 420.235392 318.417728 
L 423.622856 318.362303 
L 426.163454 318.294752 
L 436.325846 318.04059 
L 438.019578 318.074532 
L 438.866444 318.980624 
L 443.100774 318.987285 
L 445.641372 318.885412 
L 447.335104 318.856465 
L 449.875702 318.993196 
L 451.569434 319.035561 
L 454.956898 319.150318 
L 458.344362 319.125892 
L 460.88496 319.139649 
L 462.578692 319.153318 
L 464.272424 319.146143 
L 467.659888 319.196533 
L 473.58795 319.218234 
L 474.434816 319.124381 
L 476.128548 319.130235 
L 482.05661 318.890012 
L 486.290939 319.020466 
L 504.921991 318.371908 
L 505.768857 318.166639 
L 510.003187 318.197149 
L 517.624981 318.180549 
L 519.318713 318.300323 
L 521.859311 318.108232 
L 523.553043 318.085924 
L 524.399909 317.164212 
L 526.940507 317.104747 
L 528.634239 317.148515 
L 531.174837 317.206998 
L 533.715435 317.256088 
L 537.949765 317.046621 
L 541.337229 316.956072 
L 549.805889 316.728613 
L 550.652755 316.809111 
L 554.040219 316.65136 
L 561.662012 316.509449 
L 565.049476 316.430485 
L 566.743208 316.44704 
L 576.058734 316.306057 
L 576.9056 316.389287 
L 579.446198 316.288391 
L 580.293064 316.365052 
L 581.986796 316.341007 
L 583.680528 316.404151 
L 587.914858 316.470921 
L 589.60859 316.489967 
L 598.07725 316.143195 
L 606.54591 315.906202 
L 614.167704 315.915277 
L 620.942632 315.594993 
L 622.636364 315.53383 
L 622.636364 315.53383 
" clip-path="url(#pd7b7fdd58a)" style="fill: none; stroke: #1f77b4; stroke-width: 1.5; stroke-linecap: square"/>
   </g>
   <g id="line2d_28">
    <path d="M 133.415424 361 
L 134.841554 352.048261 
L 136.535286 342.576375 
L 139.075884 330.10319 
L 139.92275 325.714264 
L 140.769616 322.028404 
L 141.616482 317.183079 
L 142.463348 313.713106 
L 145.850812 297.384629 
L 146.697678 294.256856 
L 148.39141 287.157074 
L 156.013204 264.160417 
L 158.553802 258.972092 
L 160.247534 254.674757 
L 161.941266 250.570205 
L 163.634998 246.918892 
L 164.481864 245.743991 
L 166.175596 242.286332 
L 171.256792 233.270568 
L 172.950524 230.667963 
L 173.79739 230.027186 
L 174.644256 228.668639 
L 176.337988 226.780072 
L 178.03172 224.188829 
L 179.725452 221.834378 
L 180.572317 221.169945 
L 181.419183 220.084656 
L 182.266049 219.784333 
L 183.112915 218.720707 
L 184.806647 217.519868 
L 185.653513 216.469451 
L 187.347245 215.262135 
L 190.734709 211.702373 
L 191.581575 212.160147 
L 192.428441 211.837401 
L 194.122173 210.208723 
L 197.509637 206.706661 
L 198.356503 205.992034 
L 200.050235 204.265839 
L 200.897101 194.920128 
L 201.743967 191.108147 
L 202.590833 189.086212 
L 203.437699 186.671183 
L 205.131431 181.060984 
L 205.978297 177.627956 
L 206.825163 174.921562 
L 209.365761 168.14554 
L 210.212627 166.272397 
L 212.753225 161.959364 
L 213.600091 158.693147 
L 214.446957 157.285427 
L 215.293823 158.188168 
L 216.140689 156.464309 
L 216.987555 154.437053 
L 217.834421 153.349371 
L 218.681287 152.639873 
L 219.528153 151.742939 
L 220.375019 151.129043 
L 221.221885 152.249421 
L 222.915617 149.921934 
L 223.762483 149.053854 
L 224.609349 147.936627 
L 225.456215 147.149211 
L 226.303081 146.186474 
L 227.149947 145.618801 
L 227.996813 144.707791 
L 228.843679 144.109424 
L 229.690545 145.976031 
L 231.384277 145.189976 
L 232.231143 144.459227 
L 233.924875 143.630211 
L 235.618607 142.370535 
L 236.465473 141.846527 
L 237.312339 141.014063 
L 239.852937 139.626986 
L 241.546669 138.970414 
L 243.240401 137.556053 
L 244.087267 137.090967 
L 248.321597 135.897744 
L 249.168463 135.418357 
L 250.015329 134.753849 
L 251.709061 134.078512 
L 252.555927 133.674241 
L 253.402793 133.442814 
L 254.249659 132.984651 
L 258.483988 131.357992 
L 259.330854 130.651134 
L 260.17772 130.420403 
L 261.871452 129.45049 
L 264.41205 128.80234 
L 265.258916 128.499901 
L 266.105782 127.934033 
L 266.952648 127.726172 
L 267.799514 126.922115 
L 268.64638 126.694077 
L 270.340112 125.398199 
L 271.186978 125.229891 
L 272.88071 124.169279 
L 274.574442 123.694415 
L 275.421308 123.568838 
L 276.268174 123.255436 
L 277.11504 121.815616 
L 277.961906 121.125276 
L 279.655638 120.685126 
L 283.043102 119.951649 
L 284.736834 119.844446 
L 286.430566 119.518939 
L 288.971164 119.406545 
L 291.511762 119.201565 
L 294.05236 119.177145 
L 296.592958 118.965013 
L 297.439824 119.008118 
L 299.133556 118.754019 
L 299.980422 118.721626 
L 300.827288 116.399742 
L 302.52102 116.300257 
L 303.367886 116.128175 
L 304.214752 115.596107 
L 305.061618 115.2052 
L 305.908484 114.567393 
L 306.75535 112.266471 
L 308.449082 112.068957 
L 309.295948 111.859178 
L 312.683412 111.597832 
L 314.377144 111.634448 
L 315.22401 109.206956 
L 316.917742 108.957116 
L 318.611474 109.122944 
L 322.845804 108.532969 
L 324.539536 108.735035 
L 325.386402 108.615397 
L 326.233268 108.610778 
L 327.080134 108.770361 
L 330.467598 108.556163 
L 332.161329 108.140199 
L 343.170587 108.265788 
L 351.639247 107.688565 
L 352.486113 107.880079 
L 354.179845 107.785443 
L 355.873577 107.854598 
L 360.954773 107.610991 
L 361.801639 107.45325 
L 363.495371 107.345639 
L 364.342237 107.149696 
L 366.035969 107.202586 
L 368.576567 107.233471 
L 369.423433 106.888427 
L 373.657763 106.757914 
L 378.738959 106.528457 
L 382.973289 106.381911 
L 383.820155 106.315885 
L 384.667021 106.46857 
L 386.360753 106.390445 
L 388.901351 106.6366 
L 390.595083 106.524795 
L 392.288815 106.437089 
L 393.982547 106.374331 
L 399.910609 105.963519 
L 400.757475 105.970916 
L 401.604341 105.859803 
L 402.451207 105.879647 
L 404.144939 105.696285 
L 408.379268 105.753842 
L 409.226134 105.561734 
L 416.847928 105.290271 
L 417.694794 105.399421 
L 425.316588 104.915394 
L 431.24465 104.685713 
L 436.325846 104.79756 
L 437.172712 104.738122 
L 438.019578 104.441668 
L 443.94764 104.278392 
L 448.18197 104.332419 
L 449.028836 104.27616 
L 449.875702 104.452747 
L 451.569434 104.274753 
L 453.263166 104.101187 
L 456.65063 104.292152 
L 458.344362 104.284686 
L 460.038094 104.173917 
L 461.731826 104.191076 
L 466.813022 103.935223 
L 468.506754 103.90886 
L 471.894218 103.63558 
L 472.741084 103.455223 
L 478.669146 103.439904 
L 482.05661 103.663427 
L 483.750341 103.625362 
L 484.597207 103.50222 
L 497.300197 103.424368 
L 498.993929 103.178798 
L 502.381393 103.131935 
L 504.921991 103.014839 
L 506.615723 103.114023 
L 507.462589 103.06425 
L 509.156321 103.118717 
L 515.084383 102.995668 
L 515.931249 103.090456 
L 519.318713 103.062854 
L 521.012445 103.184697 
L 523.553043 103.096519 
L 531.174837 102.901543 
L 533.715435 102.818894 
L 534.562301 102.812658 
L 535.409167 102.65137 
L 537.102899 102.671036 
L 541.337229 102.537481 
L 543.030961 102.467317 
L 546.418425 102.465749 
L 549.805889 102.468968 
L 550.652755 102.403242 
L 552.346487 102.462581 
L 553.193353 102.29801 
L 555.733951 102.43356 
L 558.274548 103.015225 
L 562.508878 103.299579 
L 565.896342 103.161962 
L 566.743208 103.319859 
L 568.43694 103.454239 
L 572.67127 103.531692 
L 574.365002 103.445075 
L 576.058734 103.472003 
L 578.599332 103.532008 
L 580.293064 103.501348 
L 587.914858 103.99684 
L 603.158446 103.561093 
L 604.852178 103.363107 
L 606.54591 103.237924 
L 609.933374 103.133317 
L 615.01457 102.76434 
L 615.861436 102.637644 
L 617.555168 102.617497 
L 622.636364 102.387434 
L 622.636364 102.387434 
" clip-path="url(#pd7b7fdd58a)" style="fill: none; stroke: #ff7f0e; stroke-width: 1.5; stroke-linecap: square"/>
   </g>
   <g id="line2d_29">
    <path d="M 148.196669 361 
L 150.085142 356.519443 
L 154.319472 347.292952 
L 157.706936 340.229391 
L 159.400668 336.235203 
L 161.941266 328.918928 
L 167.022462 314.304613 
L 169.56306 307.916011 
L 177.184854 288.294906 
L 179.725452 282.863474 
L 181.419183 279.918329 
L 182.266049 278.783625 
L 183.112915 277.349052 
L 183.959781 276.205582 
L 186.500379 272.412938 
L 189.040977 269.259722 
L 190.734709 267.644953 
L 192.428441 266.368093 
L 193.275307 265.574914 
L 194.122173 264.967975 
L 197.509637 261.186682 
L 200.050235 258.074468 
L 201.743967 237.765229 
L 202.590833 235.007945 
L 205.978297 226.693663 
L 207.672029 222.019617 
L 213.600091 206.922401 
L 216.140689 200.279947 
L 217.834421 195.934797 
L 220.375019 189.521548 
L 223.762483 181.874186 
L 226.303081 176.600847 
L 227.996813 173.054 
L 229.690545 169.484141 
L 231.384277 166.168899 
L 234.771741 159.016643 
L 239.006071 150.553034 
L 242.393535 144.188935 
L 244.934133 140.311692 
L 246.627865 138.335997 
L 248.321597 136.716149 
L 250.015329 135.362939 
L 250.862195 134.605504 
L 252.555927 133.384502 
L 255.94339 130.558912 
L 257.637122 129.552443 
L 260.17772 128.371678 
L 261.871452 127.755696 
L 266.105782 125.408889 
L 266.952648 124.743815 
L 267.799514 123.899745 
L 268.64638 123.309468 
L 269.493246 122.485334 
L 272.033844 120.521539 
L 274.574442 118.288984 
L 277.11504 115.519353 
L 279.655638 112.37324 
L 282.196236 110.160792 
L 284.736834 108.534848 
L 286.430566 107.516971 
L 287.277432 107.012395 
L 288.971164 106.468913 
L 289.81803 106.00663 
L 294.05236 105.115128 
L 294.899226 105.072753 
L 296.592958 104.695327 
L 299.980422 104.441009 
L 305.908484 103.812906 
L 306.75535 103.644681 
L 312.683412 103.540832 
L 314.377144 103.641582 
L 315.22401 103.63552 
L 316.070876 103.436027 
L 318.611474 103.526266 
L 319.45834 103.422715 
L 321.152072 103.646475 
L 327.080134 103.495753 
L 328.773866 103.576662 
L 331.314463 103.644211 
L 333.008195 103.719133 
L 336.395659 103.605056 
L 337.242525 103.387609 
L 338.936257 103.494975 
L 340.629989 103.240135 
L 343.170587 103.198657 
L 346.558051 102.981718 
L 347.404917 102.909221 
L 348.251783 103.011716 
L 353.332979 102.82253 
L 357.567309 103.053474 
L 360.954773 102.942624 
L 363.495371 102.851634 
L 366.882835 102.838456 
L 367.729701 102.955947 
L 368.576567 102.835673 
L 371.117165 102.906094 
L 372.810897 102.812332 
L 376.198361 102.840796 
L 377.892093 103.007511 
L 378.738959 102.899245 
L 379.585825 102.904815 
L 380.432691 102.760304 
L 382.126423 102.853796 
L 383.820155 102.692962 
L 391.441949 102.325344 
L 392.288815 102.32059 
L 394.829413 101.954606 
L 402.451207 101.653385 
L 404.144939 101.505142 
L 409.226134 101.630025 
L 410.073 101.574018 
L 412.613598 101.698126 
L 415.154196 101.640012 
L 419.388526 101.090505 
L 421.082258 101.099068 
L 423.622856 100.860713 
L 425.316588 100.893752 
L 427.01032 101.037496 
L 429.550918 101.070386 
L 430.397784 101.232057 
L 432.091516 101.238574 
L 440.560176 100.890006 
L 448.18197 100.013196 
L 449.875702 100.133147 
L 460.88496 99.696629 
L 463.425558 99.398501 
L 464.272424 99.425432 
L 465.11929 99.3064 
L 465.966156 99.344761 
L 467.659888 99.148194 
L 469.35362 99.102584 
L 470.200486 98.961828 
L 471.894218 98.904473 
L 473.58795 98.958585 
L 483.750341 99.185405 
L 487.137805 99.071548 
L 489.678403 99.137147 
L 494.759599 98.710402 
L 495.606465 98.744347 
L 502.381393 98.158742 
L 503.228259 98.093532 
L 504.921991 98.196998 
L 506.615723 98.082802 
L 508.309455 98.07869 
L 510.850053 98.208373 
L 520.165579 97.897329 
L 522.706177 98.14752 
L 524.399909 98.03033 
L 525.246775 97.985736 
L 526.093641 98.084625 
L 526.940507 97.972434 
L 528.634239 98.016485 
L 529.481105 98.183923 
L 532.021703 98.215479 
L 532.868569 98.341028 
L 533.715435 98.349601 
L 534.562301 98.162193 
L 535.409167 98.106326 
L 537.102899 98.316452 
L 543.030961 98.3225 
L 543.877827 98.337576 
L 544.724693 98.223855 
L 548.112157 98.406189 
L 548.959023 98.540307 
L 550.652755 98.585371 
L 552.346487 98.849067 
L 554.040219 98.856962 
L 558.274548 98.943526 
L 560.815146 98.835991 
L 561.662012 98.85539 
L 563.355744 98.722927 
L 565.049476 98.841551 
L 565.896342 98.703429 
L 566.743208 98.723307 
L 567.590074 98.611535 
L 569.283806 98.652557 
L 570.977538 98.522283 
L 572.67127 98.549462 
L 573.518136 98.508246 
L 574.365002 98.658154 
L 582.833662 98.773086 
L 586.221126 99.012432 
L 587.067992 98.933321 
L 589.60859 99.014717 
L 591.302322 98.92531 
L 592.996054 99.033898 
L 597.230384 99.020444 
L 598.924116 99.082382 
L 601.464714 99.049681 
L 602.31158 99.044711 
L 603.158446 99.19226 
L 604.005312 99.122715 
L 605.699044 99.217536 
L 606.54591 99.095172 
L 607.392776 99.137343 
L 609.086508 98.962003 
L 611.627106 99.118861 
L 612.473972 99.236767 
L 615.861436 99.323393 
L 616.708302 99.445938 
L 618.402034 99.458676 
L 619.2489 99.594192 
L 620.942632 99.573407 
L 622.636364 99.433622 
L 622.636364 99.433622 
" clip-path="url(#pd7b7fdd58a)" style="fill: none; stroke: #2ca02c; stroke-width: 1.5; stroke-linecap: square"/>
   </g>
   <g id="line2d_30">
    <path d="M 154.372735 361 
L 159.400668 349.212166 
L 162.788132 342.672939 
L 165.32873 338.197626 
L 167.869328 333.261026 
L 170.409926 329.306803 
L 176.337988 321.285461 
L 178.878586 316.822983 
L 183.112915 308.439551 
L 184.806647 305.253476 
L 188.194111 299.236853 
L 194.122173 289.665045 
L 200.050235 281.266043 
L 200.897101 267.779063 
L 201.743967 261.636399 
L 202.590833 259.190644 
L 203.437699 257.247503 
L 204.284565 254.907664 
L 205.131431 252.983067 
L 205.978297 250.483733 
L 206.825163 248.806026 
L 207.672029 245.369646 
L 217.834421 221.413832 
L 218.681287 219.038686 
L 220.375019 215.276739 
L 227.149947 203.053406 
L 230.537411 198.806513 
L 233.924875 193.111326 
L 235.618607 190.725517 
L 238.159205 187.642047 
L 239.006071 186.776504 
L 250.862195 172.241374 
L 253.402793 169.522663 
L 258.483988 163.615823 
L 259.330854 162.352655 
L 261.024586 160.305027 
L 262.718318 158.80157 
L 263.565184 158.046704 
L 265.258916 156.941963 
L 267.799514 155.825452 
L 269.493246 155.178001 
L 270.340112 154.7221 
L 272.033844 154.137518 
L 273.727576 153.519738 
L 276.268174 152.541687 
L 279.655638 151.582106 
L 282.196236 150.399018 
L 285.5837 149.312703 
L 286.430566 148.912535 
L 287.277432 148.707034 
L 288.971164 148.071516 
L 292.358628 147.027461 
L 294.05236 146.469193 
L 295.746092 145.854896 
L 296.592958 145.382722 
L 299.133556 144.503664 
L 300.827288 143.803692 
L 303.367886 142.911171 
L 304.214752 142.757964 
L 305.908484 142.122029 
L 308.449082 141.656018 
L 309.295948 141.402179 
L 310.142814 141.332339 
L 311.836546 140.799258 
L 313.530278 140.437306 
L 315.22401 139.827251 
L 319.45834 138.348575 
L 320.305206 137.962846 
L 321.998938 137.41907 
L 323.69267 136.757476 
L 324.539536 136.453405 
L 327.080134 135.196645 
L 332.161329 133.381747 
L 333.855061 132.951041 
L 334.701927 132.542836 
L 338.089391 131.363054 
L 338.936257 131.285879 
L 339.783123 131.051277 
L 343.170587 129.669366 
L 344.017453 129.345218 
L 344.864319 129.247068 
L 345.711185 128.886581 
L 353.332979 126.880731 
L 354.179845 126.617676 
L 355.873577 126.298041 
L 357.567309 125.775076 
L 361.801639 124.63752 
L 364.342237 123.812445 
L 366.035969 123.268215 
L 367.729701 122.958059 
L 370.270299 122.302287 
L 373.657763 121.66 
L 375.351495 121.448305 
L 377.045227 121.169822 
L 377.892093 121.061889 
L 379.585825 120.644295 
L 397.370011 117.954739 
L 400.757475 117.724053 
L 402.451207 117.445042 
L 406.685537 117.281436 
L 411.766732 116.782917 
L 423.622856 116.201459 
L 425.316588 115.927125 
L 427.01032 115.900522 
L 428.704052 115.984442 
L 439.71331 115.442629 
L 443.100774 115.126575 
L 446.488238 115.013817 
L 448.18197 114.809316 
L 449.875702 114.743206 
L 450.722568 114.601805 
L 451.569434 114.687819 
L 459.191228 114.322978 
L 460.038094 114.17363 
L 461.731826 114.003441 
L 472.741084 113.425471 
L 477.82228 113.384157 
L 482.903475 113.176124 
L 485.444073 112.885427 
L 488.831537 112.945127 
L 490.525269 112.857597 
L 494.759599 112.602253 
L 498.147063 112.720119 
L 502.381393 112.445523 
L 503.228259 112.558044 
L 504.921991 112.345172 
L 506.615723 112.32597 
L 507.462589 112.249064 
L 509.156321 112.358684 
L 513.390651 112.279417 
L 515.084383 112.453021 
L 516.778115 112.327467 
L 519.318713 112.241927 
L 521.012445 112.428631 
L 522.706177 112.407607 
L 524.399909 112.215222 
L 526.093641 112.337249 
L 527.787373 112.449687 
L 531.174837 112.29963 
L 532.021703 112.181918 
L 536.256033 112.373691 
L 546.418425 112.113482 
L 548.959023 112.205508 
L 549.805889 112.095664 
L 555.733951 112.362055 
L 560.815146 112.326226 
L 561.662012 112.425642 
L 566.743208 112.318813 
L 569.283806 112.395184 
L 572.67127 112.395967 
L 573.518136 112.312187 
L 576.058734 112.509711 
L 580.293064 112.394054 
L 581.986796 112.342564 
L 584.527394 112.24096 
L 585.37426 112.098499 
L 587.914858 112.054431 
L 589.60859 111.946359 
L 590.455456 112.053564 
L 592.149188 111.916455 
L 596.383518 112.101842 
L 603.158446 111.775202 
L 604.005312 111.876523 
L 608.239642 111.455141 
L 609.086508 111.60872 
L 615.01457 111.553484 
L 620.095766 111.539793 
L 621.789498 111.432501 
L 622.636364 111.45036 
L 622.636364 111.45036 
" clip-path="url(#pd7b7fdd58a)" style="fill: none; stroke: #d62728; stroke-width: 1.5; stroke-linecap: square"/>
   </g>
   <g id="line2d_31">
    <path d="M 160.670334 361 
L 164.481864 351.92032 
L 167.022462 346.27575 
L 171.256792 336.590078 
L 174.644256 329.580628 
L 175.491122 327.708661 
L 177.184854 324.498402 
L 179.725452 319.514067 
L 181.419183 316.354321 
L 189.040977 303.761489 
L 191.581575 300.077089 
L 197.509637 292.159932 
L 200.050235 289.109259 
L 201.743967 264.916479 
L 202.590833 258.395636 
L 203.437699 253.800592 
L 204.284565 250.557832 
L 205.131431 248.159585 
L 206.825163 242.564113 
L 211.906359 231.788892 
L 213.600091 228.933872 
L 214.446957 226.637262 
L 216.987555 222.881255 
L 221.221885 215.255798 
L 223.762483 211.407128 
L 227.996813 205.416256 
L 231.384277 200.24967 
L 233.924875 196.841931 
L 235.618607 194.529516 
L 246.627865 179.51897 
L 248.321597 177.508363 
L 252.555927 172.853987 
L 259.330854 166.64 
L 261.871452 164.582248 
L 264.41205 162.758294 
L 273.727576 155.817952 
L 277.11504 153.59159 
L 277.961906 152.924824 
L 279.655638 151.922292 
L 280.502504 151.274572 
L 281.34937 150.865961 
L 282.196236 150.112004 
L 283.043102 149.651987 
L 284.736834 148.457476 
L 290.664896 144.832195 
L 291.511762 144.479628 
L 293.205494 143.54974 
L 294.899226 142.919497 
L 297.439824 141.884371 
L 299.980422 140.9844 
L 302.52102 140.244293 
L 305.061618 139.641926 
L 310.142814 138.271409 
L 312.683412 137.634652 
L 313.530278 137.301671 
L 314.377144 137.100956 
L 316.070876 136.464618 
L 318.611474 135.77411 
L 320.305206 135.142932 
L 324.539536 134.20703 
L 327.080134 133.548773 
L 328.773866 133.427933 
L 333.008195 132.957423 
L 339.783123 132.028372 
L 341.476855 131.877445 
L 343.170587 131.912132 
L 344.864319 131.924349 
L 348.251783 131.500714 
L 351.639247 131.383835 
L 353.332979 131.155721 
L 355.026711 131.200844 
L 366.035969 130.745117 
L 366.882835 130.645104 
L 368.576567 130.768829 
L 385.513887 130.595423 
L 388.901351 130.279966 
L 389.748217 130.367413 
L 393.982547 130.10649 
L 395.676279 129.957987 
L 398.216877 129.7774 
L 399.910609 129.826629 
L 403.298073 129.71606 
L 404.144939 129.50616 
L 406.685537 129.458395 
L 410.073 129.232163 
L 412.613598 129.146466 
L 413.460464 129.039778 
L 415.154196 129.02844 
L 422.77599 128.71691 
L 425.316588 128.366466 
L 427.01032 128.297138 
L 428.704052 128.284898 
L 431.24465 128.032378 
L 440.560176 127.826999 
L 441.407042 127.946595 
L 443.100774 127.842252 
L 444.794506 127.972441 
L 448.18197 127.811042 
L 449.875702 127.647291 
L 451.569434 127.837696 
L 463.425558 127.632632 
L 464.272424 127.492911 
L 465.11929 127.59147 
L 465.966156 127.503733 
L 467.659888 127.68377 
L 470.200486 127.4125 
L 472.741084 127.572805 
L 473.58795 127.475321 
L 474.434816 127.606393 
L 478.669146 127.272109 
L 480.362878 127.337923 
L 482.05661 127.281377 
L 482.903475 127.360802 
L 484.597207 127.217506 
L 485.444073 127.202692 
L 486.290939 127.314355 
L 488.831537 127.337497 
L 490.525269 127.41702 
L 492.219001 127.410381 
L 497.300197 127.277007 
L 498.993929 127.309302 
L 499.840795 127.190633 
L 509.156321 127.419482 
L 510.003187 127.533862 
L 511.696919 127.444487 
L 512.543785 127.517104 
L 514.237517 127.399382 
L 516.778115 127.676931 
L 521.012445 127.621274 
L 521.859311 127.523733 
L 523.553043 127.773291 
L 525.246775 127.751158 
L 526.093641 127.83047 
L 527.787373 127.702364 
L 528.634239 127.78415 
L 529.481105 127.661143 
L 532.868569 127.910157 
L 533.715435 127.796222 
L 534.562301 127.856154 
L 540.490363 127.586648 
L 541.337229 127.549953 
L 542.184095 127.401023 
L 545.571559 127.351838 
L 549.805889 127.894904 
L 550.652755 127.701343 
L 551.499621 127.728431 
L 554.040219 127.550066 
L 555.733951 127.865565 
L 556.580817 127.763289 
L 557.427683 127.803339 
L 558.274548 127.661231 
L 559.121414 127.75018 
L 559.96828 127.566937 
L 565.896342 127.790881 
L 566.743208 127.926448 
L 568.43694 127.761263 
L 570.130672 127.938638 
L 571.824404 127.809695 
L 572.67127 127.965375 
L 578.599332 128.10639 
L 580.293064 128.394345 
L 581.13993 128.362843 
L 582.833662 128.497042 
L 586.221126 128.52428 
L 587.914858 128.354912 
L 589.60859 128.587122 
L 591.302322 128.586557 
L 594.689786 128.505985 
L 595.536652 128.529488 
L 597.230384 128.71693 
L 598.07725 128.634413 
L 599.770982 128.756694 
L 602.31158 128.547914 
L 604.852178 128.657604 
L 607.392776 128.757572 
L 608.239642 128.635212 
L 612.473972 128.721219 
L 613.320838 128.812075 
L 620.095766 128.491023 
L 622.636364 128.546495 
L 622.636364 128.546495 
" clip-path="url(#pd7b7fdd58a)" style="fill: none; stroke: #9467bd; stroke-width: 1.5; stroke-linecap: square"/>
   </g>
   <g id="line2d_32">
    <path d="M 190.533681 361 
L 191.581575 359.42827 
L 196.662771 352.488986 
L 198.356503 350.327813 
L 200.050235 348.129278 
L 201.743967 325.639762 
L 203.437699 319.581376 
L 205.978297 312.916576 
L 206.825163 307.748509 
L 207.672029 304.871495 
L 210.212627 298.393134 
L 211.906359 293.109238 
L 212.753225 289.897607 
L 214.446957 285.302794 
L 215.293823 283.783732 
L 216.987555 281.213306 
L 220.375019 275.201067 
L 222.068751 271.959606 
L 223.762483 268.909263 
L 226.303081 264.15409 
L 228.843679 259.42574 
L 233.078009 250.812813 
L 234.771741 247.391511 
L 239.006071 238.582335 
L 241.546669 233.612027 
L 244.087267 228.876015 
L 248.321597 221.069469 
L 250.015329 218.309694 
L 251.709061 215.962812 
L 252.555927 214.467514 
L 258.483988 205.654929 
L 261.871452 201.24167 
L 263.565184 199.214453 
L 265.258916 197.14431 
L 266.105782 195.997472 
L 267.799514 194.322679 
L 269.493246 192.723525 
L 272.033844 190.309826 
L 273.727576 188.797892 
L 280.502504 182.489451 
L 282.196236 180.994436 
L 283.043102 180.076484 
L 284.736834 178.718686 
L 286.430566 177.340856 
L 291.511762 173.530293 
L 292.358628 173.040489 
L 294.05236 171.82373 
L 296.592958 170.358036 
L 300.827288 168.490135 
L 304.214752 167.800437 
L 307.602216 167.779174 
L 309.295948 167.794123 
L 311.836546 167.996429 
L 312.683412 168.188991 
L 313.530278 168.174702 
L 315.22401 168.467089 
L 316.070876 168.680984 
L 316.917742 168.633727 
L 319.45834 168.946654 
L 327.927 169.095465 
L 328.773866 168.894713 
L 330.467598 168.826935 
L 331.314463 168.783874 
L 332.161329 168.597495 
L 333.855061 168.588962 
L 336.395659 168.453035 
L 337.242525 168.183897 
L 343.170587 168.08005 
L 345.711185 168.111493 
L 347.404917 167.824347 
L 349.945515 167.636515 
L 352.486113 167.454456 
L 355.026711 166.999445 
L 355.873577 166.99068 
L 356.720443 166.857009 
L 362.648505 166.985752 
L 364.342237 166.751241 
L 368.576567 166.707835 
L 370.270299 166.490305 
L 371.117165 166.531348 
L 371.964031 166.459572 
L 372.810897 166.237237 
L 374.504629 166.174244 
L 376.198361 165.991208 
L 380.432691 165.672165 
L 381.279557 165.778996 
L 383.820155 165.756871 
L 384.667021 165.837867 
L 389.748217 165.199633 
L 392.288815 164.720024 
L 393.982547 164.680746 
L 397.370011 164.908057 
L 398.216877 164.745973 
L 402.451207 164.700698 
L 405.838671 164.250814 
L 406.685537 164.277816 
L 410.073 163.98519 
L 411.766732 163.953405 
L 412.613598 164.121127 
L 415.154196 164.296886 
L 416.847928 164.46078 
L 422.77599 164.627811 
L 423.622856 164.785832 
L 427.01032 164.666068 
L 427.857186 164.5846 
L 428.704052 164.654593 
L 430.397784 164.385252 
L 431.24465 164.286708 
L 432.938382 164.458337 
L 433.785248 164.385731 
L 434.632114 164.571885 
L 437.172712 164.477962 
L 438.866444 164.484985 
L 440.560176 164.477482 
L 441.407042 164.294974 
L 442.253908 164.323042 
L 443.94764 163.966316 
L 446.488238 163.69309 
L 448.18197 163.705634 
L 449.028836 163.778666 
L 450.722568 163.650291 
L 453.263166 163.808673 
L 454.110032 163.656137 
L 455.803764 163.826977 
L 460.88496 164.247146 
L 463.425558 163.994769 
L 465.966156 164.243753 
L 466.813022 164.035939 
L 471.047352 163.818708 
L 471.894218 163.816517 
L 474.434816 164.24072 
L 479.516012 164.692909 
L 482.903475 164.539877 
L 483.750341 164.674103 
L 484.597207 164.606847 
L 485.444073 164.73911 
L 487.984671 164.568998 
L 497.300197 164.902778 
L 498.993929 164.68714 
L 499.840795 164.728161 
L 502.381393 164.154967 
L 504.075125 164.207955 
L 506.615723 164.055128 
L 507.462589 163.910215 
L 511.696919 164.084374 
L 513.390651 164.384104 
L 514.237517 164.271586 
L 516.778115 164.40489 
L 518.471847 164.458377 
L 519.318713 164.593249 
L 521.012445 164.491182 
L 528.634239 164.648424 
L 531.174837 164.552064 
L 532.868569 164.758717 
L 537.102899 164.656332 
L 538.796631 164.407736 
L 539.643497 164.480397 
L 543.877827 164.011773 
L 548.112157 163.878372 
L 549.805889 164.069732 
L 554.887085 163.821532 
L 556.580817 163.783728 
L 560.815146 163.51026 
L 561.662012 163.515561 
L 562.508878 163.639068 
L 564.20261 163.61069 
L 567.590074 163.604655 
L 569.283806 163.346353 
L 570.130672 163.47473 
L 571.824404 163.344963 
L 573.518136 163.397188 
L 577.752466 163.354342 
L 578.599332 163.454497 
L 583.680528 163.229221 
L 585.37426 163.181094 
L 587.914858 163.356124 
L 589.60859 163.27774 
L 595.536652 163.464456 
L 596.383518 163.240635 
L 597.230384 163.181013 
L 598.924116 162.839403 
L 601.464714 162.85173 
L 603.158446 162.792435 
L 604.005312 162.642145 
L 609.086508 162.524921 
L 609.933374 162.386196 
L 610.78024 162.473719 
L 612.473972 162.273115 
L 614.167704 162.3967 
L 620.095766 162.056796 
L 622.636364 162.278628 
L 622.636364 162.278628 
" clip-path="url(#pd7b7fdd58a)" style="fill: none; stroke: #8c564b; stroke-width: 1.5; stroke-linecap: square"/>
   </g>
   <g id="line2d_33">
    <path d="M 183.871667 361 
L 184.806647 360.329366 
L 190.734709 355.839314 
L 193.275307 354.217798 
L 196.662771 352.37013 
L 200.050235 350.436002 
L 201.743967 328.398118 
L 202.590833 324.398119 
L 203.437699 322.886929 
L 204.284565 321.031695 
L 205.131431 319.793419 
L 206.825163 319.331235 
L 208.518895 318.671845 
L 210.212627 317.774567 
L 211.059493 317.321077 
L 214.446957 315.958615 
L 215.293823 315.612852 
L 216.987555 314.733704 
L 219.528153 313.513491 
L 222.068751 312.406682 
L 225.456215 311.145657 
L 228.843679 309.899864 
L 232.231143 308.703444 
L 233.924875 308.09263 
L 235.618607 307.403671 
L 243.240401 305.592079 
L 244.934133 305.211373 
L 250.015329 303.708719 
L 250.862195 303.542214 
L 253.402793 302.67431 
L 256.790256 301.894985 
L 258.483988 301.552189 
L 260.17772 301.201705 
L 261.871452 300.990994 
L 265.258916 300.655925 
L 266.952648 300.249991 
L 271.186978 299.592217 
L 273.727576 299.302999 
L 275.421308 299.064664 
L 277.961906 298.538053 
L 279.655638 298.164904 
L 280.502504 298.020025 
L 282.196236 297.54031 
L 295.746092 294.71448 
L 299.133556 293.868291 
L 308.449082 291.695058 
L 309.295948 290.866314 
L 310.98968 287.251728 
L 317.764608 272.088385 
L 321.998938 262.136992 
L 325.386402 254.243502 
L 334.701927 232.305583 
L 344.864319 208.744686 
L 346.558051 204.787148 
L 350.792381 194.874167 
L 352.486113 191.115043 
L 355.026711 185.281386 
L 361.801639 170.409154 
L 379.585825 131.936193 
L 393.982547 102.419279 
L 394.829413 101.284216 
L 395.676279 101.10631 
L 397.370011 101.150542 
L 398.216877 101.23798 
L 399.910609 101.233831 
L 401.604341 101.227554 
L 404.144939 101.462115 
L 404.991805 101.452853 
L 411.766732 102.502626 
L 413.460464 102.90625 
L 414.30733 103.007769 
L 416.847928 103.715654 
L 419.388526 104.209377 
L 425.316588 105.324835 
L 429.550918 105.901982 
L 430.397784 106.044059 
L 431.24465 106.347487 
L 436.325846 106.854015 
L 437.172712 106.814121 
L 440.560176 107.118581 
L 442.253908 107.142898 
L 444.794506 107.258937 
L 446.488238 107.470522 
L 447.335104 107.458156 
L 448.18197 107.643202 
L 449.875702 107.597856 
L 454.956898 107.912841 
L 456.65063 107.984528 
L 457.497496 108.067819 
L 459.191228 108.087755 
L 461.731826 108.279127 
L 463.425558 108.389498 
L 464.272424 108.432642 
L 469.35362 108.051567 
L 470.200486 108.132637 
L 473.58795 107.927759 
L 476.128548 108.146828 
L 479.516012 107.951314 
L 480.362878 107.94701 
L 482.05661 107.703802 
L 486.290939 107.353607 
L 489.678403 107.478943 
L 491.372135 107.619128 
L 493.912733 107.629516 
L 497.300197 107.764703 
L 498.993929 107.69927 
L 501.534527 107.583923 
L 502.381393 107.335014 
L 504.075125 107.289763 
L 507.462589 106.944845 
L 512.543785 106.740427 
L 514.237517 106.825605 
L 517.624981 106.745681 
L 521.012445 106.621327 
L 523.553043 106.920909 
L 524.399909 106.808069 
L 526.093641 106.886377 
L 528.634239 106.972269 
L 536.256033 106.568284 
L 537.949765 106.557895 
L 540.490363 106.463639 
L 542.184095 106.522671 
L 543.030961 106.423258 
L 543.877827 106.502689 
L 544.724693 106.410823 
L 546.418425 106.381251 
L 551.499621 106.313203 
L 553.193353 106.462541 
L 554.887085 106.640831 
L 555.733951 106.552556 
L 558.274548 106.785157 
L 562.508878 106.58989 
L 563.355744 107.124039 
L 564.20261 107.092752 
L 565.049476 106.918219 
L 565.896342 106.874025 
L 567.590074 106.997022 
L 570.977538 106.929693 
L 573.518136 107.163301 
L 576.9056 107.051921 
L 578.599332 107.067652 
L 581.13993 106.938895 
L 581.986796 106.730784 
L 582.833662 106.657062 
L 587.914858 107.019699 
L 590.455456 107.188009 
L 592.996054 107.299725 
L 593.84292 107.366599 
L 599.770982 107.086941 
L 604.852178 107.163267 
L 605.699044 107.263566 
L 610.78024 107.279107 
L 612.473972 107.304279 
L 615.01457 107.285075 
L 616.708302 107.444225 
L 620.095766 107.301512 
L 621.789498 107.352022 
L 622.636364 107.233981 
L 622.636364 107.233981 
" clip-path="url(#pd7b7fdd58a)" style="fill: none; stroke: #e377c2; stroke-width: 1.5; stroke-linecap: square"/>
   </g>
   <g id="line2d_34">
    <path d="M 157.150326 361 
L 157.706936 358.119175 
L 160.247534 347.248236 
L 164.481864 330.574471 
L 167.022462 322.127167 
L 168.716194 317.127898 
L 169.56306 314.781977 
L 170.409926 313.665509 
L 173.79739 304.840033 
L 182.266049 285.950699 
L 184.806647 281.072267 
L 185.653513 279.643546 
L 186.500379 277.977326 
L 188.194111 274.991889 
L 191.581575 269.331044 
L 199.203369 258.649582 
L 200.050235 257.574149 
L 200.897101 244.825178 
L 201.743967 234.814354 
L 202.590833 228.978128 
L 205.131431 219.069159 
L 207.672029 206.440453 
L 208.518895 201.07779 
L 209.365761 197.875206 
L 210.212627 195.485186 
L 213.600091 187.861123 
L 216.140689 182.598355 
L 217.834421 180.539521 
L 218.681287 179.781216 
L 219.528153 178.515572 
L 225.456215 166.970159 
L 228.843679 160.063763 
L 229.690545 158.65644 
L 232.231143 155.345809 
L 234.771741 153.352985 
L 235.618607 152.924523 
L 239.006071 151.840614 
L 240.699803 151.6573 
L 241.546669 151.351705 
L 242.393535 151.21774 
L 243.240401 151.197793 
L 244.934133 150.666415 
L 247.474731 150.156646 
L 250.015329 149.889577 
L 252.555927 149.282755 
L 255.096525 148.464469 
L 255.94339 147.38041 
L 256.790256 146.997628 
L 261.024586 145.649534 
L 261.871452 145.316326 
L 262.718318 145.202101 
L 265.258916 144.236492 
L 266.105782 144.133252 
L 273.727576 142.19652 
L 275.421308 141.787353 
L 276.268174 141.516049 
L 277.11504 141.534663 
L 279.655638 140.569327 
L 281.34937 140.165689 
L 283.043102 139.890956 
L 284.736834 139.437201 
L 286.430566 138.756584 
L 287.277432 138.705553 
L 288.971164 138.181135 
L 289.81803 137.8796 
L 290.664896 137.739696 
L 294.05236 136.539693 
L 299.133556 134.552047 
L 299.980422 134.323652 
L 301.674154 133.585279 
L 306.75535 131.416185 
L 307.602216 131.142473 
L 308.449082 130.719801 
L 315.22401 128.745972 
L 316.070876 128.376348 
L 317.764608 127.948405 
L 318.611474 127.541217 
L 319.45834 127.315056 
L 320.305206 126.956016 
L 321.998938 126.436154 
L 324.539536 125.49875 
L 325.386402 125.277416 
L 326.233268 124.76906 
L 330.467598 123.562991 
L 332.161329 123.209155 
L 333.008195 122.85695 
L 334.701927 122.35369 
L 338.936257 120.999145 
L 339.783123 120.88115 
L 340.629989 120.544316 
L 349.098649 118.563998 
L 349.945515 118.553281 
L 351.639247 118.145008 
L 352.486113 118.093568 
L 354.179845 117.764127 
L 355.026711 117.649281 
L 356.720443 117.152319 
L 357.567309 117.032528 
L 358.414175 116.792775 
L 359.261041 116.742853 
L 364.342237 115.566907 
L 366.035969 115.215861 
L 371.117165 114.004608 
L 371.964031 113.992752 
L 376.198361 113.021748 
L 377.045227 113.05472 
L 379.585825 112.804812 
L 380.432691 112.827079 
L 383.820155 112.350869 
L 385.513887 112.081417 
L 388.054485 111.85138 
L 389.748217 111.714928 
L 390.595083 111.424637 
L 395.676279 110.960862 
L 398.216877 110.538906 
L 401.604341 110.204442 
L 403.298073 109.996369 
L 404.144939 110.038929 
L 405.838671 109.707093 
L 406.685537 109.530288 
L 416.001062 108.79672 
L 416.847928 108.62454 
L 417.694794 108.672383 
L 421.929124 108.41833 
L 424.469722 108.360449 
L 426.163454 108.190648 
L 432.091516 107.881073 
L 433.785248 107.78911 
L 441.407042 107.348261 
L 443.100774 107.362668 
L 445.641372 107.150305 
L 447.335104 107.136169 
L 449.028836 107.125061 
L 457.497496 106.882134 
L 460.038094 106.608851 
L 476.128548 105.968839 
L 477.82228 105.986315 
L 481.209744 105.65782 
L 483.750341 105.872886 
L 486.290939 105.775146 
L 487.984671 105.644178 
L 490.525269 105.536741 
L 502.381393 105.230421 
L 503.228259 105.122375 
L 504.921991 105.237222 
L 513.390651 104.927098 
L 515.931249 104.750564 
L 526.940507 104.989341 
L 527.787373 104.883157 
L 530.327971 104.807495 
L 535.409167 104.630932 
L 536.256033 104.777721 
L 538.796631 104.592417 
L 540.490363 104.575705 
L 542.184095 104.436448 
L 544.724693 104.632128 
L 546.418425 104.730056 
L 548.112157 104.819391 
L 548.959023 104.844519 
L 549.805889 104.668598 
L 550.652755 104.71361 
L 551.499621 104.575798 
L 559.121414 104.414266 
L 560.815146 104.238009 
L 567.590074 104.302496 
L 572.67127 104.219602 
L 573.518136 104.319806 
L 576.9056 104.208486 
L 579.446198 104.29006 
L 580.293064 104.350319 
L 581.13993 104.246814 
L 581.986796 104.391457 
L 585.37426 104.291561 
L 597.230384 103.866367 
L 598.924116 103.916116 
L 600.617848 103.942683 
L 605.699044 103.724541 
L 612.473972 103.247481 
L 613.320838 103.326659 
L 614.167704 103.173609 
L 618.402034 103.269895 
L 620.942632 103.287093 
L 622.636364 103.188579 
L 622.636364 103.188579 
" clip-path="url(#pd7b7fdd58a)" style="fill: none; stroke: #7f7f7f; stroke-width: 1.5; stroke-linecap: square"/>
   </g>
   <g id="patch_3">
    <path d="M 90 320.4 
L 90 43.2 
" style="fill: none; stroke: #000000; stroke-width: 0.8; stroke-linejoin: miter; stroke-linecap: square"/>
   </g>
   <g id="patch_4">
    <path d="M 648 320.4 
L 648 43.2 
" style="fill: none; stroke: #000000; stroke-width: 0.8; stroke-linejoin: miter; stroke-linecap: square"/>
   </g>
   <g id="patch_5">
    <path d="M 90 320.4 
L 648 320.4 
" style="fill: none; stroke: #000000; stroke-width: 0.8; stroke-linejoin: miter; stroke-linecap: square"/>
   </g>
   <g id="patch_6">
    <path d="M 90 43.2 
L 648 43.2 
" style="fill: none; stroke: #000000; stroke-width: 0.8; stroke-linejoin: miter; stroke-linecap: square"/>
   </g>
   <g id="legend_1">
    <g id="patch_7">
     <path d="M 97 170.85 
L 199.20625 170.85 
Q 201.20625 170.85 201.20625 168.85 
L 201.20625 50.2 
Q 201.20625 48.2 199.20625 48.2 
L 97 48.2 
Q 95 48.2 95 50.2 
L 95 168.85 
Q 95 170.85 97 170.85 
z
" style="fill: #ffffff; opacity: 0.8; stroke: #cccccc; stroke-linejoin: miter"/>
    </g>
    <g id="line2d_35">
     <path d="M 99 56.298437 
L 109 56.298437 
L 119 56.298437 
" style="fill: none; stroke: #1f77b4; stroke-width: 1.5; stroke-linecap: square"/>
    </g>
    <g id="text_16">
     <!-- ent_coef_0.2 -->
     <g transform="translate(127 59.798437)scale(0.1 -0.1)">
      <defs>
       <path id="DejaVuSans-6e" d="M 3513 2113 
L 3513 0 
L 2938 0 
L 2938 2094 
Q 2938 2591 2744 2837 
Q 2550 3084 2163 3084 
Q 1697 3084 1428 2787 
Q 1159 2491 1159 1978 
L 1159 0 
L 581 0 
L 581 3500 
L 1159 3500 
L 1159 2956 
Q 1366 3272 1645 3428 
Q 1925 3584 2291 3584 
Q 2894 3584 3203 3211 
Q 3513 2838 3513 2113 
z
" transform="scale(0.015625)"/>
       <path id="DejaVuSans-5f" d="M 3263 -1063 
L 3263 -1509 
L -63 -1509 
L -63 -1063 
L 3263 -1063 
z
" transform="scale(0.015625)"/>
       <path id="DejaVuSans-63" d="M 3122 3366 
L 3122 2828 
Q 2878 2963 2633 3030 
Q 2388 3097 2138 3097 
Q 1578 3097 1268 2742 
Q 959 2388 959 1747 
Q 959 1106 1268 751 
Q 1578 397 2138 397 
Q 2388 397 2633 464 
Q 2878 531 3122 666 
L 3122 134 
Q 2881 22 2623 -34 
Q 2366 -91 2075 -91 
Q 1284 -91 818 406 
Q 353 903 353 1747 
Q 353 2603 823 3093 
Q 1294 3584 2113 3584 
Q 2378 3584 2631 3529 
Q 2884 3475 3122 3366 
z
" transform="scale(0.015625)"/>
       <path id="DejaVuSans-2e" d="M 684 794 
L 1344 794 
L 1344 0 
L 684 0 
L 684 794 
z
" transform="scale(0.015625)"/>
      </defs>
      <use xlink:href="#DejaVuSans-65"/>
      <use xlink:href="#DejaVuSans-6e" x="61.523438"/>
      <use xlink:href="#DejaVuSans-74" x="124.902344"/>
      <use xlink:href="#DejaVuSans-5f" x="164.111328"/>
      <use xlink:href="#DejaVuSans-63" x="214.111328"/>
      <use xlink:href="#DejaVuSans-6f" x="269.091797"/>
      <use xlink:href="#DejaVuSans-65" x="330.273438"/>
      <use xlink:href="#DejaVuSans-66" x="391.796875"/>
      <use xlink:href="#DejaVuSans-5f" x="427.001953"/>
      <use xlink:href="#DejaVuSans-30" x="477.001953"/>
      <use xlink:href="#DejaVuSans-2e" x="540.625"/>
      <use xlink:href="#DejaVuSans-32" x="572.412109"/>
     </g>
    </g>
    <g id="line2d_36">
     <path d="M 99 71.254687 
L 109 71.254687 
L 119 71.254687 
" style="fill: none; stroke: #ff7f0e; stroke-width: 1.5; stroke-linecap: square"/>
    </g>
    <g id="text_17">
     <!-- ent_coef_0.5 -->
     <g transform="translate(127 74.754687)scale(0.1 -0.1)">
      <use xlink:href="#DejaVuSans-65"/>
      <use xlink:href="#DejaVuSans-6e" x="61.523438"/>
      <use xlink:href="#DejaVuSans-74" x="124.902344"/>
      <use xlink:href="#DejaVuSans-5f" x="164.111328"/>
      <use xlink:href="#DejaVuSans-63" x="214.111328"/>
      <use xlink:href="#DejaVuSans-6f" x="269.091797"/>
      <use xlink:href="#DejaVuSans-65" x="330.273438"/>
      <use xlink:href="#DejaVuSans-66" x="391.796875"/>
      <use xlink:href="#DejaVuSans-5f" x="427.001953"/>
      <use xlink:href="#DejaVuSans-30" x="477.001953"/>
      <use xlink:href="#DejaVuSans-2e" x="540.625"/>
      <use xlink:href="#DejaVuSans-35" x="572.412109"/>
     </g>
    </g>
    <g id="line2d_37">
     <path d="M 99 86.210938 
L 109 86.210938 
L 119 86.210938 
" style="fill: none; stroke: #2ca02c; stroke-width: 1.5; stroke-linecap: square"/>
    </g>
    <g id="text_18">
     <!-- ent_coef_1 -->
     <g transform="translate(127 89.710938)scale(0.1 -0.1)">
      <use xlink:href="#DejaVuSans-65"/>
      <use xlink:href="#DejaVuSans-6e" x="61.523438"/>
      <use xlink:href="#DejaVuSans-74" x="124.902344"/>
      <use xlink:href="#DejaVuSans-5f" x="164.111328"/>
      <use xlink:href="#DejaVuSans-63" x="214.111328"/>
      <use xlink:href="#DejaVuSans-6f" x="269.091797"/>
      <use xlink:href="#DejaVuSans-65" x="330.273438"/>
      <use xlink:href="#DejaVuSans-66" x="391.796875"/>
      <use xlink:href="#DejaVuSans-5f" x="427.001953"/>
      <use xlink:href="#DejaVuSans-31" x="477.001953"/>
     </g>
    </g>
    <g id="line2d_38">
     <path d="M 99 101.167187 
L 109 101.167187 
L 119 101.167187 
" style="fill: none; stroke: #d62728; stroke-width: 1.5; stroke-linecap: square"/>
    </g>
    <g id="text_19">
     <!-- ent_coef_1.75 -->
     <g transform="translate(127 104.667187)scale(0.1 -0.1)">
      <defs>
       <path id="DejaVuSans-37" d="M 525 4666 
L 3525 4666 
L 3525 4397 
L 1831 0 
L 1172 0 
L 2766 4134 
L 525 4134 
L 525 4666 
z
" transform="scale(0.015625)"/>
      </defs>
      <use xlink:href="#DejaVuSans-65"/>
      <use xlink:href="#DejaVuSans-6e" x="61.523438"/>
      <use xlink:href="#DejaVuSans-74" x="124.902344"/>
      <use xlink:href="#DejaVuSans-5f" x="164.111328"/>
      <use xlink:href="#DejaVuSans-63" x="214.111328"/>
      <use xlink:href="#DejaVuSans-6f" x="269.091797"/>
      <use xlink:href="#DejaVuSans-65" x="330.273438"/>
      <use xlink:href="#DejaVuSans-66" x="391.796875"/>
      <use xlink:href="#DejaVuSans-5f" x="427.001953"/>
      <use xlink:href="#DejaVuSans-31" x="477.001953"/>
      <use xlink:href="#DejaVuSans-2e" x="540.625"/>
      <use xlink:href="#DejaVuSans-37" x="572.412109"/>
      <use xlink:href="#DejaVuSans-35" x="636.035156"/>
     </g>
    </g>
    <g id="line2d_39">
     <path d="M 99 116.123437 
L 109 116.123437 
L 119 116.123437 
" style="fill: none; stroke: #9467bd; stroke-width: 1.5; stroke-linecap: square"/>
    </g>
    <g id="text_20">
     <!-- ent_coef_2.5 -->
     <g transform="translate(127 119.623437)scale(0.1 -0.1)">
      <use xlink:href="#DejaVuSans-65"/>
      <use xlink:href="#DejaVuSans-6e" x="61.523438"/>
      <use xlink:href="#DejaVuSans-74" x="124.902344"/>
      <use xlink:href="#DejaVuSans-5f" x="164.111328"/>
      <use xlink:href="#DejaVuSans-63" x="214.111328"/>
      <use xlink:href="#DejaVuSans-6f" x="269.091797"/>
      <use xlink:href="#DejaVuSans-65" x="330.273438"/>
      <use xlink:href="#DejaVuSans-66" x="391.796875"/>
      <use xlink:href="#DejaVuSans-5f" x="427.001953"/>
      <use xlink:href="#DejaVuSans-32" x="477.001953"/>
      <use xlink:href="#DejaVuSans-2e" x="540.625"/>
      <use xlink:href="#DejaVuSans-35" x="572.412109"/>
     </g>
    </g>
    <g id="line2d_40">
     <path d="M 99 131.079687 
L 109 131.079687 
L 119 131.079687 
" style="fill: none; stroke: #8c564b; stroke-width: 1.5; stroke-linecap: square"/>
    </g>
    <g id="text_21">
     <!-- ent_coef_4 -->
     <g transform="translate(127 134.579687)scale(0.1 -0.1)">
      <use xlink:href="#DejaVuSans-65"/>
      <use xlink:href="#DejaVuSans-6e" x="61.523438"/>
      <use xlink:href="#DejaVuSans-74" x="124.902344"/>
      <use xlink:href="#DejaVuSans-5f" x="164.111328"/>
      <use xlink:href="#DejaVuSans-63" x="214.111328"/>
      <use xlink:href="#DejaVuSans-6f" x="269.091797"/>
      <use xlink:href="#DejaVuSans-65" x="330.273438"/>
      <use xlink:href="#DejaVuSans-66" x="391.796875"/>
      <use xlink:href="#DejaVuSans-5f" x="427.001953"/>
      <use xlink:href="#DejaVuSans-34" x="477.001953"/>
     </g>
    </g>
    <g id="line2d_41">
     <path d="M 99 146.035937 
L 109 146.035937 
L 119 146.035937 
" style="fill: none; stroke: #e377c2; stroke-width: 1.5; stroke-linecap: square"/>
    </g>
    <g id="text_22">
     <!-- ent_coef_auto -->
     <g transform="translate(127 149.535937)scale(0.1 -0.1)">
      <defs>
       <path id="DejaVuSans-61" d="M 2194 1759 
Q 1497 1759 1228 1600 
Q 959 1441 959 1056 
Q 959 750 1161 570 
Q 1363 391 1709 391 
Q 2188 391 2477 730 
Q 2766 1069 2766 1631 
L 2766 1759 
L 2194 1759 
z
M 3341 1997 
L 3341 0 
L 2766 0 
L 2766 531 
Q 2569 213 2275 61 
Q 1981 -91 1556 -91 
Q 1019 -91 701 211 
Q 384 513 384 1019 
Q 384 1609 779 1909 
Q 1175 2209 1959 2209 
L 2766 2209 
L 2766 2266 
Q 2766 2663 2505 2880 
Q 2244 3097 1772 3097 
Q 1472 3097 1187 3025 
Q 903 2953 641 2809 
L 641 3341 
Q 956 3463 1253 3523 
Q 1550 3584 1831 3584 
Q 2591 3584 2966 3190 
Q 3341 2797 3341 1997 
z
" transform="scale(0.015625)"/>
       <path id="DejaVuSans-75" d="M 544 1381 
L 544 3500 
L 1119 3500 
L 1119 1403 
Q 1119 906 1312 657 
Q 1506 409 1894 409 
Q 2359 409 2629 706 
Q 2900 1003 2900 1516 
L 2900 3500 
L 3475 3500 
L 3475 0 
L 2900 0 
L 2900 538 
Q 2691 219 2414 64 
Q 2138 -91 1772 -91 
Q 1169 -91 856 284 
Q 544 659 544 1381 
z
M 1991 3584 
L 1991 3584 
z
" transform="scale(0.015625)"/>
      </defs>
      <use xlink:href="#DejaVuSans-65"/>
      <use xlink:href="#DejaVuSans-6e" x="61.523438"/>
      <use xlink:href="#DejaVuSans-74" x="124.902344"/>
      <use xlink:href="#DejaVuSans-5f" x="164.111328"/>
      <use xlink:href="#DejaVuSans-63" x="214.111328"/>
      <use xlink:href="#DejaVuSans-6f" x="269.091797"/>
      <use xlink:href="#DejaVuSans-65" x="330.273438"/>
      <use xlink:href="#DejaVuSans-66" x="391.796875"/>
      <use xlink:href="#DejaVuSans-5f" x="427.001953"/>
      <use xlink:href="#DejaVuSans-61" x="477.001953"/>
      <use xlink:href="#DejaVuSans-75" x="538.28125"/>
      <use xlink:href="#DejaVuSans-74" x="601.660156"/>
      <use xlink:href="#DejaVuSans-6f" x="640.869141"/>
     </g>
    </g>
    <g id="line2d_42">
     <path d="M 99 160.992187 
L 109 160.992187 
L 119 160.992187 
" style="fill: none; stroke: #7f7f7f; stroke-width: 1.5; stroke-linecap: square"/>
    </g>
    <g id="text_23">
     <!-- ent_coef_auto -->
     <g transform="translate(127 164.492187)scale(0.1 -0.1)">
      <use xlink:href="#DejaVuSans-65"/>
      <use xlink:href="#DejaVuSans-6e" x="61.523438"/>
      <use xlink:href="#DejaVuSans-74" x="124.902344"/>
      <use xlink:href="#DejaVuSans-5f" x="164.111328"/>
      <use xlink:href="#DejaVuSans-63" x="214.111328"/>
      <use xlink:href="#DejaVuSans-6f" x="269.091797"/>
      <use xlink:href="#DejaVuSans-65" x="330.273438"/>
      <use xlink:href="#DejaVuSans-66" x="391.796875"/>
      <use xlink:href="#DejaVuSans-5f" x="427.001953"/>
      <use xlink:href="#DejaVuSans-61" x="477.001953"/>
      <use xlink:href="#DejaVuSans-75" x="538.28125"/>
      <use xlink:href="#DejaVuSans-74" x="601.660156"/>
      <use xlink:href="#DejaVuSans-6f" x="640.869141"/>
     </g>
    </g>
   </g>
  </g>
 </g>
 <defs>
  <clipPath id="pd7b7fdd58a">
   <rect x="90" y="43.2" width="558" height="277.2"/>
  </clipPath>
 </defs>
</svg>
